<?xml version="1.0" encoding="UTF-8" standalone="no"?>
<!DOCTYPE svg PUBLIC "-//W3C//DTD SVG 1.1//EN"
 "http://www.w3.org/Graphics/SVG/1.1/DTD/svg11.dtd">
<!-- Generated by graphviz version 2.43.0 (0)
 -->
<!-- Title: lib/chromosome/include/genixx/chromosome/Chromosome.h Pages: 1 -->
<svg width="532pt" height="302pt"
 viewBox="0.00 0.00 531.50 302.00" xmlns="http://www.w3.org/2000/svg" xmlns:xlink="http://www.w3.org/1999/xlink">
<g id="graph0" class="graph" transform="scale(1 1) rotate(0) translate(4 298)">
<title>lib/chromosome/include/genixx/chromosome/Chromosome.h</title>
<!-- Node1 -->
<g id="node1" class="node">
<title>Node1</title>
<g id="a_node1"><a xlink:title=" ">
<polygon fill="#999999" stroke="#666666" points="327.5,-294 130.5,-294 130.5,-264 327.5,-264 327.5,-294"/>
<text text-anchor="start" x="138.5" y="-282" font-family="Helvetica,sans-Serif" font-size="10.00">lib/chromosome/include</text>
<text text-anchor="middle" x="229" y="-271" font-family="Helvetica,sans-Serif" font-size="10.00">/genixx/chromosome/Chromosome.h</text>
</a>
</g>
</g>
<!-- Node2 -->
<g id="node2" class="node">
<title>Node2</title>
<g id="a_node2"><a xlink:href="NumericChromosome_8h.html" target="_top" xlink:title=" ">
<polygon fill="white" stroke="#666666" points="238,-228 0,-228 0,-198 238,-198 238,-228"/>
<text text-anchor="start" x="8" y="-216" font-family="Helvetica,sans-Serif" font-size="10.00">lib/chromosome/include</text>
<text text-anchor="middle" x="119" y="-205" font-family="Helvetica,sans-Serif" font-size="10.00">/genixx/chromosome/NumericChromosome.h</text>
</a>
</g>
</g>
<!-- Node1&#45;&gt;Node2 -->
<g id="edge1" class="edge">
<title>Node1&#45;&gt;Node2</title>
<path fill="none" stroke="#63b8ff" d="M195.82,-258.69C178.84,-248.82 158.55,-237.01 143.08,-228.01"/>
<polygon fill="#63b8ff" stroke="#63b8ff" points="194.46,-261.95 204.86,-263.95 197.98,-255.9 194.46,-261.95"/>
</g>
<!-- Node3 -->
<g id="node3" class="node">
<title>Node3</title>
<g id="a_node3"><a xlink:href="Individual_8h.html" target="_top" xlink:title=" ">
<polygon fill="white" stroke="#666666" points="423.5,-228 256.5,-228 256.5,-198 423.5,-198 423.5,-228"/>
<text text-anchor="start" x="264.5" y="-216" font-family="Helvetica,sans-Serif" font-size="10.00">lib/population/include</text>
<text text-anchor="middle" x="340" y="-205" font-family="Helvetica,sans-Serif" font-size="10.00">/genixx/population/Individual.h</text>
</a>
</g>
</g>
<!-- Node1&#45;&gt;Node3 -->
<g id="edge2" class="edge">
<title>Node1&#45;&gt;Node3</title>
<path fill="none" stroke="#63b8ff" d="M262.48,-258.69C279.62,-248.82 300.09,-237.01 315.7,-228.01"/>
<polygon fill="#63b8ff" stroke="#63b8ff" points="260.27,-255.93 253.36,-263.95 263.77,-261.99 260.27,-255.93"/>
</g>
<!-- Node4 -->
<g id="node4" class="node">
<title>Node4</title>
<g id="a_node4"><a xlink:href="Individual_8cpp.html" target="_top" xlink:title=" ">
<polygon fill="white" stroke="#666666" points="311.5,-151 156.5,-151 156.5,-132 311.5,-132 311.5,-151"/>
<text text-anchor="middle" x="234" y="-139" font-family="Helvetica,sans-Serif" font-size="10.00">lib/population/Individual.cpp</text>
</a>
</g>
</g>
<!-- Node3&#45;&gt;Node4 -->
<g id="edge3" class="edge">
<title>Node3&#45;&gt;Node4</title>
<path fill="none" stroke="#63b8ff" d="M310.06,-192.37C289.3,-178.76 262.68,-161.31 247.07,-151.07"/>
<polygon fill="#63b8ff" stroke="#63b8ff" points="308.27,-195.38 318.55,-197.94 312.11,-189.53 308.27,-195.38"/>
</g>
<!-- Node5 -->
<g id="node5" class="node">
<title>Node5</title>
<g id="a_node5"><a xlink:href="Population_8h.html" target="_top" xlink:title=" ">
<polygon fill="white" stroke="#666666" points="478.5,-85 307.5,-85 307.5,-55 478.5,-55 478.5,-85"/>
<text text-anchor="start" x="315.5" y="-73" font-family="Helvetica,sans-Serif" font-size="10.00">lib/population/include</text>
<text text-anchor="middle" x="393" y="-62" font-family="Helvetica,sans-Serif" font-size="10.00">/genixx/population/Population.h</text>
</a>
</g>
</g>
<!-- Node3&#45;&gt;Node5 -->
<g id="edge4" class="edge">
<title>Node3&#45;&gt;Node5</title>
<path fill="none" stroke="#63b8ff" d="M342.84,-187.87C345.63,-169.09 350.84,-142.67 360,-121 365.51,-107.97 374.48,-94.67 381.67,-85.07"/>
<polygon fill="#63b8ff" stroke="#63b8ff" points="339.35,-187.57 341.47,-197.95 346.29,-188.52 339.35,-187.57"/>
</g>
<!-- Node7 -->
<g id="node7" class="node">
<title>Node7</title>
<g id="a_node7"><a xlink:href="method_8h.html" target="_top" xlink:title=" ">
<polygon fill="white" stroke="#666666" points="523.5,-162 368.5,-162 368.5,-121 523.5,-121 523.5,-162"/>
<text text-anchor="start" x="376.5" y="-150" font-family="Helvetica,sans-Serif" font-size="10.00">lib/population/include</text>
<text text-anchor="start" x="376.5" y="-139" font-family="Helvetica,sans-Serif" font-size="10.00">/genixx/population/selection</text>
<text text-anchor="middle" x="446" y="-128" font-family="Helvetica,sans-Serif" font-size="10.00">/method.h</text>
</a>
</g>
</g>
<!-- Node3&#45;&gt;Node7 -->
<g id="edge6" class="edge">
<title>Node3&#45;&gt;Node7</title>
<path fill="none" stroke="#63b8ff" d="M370.03,-192.31C384.47,-182.84 401.73,-171.53 416.15,-162.07"/>
<polygon fill="#63b8ff" stroke="#63b8ff" points="367.89,-189.53 361.45,-197.94 371.73,-195.38 367.89,-189.53"/>
</g>
<!-- Node6 -->
<g id="node6" class="node">
<title>Node6</title>
<g id="a_node6"><a xlink:href="Population_8cpp.html" target="_top" xlink:title=" ">
<polygon fill="white" stroke="#666666" points="472,-19 314,-19 314,0 472,0 472,-19"/>
<text text-anchor="middle" x="393" y="-7" font-family="Helvetica,sans-Serif" font-size="10.00">lib/population/Population.cpp</text>
</a>
</g>
</g>
<!-- Node5&#45;&gt;Node6 -->
<g id="edge5" class="edge">
<title>Node5&#45;&gt;Node6</title>
<path fill="none" stroke="#63b8ff" d="M393,-44.75C393,-35.72 393,-26.03 393,-19.27"/>
<polygon fill="#63b8ff" stroke="#63b8ff" points="389.5,-44.84 393,-54.84 396.5,-44.84 389.5,-44.84"/>
</g>
<!-- Node7&#45;&gt;Node5 -->
<g id="edge7" class="edge">
<title>Node7&#45;&gt;Node5</title>
<path fill="none" stroke="#63b8ff" d="M424.79,-112.69C417.55,-103.19 409.76,-92.98 403.71,-85.04"/>
<polygon fill="#63b8ff" stroke="#63b8ff" points="422.11,-114.94 430.95,-120.77 427.67,-110.7 422.11,-114.94"/>
</g>
</g>
</svg>
