<?xml version="1.0" encoding="UTF-8" standalone="no"?>
<!DOCTYPE svg PUBLIC "-//W3C//DTD SVG 1.1//EN"
 "http://www.w3.org/Graphics/SVG/1.1/DTD/svg11.dtd">
<!-- Generated by graphviz version 2.43.0 (0)
 -->
<!-- Title: lib/chromosome/include/genixx/chromosome/Chromosome.h Pages: 1 -->
<svg width="604pt" height="203pt"
 viewBox="0.00 0.00 604.00 203.00" xmlns="http://www.w3.org/2000/svg" xmlns:xlink="http://www.w3.org/1999/xlink">
<g id="graph0" class="graph" transform="scale(1 1) rotate(0) translate(4 199)">
<title>lib/chromosome/include/genixx/chromosome/Chromosome.h</title>
<!-- Node1 -->
<g id="node1" class="node">
<title>Node1</title>
<g id="a_node1"><a xlink:title=" ">
<polygon fill="#999999" stroke="#666666" points="524,-195 327,-195 327,-165 524,-165 524,-195"/>
<text text-anchor="start" x="335" y="-183" font-family="Helvetica,sans-Serif" font-size="10.00">lib/chromosome/include</text>
<text text-anchor="middle" x="425.5" y="-172" font-family="Helvetica,sans-Serif" font-size="10.00">/genixx/chromosome/Chromosome.h</text>
</a>
</g>
</g>
<!-- Node2 -->
<g id="node2" class="node">
<title>Node2</title>
<g id="a_node2"><a xlink:href="exceptions_8h.html" target="_top" xlink:title=" ">
<polygon fill="white" stroke="#666666" points="141,-74 0,-74 0,-55 141,-55 141,-74"/>
<text text-anchor="middle" x="70.5" y="-62" font-family="Helvetica,sans-Serif" font-size="10.00">genixx/error/exceptions.h</text>
</a>
</g>
</g>
<!-- Node1&#45;&gt;Node2 -->
<g id="edge1" class="edge">
<title>Node1&#45;&gt;Node2</title>
<path fill="none" stroke="#63b8ff" d="M370.83,-164.99C334.98,-155.51 287.2,-142.34 245.5,-129 194.79,-112.78 136.87,-91.14 102.03,-77.77"/>
<polygon fill="#63b8ff" stroke="#63b8ff" points="103,-74.4 92.41,-74.07 100.49,-80.93 103,-74.4"/>
</g>
<!-- Node5 -->
<g id="node5" class="node">
<title>Node5</title>
<g id="a_node5"><a xlink:href="random_8h.html" target="_top" xlink:title=" ">
<polygon fill="white" stroke="#666666" points="378,-129 255,-129 255,-110 378,-110 378,-129"/>
<text text-anchor="middle" x="316.5" y="-117" font-family="Helvetica,sans-Serif" font-size="10.00">genixx/utils/random.h</text>
</a>
</g>
</g>
<!-- Node1&#45;&gt;Node5 -->
<g id="edge4" class="edge">
<title>Node1&#45;&gt;Node5</title>
<path fill="none" stroke="#63b8ff" d="M399.39,-164.99C381.86,-155.58 358.88,-143.24 341.56,-133.95"/>
<polygon fill="#63b8ff" stroke="#63b8ff" points="343.06,-130.78 332.6,-129.14 339.75,-136.95 343.06,-130.78"/>
</g>
<!-- Node8 -->
<g id="node8" class="node">
<title>Node8</title>
<g id="a_node8"><a xlink:title=" ">
<polygon fill="#e0e0e0" stroke="#999999" points="431.5,-74 381.5,-74 381.5,-55 431.5,-55 431.5,-74"/>
<text text-anchor="middle" x="406.5" y="-62" font-family="Helvetica,sans-Serif" font-size="10.00">cstdint</text>
</a>
</g>
</g>
<!-- Node1&#45;&gt;Node8 -->
<g id="edge11" class="edge">
<title>Node1&#45;&gt;Node8</title>
<path fill="none" stroke="#63b8ff" d="M423.09,-164.63C419.68,-144.21 413.42,-106.81 409.64,-84.24"/>
<polygon fill="#63b8ff" stroke="#63b8ff" points="413.06,-83.51 407.96,-74.23 406.16,-84.67 413.06,-83.51"/>
</g>
<!-- Node10 -->
<g id="node10" class="node">
<title>Node10</title>
<g id="a_node10"><a xlink:title=" ">
<polygon fill="#e0e0e0" stroke="#999999" points="519,-74 450,-74 450,-55 519,-55 519,-74"/>
<text text-anchor="middle" x="484.5" y="-62" font-family="Helvetica,sans-Serif" font-size="10.00">type_traits</text>
</a>
</g>
</g>
<!-- Node1&#45;&gt;Node10 -->
<g id="edge13" class="edge">
<title>Node1&#45;&gt;Node10</title>
<path fill="none" stroke="#63b8ff" d="M432.97,-164.63C443.73,-143.93 463.56,-105.78 475.23,-83.32"/>
<polygon fill="#63b8ff" stroke="#63b8ff" points="478.46,-84.72 479.96,-74.23 472.24,-81.49 478.46,-84.72"/>
</g>
<!-- Node11 -->
<g id="node11" class="node">
<title>Node11</title>
<g id="a_node11"><a xlink:title=" ">
<polygon fill="#e0e0e0" stroke="#999999" points="530.5,-129 472.5,-129 472.5,-110 530.5,-110 530.5,-129"/>
<text text-anchor="middle" x="501.5" y="-117" font-family="Helvetica,sans-Serif" font-size="10.00">memory</text>
</a>
</g>
</g>
<!-- Node1&#45;&gt;Node11 -->
<g id="edge12" class="edge">
<title>Node1&#45;&gt;Node11</title>
<path fill="none" stroke="#63b8ff" d="M443.9,-164.84C455.38,-156 470.15,-144.63 481.86,-135.62"/>
<polygon fill="#63b8ff" stroke="#63b8ff" points="484.32,-138.14 490.11,-129.27 480.05,-132.59 484.32,-138.14"/>
</g>
<!-- Node12 -->
<g id="node12" class="node">
<title>Node12</title>
<g id="a_node12"><a xlink:title=" ">
<polygon fill="#e0e0e0" stroke="#999999" points="596,-129 549,-129 549,-110 596,-110 596,-129"/>
<text text-anchor="middle" x="572.5" y="-117" font-family="Helvetica,sans-Serif" font-size="10.00">vector</text>
</a>
</g>
</g>
<!-- Node1&#45;&gt;Node12 -->
<g id="edge14" class="edge">
<title>Node1&#45;&gt;Node12</title>
<path fill="none" stroke="#63b8ff" d="M460.71,-164.99C485.24,-155.23 517.65,-142.33 541.26,-132.93"/>
<polygon fill="#63b8ff" stroke="#63b8ff" points="542.79,-136.09 550.79,-129.14 540.21,-129.58 542.79,-136.09"/>
</g>
<!-- Node3 -->
<g id="node3" class="node">
<title>Node3</title>
<g id="a_node3"><a xlink:title=" ">
<polygon fill="#e0e0e0" stroke="#999999" points="67,-19 2,-19 2,0 67,0 67,-19"/>
<text text-anchor="middle" x="34.5" y="-7" font-family="Helvetica,sans-Serif" font-size="10.00">exception</text>
</a>
</g>
</g>
<!-- Node2&#45;&gt;Node3 -->
<g id="edge2" class="edge">
<title>Node2&#45;&gt;Node3</title>
<path fill="none" stroke="#63b8ff" d="M64.56,-54.75C59.52,-47.34 52.16,-36.5 45.99,-27.41"/>
<polygon fill="#63b8ff" stroke="#63b8ff" points="48.85,-25.39 40.33,-19.09 43.06,-29.33 48.85,-25.39"/>
</g>
<!-- Node4 -->
<g id="node4" class="node">
<title>Node4</title>
<g id="a_node4"><a xlink:title=" ">
<polygon fill="#e0e0e0" stroke="#999999" points="129.5,-19 85.5,-19 85.5,0 129.5,0 129.5,-19"/>
<text text-anchor="middle" x="107.5" y="-7" font-family="Helvetica,sans-Serif" font-size="10.00">string</text>
</a>
</g>
</g>
<!-- Node2&#45;&gt;Node4 -->
<g id="edge3" class="edge">
<title>Node2&#45;&gt;Node4</title>
<path fill="none" stroke="#63b8ff" d="M76.61,-54.75C81.78,-47.34 89.35,-36.5 95.69,-27.41"/>
<polygon fill="#63b8ff" stroke="#63b8ff" points="98.65,-29.29 101.5,-19.09 92.91,-25.29 98.65,-29.29"/>
</g>
<!-- Node5&#45;&gt;Node2 -->
<g id="edge5" class="edge">
<title>Node5&#45;&gt;Node2</title>
<path fill="none" stroke="#63b8ff" d="M276.98,-109.98C234.33,-100.8 166.35,-86.15 120.14,-76.19"/>
<polygon fill="#63b8ff" stroke="#63b8ff" points="120.85,-72.77 110.33,-74.08 119.37,-79.61 120.85,-72.77"/>
</g>
<!-- Node6 -->
<g id="node6" class="node">
<title>Node6</title>
<g id="a_node6"><a xlink:title=" ">
<polygon fill="#e0e0e0" stroke="#999999" points="226,-74 159,-74 159,-55 226,-55 226,-74"/>
<text text-anchor="middle" x="192.5" y="-62" font-family="Helvetica,sans-Serif" font-size="10.00">fmt/core.h</text>
</a>
</g>
</g>
<!-- Node5&#45;&gt;Node6 -->
<g id="edge6" class="edge">
<title>Node5&#45;&gt;Node6</title>
<path fill="none" stroke="#63b8ff" d="M296.58,-109.98C276.45,-101.38 245.12,-87.99 222.09,-78.15"/>
<polygon fill="#63b8ff" stroke="#63b8ff" points="223.36,-74.88 212.79,-74.17 220.6,-81.32 223.36,-74.88"/>
</g>
<!-- Node7 -->
<g id="node7" class="node">
<title>Node7</title>
<g id="a_node7"><a xlink:title=" ">
<polygon fill="#e0e0e0" stroke="#999999" points="291,-74 244,-74 244,-55 291,-55 291,-74"/>
<text text-anchor="middle" x="267.5" y="-62" font-family="Helvetica,sans-Serif" font-size="10.00">cmath</text>
</a>
</g>
</g>
<!-- Node5&#45;&gt;Node7 -->
<g id="edge7" class="edge">
<title>Node5&#45;&gt;Node7</title>
<path fill="none" stroke="#63b8ff" d="M308.41,-109.75C301.34,-102.11 290.91,-90.82 282.35,-81.56"/>
<polygon fill="#63b8ff" stroke="#63b8ff" points="284.8,-79.06 275.44,-74.09 279.66,-83.81 284.8,-79.06"/>
</g>
<!-- Node5&#45;&gt;Node8 -->
<g id="edge8" class="edge">
<title>Node5&#45;&gt;Node8</title>
<path fill="none" stroke="#63b8ff" d="M330.96,-109.98C344.92,-101.77 366.29,-89.18 382.75,-79.49"/>
<polygon fill="#63b8ff" stroke="#63b8ff" points="384.94,-82.26 391.78,-74.17 381.38,-76.23 384.94,-82.26"/>
</g>
<!-- Node9 -->
<g id="node9" class="node">
<title>Node9</title>
<g id="a_node9"><a xlink:title=" ">
<polygon fill="#e0e0e0" stroke="#999999" points="363.5,-74 309.5,-74 309.5,-55 363.5,-55 363.5,-74"/>
<text text-anchor="middle" x="336.5" y="-62" font-family="Helvetica,sans-Serif" font-size="10.00">random</text>
</a>
</g>
</g>
<!-- Node5&#45;&gt;Node9 -->
<g id="edge9" class="edge">
<title>Node5&#45;&gt;Node9</title>
<path fill="none" stroke="#63b8ff" d="M319.8,-109.75C322.48,-102.65 326.35,-92.4 329.69,-83.56"/>
<polygon fill="#63b8ff" stroke="#63b8ff" points="333,-84.68 333.26,-74.09 326.45,-82.21 333,-84.68"/>
</g>
<!-- Node5&#45;&gt;Node10 -->
<g id="edge10" class="edge">
<title>Node5&#45;&gt;Node10</title>
<path fill="none" stroke="#63b8ff" d="M343.49,-109.98C371.7,-101.09 416.14,-87.07 447.58,-77.15"/>
<polygon fill="#63b8ff" stroke="#63b8ff" points="448.81,-80.43 457.3,-74.08 446.71,-73.75 448.81,-80.43"/>
</g>
</g>
</svg>
