<?xml version="1.0" encoding="UTF-8" standalone="no"?>
<!DOCTYPE svg PUBLIC "-//W3C//DTD SVG 1.1//EN"
 "http://www.w3.org/Graphics/SVG/1.1/DTD/svg11.dtd">
<!-- Generated by graphviz version 2.43.0 (0)
 -->
<!-- Title: genixx::NumericChromosome&lt; Numeric, typename &gt; Pages: 1 -->
<svg width="344pt" height="555pt"
 viewBox="0.00 0.00 343.50 555.00" xmlns="http://www.w3.org/2000/svg" xmlns:xlink="http://www.w3.org/1999/xlink">
<g id="graph0" class="graph" transform="scale(1 1) rotate(0) translate(4 551)">
<title>genixx::NumericChromosome&lt; Numeric, typename &gt;</title>
<!-- Node1 -->
<g id="node1" class="node">
<title>Node1</title>
<g id="a_node1"><a xlink:title=" ">
<polygon fill="#999999" stroke="#666666" points="298,-118 130,-118 130,0 298,0 298,-118"/>
<text text-anchor="start" x="138" y="-106" font-family="Helvetica,sans-Serif" font-size="10.00">{genixx::NumericChromosome</text>
<text text-anchor="middle" x="214" y="-95" font-family="Helvetica,sans-Serif" font-size="10.00">&lt; Numeric, typename &gt;</text>
<text text-anchor="start" x="138" y="-84" font-family="Helvetica,sans-Serif" font-size="10.00">||+ NumericChromosome()</text>
<text text-anchor="start" x="138" y="-73" font-family="Helvetica,sans-Serif" font-size="10.00">+ mutate()</text>
<text text-anchor="start" x="138" y="-62" font-family="Helvetica,sans-Serif" font-size="10.00">+ phenotype()</text>
<text text-anchor="start" x="138" y="-51" font-family="Helvetica,sans-Serif" font-size="10.00">+ copy()</text>
<text text-anchor="start" x="138" y="-40" font-family="Helvetica,sans-Serif" font-size="10.00">+ operator==()</text>
<text text-anchor="start" x="138" y="-29" font-family="Helvetica,sans-Serif" font-size="10.00">+ operator!=()</text>
<text text-anchor="start" x="138" y="-18" font-family="Helvetica,sans-Serif" font-size="10.00">+ random()</text>
<text text-anchor="middle" x="214" y="-7" font-family="Helvetica,sans-Serif" font-size="10.00">}</text>
</a>
</g>
</g>
<!-- Node2 -->
<g id="node2" class="node">
<title>Node2</title>
<g id="a_node2"><a xlink:href="classgenixx_1_1Chromosome.html" target="_top" xlink:title=" ">
<polygon fill="white" stroke="#666666" points="220.5,-261 93.5,-261 93.5,-176 220.5,-176 220.5,-261"/>
<text text-anchor="start" x="101.5" y="-249" font-family="Helvetica,sans-Serif" font-size="10.00">{genixx::Chromosome</text>
<text text-anchor="middle" x="157" y="-238" font-family="Helvetica,sans-Serif" font-size="10.00">&lt; bool, Numeric &gt;</text>
<text text-anchor="start" x="101.5" y="-227" font-family="Helvetica,sans-Serif" font-size="10.00">||+ Chromosome()</text>
<text text-anchor="start" x="101.5" y="-216" font-family="Helvetica,sans-Serif" font-size="10.00">+ cross()</text>
<text text-anchor="start" x="101.5" y="-205" font-family="Helvetica,sans-Serif" font-size="10.00">+ phenotype()</text>
<text text-anchor="start" x="101.5" y="-194" font-family="Helvetica,sans-Serif" font-size="10.00">+ length()</text>
<text text-anchor="middle" x="157" y="-183" font-family="Helvetica,sans-Serif" font-size="10.00">}</text>
</a>
</g>
</g>
<!-- Node2&#45;&gt;Node1 -->
<g id="edge1" class="edge">
<title>Node2&#45;&gt;Node1</title>
<path fill="none" stroke="#63b8ff" d="M175.66,-165.95C181.17,-150.71 187.25,-133.92 192.9,-118.29"/>
<polygon fill="none" stroke="#63b8ff" points="172.24,-165.11 172.13,-175.71 178.82,-167.49 172.24,-165.11"/>
</g>
<!-- Node3 -->
<g id="node3" class="node">
<title>Node3</title>
<g id="a_node3"><a xlink:href="classgenixx_1_1IChromosome.html" target="_top" xlink:title=" ">
<polygon fill="white" stroke="#666666" points="130,-547 0,-547 0,-440 130,-440 130,-547"/>
<text text-anchor="middle" x="65" y="-535" font-family="Helvetica,sans-Serif" font-size="10.00">{genixx::IChromosome</text>
<text text-anchor="start" x="8" y="-524" font-family="Helvetica,sans-Serif" font-size="10.00">||+ ~IChromosome()</text>
<text text-anchor="start" x="8" y="-513" font-family="Helvetica,sans-Serif" font-size="10.00">+ mutate()</text>
<text text-anchor="start" x="8" y="-502" font-family="Helvetica,sans-Serif" font-size="10.00">+ length()</text>
<text text-anchor="start" x="8" y="-491" font-family="Helvetica,sans-Serif" font-size="10.00">+ copy()</text>
<text text-anchor="start" x="8" y="-480" font-family="Helvetica,sans-Serif" font-size="10.00">+ cross()</text>
<text text-anchor="start" x="8" y="-469" font-family="Helvetica,sans-Serif" font-size="10.00">+ operator==()</text>
<text text-anchor="start" x="8" y="-458" font-family="Helvetica,sans-Serif" font-size="10.00">+ operator!=()</text>
<text text-anchor="middle" x="65" y="-447" font-family="Helvetica,sans-Serif" font-size="10.00">}</text>
</a>
</g>
</g>
<!-- Node3&#45;&gt;Node2 -->
<g id="edge2" class="edge">
<title>Node3&#45;&gt;Node2</title>
<path fill="none" stroke="#63b8ff" d="M62.56,-429.52C63.28,-392.79 67.99,-346.29 84,-308 91.07,-291.1 102.49,-274.91 114.21,-261.11"/>
<polygon fill="none" stroke="#63b8ff" points="59.06,-429.58 62.45,-439.61 66.05,-429.65 59.06,-429.58"/>
</g>
<!-- Node5 -->
<g id="node5" class="node">
<title>Node5</title>
<g id="a_node5"><a xlink:href="classgenixx_1_1Chromosome.html" target="_top" xlink:title=" ">
<polygon fill="white" stroke="#666666" points="220.5,-393 93.5,-393 93.5,-308 220.5,-308 220.5,-393"/>
<text text-anchor="start" x="101.5" y="-381" font-family="Helvetica,sans-Serif" font-size="10.00">{genixx::Chromosome</text>
<text text-anchor="middle" x="157" y="-370" font-family="Helvetica,sans-Serif" font-size="10.00">&lt; Gene, Phenotype &gt;</text>
<text text-anchor="start" x="101.5" y="-359" font-family="Helvetica,sans-Serif" font-size="10.00">||+ Chromosome()</text>
<text text-anchor="start" x="101.5" y="-348" font-family="Helvetica,sans-Serif" font-size="10.00">+ cross()</text>
<text text-anchor="start" x="101.5" y="-337" font-family="Helvetica,sans-Serif" font-size="10.00">+ phenotype()</text>
<text text-anchor="start" x="101.5" y="-326" font-family="Helvetica,sans-Serif" font-size="10.00">+ length()</text>
<text text-anchor="middle" x="157" y="-315" font-family="Helvetica,sans-Serif" font-size="10.00">}</text>
</a>
</g>
</g>
<!-- Node3&#45;&gt;Node5 -->
<g id="edge5" class="edge">
<title>Node3&#45;&gt;Node5</title>
<path fill="none" stroke="#63b8ff" d="M104.78,-431.54C113.26,-418.54 122.02,-405.1 129.9,-393.04"/>
<polygon fill="none" stroke="#63b8ff" points="101.79,-429.71 99.26,-440 107.65,-433.53 101.79,-429.71"/>
</g>
<!-- Node4 -->
<g id="node4" class="node">
<title>Node4</title>
<g id="a_node4"><a xlink:href="classstd_1_1vector_3_01bool_01_4.html" target="_top" xlink:title=" ">
<polygon fill="white" stroke="#666666" points="335.5,-365.5 238.5,-365.5 238.5,-335.5 335.5,-335.5 335.5,-365.5"/>
<text text-anchor="middle" x="287" y="-353.5" font-family="Helvetica,sans-Serif" font-size="10.00">{vector&lt; bool &gt;</text>
<text text-anchor="middle" x="287" y="-342.5" font-family="Helvetica,sans-Serif" font-size="10.00">||}</text>
</a>
</g>
</g>
<!-- Node4&#45;&gt;Node2 -->
<g id="edge3" class="edge">
<title>Node4&#45;&gt;Node2</title>
<path fill="none" stroke="#404040" d="M283.32,-335.4C278.76,-320.08 269.72,-295.59 255,-279 252.51,-276.19 243,-269.89 230.81,-262.38"/>
<polygon fill="none" stroke="#404040" points="230.8,-262.37 223.59,-262.68 220.54,-256.14 227.75,-255.84 230.8,-262.37"/>
<text text-anchor="middle" x="290" y="-282" font-family="Helvetica,sans-Serif" font-size="10.00"> #m_genes</text>
</g>
<!-- Node5&#45;&gt;Node2 -->
<g id="edge4" class="edge">
<title>Node5&#45;&gt;Node2</title>
<path fill="none" stroke="orange" d="M157,-297.32C157,-285.34 157,-272.75 157,-261.27"/>
<polygon fill="orange" stroke="orange" points="153.5,-297.65 157,-307.65 160.5,-297.65 153.5,-297.65"/>
<text text-anchor="middle" x="204" y="-282" font-family="Helvetica,sans-Serif" font-size="10.00"> &lt; bool, Numeric &gt;</text>
</g>
<!-- Node6 -->
<g id="node6" class="node">
<title>Node6</title>
<g id="a_node6"><a xlink:title=" ">
<polygon fill="white" stroke="#666666" points="249.5,-508.5 148.5,-508.5 148.5,-478.5 249.5,-478.5 249.5,-508.5"/>
<text text-anchor="middle" x="199" y="-496.5" font-family="Helvetica,sans-Serif" font-size="10.00">{vector&lt; Gene &gt;</text>
<text text-anchor="middle" x="199" y="-485.5" font-family="Helvetica,sans-Serif" font-size="10.00">||}</text>
</a>
</g>
</g>
<!-- Node6&#45;&gt;Node5 -->
<g id="edge6" class="edge">
<title>Node6&#45;&gt;Node5</title>
<path fill="none" stroke="#404040" d="M194.82,-478.46C189.7,-461.29 180.75,-431.22 172.83,-404.66"/>
<polygon fill="none" stroke="#404040" points="172.83,-404.65 167.28,-400.04 169.41,-393.15 174.95,-397.75 172.83,-404.65"/>
<text text-anchor="middle" x="206" y="-414" font-family="Helvetica,sans-Serif" font-size="10.00"> #m_genes</text>
</g>
<!-- Node7 -->
<g id="node7" class="node">
<title>Node7</title>
<g id="a_node7"><a xlink:title=" ">
<polygon fill="white" stroke="#666666" points="303,-233.5 239,-233.5 239,-203.5 303,-203.5 303,-233.5"/>
<text text-anchor="middle" x="271" y="-221.5" font-family="Helvetica,sans-Serif" font-size="10.00">{Numeric</text>
<text text-anchor="middle" x="271" y="-210.5" font-family="Helvetica,sans-Serif" font-size="10.00">||}</text>
</a>
</g>
</g>
<!-- Node7&#45;&gt;Node1 -->
<g id="edge7" class="edge">
<title>Node7&#45;&gt;Node1</title>
<path fill="none" stroke="#404040" d="M265.84,-203.25C259.75,-186.41 249.17,-157.18 239.15,-129.49"/>
<polygon fill="none" stroke="#404040" points="239.14,-129.46 233.33,-125.18 235.05,-118.17 240.86,-122.46 239.14,-129.46"/>
<text text-anchor="middle" x="271" y="-150" font-family="Helvetica,sans-Serif" font-size="10.00"> &#45;m_max</text>
<text text-anchor="middle" x="271" y="-139" font-family="Helvetica,sans-Serif" font-size="10.00">&#45;m_min</text>
</g>
</g>
</svg>
