<?xml version="1.0" encoding="UTF-8" standalone="no"?>
<!DOCTYPE svg PUBLIC "-//W3C//DTD SVG 1.1//EN"
 "http://www.w3.org/Graphics/SVG/1.1/DTD/svg11.dtd">
<!-- Generated by graphviz version 2.43.0 (0)
 -->
<!-- Title: genixx::Population Pages: 1 -->
<svg width="442pt" height="269pt"
 viewBox="0.00 0.00 442.00 269.00" xmlns="http://www.w3.org/2000/svg" xmlns:xlink="http://www.w3.org/1999/xlink">
<g id="graph0" class="graph" transform="scale(1 1) rotate(0) translate(4 265)">
<title>genixx::Population</title>
<!-- Node1 -->
<g id="node1" class="node">
<title>Node1</title>
<g id="a_node1"><a xlink:title=" ">
<polygon fill="#999999" stroke="#666666" points="275,-173 127,-173 127,0 275,0 275,-173"/>
<text text-anchor="middle" x="201" y="-161" font-family="Helvetica,sans-Serif" font-size="10.00">{genixx::Population</text>
<text text-anchor="start" x="135" y="-150" font-family="Helvetica,sans-Serif" font-size="10.00">||+ Population()</text>
<text text-anchor="start" x="135" y="-139" font-family="Helvetica,sans-Serif" font-size="10.00">+ Population()</text>
<text text-anchor="start" x="135" y="-128" font-family="Helvetica,sans-Serif" font-size="10.00">+ populate()</text>
<text text-anchor="start" x="135" y="-117" font-family="Helvetica,sans-Serif" font-size="10.00">+ populate()</text>
<text text-anchor="start" x="135" y="-106" font-family="Helvetica,sans-Serif" font-size="10.00">+ generation()</text>
<text text-anchor="start" x="135" y="-95" font-family="Helvetica,sans-Serif" font-size="10.00">+ population()</text>
<text text-anchor="start" x="135" y="-84" font-family="Helvetica,sans-Serif" font-size="10.00">+ nextGeneration()</text>
<text text-anchor="start" x="135" y="-73" font-family="Helvetica,sans-Serif" font-size="10.00">+ assessPopulation()</text>
<text text-anchor="start" x="135" y="-62" font-family="Helvetica,sans-Serif" font-size="10.00">+ averageScore()</text>
<text text-anchor="start" x="135" y="-51" font-family="Helvetica,sans-Serif" font-size="10.00">+ bestScore()</text>
<text text-anchor="start" x="135" y="-40" font-family="Helvetica,sans-Serif" font-size="10.00">+ bestIndividual()</text>
<text text-anchor="start" x="135" y="-29" font-family="Helvetica,sans-Serif" font-size="10.00">+ size()</text>
<text text-anchor="start" x="135" y="-18" font-family="Helvetica,sans-Serif" font-size="10.00">&#45; generationReplacement()</text>
<text text-anchor="middle" x="201" y="-7" font-family="Helvetica,sans-Serif" font-size="10.00">}</text>
</a>
</g>
</g>
<!-- Node2 -->
<g id="node2" class="node">
<title>Node2</title>
<g id="a_node2"><a xlink:title=" ">
<polygon fill="white" stroke="#666666" points="152,-261 0,-261 0,-220 152,-220 152,-261"/>
<text text-anchor="start" x="8" y="-249" font-family="Helvetica,sans-Serif" font-size="10.00">{vector&lt; genixx::Individual</text>
<text text-anchor="middle" x="76" y="-238" font-family="Helvetica,sans-Serif" font-size="10.00">Info &gt;</text>
<text text-anchor="middle" x="76" y="-227" font-family="Helvetica,sans-Serif" font-size="10.00">||}</text>
</a>
</g>
</g>
<!-- Node2&#45;&gt;Node1 -->
<g id="edge1" class="edge">
<title>Node2&#45;&gt;Node1</title>
<path fill="none" stroke="#404040" d="M92.09,-219.94C100.42,-209.81 111.27,-196.62 122.88,-182.49"/>
<polygon fill="none" stroke="#404040" points="122.99,-182.36 123.71,-175.18 130.61,-173.09 129.89,-180.27 122.99,-182.36"/>
<text text-anchor="middle" x="151" y="-194" font-family="Helvetica,sans-Serif" font-size="10.00"> &#45;m_individuals</text>
</g>
<!-- Node3 -->
<g id="node3" class="node">
<title>Node3</title>
<g id="a_node3"><a xlink:title=" ">
<polygon fill="white" stroke="#666666" points="232,-255.5 170,-255.5 170,-225.5 232,-225.5 232,-255.5"/>
<text text-anchor="middle" x="201" y="-243.5" font-family="Helvetica,sans-Serif" font-size="10.00">{uint32_t</text>
<text text-anchor="middle" x="201" y="-232.5" font-family="Helvetica,sans-Serif" font-size="10.00">||}</text>
</a>
</g>
</g>
<!-- Node3&#45;&gt;Node1 -->
<g id="edge2" class="edge">
<title>Node3&#45;&gt;Node1</title>
<path fill="none" stroke="#404040" d="M201,-225.47C201,-215.52 201,-201.17 201,-185.45"/>
<polygon fill="none" stroke="#404040" points="201,-185.22 197,-179.22 201,-173.22 205,-179.22 201,-185.22"/>
<text text-anchor="middle" x="256.5" y="-194" font-family="Helvetica,sans-Serif" font-size="10.00"> &#45;m_currentGeneration</text>
</g>
<!-- Node4 -->
<g id="node4" class="node">
<title>Node4</title>
<g id="a_node4"><a xlink:title=" ">
<polygon fill="white" stroke="#666666" points="357,-255.5 313,-255.5 313,-225.5 357,-225.5 357,-255.5"/>
<text text-anchor="middle" x="335" y="-243.5" font-family="Helvetica,sans-Serif" font-size="10.00">{float</text>
<text text-anchor="middle" x="335" y="-232.5" font-family="Helvetica,sans-Serif" font-size="10.00">||}</text>
</a>
</g>
</g>
<!-- Node4&#45;&gt;Node1 -->
<g id="edge3" class="edge">
<title>Node4&#45;&gt;Node1</title>
<path fill="none" stroke="#404040" d="M330.21,-225.11C326.45,-215.02 320.58,-201.49 313,-191 304.44,-179.14 294.36,-167.59 283.81,-156.75"/>
<polygon fill="none" stroke="#404040" points="283.77,-156.7 276.69,-155.29 275.28,-148.22 282.35,-149.63 283.77,-156.7"/>
<text text-anchor="middle" x="376.5" y="-194" font-family="Helvetica,sans-Serif" font-size="10.00"> &#45;m_crossingProbability</text>
</g>
</g>
</svg>
