<?xml version="1.0" encoding="UTF-8" standalone="no"?>
<!DOCTYPE svg PUBLIC "-//W3C//DTD SVG 1.1//EN"
 "http://www.w3.org/Graphics/SVG/1.1/DTD/svg11.dtd">
<!-- Generated by graphviz version 2.43.0 (0)
 -->
<!-- Title: genixx::NullFunctionException Pages: 1 -->
<svg width="326pt" height="148pt"
 viewBox="0.00 0.00 326.00 148.00" xmlns="http://www.w3.org/2000/svg" xmlns:xlink="http://www.w3.org/1999/xlink">
<g id="graph0" class="graph" transform="scale(1 1) rotate(0) translate(4 144)">
<title>genixx::NullFunctionException</title>
<!-- Node1 -->
<g id="node1" class="node">
<title>Node1</title>
<g id="a_node1"><a xlink:title=" ">
<polygon fill="#999999" stroke="#666666" points="220,-63 50,-63 50,0 220,0 220,-63"/>
<text text-anchor="middle" x="135" y="-51" font-family="Helvetica,sans-Serif" font-size="10.00">{genixx::NullFunctionException</text>
<text text-anchor="start" x="58" y="-40" font-family="Helvetica,sans-Serif" font-size="10.00">||+ NullFunctionException()</text>
<text text-anchor="start" x="58" y="-29" font-family="Helvetica,sans-Serif" font-size="10.00">+ NullFunctionException()</text>
<text text-anchor="start" x="58" y="-18" font-family="Helvetica,sans-Serif" font-size="10.00">+ what()</text>
<text text-anchor="middle" x="135" y="-7" font-family="Helvetica,sans-Serif" font-size="10.00">}</text>
</a>
</g>
</g>
<!-- Node2 -->
<g id="node2" class="node">
<title>Node2</title>
<g id="a_node2"><a xlink:title=" ">
<polygon fill="white" stroke="#666666" points="92,-140 0,-140 0,-110 92,-110 92,-140"/>
<text text-anchor="middle" x="46" y="-128" font-family="Helvetica,sans-Serif" font-size="10.00">{std::exception</text>
<text text-anchor="middle" x="46" y="-117" font-family="Helvetica,sans-Serif" font-size="10.00">||}</text>
</a>
</g>
</g>
<!-- Node2&#45;&gt;Node1 -->
<g id="edge1" class="edge">
<title>Node2&#45;&gt;Node1</title>
<path fill="none" stroke="#63b8ff" d="M66.9,-102.51C78.25,-90.84 92.48,-76.22 104.99,-63.35"/>
<polygon fill="none" stroke="#63b8ff" points="64.37,-100.09 59.91,-109.7 69.39,-104.98 64.37,-100.09"/>
</g>
<!-- Node3 -->
<g id="node3" class="node">
<title>Node3</title>
<g id="a_node3"><a xlink:title=" ">
<polygon fill="white" stroke="#666666" points="160,-140 110,-140 110,-110 160,-110 160,-140"/>
<text text-anchor="middle" x="135" y="-128" font-family="Helvetica,sans-Serif" font-size="10.00">{string</text>
<text text-anchor="middle" x="135" y="-117" font-family="Helvetica,sans-Serif" font-size="10.00">||}</text>
</a>
</g>
</g>
<!-- Node3&#45;&gt;Node1 -->
<g id="edge2" class="edge">
<title>Node3&#45;&gt;Node1</title>
<path fill="none" stroke="#404040" d="M135,-109.7C135,-100.43 135,-87.81 135,-75.47"/>
<polygon fill="none" stroke="#404040" points="135,-75.35 131,-69.35 135,-63.35 139,-69.35 135,-75.35"/>
<text text-anchor="middle" x="187.5" y="-84" font-family="Helvetica,sans-Serif" font-size="10.00"> &#45;m_defaultComment</text>
</g>
<!-- Node4 -->
<g id="node4" class="node">
<title>Node4</title>
<g id="a_node4"><a xlink:title=" ">
<polygon fill="white" stroke="#666666" points="288,-140 238,-140 238,-110 288,-110 288,-140"/>
<text text-anchor="middle" x="263" y="-128" font-family="Helvetica,sans-Serif" font-size="10.00">{string</text>
<text text-anchor="middle" x="263" y="-117" font-family="Helvetica,sans-Serif" font-size="10.00">||}</text>
</a>
</g>
</g>
<!-- Node4&#45;&gt;Node1 -->
<g id="edge3" class="edge">
<title>Node4&#45;&gt;Node1</title>
<path fill="none" stroke="#404040" d="M258.46,-109.71C254.93,-100.53 249.24,-88.89 241,-81 236.79,-76.97 232.19,-73.23 227.33,-69.77"/>
<polygon fill="none" stroke="#404040" points="227.1,-69.62 219.89,-69.69 217.05,-63.06 224.26,-62.99 227.1,-69.62"/>
<text text-anchor="middle" x="283.5" y="-84" font-family="Helvetica,sans-Serif" font-size="10.00"> &#45;m_comment</text>
</g>
</g>
</svg>
