<?xml version="1.0" encoding="UTF-8" standalone="no"?>
<!DOCTYPE svg PUBLIC "-//W3C//DTD SVG 1.1//EN"
 "http://www.w3.org/Graphics/SVG/1.1/DTD/svg11.dtd">
<!-- Generated by graphviz version 2.43.0 (0)
 -->
<!-- Title: genixx::Individual Pages: 1 -->
<svg width="340pt" height="280pt"
 viewBox="0.00 0.00 340.00 280.00" xmlns="http://www.w3.org/2000/svg" xmlns:xlink="http://www.w3.org/1999/xlink">
<g id="graph0" class="graph" transform="scale(1 1) rotate(0) translate(4 276)">
<title>genixx::Individual</title>
<!-- Node1 -->
<g id="node1" class="node">
<title>Node1</title>
<g id="a_node1"><a xlink:title=" ">
<polygon fill="#999999" stroke="#666666" points="225,-184 93,-184 93,0 225,0 225,-184"/>
<text text-anchor="middle" x="159" y="-172" font-family="Helvetica,sans-Serif" font-size="10.00">{genixx::Individual</text>
<text text-anchor="start" x="101" y="-161" font-family="Helvetica,sans-Serif" font-size="10.00">||+ Individual()</text>
<text text-anchor="start" x="101" y="-150" font-family="Helvetica,sans-Serif" font-size="10.00">+ Individual()</text>
<text text-anchor="start" x="101" y="-139" font-family="Helvetica,sans-Serif" font-size="10.00">+ Individual()</text>
<text text-anchor="start" x="101" y="-128" font-family="Helvetica,sans-Serif" font-size="10.00">+ operator=()</text>
<text text-anchor="start" x="101" y="-117" font-family="Helvetica,sans-Serif" font-size="10.00">+ operator=()</text>
<text text-anchor="start" x="101" y="-106" font-family="Helvetica,sans-Serif" font-size="10.00">+ ~Individual()</text>
<text text-anchor="start" x="101" y="-95" font-family="Helvetica,sans-Serif" font-size="10.00">+ chromosome()</text>
<text text-anchor="start" x="101" y="-84" font-family="Helvetica,sans-Serif" font-size="10.00">+ copy()</text>
<text text-anchor="start" x="101" y="-73" font-family="Helvetica,sans-Serif" font-size="10.00">+ breed()</text>
<text text-anchor="start" x="101" y="-62" font-family="Helvetica,sans-Serif" font-size="10.00">+ cross()</text>
<text text-anchor="start" x="101" y="-51" font-family="Helvetica,sans-Serif" font-size="10.00">+ operator==()</text>
<text text-anchor="start" x="101" y="-40" font-family="Helvetica,sans-Serif" font-size="10.00">+ operator!=()</text>
<text text-anchor="start" x="101" y="-29" font-family="Helvetica,sans-Serif" font-size="10.00">+ mutationProbability()</text>
<text text-anchor="start" x="101" y="-18" font-family="Helvetica,sans-Serif" font-size="10.00">+ mutationProbability()</text>
<text text-anchor="middle" x="159" y="-7" font-family="Helvetica,sans-Serif" font-size="10.00">}</text>
</a>
</g>
</g>
<!-- Node2 -->
<g id="node2" class="node">
<title>Node2</title>
<g id="a_node2"><a xlink:title=" ">
<polygon fill="white" stroke="#666666" points="176,-272 0,-272 0,-231 176,-231 176,-272"/>
<text text-anchor="start" x="8" y="-260" font-family="Helvetica,sans-Serif" font-size="10.00">{map&lt; std::string, std</text>
<text text-anchor="middle" x="88" y="-249" font-family="Helvetica,sans-Serif" font-size="10.00">::shared_ptr&lt; IChromosome &gt; &gt;</text>
<text text-anchor="middle" x="88" y="-238" font-family="Helvetica,sans-Serif" font-size="10.00">||}</text>
</a>
</g>
</g>
<!-- Node2&#45;&gt;Node1 -->
<g id="edge1" class="edge">
<title>Node2&#45;&gt;Node1</title>
<path fill="none" stroke="#404040" d="M96.85,-230.87C101.22,-221.18 106.86,-208.66 112.96,-195.14"/>
<polygon fill="none" stroke="#404040" points="113,-195.05 111.82,-187.94 117.93,-184.11 119.11,-191.22 113,-195.05"/>
<text text-anchor="middle" x="154.5" y="-205" font-family="Helvetica,sans-Serif" font-size="10.00"> &#45;m_chromosomes</text>
</g>
<!-- Node3 -->
<g id="node3" class="node">
<title>Node3</title>
<g id="a_node3"><a xlink:title=" ">
<polygon fill="white" stroke="#666666" points="268,-266.5 194,-266.5 194,-236.5 268,-236.5 268,-266.5"/>
<text text-anchor="middle" x="231" y="-254.5" font-family="Helvetica,sans-Serif" font-size="10.00">{static float</text>
<text text-anchor="middle" x="231" y="-243.5" font-family="Helvetica,sans-Serif" font-size="10.00">||}</text>
</a>
</g>
</g>
<!-- Node3&#45;&gt;Node1 -->
<g id="edge2" class="edge">
<title>Node3&#45;&gt;Node1</title>
<path fill="none" stroke="#404040" d="M224.48,-236.25C219.87,-226.16 213.22,-211.61 205.91,-195.62"/>
<polygon fill="none" stroke="#404040" points="205.75,-195.27 199.62,-191.48 200.76,-184.36 206.9,-188.15 205.75,-195.27"/>
<text text-anchor="middle" x="272.5" y="-205" font-family="Helvetica,sans-Serif" font-size="10.00"> &#45;m_mutationProbability</text>
</g>
</g>
</svg>
