<?xml version="1.0" encoding="UTF-8" standalone="no"?>
<!DOCTYPE svg PUBLIC "-//W3C//DTD SVG 1.1//EN"
 "http://www.w3.org/Graphics/SVG/1.1/DTD/svg11.dtd">
<!-- Generated by graphviz version 2.43.0 (0)
 -->
<!-- Title: genixx::NumericChromosome&lt; Numeric, typename &gt; Pages: 1 -->
<svg width="344pt" height="533pt"
 viewBox="0.00 0.00 343.50 533.00" xmlns="http://www.w3.org/2000/svg" xmlns:xlink="http://www.w3.org/1999/xlink">
<g id="graph0" class="graph" transform="scale(1 1) rotate(0) translate(4 529)">
<title>genixx::NumericChromosome&lt; Numeric, typename &gt;</title>
<!-- Node1 -->
<g id="node1" class="node">
<title>Node1</title>
<g id="a_node1"><a xlink:title=" ">
<polygon fill="#999999" stroke="#666666" points="298,-107 130,-107 130,0 298,0 298,-107"/>
<text text-anchor="start" x="138" y="-95" font-family="Helvetica,sans-Serif" font-size="10.00">{genixx::NumericChromosome</text>
<text text-anchor="middle" x="214" y="-84" font-family="Helvetica,sans-Serif" font-size="10.00">&lt; Numeric, typename &gt;</text>
<text text-anchor="start" x="138" y="-73" font-family="Helvetica,sans-Serif" font-size="10.00">||+ NumericChromosome()</text>
<text text-anchor="start" x="138" y="-62" font-family="Helvetica,sans-Serif" font-size="10.00">+ mutate()</text>
<text text-anchor="start" x="138" y="-51" font-family="Helvetica,sans-Serif" font-size="10.00">+ phenotype()</text>
<text text-anchor="start" x="138" y="-40" font-family="Helvetica,sans-Serif" font-size="10.00">+ copy()</text>
<text text-anchor="start" x="138" y="-29" font-family="Helvetica,sans-Serif" font-size="10.00">+ comparisonImpl()</text>
<text text-anchor="start" x="138" y="-18" font-family="Helvetica,sans-Serif" font-size="10.00">+ random()</text>
<text text-anchor="middle" x="214" y="-7" font-family="Helvetica,sans-Serif" font-size="10.00">}</text>
</a>
</g>
</g>
<!-- Node2 -->
<g id="node2" class="node">
<title>Node2</title>
<g id="a_node2"><a xlink:href="classgenixx_1_1Chromosome.html" target="_top" xlink:title=" ">
<polygon fill="white" stroke="#666666" points="220.5,-250 93.5,-250 93.5,-165 220.5,-165 220.5,-250"/>
<text text-anchor="start" x="101.5" y="-238" font-family="Helvetica,sans-Serif" font-size="10.00">{genixx::Chromosome</text>
<text text-anchor="middle" x="157" y="-227" font-family="Helvetica,sans-Serif" font-size="10.00">&lt; bool, Numeric &gt;</text>
<text text-anchor="start" x="101.5" y="-216" font-family="Helvetica,sans-Serif" font-size="10.00">||+ Chromosome()</text>
<text text-anchor="start" x="101.5" y="-205" font-family="Helvetica,sans-Serif" font-size="10.00">+ cross()</text>
<text text-anchor="start" x="101.5" y="-194" font-family="Helvetica,sans-Serif" font-size="10.00">+ phenotype()</text>
<text text-anchor="start" x="101.5" y="-183" font-family="Helvetica,sans-Serif" font-size="10.00">+ length()</text>
<text text-anchor="middle" x="157" y="-172" font-family="Helvetica,sans-Serif" font-size="10.00">}</text>
</a>
</g>
</g>
<!-- Node2&#45;&gt;Node1 -->
<g id="edge1" class="edge">
<title>Node2&#45;&gt;Node1</title>
<path fill="none" stroke="#63b8ff" d="M176.12,-155.51C181.96,-139.95 188.38,-122.81 194.26,-107.14"/>
<polygon fill="none" stroke="#63b8ff" points="172.81,-154.37 172.58,-164.97 179.36,-156.83 172.81,-154.37"/>
</g>
<!-- Node3 -->
<g id="node3" class="node">
<title>Node3</title>
<g id="a_node3"><a xlink:href="classgenixx_1_1IChromosome.html" target="_top" xlink:title=" ">
<polygon fill="white" stroke="#666666" points="130,-525 0,-525 0,-429 130,-429 130,-525"/>
<text text-anchor="middle" x="65" y="-513" font-family="Helvetica,sans-Serif" font-size="10.00">{genixx::IChromosome</text>
<text text-anchor="start" x="8" y="-502" font-family="Helvetica,sans-Serif" font-size="10.00">||+ ~IChromosome()</text>
<text text-anchor="start" x="8" y="-491" font-family="Helvetica,sans-Serif" font-size="10.00">+ mutate()</text>
<text text-anchor="start" x="8" y="-480" font-family="Helvetica,sans-Serif" font-size="10.00">+ length()</text>
<text text-anchor="start" x="8" y="-469" font-family="Helvetica,sans-Serif" font-size="10.00">+ copy()</text>
<text text-anchor="start" x="8" y="-458" font-family="Helvetica,sans-Serif" font-size="10.00">+ cross()</text>
<text text-anchor="start" x="8" y="-447" font-family="Helvetica,sans-Serif" font-size="10.00"># comparisonImpl()</text>
<text text-anchor="middle" x="65" y="-436" font-family="Helvetica,sans-Serif" font-size="10.00">}</text>
</a>
</g>
</g>
<!-- Node3&#45;&gt;Node2 -->
<g id="edge2" class="edge">
<title>Node3&#45;&gt;Node2</title>
<path fill="none" stroke="#63b8ff" d="M62.79,-418.55C63.38,-382.37 67.86,-335.42 84,-297 91.1,-280.11 102.52,-263.93 114.25,-250.13"/>
<polygon fill="none" stroke="#63b8ff" points="59.29,-418.91 62.72,-428.94 66.29,-418.96 59.29,-418.91"/>
</g>
<!-- Node5 -->
<g id="node5" class="node">
<title>Node5</title>
<g id="a_node5"><a xlink:href="classgenixx_1_1Chromosome.html" target="_top" xlink:title=" ">
<polygon fill="white" stroke="#666666" points="220.5,-382 93.5,-382 93.5,-297 220.5,-297 220.5,-382"/>
<text text-anchor="start" x="101.5" y="-370" font-family="Helvetica,sans-Serif" font-size="10.00">{genixx::Chromosome</text>
<text text-anchor="middle" x="157" y="-359" font-family="Helvetica,sans-Serif" font-size="10.00">&lt; Gene, Phenotype &gt;</text>
<text text-anchor="start" x="101.5" y="-348" font-family="Helvetica,sans-Serif" font-size="10.00">||+ Chromosome()</text>
<text text-anchor="start" x="101.5" y="-337" font-family="Helvetica,sans-Serif" font-size="10.00">+ cross()</text>
<text text-anchor="start" x="101.5" y="-326" font-family="Helvetica,sans-Serif" font-size="10.00">+ phenotype()</text>
<text text-anchor="start" x="101.5" y="-315" font-family="Helvetica,sans-Serif" font-size="10.00">+ length()</text>
<text text-anchor="middle" x="157" y="-304" font-family="Helvetica,sans-Serif" font-size="10.00">}</text>
</a>
</g>
</g>
<!-- Node3&#45;&gt;Node5 -->
<g id="edge5" class="edge">
<title>Node3&#45;&gt;Node5</title>
<path fill="none" stroke="#63b8ff" d="M102.6,-420.62C111.37,-407.71 120.55,-394.19 128.82,-382"/>
<polygon fill="none" stroke="#63b8ff" points="99.64,-418.75 96.92,-428.99 105.43,-422.68 99.64,-418.75"/>
</g>
<!-- Node4 -->
<g id="node4" class="node">
<title>Node4</title>
<g id="a_node4"><a xlink:href="classstd_1_1vector_3_01bool_01_4.html" target="_top" xlink:title=" ">
<polygon fill="white" stroke="#666666" points="335.5,-354.5 238.5,-354.5 238.5,-324.5 335.5,-324.5 335.5,-354.5"/>
<text text-anchor="middle" x="287" y="-342.5" font-family="Helvetica,sans-Serif" font-size="10.00">{vector&lt; bool &gt;</text>
<text text-anchor="middle" x="287" y="-331.5" font-family="Helvetica,sans-Serif" font-size="10.00">||}</text>
</a>
</g>
</g>
<!-- Node4&#45;&gt;Node2 -->
<g id="edge3" class="edge">
<title>Node4&#45;&gt;Node2</title>
<path fill="none" stroke="#404040" d="M283.32,-324.4C278.76,-309.08 269.72,-284.59 255,-268 252.51,-265.19 243,-258.89 230.81,-251.38"/>
<polygon fill="none" stroke="#404040" points="230.8,-251.37 223.59,-251.68 220.54,-245.14 227.75,-244.84 230.8,-251.37"/>
<text text-anchor="middle" x="290" y="-271" font-family="Helvetica,sans-Serif" font-size="10.00"> #m_genes</text>
</g>
<!-- Node5&#45;&gt;Node2 -->
<g id="edge4" class="edge">
<title>Node5&#45;&gt;Node2</title>
<path fill="none" stroke="orange" d="M157,-286.32C157,-274.34 157,-261.75 157,-250.27"/>
<polygon fill="orange" stroke="orange" points="153.5,-286.65 157,-296.65 160.5,-286.65 153.5,-286.65"/>
<text text-anchor="middle" x="204" y="-271" font-family="Helvetica,sans-Serif" font-size="10.00"> &lt; bool, Numeric &gt;</text>
</g>
<!-- Node6 -->
<g id="node6" class="node">
<title>Node6</title>
<g id="a_node6"><a xlink:title=" ">
<polygon fill="white" stroke="#666666" points="249.5,-492 148.5,-492 148.5,-462 249.5,-462 249.5,-492"/>
<text text-anchor="middle" x="199" y="-480" font-family="Helvetica,sans-Serif" font-size="10.00">{vector&lt; Gene &gt;</text>
<text text-anchor="middle" x="199" y="-469" font-family="Helvetica,sans-Serif" font-size="10.00">||}</text>
</a>
</g>
</g>
<!-- Node6&#45;&gt;Node5 -->
<g id="edge6" class="edge">
<title>Node6&#45;&gt;Node5</title>
<path fill="none" stroke="#404040" d="M194.58,-461.76C189.59,-445.64 181.16,-418.43 173.54,-393.87"/>
<polygon fill="none" stroke="#404040" points="173.44,-393.55 167.85,-389 169.89,-382.08 175.49,-386.63 173.44,-393.55"/>
<text text-anchor="middle" x="206" y="-403" font-family="Helvetica,sans-Serif" font-size="10.00"> #m_genes</text>
</g>
<!-- Node7 -->
<g id="node7" class="node">
<title>Node7</title>
<g id="a_node7"><a xlink:title=" ">
<polygon fill="white" stroke="#666666" points="303,-222.5 239,-222.5 239,-192.5 303,-192.5 303,-222.5"/>
<text text-anchor="middle" x="271" y="-210.5" font-family="Helvetica,sans-Serif" font-size="10.00">{Numeric</text>
<text text-anchor="middle" x="271" y="-199.5" font-family="Helvetica,sans-Serif" font-size="10.00">||}</text>
</a>
</g>
</g>
<!-- Node7&#45;&gt;Node1 -->
<g id="edge7" class="edge">
<title>Node7&#45;&gt;Node1</title>
<path fill="none" stroke="#404040" d="M265.74,-192.47C259.42,-175.62 248.39,-146.2 238.13,-118.84"/>
<polygon fill="none" stroke="#404040" points="238.01,-118.52 232.16,-114.31 233.8,-107.29 239.65,-111.5 238.01,-118.52"/>
<text text-anchor="middle" x="269" y="-139" font-family="Helvetica,sans-Serif" font-size="10.00"> &#45;m_max</text>
<text text-anchor="middle" x="269" y="-128" font-family="Helvetica,sans-Serif" font-size="10.00">&#45;m_min</text>
</g>
</g>
</svg>
