<?xml version="1.0" encoding="UTF-8" standalone="no"?>
<!DOCTYPE svg PUBLIC "-//W3C//DTD SVG 1.1//EN"
 "http://www.w3.org/Graphics/SVG/1.1/DTD/svg11.dtd">
<!-- Generated by graphviz version 2.43.0 (0)
 -->
<!-- Title: genixx::NumericChromosome&lt; Numeric, typename &gt; Pages: 1 -->
<svg width="232pt" height="546pt"
 viewBox="0.00 0.00 231.50 546.00" xmlns="http://www.w3.org/2000/svg" xmlns:xlink="http://www.w3.org/1999/xlink">
<g id="graph0" class="graph" transform="scale(1 1) rotate(0) translate(4 542)">
<title>genixx::NumericChromosome&lt; Numeric, typename &gt;</title>
<!-- Node1 -->
<g id="node1" class="node">
<title>Node1</title>
<g id="a_node1"><a xlink:title=" ">
<polygon fill="#999999" stroke="#666666" points="168,-129 0,-129 0,0 168,0 168,-129"/>
<text text-anchor="start" x="8" y="-117" font-family="Helvetica,sans-Serif" font-size="10.00">{genixx::NumericChromosome</text>
<text text-anchor="middle" x="84" y="-106" font-family="Helvetica,sans-Serif" font-size="10.00">&lt; Numeric, typename &gt;</text>
<text text-anchor="start" x="8" y="-95" font-family="Helvetica,sans-Serif" font-size="10.00">|&#45; m_min</text>
<text text-anchor="start" x="8" y="-84" font-family="Helvetica,sans-Serif" font-size="10.00">&#45; m_max</text>
<text text-anchor="start" x="8" y="-73" font-family="Helvetica,sans-Serif" font-size="10.00">|+ NumericChromosome()</text>
<text text-anchor="start" x="8" y="-62" font-family="Helvetica,sans-Serif" font-size="10.00">+ mutate()</text>
<text text-anchor="start" x="8" y="-51" font-family="Helvetica,sans-Serif" font-size="10.00">+ phenotype()</text>
<text text-anchor="start" x="8" y="-40" font-family="Helvetica,sans-Serif" font-size="10.00">+ copy()</text>
<text text-anchor="start" x="8" y="-29" font-family="Helvetica,sans-Serif" font-size="10.00">+ comparisonImpl()</text>
<text text-anchor="start" x="8" y="-18" font-family="Helvetica,sans-Serif" font-size="10.00">+ random()</text>
<text text-anchor="middle" x="84" y="-7" font-family="Helvetica,sans-Serif" font-size="10.00">}</text>
</a>
</g>
</g>
<!-- Node2 -->
<g id="node2" class="node">
<title>Node2</title>
<g id="a_node2"><a xlink:href="classgenixx_1_1Chromosome.html" target="_top" xlink:title=" ">
<polygon fill="white" stroke="#666666" points="147.5,-262 20.5,-262 20.5,-166 147.5,-166 147.5,-262"/>
<text text-anchor="start" x="28.5" y="-250" font-family="Helvetica,sans-Serif" font-size="10.00">{genixx::Chromosome</text>
<text text-anchor="middle" x="84" y="-239" font-family="Helvetica,sans-Serif" font-size="10.00">&lt; bool, Numeric &gt;</text>
<text text-anchor="start" x="28.5" y="-228" font-family="Helvetica,sans-Serif" font-size="10.00">|# m_genes</text>
<text text-anchor="start" x="28.5" y="-217" font-family="Helvetica,sans-Serif" font-size="10.00">|+ Chromosome()</text>
<text text-anchor="start" x="28.5" y="-206" font-family="Helvetica,sans-Serif" font-size="10.00">+ cross()</text>
<text text-anchor="start" x="28.5" y="-195" font-family="Helvetica,sans-Serif" font-size="10.00">+ phenotype()</text>
<text text-anchor="start" x="28.5" y="-184" font-family="Helvetica,sans-Serif" font-size="10.00">+ length()</text>
<text text-anchor="middle" x="84" y="-173" font-family="Helvetica,sans-Serif" font-size="10.00">}</text>
</a>
</g>
</g>
<!-- Node2&#45;&gt;Node1 -->
<g id="edge1" class="edge">
<title>Node2&#45;&gt;Node1</title>
<path fill="none" stroke="#63b8ff" d="M84,-155.82C84,-147.06 84,-137.97 84,-129.08"/>
<polygon fill="none" stroke="#63b8ff" points="80.5,-155.92 84,-165.92 87.5,-155.92 80.5,-155.92"/>
</g>
<!-- Node3 -->
<g id="node3" class="node">
<title>Node3</title>
<g id="a_node3"><a xlink:href="classgenixx_1_1IChromosome.html" target="_top" xlink:title=" ">
<polygon fill="white" stroke="#666666" points="145,-538 15,-538 15,-442 145,-442 145,-538"/>
<text text-anchor="middle" x="80" y="-526" font-family="Helvetica,sans-Serif" font-size="10.00">{genixx::IChromosome</text>
<text text-anchor="start" x="23" y="-515" font-family="Helvetica,sans-Serif" font-size="10.00">||+ ~IChromosome()</text>
<text text-anchor="start" x="23" y="-504" font-family="Helvetica,sans-Serif" font-size="10.00">+ mutate()</text>
<text text-anchor="start" x="23" y="-493" font-family="Helvetica,sans-Serif" font-size="10.00">+ length()</text>
<text text-anchor="start" x="23" y="-482" font-family="Helvetica,sans-Serif" font-size="10.00">+ copy()</text>
<text text-anchor="start" x="23" y="-471" font-family="Helvetica,sans-Serif" font-size="10.00">+ cross()</text>
<text text-anchor="start" x="23" y="-460" font-family="Helvetica,sans-Serif" font-size="10.00"># comparisonImpl()</text>
<text text-anchor="middle" x="80" y="-449" font-family="Helvetica,sans-Serif" font-size="10.00">}</text>
</a>
</g>
</g>
<!-- Node3&#45;&gt;Node2 -->
<g id="edge2" class="edge">
<title>Node3&#45;&gt;Node2</title>
<path fill="none" stroke="#63b8ff" d="M80.83,-431.85C81.57,-381.65 82.62,-309.46 83.31,-262.4"/>
<polygon fill="none" stroke="#63b8ff" points="77.33,-431.85 80.69,-441.9 84.33,-431.95 77.33,-431.85"/>
</g>
<!-- Node4 -->
<g id="node4" class="node">
<title>Node4</title>
<g id="a_node4"><a xlink:href="classgenixx_1_1Chromosome.html" target="_top" xlink:title=" ">
<polygon fill="white" stroke="#666666" points="223.5,-405 96.5,-405 96.5,-309 223.5,-309 223.5,-405"/>
<text text-anchor="start" x="104.5" y="-393" font-family="Helvetica,sans-Serif" font-size="10.00">{genixx::Chromosome</text>
<text text-anchor="middle" x="160" y="-382" font-family="Helvetica,sans-Serif" font-size="10.00">&lt; Gene, Phenotype &gt;</text>
<text text-anchor="start" x="104.5" y="-371" font-family="Helvetica,sans-Serif" font-size="10.00">|# m_genes</text>
<text text-anchor="start" x="104.5" y="-360" font-family="Helvetica,sans-Serif" font-size="10.00">|+ Chromosome()</text>
<text text-anchor="start" x="104.5" y="-349" font-family="Helvetica,sans-Serif" font-size="10.00">+ cross()</text>
<text text-anchor="start" x="104.5" y="-338" font-family="Helvetica,sans-Serif" font-size="10.00">+ phenotype()</text>
<text text-anchor="start" x="104.5" y="-327" font-family="Helvetica,sans-Serif" font-size="10.00">+ length()</text>
<text text-anchor="middle" x="160" y="-316" font-family="Helvetica,sans-Serif" font-size="10.00">}</text>
</a>
</g>
</g>
<!-- Node3&#45;&gt;Node4 -->
<g id="edge4" class="edge">
<title>Node3&#45;&gt;Node4</title>
<path fill="none" stroke="#63b8ff" d="M114.23,-432.95C119.87,-423.71 125.67,-414.22 131.16,-405.22"/>
<polygon fill="none" stroke="#63b8ff" points="111.11,-431.35 108.88,-441.71 117.08,-435 111.11,-431.35"/>
</g>
<!-- Node4&#45;&gt;Node2 -->
<g id="edge3" class="edge">
<title>Node4&#45;&gt;Node2</title>
<path fill="none" stroke="orange" d="M129.7,-299.78C123.03,-287.42 116.04,-274.44 109.58,-262.46"/>
<polygon fill="orange" stroke="orange" points="126.66,-301.51 134.48,-308.66 132.82,-298.19 126.66,-301.51"/>
<text text-anchor="middle" x="171" y="-283" font-family="Helvetica,sans-Serif" font-size="10.00"> &lt; bool, Numeric &gt;</text>
</g>
</g>
</svg>
