<?xml version="1.0" encoding="UTF-8" standalone="no"?>
<!DOCTYPE svg PUBLIC "-//W3C//DTD SVG 1.1//EN"
 "http://www.w3.org/Graphics/SVG/1.1/DTD/svg11.dtd">
<!-- Generated by graphviz version 2.43.0 (0)
 -->
<!-- Title: genixx::Chromosome&lt; Gene, Phenotype &gt; Pages: 1 -->
<svg width="258pt" height="236pt"
 viewBox="0.00 0.00 257.50 236.00" xmlns="http://www.w3.org/2000/svg" xmlns:xlink="http://www.w3.org/1999/xlink">
<g id="graph0" class="graph" transform="scale(1 1) rotate(0) translate(4 232)">
<title>genixx::Chromosome&lt; Gene, Phenotype &gt;</title>
<!-- Node1 -->
<g id="node1" class="node">
<title>Node1</title>
<g id="a_node1"><a xlink:title=" ">
<polygon fill="#999999" stroke="#666666" points="195.5,-96 68.5,-96 68.5,0 195.5,0 195.5,-96"/>
<text text-anchor="start" x="76.5" y="-84" font-family="Helvetica,sans-Serif" font-size="10.00">{genixx::Chromosome</text>
<text text-anchor="middle" x="132" y="-73" font-family="Helvetica,sans-Serif" font-size="10.00">&lt; Gene, Phenotype &gt;</text>
<text text-anchor="start" x="76.5" y="-62" font-family="Helvetica,sans-Serif" font-size="10.00">||+ Chromosome()</text>
<text text-anchor="start" x="76.5" y="-51" font-family="Helvetica,sans-Serif" font-size="10.00">+ Chromosome()</text>
<text text-anchor="start" x="76.5" y="-40" font-family="Helvetica,sans-Serif" font-size="10.00">+ phenotype()</text>
<text text-anchor="start" x="76.5" y="-29" font-family="Helvetica,sans-Serif" font-size="10.00">+ cross()</text>
<text text-anchor="start" x="76.5" y="-18" font-family="Helvetica,sans-Serif" font-size="10.00">+ genes()</text>
<text text-anchor="middle" x="132" y="-7" font-family="Helvetica,sans-Serif" font-size="10.00">}</text>
</a>
</g>
</g>
<!-- Node2 -->
<g id="node2" class="node">
<title>Node2</title>
<g id="a_node2"><a xlink:href="classgenixx_1_1IChromosome.html" target="_top" xlink:title=" ">
<polygon fill="white" stroke="#666666" points="130,-228 0,-228 0,-143 130,-143 130,-228"/>
<text text-anchor="middle" x="65" y="-216" font-family="Helvetica,sans-Serif" font-size="10.00">{genixx::IChromosome</text>
<text text-anchor="start" x="8" y="-205" font-family="Helvetica,sans-Serif" font-size="10.00">||+ ~IChromosome()</text>
<text text-anchor="start" x="8" y="-194" font-family="Helvetica,sans-Serif" font-size="10.00">+ mutate()</text>
<text text-anchor="start" x="8" y="-183" font-family="Helvetica,sans-Serif" font-size="10.00">+ genes()</text>
<text text-anchor="start" x="8" y="-172" font-family="Helvetica,sans-Serif" font-size="10.00">+ copy()</text>
<text text-anchor="start" x="8" y="-161" font-family="Helvetica,sans-Serif" font-size="10.00">+ cross()</text>
<text text-anchor="middle" x="65" y="-150" font-family="Helvetica,sans-Serif" font-size="10.00">}</text>
</a>
</g>
</g>
<!-- Node2&#45;&gt;Node1 -->
<g id="edge1" class="edge">
<title>Node2&#45;&gt;Node1</title>
<path fill="none" stroke="#63b8ff" d="M90.21,-133.53C96.28,-121.24 102.75,-108.16 108.73,-96.06"/>
<polygon fill="none" stroke="#63b8ff" points="86.94,-132.22 85.65,-142.74 93.22,-135.33 86.94,-132.22"/>
</g>
<!-- Node3 -->
<g id="node3" class="node">
<title>Node3</title>
<g id="a_node3"><a xlink:title=" ">
<polygon fill="white" stroke="#666666" points="249.5,-200.5 148.5,-200.5 148.5,-170.5 249.5,-170.5 249.5,-200.5"/>
<text text-anchor="middle" x="199" y="-188.5" font-family="Helvetica,sans-Serif" font-size="10.00">{vector&lt; Gene &gt;</text>
<text text-anchor="middle" x="199" y="-177.5" font-family="Helvetica,sans-Serif" font-size="10.00">||}</text>
</a>
</g>
</g>
<!-- Node3&#45;&gt;Node1 -->
<g id="edge2" class="edge">
<title>Node3&#45;&gt;Node1</title>
<path fill="none" stroke="#404040" d="M191.96,-170.26C184.5,-155.18 172.25,-130.4 160.76,-107.16"/>
<polygon fill="none" stroke="#404040" points="160.7,-107.03 154.45,-103.43 155.38,-96.28 161.62,-99.88 160.7,-107.03"/>
<text text-anchor="middle" x="197" y="-117" font-family="Helvetica,sans-Serif" font-size="10.00"> #m_genes</text>
</g>
</g>
</svg>
