<?xml version="1.0" encoding="UTF-8" standalone="no"?>
<!DOCTYPE svg PUBLIC "-//W3C//DTD SVG 1.1//EN"
 "http://www.w3.org/Graphics/SVG/1.1/DTD/svg11.dtd">
<!-- Generated by graphviz version 2.43.0 (0)
 -->
<!-- Title: lib Pages: 1 -->
<svg width="160pt" height="224pt"
 viewBox="0.00 0.00 160.00 224.00" xmlns="http://www.w3.org/2000/svg" xmlns:xlink="http://www.w3.org/1999/xlink">
<g id="graph0" class="graph" transform="scale(1 1) rotate(0) translate(4 220)">
<title>lib</title>
<g id="clust1" class="cluster">
<title>clusterdir_97aefd0d527b934f1d99a682da8fe6a9</title>
<g id="a_clust1"><a xlink:href="dir_97aefd0d527b934f1d99a682da8fe6a9.html" target="_top">
<polygon fill="#edf0f7" stroke="#404040" stroke-width="2" points="8,-8 8,-208 144,-208 144,-8 8,-8"/>
</a>
</g>
</g>
<!-- dir_97aefd0d527b934f1d99a682da8fe6a9 -->
<g id="node1" class="node">
<title>dir_97aefd0d527b934f1d99a682da8fe6a9</title>
<text text-anchor="middle" x="121" y="-188" font-family="Helvetica,sans-Serif" font-size="10.00">lib</text>
</g>
<!-- dir_28bd77c38ae26718d4d5cff1fc81c55c -->
<g id="node2" class="node">
<title>dir_28bd77c38ae26718d4d5cff1fc81c55c</title>
<g id="a_node2"><a xlink:href="dir_28bd77c38ae26718d4d5cff1fc81c55c.html" target="_top" xlink:title="chromosome">
<polygon fill="#a2b4d6" stroke="#404040" points="116,-145 36,-145 36,-126 116,-126 116,-145"/>
<text text-anchor="middle" x="76" y="-133" font-family="Helvetica,sans-Serif" font-size="10.00">chromosome</text>
</a>
</g>
</g>
<!-- dir_10d26e58304c18eadb892a0e1b7b93de -->
<g id="node3" class="node">
<title>dir_10d26e58304c18eadb892a0e1b7b93de</title>
<g id="a_node3"><a xlink:href="dir_10d26e58304c18eadb892a0e1b7b93de.html" target="_top" xlink:title="error">
<polygon fill="#a2b4d6" stroke="#404040" points="77,-35 37,-35 37,-16 77,-16 77,-35"/>
<text text-anchor="middle" x="57" y="-23" font-family="Helvetica,sans-Serif" font-size="10.00">error</text>
</a>
</g>
</g>
<!-- dir_28bd77c38ae26718d4d5cff1fc81c55c&#45;&gt;dir_10d26e58304c18eadb892a0e1b7b93de -->
<g id="edge1" class="edge">
<title>dir_28bd77c38ae26718d4d5cff1fc81c55c&#45;&gt;dir_10d26e58304c18eadb892a0e1b7b93de</title>
<path fill="none" stroke="#63b8ff" d="M74.16,-125.99C72.26,-117.05 69.26,-102.57 67,-90 64.31,-75.03 61.65,-58 59.75,-45.35"/>
<polygon fill="#63b8ff" stroke="#63b8ff" points="63.17,-44.53 58.24,-35.15 56.24,-45.55 63.17,-44.53"/>
<g id="a_edge1&#45;headlabel"><a xlink:href="dir_000000_000002.html" target="_top" xlink:title="1">
<text text-anchor="middle" x="66.5" y="-45.17" font-family="Helvetica,sans-Serif" font-size="10.00" fill="#63b8ff">1</text>
</a>
</g>
</g>
<!-- dir_4ce02b87227cef1244bdd1fa3b12a08b -->
<g id="node5" class="node">
<title>dir_4ce02b87227cef1244bdd1fa3b12a08b</title>
<g id="a_node5"><a xlink:href="dir_4ce02b87227cef1244bdd1fa3b12a08b.html" target="_top" xlink:title="utils">
<polygon fill="#a2b4d6" stroke="#404040" points="114,-90 76,-90 76,-71 114,-71 114,-90"/>
<text text-anchor="middle" x="95" y="-78" font-family="Helvetica,sans-Serif" font-size="10.00">utils</text>
</a>
</g>
</g>
<!-- dir_28bd77c38ae26718d4d5cff1fc81c55c&#45;&gt;dir_4ce02b87227cef1244bdd1fa3b12a08b -->
<g id="edge2" class="edge">
<title>dir_28bd77c38ae26718d4d5cff1fc81c55c&#45;&gt;dir_4ce02b87227cef1244bdd1fa3b12a08b</title>
<path fill="none" stroke="#63b8ff" d="M79.14,-125.75C81.68,-118.65 85.36,-108.4 88.53,-99.56"/>
<polygon fill="#63b8ff" stroke="#63b8ff" points="91.84,-100.68 91.92,-90.09 85.25,-98.32 91.84,-100.68"/>
<g id="a_edge2&#45;headlabel"><a xlink:href="dir_000000_000016.html" target="_top" xlink:title="2">
<text text-anchor="middle" x="93.3" y="-102.53" font-family="Helvetica,sans-Serif" font-size="10.00" fill="#63b8ff">2</text>
</a>
</g>
</g>
<!-- dir_6e380214a40d15c3f3c80c4f7c122ba3 -->
<g id="node4" class="node">
<title>dir_6e380214a40d15c3f3c80c4f7c122ba3</title>
<g id="a_node4"><a xlink:href="dir_6e380214a40d15c3f3c80c4f7c122ba3.html" target="_top" xlink:title="population">
<polygon fill="#a2b4d6" stroke="#404040" points="88,-200 20,-200 20,-181 88,-181 88,-200"/>
<text text-anchor="middle" x="54" y="-188" font-family="Helvetica,sans-Serif" font-size="10.00">population</text>
</a>
</g>
</g>
<!-- dir_6e380214a40d15c3f3c80c4f7c122ba3&#45;&gt;dir_28bd77c38ae26718d4d5cff1fc81c55c -->
<g id="edge5" class="edge">
<title>dir_6e380214a40d15c3f3c80c4f7c122ba3&#45;&gt;dir_28bd77c38ae26718d4d5cff1fc81c55c</title>
<path fill="none" stroke="#63b8ff" d="M57.63,-180.75C60.58,-173.65 64.83,-163.4 68.51,-154.56"/>
<polygon fill="#63b8ff" stroke="#63b8ff" points="71.83,-155.67 72.43,-145.09 65.37,-152.98 71.83,-155.67"/>
<g id="a_edge5&#45;headlabel"><a xlink:href="dir_000013_000000.html" target="_top" xlink:title="1">
<text text-anchor="middle" x="73.08" y="-157.58" font-family="Helvetica,sans-Serif" font-size="10.00" fill="#63b8ff">1</text>
</a>
</g>
</g>
<!-- dir_6e380214a40d15c3f3c80c4f7c122ba3&#45;&gt;dir_10d26e58304c18eadb892a0e1b7b93de -->
<g id="edge3" class="edge">
<title>dir_6e380214a40d15c3f3c80c4f7c122ba3&#45;&gt;dir_10d26e58304c18eadb892a0e1b7b93de</title>
<path fill="none" stroke="#63b8ff" d="M46.85,-180.97C40.23,-172.48 30.85,-158.75 27,-145 17.04,-109.39 34.53,-67.37 46.72,-44.15"/>
<polygon fill="#63b8ff" stroke="#63b8ff" points="49.92,-45.61 51.68,-35.16 43.79,-42.23 49.92,-45.61"/>
<g id="a_edge3&#45;headlabel"><a xlink:href="dir_000013_000002.html" target="_top" xlink:title="2">
<text text-anchor="middle" x="50.67" y="-47.63" font-family="Helvetica,sans-Serif" font-size="10.00" fill="#63b8ff">2</text>
</a>
</g>
</g>
<!-- dir_6e380214a40d15c3f3c80c4f7c122ba3&#45;&gt;dir_4ce02b87227cef1244bdd1fa3b12a08b -->
<g id="edge4" class="edge">
<title>dir_6e380214a40d15c3f3c80c4f7c122ba3&#45;&gt;dir_4ce02b87227cef1244bdd1fa3b12a08b</title>
<path fill="none" stroke="#63b8ff" d="M79.51,-180.9C95.69,-173.96 115.35,-162.44 125,-145 133.62,-129.42 122.65,-110.96 111.63,-97.97"/>
<polygon fill="#63b8ff" stroke="#63b8ff" points="113.93,-95.3 104.58,-90.3 108.78,-100.03 113.93,-95.3"/>
<g id="a_edge4&#45;headlabel"><a xlink:href="dir_000013_000016.html" target="_top" xlink:title="2">
<text text-anchor="middle" x="118.45" y="-93.52" font-family="Helvetica,sans-Serif" font-size="10.00" fill="#63b8ff">2</text>
</a>
</g>
</g>
<!-- dir_4ce02b87227cef1244bdd1fa3b12a08b&#45;&gt;dir_10d26e58304c18eadb892a0e1b7b93de -->
<g id="edge6" class="edge">
<title>dir_4ce02b87227cef1244bdd1fa3b12a08b&#45;&gt;dir_10d26e58304c18eadb892a0e1b7b93de</title>
<path fill="none" stroke="#63b8ff" d="M88.73,-70.75C83.41,-63.34 75.64,-52.5 69.12,-43.41"/>
<polygon fill="#63b8ff" stroke="#63b8ff" points="71.83,-41.18 63.16,-35.09 66.14,-45.26 71.83,-41.18"/>
<g id="a_edge6&#45;headlabel"><a xlink:href="dir_000016_000002.html" target="_top" xlink:title="1">
<text text-anchor="middle" x="76.23" y="-39.94" font-family="Helvetica,sans-Serif" font-size="10.00" fill="#63b8ff">1</text>
</a>
</g>
</g>
</g>
</svg>
