<?xml version="1.0" encoding="UTF-8" standalone="no"?>
<!DOCTYPE svg PUBLIC "-//W3C//DTD SVG 1.1//EN"
 "http://www.w3.org/Graphics/SVG/1.1/DTD/svg11.dtd">
<!-- Generated by graphviz version 2.43.0 (0)
 -->
<!-- Title: lib/population Pages: 1 -->
<svg width="192pt" height="196pt"
 viewBox="0.00 0.00 192.00 196.00" xmlns="http://www.w3.org/2000/svg" xmlns:xlink="http://www.w3.org/1999/xlink">
<g id="graph0" class="graph" transform="scale(1 1) rotate(0) translate(4 192)">
<title>lib/population</title>
<g id="clust1" class="cluster">
<title>clusterdir_97aefd0d527b934f1d99a682da8fe6a9</title>
<g id="a_clust1"><a xlink:href="dir_97aefd0d527b934f1d99a682da8fe6a9.html" target="_top" xlink:title="lib">
<polygon fill="#edf0f7" stroke="#404040" stroke-dasharray="5,2" points="8,-8 8,-180 176,-180 176,-8 8,-8"/>
<text text-anchor="middle" x="92" y="-168" font-family="Helvetica,sans-Serif" font-size="10.00">lib</text>
</a>
</g>
</g>
<g id="clust2" class="cluster">
<title>clusterdir_6e380214a40d15c3f3c80c4f7c122ba3</title>
<g id="a_clust2"><a xlink:href="dir_6e380214a40d15c3f3c80c4f7c122ba3.html" target="_top">
<polygon fill="#edf0f7" stroke="#404040" stroke-width="2" points="16,-63 16,-153 100,-153 100,-63 16,-63"/>
</a>
</g>
</g>
<!-- dir_10d26e58304c18eadb892a0e1b7b93de -->
<g id="node1" class="node">
<title>dir_10d26e58304c18eadb892a0e1b7b93de</title>
<g id="a_node1"><a xlink:href="dir_10d26e58304c18eadb892a0e1b7b93de.html" target="_top" xlink:title="error">
<polygon fill="#a2b4d6" stroke="red" points="148,-90 108,-90 108,-71 148,-71 148,-90"/>
<text text-anchor="middle" x="128" y="-78" font-family="Helvetica,sans-Serif" font-size="10.00">error</text>
</a>
</g>
</g>
<!-- dir_4ce02b87227cef1244bdd1fa3b12a08b -->
<g id="node2" class="node">
<title>dir_4ce02b87227cef1244bdd1fa3b12a08b</title>
<g id="a_node2"><a xlink:href="dir_4ce02b87227cef1244bdd1fa3b12a08b.html" target="_top" xlink:title="utils">
<polygon fill="#a2b4d6" stroke="red" points="164,-35 126,-35 126,-16 164,-16 164,-35"/>
<text text-anchor="middle" x="145" y="-23" font-family="Helvetica,sans-Serif" font-size="10.00">utils</text>
</a>
</g>
</g>
<!-- dir_28bd77c38ae26718d4d5cff1fc81c55c -->
<g id="node3" class="node">
<title>dir_28bd77c38ae26718d4d5cff1fc81c55c</title>
<g id="a_node3"><a xlink:href="dir_28bd77c38ae26718d4d5cff1fc81c55c.html" target="_top" xlink:title="chromosome">
<polygon fill="#a2b4d6" stroke="red" points="101,-35 21,-35 21,-16 101,-16 101,-35"/>
<text text-anchor="middle" x="61" y="-23" font-family="Helvetica,sans-Serif" font-size="10.00">chromosome</text>
</a>
</g>
</g>
<!-- dir_6e380214a40d15c3f3c80c4f7c122ba3 -->
<g id="node4" class="node">
<title>dir_6e380214a40d15c3f3c80c4f7c122ba3</title>
<text text-anchor="middle" x="58" y="-133" font-family="Helvetica,sans-Serif" font-size="10.00">population</text>
</g>
<!-- dir_6e380214a40d15c3f3c80c4f7c122ba3&#45;&gt;dir_10d26e58304c18eadb892a0e1b7b93de -->
<g id="edge1" class="edge">
<title>dir_6e380214a40d15c3f3c80c4f7c122ba3&#45;&gt;dir_10d26e58304c18eadb892a0e1b7b93de</title>
<path fill="none" stroke="#63b8ff" d="M69.25,-125.98C79.8,-118 95.8,-105.88 108.44,-96.31"/>
<polygon fill="#63b8ff" stroke="#63b8ff" points="110.69,-99 116.55,-90.17 106.46,-93.42 110.69,-99"/>
<g id="a_edge1&#45;headlabel"><a xlink:href="dir_000013_000002.html" target="_top" xlink:title="2">
<text text-anchor="middle" x="109.54" y="-100.93" font-family="Helvetica,sans-Serif" font-size="10.00" fill="#63b8ff">2</text>
</a>
</g>
</g>
<!-- dir_6e380214a40d15c3f3c80c4f7c122ba3&#45;&gt;dir_4ce02b87227cef1244bdd1fa3b12a08b -->
<g id="edge2" class="edge">
<title>dir_6e380214a40d15c3f3c80c4f7c122ba3&#45;&gt;dir_4ce02b87227cef1244bdd1fa3b12a08b</title>
<path fill="none" stroke="#63b8ff" d="M92.22,-128.89C114.81,-123.22 142.77,-111.99 157,-90 165.84,-76.34 160.81,-57.77 154.79,-44.25"/>
<polygon fill="#63b8ff" stroke="#63b8ff" points="157.8,-42.44 150.21,-35.05 151.54,-45.56 157.8,-42.44"/>
<g id="a_edge2&#45;headlabel"><a xlink:href="dir_000013_000016.html" target="_top" xlink:title="2">
<text text-anchor="middle" x="161.95" y="-41.89" font-family="Helvetica,sans-Serif" font-size="10.00" fill="#63b8ff">2</text>
</a>
</g>
</g>
<!-- dir_4f7908d82a8f0b4980ef77791422afbb -->
<g id="node5" class="node">
<title>dir_4f7908d82a8f0b4980ef77791422afbb</title>
<g id="a_node5"><a xlink:href="dir_4f7908d82a8f0b4980ef77791422afbb.html" target="_top" xlink:title="include">
<polygon fill="#a2b4d6" stroke="#404040" points="87,-90 35,-90 35,-71 87,-71 87,-90"/>
<text text-anchor="middle" x="61" y="-78" font-family="Helvetica,sans-Serif" font-size="10.00">include</text>
</a>
</g>
</g>
<!-- dir_6e380214a40d15c3f3c80c4f7c122ba3&#45;&gt;dir_4f7908d82a8f0b4980ef77791422afbb -->
<g id="edge3" class="edge">
<title>dir_6e380214a40d15c3f3c80c4f7c122ba3&#45;&gt;dir_4f7908d82a8f0b4980ef77791422afbb</title>
<path fill="none" stroke="#63b8ff" d="M58.5,-125.75C58.89,-118.8 59.45,-108.85 59.95,-100.13"/>
<polygon fill="#63b8ff" stroke="#63b8ff" points="63.44,-100.27 60.51,-90.09 56.45,-99.88 63.44,-100.27"/>
<g id="a_edge3&#45;headlabel"><a xlink:href="dir_000013_000010.html" target="_top" xlink:title="3">
<text text-anchor="middle" x="66.07" y="-101.52" font-family="Helvetica,sans-Serif" font-size="10.00" fill="#63b8ff">3</text>
</a>
</g>
</g>
<!-- dir_4f7908d82a8f0b4980ef77791422afbb&#45;&gt;dir_4ce02b87227cef1244bdd1fa3b12a08b -->
<g id="edge5" class="edge">
<title>dir_4f7908d82a8f0b4980ef77791422afbb&#45;&gt;dir_4ce02b87227cef1244bdd1fa3b12a08b</title>
<path fill="none" stroke="#63b8ff" d="M74.5,-70.98C87.4,-62.84 107.1,-50.41 122.4,-40.76"/>
<polygon fill="#63b8ff" stroke="#63b8ff" points="124.67,-43.47 131.26,-35.17 120.93,-37.55 124.67,-43.47"/>
<g id="a_edge5&#45;headlabel"><a xlink:href="dir_000010_000016.html" target="_top" xlink:title="1">
<text text-anchor="middle" x="123.14" y="-45.29" font-family="Helvetica,sans-Serif" font-size="10.00" fill="#63b8ff">1</text>
</a>
</g>
</g>
<!-- dir_4f7908d82a8f0b4980ef77791422afbb&#45;&gt;dir_28bd77c38ae26718d4d5cff1fc81c55c -->
<g id="edge4" class="edge">
<title>dir_4f7908d82a8f0b4980ef77791422afbb&#45;&gt;dir_28bd77c38ae26718d4d5cff1fc81c55c</title>
<path fill="none" stroke="#63b8ff" d="M61,-70.75C61,-63.8 61,-53.85 61,-45.13"/>
<polygon fill="#63b8ff" stroke="#63b8ff" points="64.5,-45.09 61,-35.09 57.5,-45.09 64.5,-45.09"/>
<g id="a_edge4&#45;headlabel"><a xlink:href="dir_000010_000000.html" target="_top" xlink:title="1">
<text text-anchor="middle" x="67.34" y="-46.18" font-family="Helvetica,sans-Serif" font-size="10.00" fill="#63b8ff">1</text>
</a>
</g>
</g>
</g>
</svg>
