<?xml version="1.0" encoding="UTF-8" standalone="no"?>
<!DOCTYPE svg PUBLIC "-//W3C//DTD SVG 1.1//EN"
 "http://www.w3.org/Graphics/SVG/1.1/DTD/svg11.dtd">
<!-- Generated by graphviz version 2.43.0 (0)
 -->
<!-- Title: lib/error/include/genixx/error/exceptions.h Pages: 1 -->
<svg width="574pt" height="434pt"
 viewBox="0.00 0.00 573.50 434.00" xmlns="http://www.w3.org/2000/svg" xmlns:xlink="http://www.w3.org/1999/xlink">
<g id="graph0" class="graph" transform="scale(1 1) rotate(0) translate(4 430)">
<title>lib/error/include/genixx/error/exceptions.h</title>
<!-- Node1 -->
<g id="node1" class="node">
<title>Node1</title>
<g id="a_node1"><a xlink:title=" ">
<polygon fill="#999999" stroke="#666666" points="546,-426 417,-426 417,-396 546,-396 546,-426"/>
<text text-anchor="start" x="425" y="-414" font-family="Helvetica,sans-Serif" font-size="10.00">lib/error/include/genixx</text>
<text text-anchor="middle" x="481.5" y="-403" font-family="Helvetica,sans-Serif" font-size="10.00">/error/exceptions.h</text>
</a>
</g>
</g>
<!-- Node2 -->
<g id="node2" class="node">
<title>Node2</title>
<g id="a_node2"><a xlink:href="Chromosome_8h.html" target="_top" xlink:title=" ">
<polygon fill="white" stroke="#666666" points="385,-294 188,-294 188,-264 385,-264 385,-294"/>
<text text-anchor="start" x="196" y="-282" font-family="Helvetica,sans-Serif" font-size="10.00">lib/chromosome/include</text>
<text text-anchor="middle" x="286.5" y="-271" font-family="Helvetica,sans-Serif" font-size="10.00">/genixx/chromosome/Chromosome.h</text>
</a>
</g>
</g>
<!-- Node1&#45;&gt;Node2 -->
<g id="edge1" class="edge">
<title>Node1&#45;&gt;Node2</title>
<path fill="none" stroke="#63b8ff" d="M426.56,-392.37C405.52,-384.26 381.93,-373.42 362.5,-360 335.39,-341.28 310.4,-311.6 296.92,-294.14"/>
<polygon fill="#63b8ff" stroke="#63b8ff" points="425.43,-395.69 436.02,-395.91 427.88,-389.13 425.43,-395.69"/>
</g>
<!-- Node5 -->
<g id="node5" class="node">
<title>Node5</title>
<g id="a_node5"><a xlink:href="Individual_8cpp.html" target="_top" xlink:title=" ">
<polygon fill="white" stroke="#666666" points="537,-151 382,-151 382,-132 537,-132 537,-151"/>
<text text-anchor="middle" x="459.5" y="-139" font-family="Helvetica,sans-Serif" font-size="10.00">lib/population/Individual.cpp</text>
</a>
</g>
</g>
<!-- Node1&#45;&gt;Node5 -->
<g id="edge9" class="edge">
<title>Node1&#45;&gt;Node5</title>
<path fill="none" stroke="#63b8ff" d="M496.84,-387.29C501.54,-379.06 506.11,-369.45 508.5,-360 511.77,-347.07 509.7,-343.28 508.5,-330 503.15,-270.61 502.21,-254.94 484.5,-198 479.16,-180.85 469.89,-162 464.26,-151.27"/>
<polygon fill="#63b8ff" stroke="#63b8ff" points="493.79,-385.56 491.57,-395.92 499.77,-389.2 493.79,-385.56"/>
</g>
<!-- Node7 -->
<g id="node7" class="node">
<title>Node7</title>
<g id="a_node7"><a xlink:href="Population_8cpp.html" target="_top" xlink:title=" ">
<polygon fill="white" stroke="#666666" points="492.5,-19 334.5,-19 334.5,0 492.5,0 492.5,-19"/>
<text text-anchor="middle" x="413.5" y="-7" font-family="Helvetica,sans-Serif" font-size="10.00">lib/population/Population.cpp</text>
</a>
</g>
</g>
<!-- Node1&#45;&gt;Node7 -->
<g id="edge10" class="edge">
<title>Node1&#45;&gt;Node7</title>
<path fill="none" stroke="#63b8ff" d="M506.15,-388.87C530.93,-365.14 565.5,-324.13 565.5,-280 565.5,-280 565.5,-280 565.5,-140.5 565.5,-74.87 482.65,-35.29 439.28,-19.07"/>
<polygon fill="#63b8ff" stroke="#63b8ff" points="503.46,-386.59 498.5,-395.95 508.21,-391.73 503.46,-386.59"/>
</g>
<!-- Node9 -->
<g id="node9" class="node">
<title>Node9</title>
<g id="a_node9"><a xlink:href="random_8h.html" target="_top" xlink:title=" ">
<polygon fill="white" stroke="#666666" points="499,-360 372,-360 372,-330 499,-330 499,-360"/>
<text text-anchor="start" x="380" y="-348" font-family="Helvetica,sans-Serif" font-size="10.00">lib/utils/include/genixx</text>
<text text-anchor="middle" x="435.5" y="-337" font-family="Helvetica,sans-Serif" font-size="10.00">/utils/random.h</text>
</a>
</g>
</g>
<!-- Node1&#45;&gt;Node9 -->
<g id="edge11" class="edge">
<title>Node1&#45;&gt;Node9</title>
<path fill="none" stroke="#63b8ff" d="M465.35,-387.53C458.81,-378.43 451.45,-368.19 445.68,-360.16"/>
<polygon fill="#63b8ff" stroke="#63b8ff" points="462.61,-389.72 471.29,-395.8 468.3,-385.63 462.61,-389.72"/>
</g>
<!-- Node3 -->
<g id="node3" class="node">
<title>Node3</title>
<g id="a_node3"><a xlink:href="NumericChromosome_8h.html" target="_top" xlink:title=" ">
<polygon fill="white" stroke="#666666" points="423.5,-228 185.5,-228 185.5,-198 423.5,-198 423.5,-228"/>
<text text-anchor="start" x="193.5" y="-216" font-family="Helvetica,sans-Serif" font-size="10.00">lib/chromosome/include</text>
<text text-anchor="middle" x="304.5" y="-205" font-family="Helvetica,sans-Serif" font-size="10.00">/genixx/chromosome/NumericChromosome.h</text>
</a>
</g>
</g>
<!-- Node2&#45;&gt;Node3 -->
<g id="edge2" class="edge">
<title>Node2&#45;&gt;Node3</title>
<path fill="none" stroke="#63b8ff" d="M293.22,-254.11C295.68,-245.38 298.37,-235.78 300.52,-228.16"/>
<polygon fill="#63b8ff" stroke="#63b8ff" points="289.83,-253.22 290.49,-263.8 296.57,-255.12 289.83,-253.22"/>
</g>
<!-- Node4 -->
<g id="node4" class="node">
<title>Node4</title>
<g id="a_node4"><a xlink:href="Individual_8h.html" target="_top" xlink:title=" ">
<polygon fill="white" stroke="#666666" points="167,-228 0,-228 0,-198 167,-198 167,-228"/>
<text text-anchor="start" x="8" y="-216" font-family="Helvetica,sans-Serif" font-size="10.00">lib/population/include</text>
<text text-anchor="middle" x="83.5" y="-205" font-family="Helvetica,sans-Serif" font-size="10.00">/genixx/population/Individual.h</text>
</a>
</g>
</g>
<!-- Node2&#45;&gt;Node4 -->
<g id="edge3" class="edge">
<title>Node2&#45;&gt;Node4</title>
<path fill="none" stroke="#63b8ff" d="M232.12,-260.86C199.53,-250.58 158.6,-237.68 127.95,-228.01"/>
<polygon fill="#63b8ff" stroke="#63b8ff" points="231.36,-264.29 241.95,-263.95 233.47,-257.61 231.36,-264.29"/>
</g>
<!-- Node4&#45;&gt;Node5 -->
<g id="edge4" class="edge">
<title>Node4&#45;&gt;Node5</title>
<path fill="none" stroke="#63b8ff" d="M169.6,-196.09C245.41,-182.07 352.88,-162.21 413.42,-151.02"/>
<polygon fill="#63b8ff" stroke="#63b8ff" points="168.79,-192.68 159.59,-197.94 170.06,-199.56 168.79,-192.68"/>
</g>
<!-- Node6 -->
<g id="node6" class="node">
<title>Node6</title>
<g id="a_node6"><a xlink:href="Population_8h.html" target="_top" xlink:title=" ">
<polygon fill="white" stroke="#666666" points="348,-85 177,-85 177,-55 348,-55 348,-85"/>
<text text-anchor="start" x="185" y="-73" font-family="Helvetica,sans-Serif" font-size="10.00">lib/population/include</text>
<text text-anchor="middle" x="262.5" y="-62" font-family="Helvetica,sans-Serif" font-size="10.00">/genixx/population/Population.h</text>
</a>
</g>
</g>
<!-- Node4&#45;&gt;Node6 -->
<g id="edge5" class="edge">
<title>Node4&#45;&gt;Node6</title>
<path fill="none" stroke="#63b8ff" d="M102.33,-190.42C120.03,-170.89 147.85,-142.05 175.5,-121 193.8,-107.07 216.35,-94.21 233.92,-85.02"/>
<polygon fill="#63b8ff" stroke="#63b8ff" points="99.68,-188.13 95.62,-197.91 104.9,-192.79 99.68,-188.13"/>
</g>
<!-- Node8 -->
<g id="node8" class="node">
<title>Node8</title>
<g id="a_node8"><a xlink:href="method_8h.html" target="_top" xlink:title=" ">
<polygon fill="white" stroke="#666666" points="340,-162 185,-162 185,-121 340,-121 340,-162"/>
<text text-anchor="start" x="193" y="-150" font-family="Helvetica,sans-Serif" font-size="10.00">lib/population/include</text>
<text text-anchor="start" x="193" y="-139" font-family="Helvetica,sans-Serif" font-size="10.00">/genixx/population/selection</text>
<text text-anchor="middle" x="262.5" y="-128" font-family="Helvetica,sans-Serif" font-size="10.00">/method.h</text>
</a>
</g>
</g>
<!-- Node4&#45;&gt;Node8 -->
<g id="edge7" class="edge">
<title>Node4&#45;&gt;Node8</title>
<path fill="none" stroke="#63b8ff" d="M129.1,-194.29C154.44,-184.46 186.02,-172.2 212.09,-162.07"/>
<polygon fill="#63b8ff" stroke="#63b8ff" points="127.78,-191.05 119.72,-197.94 130.31,-197.58 127.78,-191.05"/>
</g>
<!-- Node6&#45;&gt;Node7 -->
<g id="edge6" class="edge">
<title>Node6&#45;&gt;Node7</title>
<path fill="none" stroke="#63b8ff" d="M308.1,-51.33C335.6,-40.68 369.41,-27.58 391.2,-19.14"/>
<polygon fill="#63b8ff" stroke="#63b8ff" points="306.73,-48.11 298.67,-54.99 309.26,-54.64 306.73,-48.11"/>
</g>
<!-- Node8&#45;&gt;Node6 -->
<g id="edge8" class="edge">
<title>Node8&#45;&gt;Node6</title>
<path fill="none" stroke="#63b8ff" d="M262.5,-110.66C262.5,-101.76 262.5,-92.42 262.5,-85.04"/>
<polygon fill="#63b8ff" stroke="#63b8ff" points="259,-110.77 262.5,-120.77 266,-110.77 259,-110.77"/>
</g>
<!-- Node9&#45;&gt;Node2 -->
<g id="edge12" class="edge">
<title>Node9&#45;&gt;Node2</title>
<path fill="none" stroke="#63b8ff" d="M393.41,-325.92C369.86,-315.8 340.94,-303.38 319.12,-294.01"/>
<polygon fill="#63b8ff" stroke="#63b8ff" points="392.23,-329.22 402.8,-329.95 394.99,-322.79 392.23,-329.22"/>
</g>
<!-- Node9&#45;&gt;Node3 -->
<g id="edge13" class="edge">
<title>Node9&#45;&gt;Node3</title>
<path fill="none" stroke="#63b8ff" d="M427.46,-319.87C420.78,-302.68 409.86,-279.89 394.5,-264 379.47,-248.45 358.54,-236.43 340.64,-228.08"/>
<polygon fill="#63b8ff" stroke="#63b8ff" points="424.35,-321.56 431.08,-329.74 430.92,-319.15 424.35,-321.56"/>
</g>
<!-- Node9&#45;&gt;Node5 -->
<g id="edge14" class="edge">
<title>Node9&#45;&gt;Node5</title>
<path fill="none" stroke="#63b8ff" d="M452.75,-321.14C457.9,-313 462.87,-303.5 465.5,-294 480.04,-241.49 467.14,-174.84 461.67,-151.26"/>
<polygon fill="#63b8ff" stroke="#63b8ff" points="449.69,-319.42 446.98,-329.66 455.48,-323.35 449.69,-319.42"/>
</g>
<!-- Node9&#45;&gt;Node8 -->
<g id="edge15" class="edge">
<title>Node9&#45;&gt;Node8</title>
<path fill="none" stroke="#63b8ff" d="M442.8,-319.8C450.67,-288.42 458.84,-233.53 432.5,-198 420.81,-182.22 379.16,-168.49 340.02,-158.63"/>
<polygon fill="#63b8ff" stroke="#63b8ff" points="439.32,-319.28 440.08,-329.85 446.07,-321.11 439.32,-319.28"/>
</g>
</g>
</svg>
