<?xml version="1.0" encoding="UTF-8" standalone="no"?>
<!DOCTYPE svg PUBLIC "-//W3C//DTD SVG 1.1//EN"
 "http://www.w3.org/Graphics/SVG/1.1/DTD/svg11.dtd">
<!-- Generated by graphviz version 2.43.0 (0)
 -->
<!-- Title: lib/error/include/genixx/error/exceptions.h Pages: 1 -->
<svg width="377pt" height="291pt"
 viewBox="0.00 0.00 376.81 291.00" xmlns="http://www.w3.org/2000/svg" xmlns:xlink="http://www.w3.org/1999/xlink">
<g id="graph0" class="graph" transform="scale(1 1) rotate(0) translate(4 287)">
<title>lib/error/include/genixx/error/exceptions.h</title>
<!-- Node1 -->
<g id="node1" class="node">
<title>Node1</title>
<g id="a_node1"><a xlink:title=" ">
<polygon fill="#999999" stroke="#666666" points="365,-283 236,-283 236,-253 365,-253 365,-283"/>
<text text-anchor="start" x="244" y="-271" font-family="Helvetica,sans-Serif" font-size="10.00">lib/error/include/genixx</text>
<text text-anchor="middle" x="300.5" y="-260" font-family="Helvetica,sans-Serif" font-size="10.00">/error/exceptions.h</text>
</a>
</g>
</g>
<!-- Node2 -->
<g id="node2" class="node">
<title>Node2</title>
<g id="a_node2"><a xlink:href="Chromosome_8h.html" target="_top" xlink:title=" ">
<polygon fill="white" stroke="#666666" points="272,-217 75,-217 75,-187 272,-187 272,-217"/>
<text text-anchor="start" x="83" y="-205" font-family="Helvetica,sans-Serif" font-size="10.00">lib/chromosome/include</text>
<text text-anchor="middle" x="173.5" y="-194" font-family="Helvetica,sans-Serif" font-size="10.00">/genixx/chromosome/Chromosome.h</text>
</a>
</g>
</g>
<!-- Node1&#45;&gt;Node2 -->
<g id="edge1" class="edge">
<title>Node1&#45;&gt;Node2</title>
<path fill="none" stroke="#63b8ff" d="M263.55,-248.38C243.67,-238.36 219.57,-226.22 201.31,-217.01"/>
<polygon fill="#63b8ff" stroke="#63b8ff" points="262.12,-251.58 272.63,-252.95 265.27,-245.33 262.12,-251.58"/>
</g>
<!-- Node4 -->
<g id="node4" class="node">
<title>Node4</title>
<g id="a_node4"><a xlink:href="Individual_8cpp.html" target="_top" xlink:title=" ">
<polygon fill="white" stroke="#666666" points="344,-79.5 189,-79.5 189,-60.5 344,-60.5 344,-79.5"/>
<text text-anchor="middle" x="266.5" y="-67.5" font-family="Helvetica,sans-Serif" font-size="10.00">lib/population/Individual.cpp</text>
</a>
</g>
</g>
<!-- Node1&#45;&gt;Node4 -->
<g id="edge6" class="edge">
<title>Node1&#45;&gt;Node4</title>
<path fill="none" stroke="#63b8ff" d="M296.31,-242.83C288.7,-198.97 272.95,-108.18 268.01,-79.73"/>
<polygon fill="#63b8ff" stroke="#63b8ff" points="292.9,-243.65 298.05,-252.9 299.79,-242.45 292.9,-243.65"/>
</g>
<!-- Node6 -->
<g id="node6" class="node">
<title>Node6</title>
<g id="a_node6"><a xlink:href="Population_8cpp.html" target="_top" xlink:title=" ">
<polygon fill="white" stroke="#666666" points="307.5,-19 149.5,-19 149.5,0 307.5,0 307.5,-19"/>
<text text-anchor="middle" x="228.5" y="-7" font-family="Helvetica,sans-Serif" font-size="10.00">lib/population/Population.cpp</text>
</a>
</g>
</g>
<!-- Node1&#45;&gt;Node6 -->
<g id="edge7" class="edge">
<title>Node1&#45;&gt;Node6</title>
<path fill="none" stroke="#63b8ff" d="M316.71,-244.68C344.47,-203.49 394.25,-114.34 352.5,-55 339.27,-36.2 317.32,-25.3 295.53,-19"/>
<polygon fill="#63b8ff" stroke="#63b8ff" points="313.81,-242.72 311,-252.94 319.57,-246.7 313.81,-242.72"/>
</g>
<!-- Node3 -->
<g id="node3" class="node">
<title>Node3</title>
<g id="a_node3"><a xlink:href="Individual_8h.html" target="_top" xlink:title=" ">
<polygon fill="white" stroke="#666666" points="257,-151 90,-151 90,-121 257,-121 257,-151"/>
<text text-anchor="start" x="98" y="-139" font-family="Helvetica,sans-Serif" font-size="10.00">lib/population/include</text>
<text text-anchor="middle" x="173.5" y="-128" font-family="Helvetica,sans-Serif" font-size="10.00">/genixx/population/Individual.h</text>
</a>
</g>
</g>
<!-- Node2&#45;&gt;Node3 -->
<g id="edge2" class="edge">
<title>Node2&#45;&gt;Node3</title>
<path fill="none" stroke="#63b8ff" d="M173.5,-176.54C173.5,-167.96 173.5,-158.61 173.5,-151.16"/>
<polygon fill="#63b8ff" stroke="#63b8ff" points="170,-176.8 173.5,-186.8 177,-176.8 170,-176.8"/>
</g>
<!-- Node3&#45;&gt;Node4 -->
<g id="edge3" class="edge">
<title>Node3&#45;&gt;Node4</title>
<path fill="none" stroke="#63b8ff" d="M202.75,-114.87C219.96,-103.03 240.86,-88.65 253.92,-79.66"/>
<polygon fill="#63b8ff" stroke="#63b8ff" points="200.39,-112.24 194.14,-120.8 204.36,-118.01 200.39,-112.24"/>
</g>
<!-- Node5 -->
<g id="node5" class="node">
<title>Node5</title>
<g id="a_node5"><a xlink:href="Population_8h.html" target="_top" xlink:title=" ">
<polygon fill="white" stroke="#666666" points="171,-85 0,-85 0,-55 171,-55 171,-85"/>
<text text-anchor="start" x="8" y="-73" font-family="Helvetica,sans-Serif" font-size="10.00">lib/population/include</text>
<text text-anchor="middle" x="85.5" y="-62" font-family="Helvetica,sans-Serif" font-size="10.00">/genixx/population/Population.h</text>
</a>
</g>
</g>
<!-- Node3&#45;&gt;Node5 -->
<g id="edge4" class="edge">
<title>Node3&#45;&gt;Node5</title>
<path fill="none" stroke="#63b8ff" d="M145.66,-114.75C132.43,-105.13 116.93,-93.86 104.98,-85.16"/>
<polygon fill="#63b8ff" stroke="#63b8ff" points="143.82,-117.75 153.97,-120.8 147.94,-112.08 143.82,-117.75"/>
</g>
<!-- Node5&#45;&gt;Node6 -->
<g id="edge5" class="edge">
<title>Node5&#45;&gt;Node6</title>
<path fill="none" stroke="#63b8ff" d="M129.03,-51.19C155.01,-40.57 186.84,-27.54 207.38,-19.14"/>
<polygon fill="#63b8ff" stroke="#63b8ff" points="127.68,-47.96 119.75,-54.99 130.33,-54.44 127.68,-47.96"/>
</g>
</g>
</svg>
