<?xml version="1.0" encoding="UTF-8" standalone="no"?>
<!DOCTYPE svg PUBLIC "-//W3C//DTD SVG 1.1//EN"
 "http://www.w3.org/Graphics/SVG/1.1/DTD/svg11.dtd">
<!-- Generated by graphviz version 2.43.0 (0)
 -->
<!-- Title: lib/population/include/genixx/population/Individual.h Pages: 1 -->
<svg width="724pt" height="203pt"
 viewBox="0.00 0.00 723.50 203.00" xmlns="http://www.w3.org/2000/svg" xmlns:xlink="http://www.w3.org/1999/xlink">
<g id="graph0" class="graph" transform="scale(1 1) rotate(0) translate(4 199)">
<title>lib/population/include/genixx/population/Individual.h</title>
<!-- Node1 -->
<g id="node1" class="node">
<title>Node1</title>
<g id="a_node1"><a xlink:title=" ">
<polygon fill="#999999" stroke="#666666" points="559.5,-195 392.5,-195 392.5,-165 559.5,-165 559.5,-195"/>
<text text-anchor="start" x="400.5" y="-183" font-family="Helvetica,sans-Serif" font-size="10.00">lib/population/include</text>
<text text-anchor="middle" x="476" y="-172" font-family="Helvetica,sans-Serif" font-size="10.00">/genixx/population/Individual.h</text>
</a>
</g>
</g>
<!-- Node2 -->
<g id="node2" class="node">
<title>Node2</title>
<g id="a_node2"><a xlink:href="Chromosome_8h.html" target="_top" xlink:title=" ">
<polygon fill="white" stroke="#666666" points="370,-129 176,-129 176,-110 370,-110 370,-129"/>
<text text-anchor="middle" x="273" y="-117" font-family="Helvetica,sans-Serif" font-size="10.00">genixx/chromosome/Chromosome.h</text>
</a>
</g>
</g>
<!-- Node1&#45;&gt;Node2 -->
<g id="edge1" class="edge">
<title>Node1&#45;&gt;Node2</title>
<path fill="none" stroke="#63b8ff" d="M427.38,-164.99C392.19,-154.85 345.24,-141.32 312.4,-131.85"/>
<polygon fill="#63b8ff" stroke="#63b8ff" points="313.26,-128.46 302.68,-129.05 311.32,-135.19 313.26,-128.46"/>
</g>
<!-- Node5 -->
<g id="node5" class="node">
<title>Node5</title>
<g id="a_node5"><a xlink:title=" ">
<polygon fill="#e0e0e0" stroke="#999999" points="444,-19 400,-19 400,0 444,0 444,-19"/>
<text text-anchor="middle" x="422" y="-7" font-family="Helvetica,sans-Serif" font-size="10.00">string</text>
</a>
</g>
</g>
<!-- Node1&#45;&gt;Node5 -->
<g id="edge15" class="edge">
<title>Node1&#45;&gt;Node5</title>
<path fill="none" stroke="#63b8ff" d="M482.07,-164.62C491.29,-140.44 505.85,-90.75 487,-55 479.76,-41.27 466.17,-30.97 453.28,-23.76"/>
<polygon fill="#63b8ff" stroke="#63b8ff" points="454.61,-20.51 444.12,-19.05 451.41,-26.73 454.61,-20.51"/>
</g>
<!-- Node7 -->
<g id="node7" class="node">
<title>Node7</title>
<g id="a_node7"><a xlink:title=" ">
<polygon fill="#e0e0e0" stroke="#999999" points="50,-19 0,-19 0,0 50,0 50,-19"/>
<text text-anchor="middle" x="25" y="-7" font-family="Helvetica,sans-Serif" font-size="10.00">cstdint</text>
</a>
</g>
</g>
<!-- Node1&#45;&gt;Node7 -->
<g id="edge11" class="edge">
<title>Node1&#45;&gt;Node7</title>
<path fill="none" stroke="#63b8ff" d="M392.31,-170.48C329.54,-162.89 241.9,-149.72 167,-129 103.36,-111.4 67.75,-127.46 29,-74 19.78,-61.28 19.57,-43.1 21.2,-29.45"/>
<polygon fill="#63b8ff" stroke="#63b8ff" points="24.71,-29.7 22.85,-19.27 17.8,-28.58 24.71,-29.7"/>
</g>
<!-- Node9 -->
<g id="node9" class="node">
<title>Node9</title>
<g id="a_node9"><a xlink:title=" ">
<polygon fill="#e0e0e0" stroke="#999999" points="412,-74 354,-74 354,-55 412,-55 412,-74"/>
<text text-anchor="middle" x="383" y="-62" font-family="Helvetica,sans-Serif" font-size="10.00">memory</text>
</a>
</g>
</g>
<!-- Node1&#45;&gt;Node9 -->
<g id="edge14" class="edge">
<title>Node1&#45;&gt;Node9</title>
<path fill="none" stroke="#63b8ff" d="M464.22,-164.63C446.96,-143.56 414.87,-104.4 396.62,-82.13"/>
<polygon fill="#63b8ff" stroke="#63b8ff" points="399.2,-79.75 390.15,-74.23 393.78,-84.18 399.2,-79.75"/>
</g>
<!-- Node10 -->
<g id="node10" class="node">
<title>Node10</title>
<g id="a_node10"><a xlink:title=" ">
<polygon fill="#e0e0e0" stroke="#999999" points="477.5,-74 430.5,-74 430.5,-55 477.5,-55 477.5,-74"/>
<text text-anchor="middle" x="454" y="-62" font-family="Helvetica,sans-Serif" font-size="10.00">vector</text>
</a>
</g>
</g>
<!-- Node1&#45;&gt;Node10 -->
<g id="edge17" class="edge">
<title>Node1&#45;&gt;Node10</title>
<path fill="none" stroke="#63b8ff" d="M473.21,-164.63C469.26,-144.21 462.01,-106.81 457.63,-84.24"/>
<polygon fill="#63b8ff" stroke="#63b8ff" points="461.03,-83.38 455.69,-74.23 454.16,-84.71 461.03,-83.38"/>
</g>
<!-- Node11 -->
<g id="node11" class="node">
<title>Node11</title>
<g id="a_node11"><a xlink:title=" ">
<polygon fill="#e0e0e0" stroke="#999999" points="595.5,-129 530.5,-129 530.5,-110 595.5,-110 595.5,-129"/>
<text text-anchor="middle" x="563" y="-117" font-family="Helvetica,sans-Serif" font-size="10.00">functional</text>
</a>
</g>
</g>
<!-- Node1&#45;&gt;Node11 -->
<g id="edge12" class="edge">
<title>Node1&#45;&gt;Node11</title>
<path fill="none" stroke="#63b8ff" d="M497.06,-164.84C510.54,-155.77 527.99,-144.04 541.55,-134.92"/>
<polygon fill="#63b8ff" stroke="#63b8ff" points="543.87,-137.58 550.22,-129.09 539.97,-131.77 543.87,-137.58"/>
</g>
<!-- Node12 -->
<g id="node12" class="node">
<title>Node12</title>
<g id="a_node12"><a xlink:title=" ">
<polygon fill="#e0e0e0" stroke="#999999" points="652,-129 614,-129 614,-110 652,-110 652,-129"/>
<text text-anchor="middle" x="633" y="-117" font-family="Helvetica,sans-Serif" font-size="10.00">map</text>
</a>
</g>
</g>
<!-- Node1&#45;&gt;Node12 -->
<g id="edge13" class="edge">
<title>Node1&#45;&gt;Node12</title>
<path fill="none" stroke="#63b8ff" d="M513.61,-164.99C541.48,-154.6 578.89,-140.66 604.35,-131.17"/>
<polygon fill="#63b8ff" stroke="#63b8ff" points="605.67,-134.42 613.81,-127.65 603.22,-127.86 605.67,-134.42"/>
</g>
<!-- Node13 -->
<g id="node13" class="node">
<title>Node13</title>
<g id="a_node13"><a xlink:title=" ">
<polygon fill="#e0e0e0" stroke="#999999" points="715.5,-129 670.5,-129 670.5,-110 715.5,-110 715.5,-129"/>
<text text-anchor="middle" x="693" y="-117" font-family="Helvetica,sans-Serif" font-size="10.00">utility</text>
</a>
</g>
</g>
<!-- Node1&#45;&gt;Node13 -->
<g id="edge16" class="edge">
<title>Node1&#45;&gt;Node13</title>
<path fill="none" stroke="#63b8ff" d="M527.98,-164.99C569.29,-153.85 625.77,-138.62 660.79,-129.18"/>
<polygon fill="#63b8ff" stroke="#63b8ff" points="661.75,-132.55 670.49,-126.57 659.93,-125.79 661.75,-132.55"/>
</g>
<!-- Node3 -->
<g id="node3" class="node">
<title>Node3</title>
<g id="a_node3"><a xlink:href="exceptions_8h.html" target="_top" xlink:title=" ">
<polygon fill="white" stroke="#666666" points="335.5,-74 194.5,-74 194.5,-55 335.5,-55 335.5,-74"/>
<text text-anchor="middle" x="265" y="-62" font-family="Helvetica,sans-Serif" font-size="10.00">genixx/error/exceptions.h</text>
</a>
</g>
</g>
<!-- Node2&#45;&gt;Node3 -->
<g id="edge2" class="edge">
<title>Node2&#45;&gt;Node3</title>
<path fill="none" stroke="#63b8ff" d="M271.68,-109.75C270.63,-102.8 269.13,-92.85 267.81,-84.13"/>
<polygon fill="#63b8ff" stroke="#63b8ff" points="271.25,-83.45 266.3,-74.09 264.33,-84.5 271.25,-83.45"/>
</g>
<!-- Node6 -->
<g id="node6" class="node">
<title>Node6</title>
<g id="a_node6"><a xlink:href="random_8h.html" target="_top" xlink:title=" ">
<polygon fill="white" stroke="#666666" points="176.5,-74 53.5,-74 53.5,-55 176.5,-55 176.5,-74"/>
<text text-anchor="middle" x="115" y="-62" font-family="Helvetica,sans-Serif" font-size="10.00">genixx/utils/random.h</text>
</a>
</g>
</g>
<!-- Node2&#45;&gt;Node6 -->
<g id="edge5" class="edge">
<title>Node2&#45;&gt;Node6</title>
<path fill="none" stroke="#63b8ff" d="M247.61,-109.98C221.2,-101.13 179.65,-87.19 150.11,-77.28"/>
<polygon fill="#63b8ff" stroke="#63b8ff" points="151.18,-73.94 140.58,-74.08 148.95,-80.58 151.18,-73.94"/>
</g>
<!-- Node2&#45;&gt;Node7 -->
<g id="edge8" class="edge">
<title>Node2&#45;&gt;Node7</title>
<path fill="none" stroke="#63b8ff" d="M178.42,-110C124.53,-103.3 63.89,-92.01 44,-74 31.62,-62.78 27.17,-43.87 25.64,-29.59"/>
<polygon fill="#63b8ff" stroke="#63b8ff" points="29.11,-29.11 24.94,-19.37 22.13,-29.59 29.11,-29.11"/>
</g>
<!-- Node2&#45;&gt;Node9 -->
<g id="edge9" class="edge">
<title>Node2&#45;&gt;Node9</title>
<path fill="none" stroke="#63b8ff" d="M290.67,-109.98C308.29,-101.5 335.58,-88.35 355.93,-78.54"/>
<polygon fill="#63b8ff" stroke="#63b8ff" points="357.52,-81.66 365.01,-74.17 354.48,-75.36 357.52,-81.66"/>
</g>
<!-- Node2&#45;&gt;Node10 -->
<g id="edge10" class="edge">
<title>Node2&#45;&gt;Node10</title>
<path fill="none" stroke="#63b8ff" d="M302.08,-109.98C334.41,-100.52 386.54,-85.25 420.54,-75.3"/>
<polygon fill="#63b8ff" stroke="#63b8ff" points="421.86,-78.56 430.47,-72.39 419.89,-71.84 421.86,-78.56"/>
</g>
<!-- Node4 -->
<g id="node4" class="node">
<title>Node4</title>
<g id="a_node4"><a xlink:title=" ">
<polygon fill="#e0e0e0" stroke="#999999" points="297.5,-19 232.5,-19 232.5,0 297.5,0 297.5,-19"/>
<text text-anchor="middle" x="265" y="-7" font-family="Helvetica,sans-Serif" font-size="10.00">exception</text>
</a>
</g>
</g>
<!-- Node3&#45;&gt;Node4 -->
<g id="edge3" class="edge">
<title>Node3&#45;&gt;Node4</title>
<path fill="none" stroke="#63b8ff" d="M265,-54.75C265,-47.8 265,-37.85 265,-29.13"/>
<polygon fill="#63b8ff" stroke="#63b8ff" points="268.5,-29.09 265,-19.09 261.5,-29.09 268.5,-29.09"/>
</g>
<!-- Node3&#45;&gt;Node5 -->
<g id="edge4" class="edge">
<title>Node3&#45;&gt;Node5</title>
<path fill="none" stroke="#63b8ff" d="M290.22,-54.98C317.36,-45.82 360.59,-31.23 390.07,-21.28"/>
<polygon fill="#63b8ff" stroke="#63b8ff" points="391.53,-24.48 399.88,-17.97 389.29,-17.85 391.53,-24.48"/>
</g>
<!-- Node6&#45;&gt;Node7 -->
<g id="edge6" class="edge">
<title>Node6&#45;&gt;Node7</title>
<path fill="none" stroke="#63b8ff" d="M100.54,-54.98C86.58,-46.77 65.21,-34.18 48.75,-24.49"/>
<polygon fill="#63b8ff" stroke="#63b8ff" points="50.12,-21.23 39.72,-19.17 46.56,-27.26 50.12,-21.23"/>
</g>
<!-- Node8 -->
<g id="node8" class="node">
<title>Node8</title>
<g id="a_node8"><a xlink:title=" ">
<polygon fill="#e0e0e0" stroke="#999999" points="142,-19 88,-19 88,0 142,0 142,-19"/>
<text text-anchor="middle" x="115" y="-7" font-family="Helvetica,sans-Serif" font-size="10.00">random</text>
</a>
</g>
</g>
<!-- Node6&#45;&gt;Node8 -->
<g id="edge7" class="edge">
<title>Node6&#45;&gt;Node8</title>
<path fill="none" stroke="#63b8ff" d="M115,-54.75C115,-47.8 115,-37.85 115,-29.13"/>
<polygon fill="#63b8ff" stroke="#63b8ff" points="118.5,-29.09 115,-19.09 111.5,-29.09 118.5,-29.09"/>
</g>
</g>
</svg>
