<?xml version="1.0" encoding="UTF-8" standalone="no"?>
<!DOCTYPE svg PUBLIC "-//W3C//DTD SVG 1.1//EN"
 "http://www.w3.org/Graphics/SVG/1.1/DTD/svg11.dtd">
<!-- Generated by graphviz version 2.43.0 (0)
 -->
<!-- Title: lib/population/Individual.cpp Pages: 1 -->
<svg width="726pt" height="302pt"
 viewBox="0.00 0.00 726.00 302.00" xmlns="http://www.w3.org/2000/svg" xmlns:xlink="http://www.w3.org/1999/xlink">
<g id="graph0" class="graph" transform="scale(1 1) rotate(0) translate(4 298)">
<title>lib/population/Individual.cpp</title>
<!-- Node1 -->
<g id="node1" class="node">
<title>Node1</title>
<g id="a_node1"><a xlink:title=" ">
<polygon fill="#999999" stroke="#666666" points="218,-294 63,-294 63,-275 218,-275 218,-294"/>
<text text-anchor="middle" x="140.5" y="-282" font-family="Helvetica,sans-Serif" font-size="10.00">lib/population/Individual.cpp</text>
</a>
</g>
</g>
<!-- Node2 -->
<g id="node2" class="node">
<title>Node2</title>
<g id="a_node2"><a xlink:href="Individual_8h.html" target="_top" xlink:title=" ">
<polygon fill="white" stroke="#666666" points="525.5,-239 361.5,-239 361.5,-220 525.5,-220 525.5,-239"/>
<text text-anchor="middle" x="443.5" y="-227" font-family="Helvetica,sans-Serif" font-size="10.00">genixx/population/Individual.h</text>
</a>
</g>
</g>
<!-- Node1&#45;&gt;Node2 -->
<g id="edge1" class="edge">
<title>Node1&#45;&gt;Node2</title>
<path fill="none" stroke="#63b8ff" d="M189.18,-274.98C242.44,-265.67 327.81,-250.74 384.75,-240.78"/>
<polygon fill="#63b8ff" stroke="#63b8ff" points="385.44,-244.21 394.69,-239.04 384.23,-237.31 385.44,-244.21"/>
</g>
<!-- Node4 -->
<g id="node4" class="node">
<title>Node4</title>
<g id="a_node4"><a xlink:href="exceptions_8h.html" target="_top" xlink:title=" ">
<polygon fill="white" stroke="#666666" points="364,-74 223,-74 223,-55 364,-55 364,-74"/>
<text text-anchor="middle" x="293.5" y="-62" font-family="Helvetica,sans-Serif" font-size="10.00">genixx/error/exceptions.h</text>
</a>
</g>
</g>
<!-- Node1&#45;&gt;Node4 -->
<g id="edge24" class="edge">
<title>Node1&#45;&gt;Node4</title>
<path fill="none" stroke="#63b8ff" d="M142.63,-274.85C147.96,-254.41 163.24,-202.04 188.5,-165 212.34,-130.05 250.28,-98 273.43,-80.18"/>
<polygon fill="#63b8ff" stroke="#63b8ff" points="275.65,-82.89 281.52,-74.07 271.43,-77.3 275.65,-82.89"/>
</g>
<!-- Node7 -->
<g id="node7" class="node">
<title>Node7</title>
<g id="a_node7"><a xlink:href="random_8h.html" target="_top" xlink:title=" ">
<polygon fill="white" stroke="#666666" points="185,-129 62,-129 62,-110 185,-110 185,-129"/>
<text text-anchor="middle" x="123.5" y="-117" font-family="Helvetica,sans-Serif" font-size="10.00">genixx/utils/random.h</text>
</a>
</g>
</g>
<!-- Node1&#45;&gt;Node7 -->
<g id="edge25" class="edge">
<title>Node1&#45;&gt;Node7</title>
<path fill="none" stroke="#63b8ff" d="M136.97,-274.81C133.57,-265.97 128.63,-251.78 126.5,-239 120.71,-204.27 121.32,-163.03 122.36,-139.5"/>
<polygon fill="#63b8ff" stroke="#63b8ff" points="125.87,-139.37 122.9,-129.2 118.88,-139.01 125.87,-139.37"/>
</g>
<!-- Node8 -->
<g id="node8" class="node">
<title>Node8</title>
<g id="a_node8"><a xlink:title=" ">
<polygon fill="#e0e0e0" stroke="#999999" points="67,-74 0,-74 0,-55 67,-55 67,-74"/>
<text text-anchor="middle" x="33.5" y="-62" font-family="Helvetica,sans-Serif" font-size="10.00">fmt/core.h</text>
</a>
</g>
</g>
<!-- Node1&#45;&gt;Node8 -->
<g id="edge26" class="edge">
<title>Node1&#45;&gt;Node8</title>
<path fill="none" stroke="#63b8ff" d="M134.6,-274.81C119.25,-251.88 77.51,-187.46 52.5,-129 46.27,-114.43 41.24,-97.17 37.93,-84.32"/>
<polygon fill="#63b8ff" stroke="#63b8ff" points="41.26,-83.22 35.47,-74.35 34.47,-84.89 41.26,-83.22"/>
</g>
<!-- Node17 -->
<g id="node17" class="node">
<title>Node17</title>
<g id="a_node17"><a xlink:title=" ">
<polygon fill="#e0e0e0" stroke="#999999" points="718,-184 673,-184 673,-165 718,-165 718,-184"/>
<text text-anchor="middle" x="695.5" y="-172" font-family="Helvetica,sans-Serif" font-size="10.00">utility</text>
</a>
</g>
</g>
<!-- Node1&#45;&gt;Node17 -->
<g id="edge27" class="edge">
<title>Node1&#45;&gt;Node17</title>
<path fill="none" stroke="#63b8ff" d="M218.2,-280.75C298.45,-276.51 426.79,-265.82 534.5,-239 583.43,-226.81 637.41,-203.31 668.78,-188.57"/>
<polygon fill="#63b8ff" stroke="#63b8ff" points="670.61,-191.58 678.13,-184.12 667.6,-185.25 670.61,-191.58"/>
</g>
<!-- Node3 -->
<g id="node3" class="node">
<title>Node3</title>
<g id="a_node3"><a xlink:href="Chromosome_8h.html" target="_top" xlink:title=" ">
<polygon fill="white" stroke="#666666" points="540.5,-184 346.5,-184 346.5,-165 540.5,-165 540.5,-184"/>
<text text-anchor="middle" x="443.5" y="-172" font-family="Helvetica,sans-Serif" font-size="10.00">genixx/chromosome/Chromosome.h</text>
</a>
</g>
</g>
<!-- Node2&#45;&gt;Node3 -->
<g id="edge2" class="edge">
<title>Node2&#45;&gt;Node3</title>
<path fill="none" stroke="#63b8ff" d="M443.5,-219.75C443.5,-212.8 443.5,-202.85 443.5,-194.13"/>
<polygon fill="#63b8ff" stroke="#63b8ff" points="447,-194.09 443.5,-184.09 440,-194.09 447,-194.09"/>
</g>
<!-- Node6 -->
<g id="node6" class="node">
<title>Node6</title>
<g id="a_node6"><a xlink:title=" ">
<polygon fill="#e0e0e0" stroke="#999999" points="513.5,-19 469.5,-19 469.5,0 513.5,0 513.5,-19"/>
<text text-anchor="middle" x="491.5" y="-7" font-family="Helvetica,sans-Serif" font-size="10.00">string</text>
</a>
</g>
</g>
<!-- Node2&#45;&gt;Node6 -->
<g id="edge21" class="edge">
<title>Node2&#45;&gt;Node6</title>
<path fill="none" stroke="#63b8ff" d="M517.64,-219.96C542.18,-213.65 567.74,-202.76 585.5,-184 602.84,-165.69 596.36,-154.03 599.5,-129 600.55,-120.62 602.89,-117.73 599.5,-110 582.47,-71.15 541.96,-40.77 515.68,-24.26"/>
<polygon fill="#63b8ff" stroke="#63b8ff" points="517.4,-21.21 507.04,-19.01 513.76,-27.19 517.4,-21.21"/>
</g>
<!-- Node10 -->
<g id="node10" class="node">
<title>Node10</title>
<g id="a_node10"><a xlink:title=" ">
<polygon fill="#e0e0e0" stroke="#999999" points="519.5,-74 469.5,-74 469.5,-55 519.5,-55 519.5,-74"/>
<text text-anchor="middle" x="494.5" y="-62" font-family="Helvetica,sans-Serif" font-size="10.00">cstdint</text>
</a>
</g>
</g>
<!-- Node2&#45;&gt;Node10 -->
<g id="edge17" class="edge">
<title>Node2&#45;&gt;Node10</title>
<path fill="none" stroke="#63b8ff" d="M496.3,-219.95C520.17,-213.63 547.09,-202.73 565.5,-184 583.63,-165.56 580.22,-154.51 584.5,-129 585.9,-120.67 588.96,-117.17 584.5,-110 572.46,-90.62 549.21,-79.42 529.35,-73.11"/>
<polygon fill="#63b8ff" stroke="#63b8ff" points="530.23,-69.72 519.65,-70.31 528.29,-76.45 530.23,-69.72"/>
</g>
<!-- Node13 -->
<g id="node13" class="node">
<title>Node13</title>
<g id="a_node13"><a xlink:title=" ">
<polygon fill="#e0e0e0" stroke="#999999" points="575.5,-129 517.5,-129 517.5,-110 575.5,-110 575.5,-129"/>
<text text-anchor="middle" x="546.5" y="-117" font-family="Helvetica,sans-Serif" font-size="10.00">memory</text>
</a>
</g>
</g>
<!-- Node2&#45;&gt;Node13 -->
<g id="edge20" class="edge">
<title>Node2&#45;&gt;Node13</title>
<path fill="none" stroke="#63b8ff" d="M494.09,-219.94C514.9,-213.65 537.01,-202.78 549.5,-184 558.27,-170.8 556.26,-152.43 552.8,-138.84"/>
<polygon fill="#63b8ff" stroke="#63b8ff" points="556.12,-137.73 549.89,-129.16 549.42,-139.74 556.12,-137.73"/>
</g>
<!-- Node14 -->
<g id="node14" class="node">
<title>Node14</title>
<g id="a_node14"><a xlink:title=" ">
<polygon fill="#e0e0e0" stroke="#999999" points="314,-129 267,-129 267,-110 314,-110 314,-129"/>
<text text-anchor="middle" x="290.5" y="-117" font-family="Helvetica,sans-Serif" font-size="10.00">vector</text>
</a>
</g>
</g>
<!-- Node2&#45;&gt;Node14 -->
<g id="edge23" class="edge">
<title>Node2&#45;&gt;Node14</title>
<path fill="none" stroke="#63b8ff" d="M361.36,-224.68C298.16,-219.82 218.23,-208.82 197.5,-184 176.57,-158.94 222.53,-139.55 257.01,-129.1"/>
<polygon fill="#63b8ff" stroke="#63b8ff" points="258.18,-132.41 266.81,-126.27 256.24,-125.68 258.18,-132.41"/>
</g>
<!-- Node15 -->
<g id="node15" class="node">
<title>Node15</title>
<g id="a_node15"><a xlink:title=" ">
<polygon fill="#e0e0e0" stroke="#999999" points="272,-184 207,-184 207,-165 272,-165 272,-184"/>
<text text-anchor="middle" x="239.5" y="-172" font-family="Helvetica,sans-Serif" font-size="10.00">functional</text>
</a>
</g>
</g>
<!-- Node2&#45;&gt;Node15 -->
<g id="edge18" class="edge">
<title>Node2&#45;&gt;Node15</title>
<path fill="none" stroke="#63b8ff" d="M410.72,-219.98C375.78,-210.91 320.31,-196.49 282.02,-186.55"/>
<polygon fill="#63b8ff" stroke="#63b8ff" points="282.75,-183.12 272.19,-183.99 280.99,-189.9 282.75,-183.12"/>
</g>
<!-- Node16 -->
<g id="node16" class="node">
<title>Node16</title>
<g id="a_node16"><a xlink:title=" ">
<polygon fill="#e0e0e0" stroke="#999999" points="328.5,-184 290.5,-184 290.5,-165 328.5,-165 328.5,-184"/>
<text text-anchor="middle" x="309.5" y="-172" font-family="Helvetica,sans-Serif" font-size="10.00">map</text>
</a>
</g>
</g>
<!-- Node2&#45;&gt;Node16 -->
<g id="edge19" class="edge">
<title>Node2&#45;&gt;Node16</title>
<path fill="none" stroke="#63b8ff" d="M421.97,-219.98C399.24,-210.99 363.3,-196.78 338.18,-186.84"/>
<polygon fill="#63b8ff" stroke="#63b8ff" points="339.39,-183.56 328.8,-183.13 336.81,-190.07 339.39,-183.56"/>
</g>
<!-- Node2&#45;&gt;Node17 -->
<g id="edge22" class="edge">
<title>Node2&#45;&gt;Node17</title>
<path fill="none" stroke="#63b8ff" d="M485.98,-219.99C529.4,-211.23 598.73,-197.05 658.5,-184 659.95,-183.68 661.43,-183.36 662.92,-183.03"/>
<polygon fill="#63b8ff" stroke="#63b8ff" points="663.83,-186.41 672.82,-180.79 662.29,-179.58 663.83,-186.41"/>
</g>
<!-- Node3&#45;&gt;Node4 -->
<g id="edge3" class="edge">
<title>Node3&#45;&gt;Node4</title>
<path fill="none" stroke="#63b8ff" d="M431.48,-164.84C405.81,-146.36 345.39,-102.86 313.7,-80.05"/>
<polygon fill="#63b8ff" stroke="#63b8ff" points="315.74,-77.2 305.58,-74.2 311.65,-82.88 315.74,-77.2"/>
</g>
<!-- Node3&#45;&gt;Node7 -->
<g id="edge6" class="edge">
<title>Node3&#45;&gt;Node7</title>
<path fill="none" stroke="#63b8ff" d="M392.09,-164.98C335.72,-155.65 245.31,-140.67 185.17,-130.71"/>
<polygon fill="#63b8ff" stroke="#63b8ff" points="185.49,-127.22 175.05,-129.04 184.34,-134.13 185.49,-127.22"/>
</g>
<!-- Node3&#45;&gt;Node10 -->
<g id="edge13" class="edge">
<title>Node3&#45;&gt;Node10</title>
<path fill="none" stroke="#63b8ff" d="M447.67,-164.66C456.05,-146.93 475.03,-106.73 486.09,-83.32"/>
<polygon fill="#63b8ff" stroke="#63b8ff" points="489.31,-84.7 490.41,-74.16 482.98,-81.71 489.31,-84.7"/>
</g>
<!-- Node12 -->
<g id="node12" class="node">
<title>Node12</title>
<g id="a_node12"><a xlink:title=" ">
<polygon fill="#e0e0e0" stroke="#999999" points="451,-74 382,-74 382,-55 451,-55 451,-74"/>
<text text-anchor="middle" x="416.5" y="-62" font-family="Helvetica,sans-Serif" font-size="10.00">type_traits</text>
</a>
</g>
</g>
<!-- Node3&#45;&gt;Node12 -->
<g id="edge15" class="edge">
<title>Node3&#45;&gt;Node12</title>
<path fill="none" stroke="#63b8ff" d="M441.29,-164.66C436.9,-147.09 426.99,-107.45 421.11,-83.95"/>
<polygon fill="#63b8ff" stroke="#63b8ff" points="424.49,-83.01 418.66,-74.16 417.69,-84.71 424.49,-83.01"/>
</g>
<!-- Node3&#45;&gt;Node13 -->
<g id="edge14" class="edge">
<title>Node3&#45;&gt;Node13</title>
<path fill="none" stroke="#63b8ff" d="M460.05,-164.98C476.39,-156.57 501.63,-143.59 520.63,-133.81"/>
<polygon fill="#63b8ff" stroke="#63b8ff" points="522.36,-136.86 529.65,-129.17 519.16,-130.63 522.36,-136.86"/>
</g>
<!-- Node3&#45;&gt;Node14 -->
<g id="edge16" class="edge">
<title>Node3&#45;&gt;Node14</title>
<path fill="none" stroke="#63b8ff" d="M418.92,-164.98C393.08,-156.03 352.27,-141.9 323.6,-131.97"/>
<polygon fill="#63b8ff" stroke="#63b8ff" points="324.61,-128.61 314.02,-128.65 322.32,-135.23 324.61,-128.61"/>
</g>
<!-- Node5 -->
<g id="node5" class="node">
<title>Node5</title>
<g id="a_node5"><a xlink:title=" ">
<polygon fill="#e0e0e0" stroke="#999999" points="326,-19 261,-19 261,0 326,0 326,-19"/>
<text text-anchor="middle" x="293.5" y="-7" font-family="Helvetica,sans-Serif" font-size="10.00">exception</text>
</a>
</g>
</g>
<!-- Node4&#45;&gt;Node5 -->
<g id="edge4" class="edge">
<title>Node4&#45;&gt;Node5</title>
<path fill="none" stroke="#63b8ff" d="M293.5,-54.75C293.5,-47.8 293.5,-37.85 293.5,-29.13"/>
<polygon fill="#63b8ff" stroke="#63b8ff" points="297,-29.09 293.5,-19.09 290,-29.09 297,-29.09"/>
</g>
<!-- Node4&#45;&gt;Node6 -->
<g id="edge5" class="edge">
<title>Node4&#45;&gt;Node6</title>
<path fill="none" stroke="#63b8ff" d="M325.31,-54.98C362.18,-45.12 422.6,-28.94 459.53,-19.06"/>
<polygon fill="#63b8ff" stroke="#63b8ff" points="460.54,-22.41 469.29,-16.45 458.73,-15.65 460.54,-22.41"/>
</g>
<!-- Node7&#45;&gt;Node4 -->
<g id="edge7" class="edge">
<title>Node7&#45;&gt;Node4</title>
<path fill="none" stroke="#63b8ff" d="M150.81,-109.98C179.35,-101.09 224.33,-87.07 256.14,-77.15"/>
<polygon fill="#63b8ff" stroke="#63b8ff" points="257.47,-80.4 265.97,-74.08 255.38,-73.72 257.47,-80.4"/>
</g>
<!-- Node7&#45;&gt;Node8 -->
<g id="edge8" class="edge">
<title>Node7&#45;&gt;Node8</title>
<path fill="none" stroke="#63b8ff" d="M109.04,-109.98C95.08,-101.77 73.71,-89.18 57.25,-79.49"/>
<polygon fill="#63b8ff" stroke="#63b8ff" points="58.62,-76.23 48.22,-74.17 55.06,-82.26 58.62,-76.23"/>
</g>
<!-- Node9 -->
<g id="node9" class="node">
<title>Node9</title>
<g id="a_node9"><a xlink:title=" ">
<polygon fill="#e0e0e0" stroke="#999999" points="132,-74 85,-74 85,-55 132,-55 132,-74"/>
<text text-anchor="middle" x="108.5" y="-62" font-family="Helvetica,sans-Serif" font-size="10.00">cmath</text>
</a>
</g>
</g>
<!-- Node7&#45;&gt;Node9 -->
<g id="edge9" class="edge">
<title>Node7&#45;&gt;Node9</title>
<path fill="none" stroke="#63b8ff" d="M121.02,-109.75C119.04,-102.72 116.18,-92.62 113.69,-83.84"/>
<polygon fill="#63b8ff" stroke="#63b8ff" points="117.02,-82.76 110.93,-74.09 110.29,-84.66 117.02,-82.76"/>
</g>
<!-- Node7&#45;&gt;Node10 -->
<g id="edge10" class="edge">
<title>Node7&#45;&gt;Node10</title>
<path fill="none" stroke="#63b8ff" d="M185.02,-112.5C250.65,-105.62 357.81,-93.03 459.21,-74.05"/>
<polygon fill="#63b8ff" stroke="#63b8ff" points="460.15,-77.44 469.32,-72.13 458.84,-70.56 460.15,-77.44"/>
</g>
<!-- Node11 -->
<g id="node11" class="node">
<title>Node11</title>
<g id="a_node11"><a xlink:title=" ">
<polygon fill="#e0e0e0" stroke="#999999" points="204.5,-74 150.5,-74 150.5,-55 204.5,-55 204.5,-74"/>
<text text-anchor="middle" x="177.5" y="-62" font-family="Helvetica,sans-Serif" font-size="10.00">random</text>
</a>
</g>
</g>
<!-- Node7&#45;&gt;Node11 -->
<g id="edge11" class="edge">
<title>Node7&#45;&gt;Node11</title>
<path fill="none" stroke="#63b8ff" d="M132.42,-109.75C140.28,-102.03 151.93,-90.6 161.42,-81.28"/>
<polygon fill="#63b8ff" stroke="#63b8ff" points="164.06,-83.59 168.75,-74.09 159.16,-78.6 164.06,-83.59"/>
</g>
<!-- Node7&#45;&gt;Node12 -->
<g id="edge12" class="edge">
<title>Node7&#45;&gt;Node12</title>
<path fill="none" stroke="#63b8ff" d="M172.67,-109.92C220.77,-101.48 296.36,-88.1 371.77,-74.11"/>
<polygon fill="#63b8ff" stroke="#63b8ff" points="372.73,-77.5 381.92,-72.23 371.45,-70.61 372.73,-77.5"/>
</g>
</g>
</svg>
