<?xml version="1.0" encoding="UTF-8" standalone="no"?>
<!DOCTYPE svg PUBLIC "-//W3C//DTD SVG 1.1//EN"
 "http://www.w3.org/Graphics/SVG/1.1/DTD/svg11.dtd">
<!-- Generated by graphviz version 2.43.0 (0)
 -->
<!-- Title: lib/population/include/genixx/population/Individual.h Pages: 1 -->
<svg width="636pt" height="258pt"
 viewBox="0.00 0.00 635.87 258.00" xmlns="http://www.w3.org/2000/svg" xmlns:xlink="http://www.w3.org/1999/xlink">
<g id="graph0" class="graph" transform="scale(1 1) rotate(0) translate(4 254)">
<title>lib/population/include/genixx/population/Individual.h</title>
<!-- Node1 -->
<g id="node1" class="node">
<title>Node1</title>
<g id="a_node1"><a xlink:title=" ">
<polygon fill="#999999" stroke="#666666" points="478.87,-250 311.87,-250 311.87,-220 478.87,-220 478.87,-250"/>
<text text-anchor="start" x="319.87" y="-238" font-family="Helvetica,sans-Serif" font-size="10.00">lib/population/include</text>
<text text-anchor="middle" x="395.37" y="-227" font-family="Helvetica,sans-Serif" font-size="10.00">/genixx/population/Individual.h</text>
</a>
</g>
</g>
<!-- Node2 -->
<g id="node2" class="node">
<title>Node2</title>
<g id="a_node2"><a xlink:href="Chromosome_8h.html" target="_top" xlink:title=" ">
<polygon fill="white" stroke="#666666" points="348.37,-184 154.37,-184 154.37,-165 348.37,-165 348.37,-184"/>
<text text-anchor="middle" x="251.37" y="-172" font-family="Helvetica,sans-Serif" font-size="10.00">genixx/chromosome/Chromosome.h</text>
</a>
</g>
</g>
<!-- Node1&#45;&gt;Node2 -->
<g id="edge1" class="edge">
<title>Node1&#45;&gt;Node2</title>
<path fill="none" stroke="#63b8ff" d="M360.87,-219.99C336.85,-210.23 305.09,-197.33 281.97,-187.93"/>
<polygon fill="#63b8ff" stroke="#63b8ff" points="283.21,-184.66 272.63,-184.14 280.58,-191.15 283.21,-184.66"/>
</g>
<!-- Node5 -->
<g id="node5" class="node">
<title>Node5</title>
<g id="a_node5"><a xlink:title=" ">
<polygon fill="#e0e0e0" stroke="#999999" points="52.37,-19 8.37,-19 8.37,0 52.37,0 52.37,-19"/>
<text text-anchor="middle" x="30.37" y="-7" font-family="Helvetica,sans-Serif" font-size="10.00">string</text>
</a>
</g>
</g>
<!-- Node1&#45;&gt;Node5 -->
<g id="edge20" class="edge">
<title>Node1&#45;&gt;Node5</title>
<path fill="none" stroke="#63b8ff" d="M311.66,-231.69C254.02,-227.15 177.17,-215.07 116.37,-184 53.67,-151.96 29.89,-138.81 2.37,-74 -4.45,-57.96 5.38,-39.78 15.21,-26.99"/>
<polygon fill="#63b8ff" stroke="#63b8ff" points="18.08,-29.01 21.82,-19.1 12.72,-24.52 18.08,-29.01"/>
</g>
<!-- Node9 -->
<g id="node9" class="node">
<title>Node9</title>
<g id="a_node9"><a xlink:title=" ">
<polygon fill="#e0e0e0" stroke="#999999" points="61.37,-74 11.37,-74 11.37,-55 61.37,-55 61.37,-74"/>
<text text-anchor="middle" x="36.37" y="-62" font-family="Helvetica,sans-Serif" font-size="10.00">cstdint</text>
</a>
</g>
</g>
<!-- Node1&#45;&gt;Node9 -->
<g id="edge16" class="edge">
<title>Node1&#45;&gt;Node9</title>
<path fill="none" stroke="#63b8ff" d="M311.78,-230.3C260.92,-224.99 196.2,-212.58 145.37,-184 100.67,-158.86 64.05,-108.89 46.89,-82.59"/>
<polygon fill="#63b8ff" stroke="#63b8ff" points="49.79,-80.63 41.47,-74.07 43.88,-84.38 49.79,-80.63"/>
</g>
<!-- Node12 -->
<g id="node12" class="node">
<title>Node12</title>
<g id="a_node12"><a xlink:title=" ">
<polygon fill="#e0e0e0" stroke="#999999" points="416.37,-129 358.37,-129 358.37,-110 416.37,-110 416.37,-129"/>
<text text-anchor="middle" x="387.37" y="-117" font-family="Helvetica,sans-Serif" font-size="10.00">memory</text>
</a>
</g>
</g>
<!-- Node1&#45;&gt;Node12 -->
<g id="edge19" class="edge">
<title>Node1&#45;&gt;Node12</title>
<path fill="none" stroke="#63b8ff" d="M394.35,-219.63C392.91,-199.21 390.28,-161.81 388.69,-139.24"/>
<polygon fill="#63b8ff" stroke="#63b8ff" points="392.18,-138.96 387.98,-129.23 385.19,-139.45 392.18,-138.96"/>
</g>
<!-- Node13 -->
<g id="node13" class="node">
<title>Node13</title>
<g id="a_node13"><a xlink:title=" ">
<polygon fill="#e0e0e0" stroke="#999999" points="481.87,-129 434.87,-129 434.87,-110 481.87,-110 481.87,-129"/>
<text text-anchor="middle" x="458.37" y="-117" font-family="Helvetica,sans-Serif" font-size="10.00">vector</text>
</a>
</g>
</g>
<!-- Node1&#45;&gt;Node13 -->
<g id="edge22" class="edge">
<title>Node1&#45;&gt;Node13</title>
<path fill="none" stroke="#63b8ff" d="M403.35,-219.63C414.88,-198.84 436.2,-160.44 448.64,-138.02"/>
<polygon fill="#63b8ff" stroke="#63b8ff" points="451.73,-139.67 453.52,-129.23 445.61,-136.27 451.73,-139.67"/>
</g>
<!-- Node14 -->
<g id="node14" class="node">
<title>Node14</title>
<g id="a_node14"><a xlink:title=" ">
<polygon fill="#e0e0e0" stroke="#999999" points="507.87,-184 442.87,-184 442.87,-165 507.87,-165 507.87,-184"/>
<text text-anchor="middle" x="475.37" y="-172" font-family="Helvetica,sans-Serif" font-size="10.00">functional</text>
</a>
</g>
</g>
<!-- Node1&#45;&gt;Node14 -->
<g id="edge17" class="edge">
<title>Node1&#45;&gt;Node14</title>
<path fill="none" stroke="#63b8ff" d="M414.73,-219.84C426.94,-210.91 442.67,-199.41 455.05,-190.35"/>
<polygon fill="#63b8ff" stroke="#63b8ff" points="457.37,-192.99 463.38,-184.27 453.24,-187.34 457.37,-192.99"/>
</g>
<!-- Node15 -->
<g id="node15" class="node">
<title>Node15</title>
<g id="a_node15"><a xlink:title=" ">
<polygon fill="#e0e0e0" stroke="#999999" points="564.37,-184 526.37,-184 526.37,-165 564.37,-165 564.37,-184"/>
<text text-anchor="middle" x="545.37" y="-172" font-family="Helvetica,sans-Serif" font-size="10.00">map</text>
</a>
</g>
</g>
<!-- Node1&#45;&gt;Node15 -->
<g id="edge18" class="edge">
<title>Node1&#45;&gt;Node15</title>
<path fill="none" stroke="#63b8ff" d="M431.3,-219.99C457.5,-209.77 492.53,-196.1 516.83,-186.63"/>
<polygon fill="#63b8ff" stroke="#63b8ff" points="518.17,-189.86 526.21,-182.97 515.62,-183.34 518.17,-189.86"/>
</g>
<!-- Node16 -->
<g id="node16" class="node">
<title>Node16</title>
<g id="a_node16"><a xlink:title=" ">
<polygon fill="#e0e0e0" stroke="#999999" points="627.87,-184 582.87,-184 582.87,-165 627.87,-165 627.87,-184"/>
<text text-anchor="middle" x="605.37" y="-172" font-family="Helvetica,sans-Serif" font-size="10.00">utility</text>
</a>
</g>
</g>
<!-- Node1&#45;&gt;Node16 -->
<g id="edge21" class="edge">
<title>Node1&#45;&gt;Node16</title>
<path fill="none" stroke="#63b8ff" d="M445.67,-219.99C485.14,-208.99 538.93,-194.01 572.91,-184.54"/>
<polygon fill="#63b8ff" stroke="#63b8ff" points="574.08,-187.85 582.78,-181.79 572.2,-181.1 574.08,-187.85"/>
</g>
<!-- Node3 -->
<g id="node3" class="node">
<title>Node3</title>
<g id="a_node3"><a xlink:href="exceptions_8h.html" target="_top" xlink:title=" ">
<polygon fill="white" stroke="#666666" points="220.87,-74 79.87,-74 79.87,-55 220.87,-55 220.87,-74"/>
<text text-anchor="middle" x="150.37" y="-62" font-family="Helvetica,sans-Serif" font-size="10.00">genixx/error/exceptions.h</text>
</a>
</g>
</g>
<!-- Node2&#45;&gt;Node3 -->
<g id="edge2" class="edge">
<title>Node2&#45;&gt;Node3</title>
<path fill="none" stroke="#63b8ff" d="M224.14,-164.91C206.19,-157.93 183.46,-146.35 169.37,-129 159.05,-116.3 154.33,-98.12 152.18,-84.46"/>
<polygon fill="#63b8ff" stroke="#63b8ff" points="155.62,-83.76 150.9,-74.28 148.67,-84.63 155.62,-83.76"/>
</g>
<!-- Node6 -->
<g id="node6" class="node">
<title>Node6</title>
<g id="a_node6"><a xlink:href="random_8h.html" target="_top" xlink:title=" ">
<polygon fill="white" stroke="#666666" points="301.87,-129 178.87,-129 178.87,-110 301.87,-110 301.87,-129"/>
<text text-anchor="middle" x="240.37" y="-117" font-family="Helvetica,sans-Serif" font-size="10.00">genixx/utils/random.h</text>
</a>
</g>
</g>
<!-- Node2&#45;&gt;Node6 -->
<g id="edge5" class="edge">
<title>Node2&#45;&gt;Node6</title>
<path fill="none" stroke="#63b8ff" d="M249.55,-164.75C248.11,-157.8 246.04,-147.85 244.23,-139.13"/>
<polygon fill="#63b8ff" stroke="#63b8ff" points="247.61,-138.17 242.15,-129.09 240.75,-139.59 247.61,-138.17"/>
</g>
<!-- Node2&#45;&gt;Node9 -->
<g id="edge12" class="edge">
<title>Node2&#45;&gt;Node9</title>
<path fill="none" stroke="#63b8ff" d="M232.09,-164.95C212.6,-156.21 181.68,-142.1 155.37,-129 122.39,-112.57 85,-92.36 61.08,-79.21"/>
<polygon fill="#63b8ff" stroke="#63b8ff" points="62.45,-75.97 52,-74.21 59.07,-82.1 62.45,-75.97"/>
</g>
<!-- Node11 -->
<g id="node11" class="node">
<title>Node11</title>
<g id="a_node11"><a xlink:title=" ">
<polygon fill="#e0e0e0" stroke="#999999" points="530.87,-74 461.87,-74 461.87,-55 530.87,-55 530.87,-74"/>
<text text-anchor="middle" x="496.37" y="-62" font-family="Helvetica,sans-Serif" font-size="10.00">type_traits</text>
</a>
</g>
</g>
<!-- Node2&#45;&gt;Node11 -->
<g id="edge14" class="edge">
<title>Node2&#45;&gt;Node11</title>
<path fill="none" stroke="#63b8ff" d="M262.23,-164.98C279.71,-151.64 315.53,-125.7 349.37,-110 382.36,-94.69 421.93,-83.06 451.7,-75.54"/>
<polygon fill="#63b8ff" stroke="#63b8ff" points="452.93,-78.84 461.8,-73.05 451.25,-72.04 452.93,-78.84"/>
</g>
<!-- Node2&#45;&gt;Node12 -->
<g id="edge13" class="edge">
<title>Node2&#45;&gt;Node12</title>
<path fill="none" stroke="#63b8ff" d="M273.22,-164.98C295.49,-156.3 330.27,-142.75 355.59,-132.88"/>
<polygon fill="#63b8ff" stroke="#63b8ff" points="357.07,-136.06 365.12,-129.17 354.53,-129.54 357.07,-136.06"/>
</g>
<!-- Node2&#45;&gt;Node13 -->
<g id="edge15" class="edge">
<title>Node2&#45;&gt;Node13</title>
<path fill="none" stroke="#63b8ff" d="M284.73,-164.99C317.77,-156.55 370.09,-143.18 424.71,-129.16"/>
<polygon fill="#63b8ff" stroke="#63b8ff" points="425.76,-132.51 434.57,-126.63 424.02,-125.73 425.76,-132.51"/>
</g>
<!-- Node4 -->
<g id="node4" class="node">
<title>Node4</title>
<g id="a_node4"><a xlink:title=" ">
<polygon fill="#e0e0e0" stroke="#999999" points="182.87,-19 117.87,-19 117.87,0 182.87,0 182.87,-19"/>
<text text-anchor="middle" x="150.37" y="-7" font-family="Helvetica,sans-Serif" font-size="10.00">exception</text>
</a>
</g>
</g>
<!-- Node3&#45;&gt;Node4 -->
<g id="edge3" class="edge">
<title>Node3&#45;&gt;Node4</title>
<path fill="none" stroke="#63b8ff" d="M150.37,-54.75C150.37,-47.8 150.37,-37.85 150.37,-29.13"/>
<polygon fill="#63b8ff" stroke="#63b8ff" points="153.87,-29.09 150.37,-19.09 146.87,-29.09 153.87,-29.09"/>
</g>
<!-- Node3&#45;&gt;Node5 -->
<g id="edge4" class="edge">
<title>Node3&#45;&gt;Node5</title>
<path fill="none" stroke="#63b8ff" d="M131.09,-54.98C111.69,-46.42 81.56,-33.11 59.3,-23.28"/>
<polygon fill="#63b8ff" stroke="#63b8ff" points="60.56,-20.01 50,-19.17 57.73,-26.41 60.56,-20.01"/>
</g>
<!-- Node6&#45;&gt;Node3 -->
<g id="edge6" class="edge">
<title>Node6&#45;&gt;Node3</title>
<path fill="none" stroke="#63b8ff" d="M225.91,-109.98C211.95,-101.77 190.57,-89.18 174.12,-79.49"/>
<polygon fill="#63b8ff" stroke="#63b8ff" points="175.48,-76.23 165.09,-74.17 171.93,-82.26 175.48,-76.23"/>
</g>
<!-- Node7 -->
<g id="node7" class="node">
<title>Node7</title>
<g id="a_node7"><a xlink:title=" ">
<polygon fill="#e0e0e0" stroke="#999999" points="378.87,-74 311.87,-74 311.87,-55 378.87,-55 378.87,-74"/>
<text text-anchor="middle" x="345.37" y="-62" font-family="Helvetica,sans-Serif" font-size="10.00">fmt/core.h</text>
</a>
</g>
</g>
<!-- Node6&#45;&gt;Node7 -->
<g id="edge7" class="edge">
<title>Node6&#45;&gt;Node7</title>
<path fill="none" stroke="#63b8ff" d="M257.24,-109.98C273.98,-101.54 299.86,-88.47 319.26,-78.68"/>
<polygon fill="#63b8ff" stroke="#63b8ff" points="320.84,-81.8 328.19,-74.17 317.68,-75.55 320.84,-81.8"/>
</g>
<!-- Node8 -->
<g id="node8" class="node">
<title>Node8</title>
<g id="a_node8"><a xlink:title=" ">
<polygon fill="#e0e0e0" stroke="#999999" points="443.87,-74 396.87,-74 396.87,-55 443.87,-55 443.87,-74"/>
<text text-anchor="middle" x="420.37" y="-62" font-family="Helvetica,sans-Serif" font-size="10.00">cmath</text>
</a>
</g>
</g>
<!-- Node6&#45;&gt;Node8 -->
<g id="edge8" class="edge">
<title>Node6&#45;&gt;Node8</title>
<path fill="none" stroke="#63b8ff" d="M269.29,-109.98C301.35,-100.54 352.99,-85.34 386.81,-75.38"/>
<polygon fill="#63b8ff" stroke="#63b8ff" points="388.09,-78.65 396.69,-72.47 386.11,-71.94 388.09,-78.65"/>
</g>
<!-- Node6&#45;&gt;Node9 -->
<g id="edge9" class="edge">
<title>Node6&#45;&gt;Node9</title>
<path fill="none" stroke="#63b8ff" d="M207.59,-109.98C170.43,-100.33 110.05,-84.64 71.81,-74.71"/>
<polygon fill="#63b8ff" stroke="#63b8ff" points="72.21,-71.2 61.65,-72.07 70.45,-77.97 72.21,-71.2"/>
</g>
<!-- Node10 -->
<g id="node10" class="node">
<title>Node10</title>
<g id="a_node10"><a xlink:title=" ">
<polygon fill="#e0e0e0" stroke="#999999" points="293.37,-74 239.37,-74 239.37,-55 293.37,-55 293.37,-74"/>
<text text-anchor="middle" x="266.37" y="-62" font-family="Helvetica,sans-Serif" font-size="10.00">random</text>
</a>
</g>
</g>
<!-- Node6&#45;&gt;Node10 -->
<g id="edge10" class="edge">
<title>Node6&#45;&gt;Node10</title>
<path fill="none" stroke="#63b8ff" d="M244.66,-109.75C248.18,-102.57 253.28,-92.18 257.65,-83.27"/>
<polygon fill="#63b8ff" stroke="#63b8ff" points="260.89,-84.61 262.15,-74.09 254.61,-81.53 260.89,-84.61"/>
</g>
<!-- Node6&#45;&gt;Node11 -->
<g id="edge11" class="edge">
<title>Node6&#45;&gt;Node11</title>
<path fill="none" stroke="#63b8ff" d="M281.5,-109.98C328.08,-100.34 403.71,-84.68 451.71,-74.75"/>
<polygon fill="#63b8ff" stroke="#63b8ff" points="452.42,-78.17 461.51,-72.72 451,-71.32 452.42,-78.17"/>
</g>
</g>
</svg>
