<?xml version="1.0" encoding="UTF-8" standalone="no"?>
<!DOCTYPE svg PUBLIC "-//W3C//DTD SVG 1.1//EN"
 "http://www.w3.org/Graphics/SVG/1.1/DTD/svg11.dtd">
<!-- Generated by graphviz version 2.43.0 (0)
 -->
<!-- Title: lib/population/Individual.cpp Pages: 1 -->
<svg width="795pt" height="247pt"
 viewBox="0.00 0.00 795.00 247.00" xmlns="http://www.w3.org/2000/svg" xmlns:xlink="http://www.w3.org/1999/xlink">
<g id="graph0" class="graph" transform="scale(1 1) rotate(0) translate(4 243)">
<title>lib/population/Individual.cpp</title>
<!-- Node1 -->
<g id="node1" class="node">
<title>Node1</title>
<g id="a_node1"><a xlink:title=" ">
<polygon fill="#999999" stroke="#666666" points="680,-239 525,-239 525,-220 680,-220 680,-239"/>
<text text-anchor="middle" x="602.5" y="-227" font-family="Helvetica,sans-Serif" font-size="10.00">lib/population/Individual.cpp</text>
</a>
</g>
</g>
<!-- Node2 -->
<g id="node2" class="node">
<title>Node2</title>
<g id="a_node2"><a xlink:href="Individual_8h.html" target="_top" xlink:title=" ">
<polygon fill="white" stroke="#666666" points="600.5,-184 436.5,-184 436.5,-165 600.5,-165 600.5,-184"/>
<text text-anchor="middle" x="518.5" y="-172" font-family="Helvetica,sans-Serif" font-size="10.00">genixx/population/Individual.h</text>
</a>
</g>
</g>
<!-- Node1&#45;&gt;Node2 -->
<g id="edge1" class="edge">
<title>Node1&#45;&gt;Node2</title>
<path fill="none" stroke="#63b8ff" d="M589,-219.98C576.1,-211.84 556.4,-199.41 541.1,-189.76"/>
<polygon fill="#63b8ff" stroke="#63b8ff" points="542.57,-186.55 532.24,-184.17 538.83,-192.47 542.57,-186.55"/>
</g>
<!-- Node4 -->
<g id="node4" class="node">
<title>Node4</title>
<g id="a_node4"><a xlink:href="exceptions_8h.html" target="_top" xlink:title=" ">
<polygon fill="white" stroke="#666666" points="141,-74 0,-74 0,-55 141,-55 141,-74"/>
<text text-anchor="middle" x="70.5" y="-62" font-family="Helvetica,sans-Serif" font-size="10.00">genixx/error/exceptions.h</text>
</a>
</g>
</g>
<!-- Node1&#45;&gt;Node4 -->
<g id="edge19" class="edge">
<title>Node1&#45;&gt;Node4</title>
<path fill="none" stroke="#63b8ff" d="M552.04,-219.94C474.18,-205.9 320.75,-174.86 196.5,-129 159.17,-115.22 118.48,-93.36 93.73,-79.22"/>
<polygon fill="#63b8ff" stroke="#63b8ff" points="95.17,-76.01 84.76,-74.04 91.67,-82.07 95.17,-76.01"/>
</g>
<!-- Node7 -->
<g id="node7" class="node">
<title>Node7</title>
<g id="a_node7"><a xlink:href="random_8h.html" target="_top" xlink:title=" ">
<polygon fill="white" stroke="#666666" points="787,-74 664,-74 664,-55 787,-55 787,-74"/>
<text text-anchor="middle" x="725.5" y="-62" font-family="Helvetica,sans-Serif" font-size="10.00">genixx/utils/random.h</text>
</a>
</g>
</g>
<!-- Node1&#45;&gt;Node7 -->
<g id="edge20" class="edge">
<title>Node1&#45;&gt;Node7</title>
<path fill="none" stroke="#63b8ff" d="M619.2,-219.89C645.61,-205.25 696.3,-172.78 718.5,-129 725.48,-115.23 726.94,-97.66 726.82,-84.49"/>
<polygon fill="#63b8ff" stroke="#63b8ff" points="730.31,-84.11 726.4,-74.26 723.31,-84.39 730.31,-84.11"/>
</g>
<!-- Node14 -->
<g id="node14" class="node">
<title>Node14</title>
<g id="a_node14"><a xlink:title=" ">
<polygon fill="#e0e0e0" stroke="#999999" points="709,-129 664,-129 664,-110 709,-110 709,-129"/>
<text text-anchor="middle" x="686.5" y="-117" font-family="Helvetica,sans-Serif" font-size="10.00">utility</text>
</a>
</g>
</g>
<!-- Node1&#45;&gt;Node14 -->
<g id="edge21" class="edge">
<title>Node1&#45;&gt;Node14</title>
<path fill="none" stroke="#63b8ff" d="M609.37,-219.66C623.41,-201.61 655.56,-160.28 673.61,-137.08"/>
<polygon fill="#63b8ff" stroke="#63b8ff" points="676.39,-139.2 679.77,-129.16 670.86,-134.9 676.39,-139.2"/>
</g>
<!-- Node3 -->
<g id="node3" class="node">
<title>Node3</title>
<g id="a_node3"><a xlink:href="Chromosome_8h.html" target="_top" xlink:title=" ">
<polygon fill="white" stroke="#666666" points="429.5,-129 235.5,-129 235.5,-110 429.5,-110 429.5,-129"/>
<text text-anchor="middle" x="332.5" y="-117" font-family="Helvetica,sans-Serif" font-size="10.00">genixx/chromosome/Chromosome.h</text>
</a>
</g>
</g>
<!-- Node2&#45;&gt;Node3 -->
<g id="edge2" class="edge">
<title>Node2&#45;&gt;Node3</title>
<path fill="none" stroke="#63b8ff" d="M488.62,-164.98C457.12,-156.01 407.33,-141.82 372.47,-131.89"/>
<polygon fill="#63b8ff" stroke="#63b8ff" points="373.19,-128.46 362.62,-129.08 371.28,-135.19 373.19,-128.46"/>
</g>
<!-- Node6 -->
<g id="node6" class="node">
<title>Node6</title>
<g id="a_node6"><a xlink:title=" ">
<polygon fill="#e0e0e0" stroke="#999999" points="178.5,-19 134.5,-19 134.5,0 178.5,0 178.5,-19"/>
<text text-anchor="middle" x="156.5" y="-7" font-family="Helvetica,sans-Serif" font-size="10.00">string</text>
</a>
</g>
</g>
<!-- Node2&#45;&gt;Node6 -->
<g id="edge16" class="edge">
<title>Node2&#45;&gt;Node6</title>
<path fill="none" stroke="#63b8ff" d="M436.26,-169.6C359.74,-164.51 252.56,-153.22 218.5,-129 184.39,-104.75 167.58,-55.9 160.61,-29.12"/>
<polygon fill="#63b8ff" stroke="#63b8ff" points="163.95,-28.03 158.21,-19.12 157.15,-29.67 163.95,-28.03"/>
</g>
<!-- Node8 -->
<g id="node8" class="node">
<title>Node8</title>
<g id="a_node8"><a xlink:title=" ">
<polygon fill="#e0e0e0" stroke="#999999" points="660.5,-19 610.5,-19 610.5,0 660.5,0 660.5,-19"/>
<text text-anchor="middle" x="635.5" y="-7" font-family="Helvetica,sans-Serif" font-size="10.00">cstdint</text>
</a>
</g>
</g>
<!-- Node2&#45;&gt;Node8 -->
<g id="edge12" class="edge">
<title>Node2&#45;&gt;Node8</title>
<path fill="none" stroke="#63b8ff" d="M558.59,-164.9C579.01,-158.44 602.44,-147.42 616.5,-129 638.75,-99.84 639.38,-54.75 637.61,-29.43"/>
<polygon fill="#63b8ff" stroke="#63b8ff" points="641.08,-28.95 636.69,-19.31 634.11,-29.59 641.08,-28.95"/>
</g>
<!-- Node10 -->
<g id="node10" class="node">
<title>Node10</title>
<g id="a_node10"><a xlink:title=" ">
<polygon fill="#e0e0e0" stroke="#999999" points="452.5,-74 394.5,-74 394.5,-55 452.5,-55 452.5,-74"/>
<text text-anchor="middle" x="423.5" y="-62" font-family="Helvetica,sans-Serif" font-size="10.00">memory</text>
</a>
</g>
</g>
<!-- Node2&#45;&gt;Node10 -->
<g id="edge15" class="edge">
<title>Node2&#45;&gt;Node10</title>
<path fill="none" stroke="#63b8ff" d="M509.97,-164.78C501.37,-155.92 487.78,-141.71 476.5,-129 462.71,-113.47 447.59,-95.22 437.04,-82.28"/>
<polygon fill="#63b8ff" stroke="#63b8ff" points="439.56,-79.83 430.54,-74.27 434.12,-84.24 439.56,-79.83"/>
</g>
<!-- Node11 -->
<g id="node11" class="node">
<title>Node11</title>
<g id="a_node11"><a xlink:title=" ">
<polygon fill="#e0e0e0" stroke="#999999" points="301,-74 254,-74 254,-55 301,-55 301,-74"/>
<text text-anchor="middle" x="277.5" y="-62" font-family="Helvetica,sans-Serif" font-size="10.00">vector</text>
</a>
</g>
</g>
<!-- Node2&#45;&gt;Node11 -->
<g id="edge18" class="edge">
<title>Node2&#45;&gt;Node11</title>
<path fill="none" stroke="#63b8ff" d="M436.31,-172.51C359.61,-169.63 253.11,-159.97 226.5,-129 212.2,-112.35 233.99,-92.55 253.36,-79.53"/>
<polygon fill="#63b8ff" stroke="#63b8ff" points="255.4,-82.39 261.96,-74.07 251.64,-76.48 255.4,-82.39"/>
</g>
<!-- Node12 -->
<g id="node12" class="node">
<title>Node12</title>
<g id="a_node12"><a xlink:title=" ">
<polygon fill="#e0e0e0" stroke="#999999" points="551,-129 486,-129 486,-110 551,-110 551,-129"/>
<text text-anchor="middle" x="518.5" y="-117" font-family="Helvetica,sans-Serif" font-size="10.00">functional</text>
</a>
</g>
</g>
<!-- Node2&#45;&gt;Node12 -->
<g id="edge13" class="edge">
<title>Node2&#45;&gt;Node12</title>
<path fill="none" stroke="#63b8ff" d="M518.5,-164.75C518.5,-157.8 518.5,-147.85 518.5,-139.13"/>
<polygon fill="#63b8ff" stroke="#63b8ff" points="522,-139.09 518.5,-129.09 515,-139.09 522,-139.09"/>
</g>
<!-- Node13 -->
<g id="node13" class="node">
<title>Node13</title>
<g id="a_node13"><a xlink:title=" ">
<polygon fill="#e0e0e0" stroke="#999999" points="607.5,-129 569.5,-129 569.5,-110 607.5,-110 607.5,-129"/>
<text text-anchor="middle" x="588.5" y="-117" font-family="Helvetica,sans-Serif" font-size="10.00">map</text>
</a>
</g>
</g>
<!-- Node2&#45;&gt;Node13 -->
<g id="edge14" class="edge">
<title>Node2&#45;&gt;Node13</title>
<path fill="none" stroke="#63b8ff" d="M529.75,-164.98C540.3,-157 556.3,-144.88 568.94,-135.31"/>
<polygon fill="#63b8ff" stroke="#63b8ff" points="571.19,-138 577.05,-129.17 566.96,-132.42 571.19,-138"/>
</g>
<!-- Node2&#45;&gt;Node14 -->
<g id="edge17" class="edge">
<title>Node2&#45;&gt;Node14</title>
<path fill="none" stroke="#63b8ff" d="M545.49,-164.98C575.12,-155.64 622.66,-140.64 654.24,-130.68"/>
<polygon fill="#63b8ff" stroke="#63b8ff" points="655.4,-133.98 663.88,-127.63 653.29,-127.31 655.4,-133.98"/>
</g>
<!-- Node3&#45;&gt;Node4 -->
<g id="edge3" class="edge">
<title>Node3&#45;&gt;Node4</title>
<path fill="none" stroke="#63b8ff" d="M290.41,-109.98C244.8,-100.76 171.98,-86.03 122.75,-76.07"/>
<polygon fill="#63b8ff" stroke="#63b8ff" points="123.42,-72.63 112.92,-74.08 122.03,-79.5 123.42,-72.63"/>
</g>
<!-- Node3&#45;&gt;Node7 -->
<g id="edge6" class="edge">
<title>Node3&#45;&gt;Node7</title>
<path fill="none" stroke="#63b8ff" d="M395.64,-109.98C466.1,-100.48 579.87,-85.14 653.67,-75.19"/>
<polygon fill="#63b8ff" stroke="#63b8ff" points="654.37,-78.62 663.81,-73.82 653.43,-71.69 654.37,-78.62"/>
</g>
<!-- Node3&#45;&gt;Node8 -->
<g id="edge9" class="edge">
<title>Node3&#45;&gt;Node8</title>
<path fill="none" stroke="#63b8ff" d="M337.04,-109.86C344.89,-95.85 362.4,-68.4 385.5,-55 421.47,-34.13 540.21,-19.85 600.18,-13.78"/>
<polygon fill="#63b8ff" stroke="#63b8ff" points="600.71,-17.25 610.32,-12.78 600.02,-10.28 600.71,-17.25"/>
</g>
<!-- Node3&#45;&gt;Node10 -->
<g id="edge10" class="edge">
<title>Node3&#45;&gt;Node10</title>
<path fill="none" stroke="#63b8ff" d="M347.12,-109.98C361.36,-101.69 383.25,-88.94 399.95,-79.22"/>
<polygon fill="#63b8ff" stroke="#63b8ff" points="401.73,-82.23 408.61,-74.17 398.21,-76.18 401.73,-82.23"/>
</g>
<!-- Node3&#45;&gt;Node11 -->
<g id="edge11" class="edge">
<title>Node3&#45;&gt;Node11</title>
<path fill="none" stroke="#63b8ff" d="M323.42,-109.75C315.41,-102.03 303.54,-90.6 293.88,-81.28"/>
<polygon fill="#63b8ff" stroke="#63b8ff" points="296.04,-78.51 286.41,-74.09 291.19,-83.55 296.04,-78.51"/>
</g>
<!-- Node5 -->
<g id="node5" class="node">
<title>Node5</title>
<g id="a_node5"><a xlink:title=" ">
<polygon fill="#e0e0e0" stroke="#999999" points="103,-19 38,-19 38,0 103,0 103,-19"/>
<text text-anchor="middle" x="70.5" y="-7" font-family="Helvetica,sans-Serif" font-size="10.00">exception</text>
</a>
</g>
</g>
<!-- Node4&#45;&gt;Node5 -->
<g id="edge4" class="edge">
<title>Node4&#45;&gt;Node5</title>
<path fill="none" stroke="#63b8ff" d="M70.5,-54.75C70.5,-47.8 70.5,-37.85 70.5,-29.13"/>
<polygon fill="#63b8ff" stroke="#63b8ff" points="74,-29.09 70.5,-19.09 67,-29.09 74,-29.09"/>
</g>
<!-- Node4&#45;&gt;Node6 -->
<g id="edge5" class="edge">
<title>Node4&#45;&gt;Node6</title>
<path fill="none" stroke="#63b8ff" d="M84.32,-54.98C97.65,-46.77 118.08,-34.18 133.81,-24.49"/>
<polygon fill="#63b8ff" stroke="#63b8ff" points="135.75,-27.4 142.43,-19.17 132.08,-21.44 135.75,-27.4"/>
</g>
<!-- Node7&#45;&gt;Node8 -->
<g id="edge7" class="edge">
<title>Node7&#45;&gt;Node8</title>
<path fill="none" stroke="#63b8ff" d="M711.04,-54.98C697.08,-46.77 675.71,-34.18 659.25,-24.49"/>
<polygon fill="#63b8ff" stroke="#63b8ff" points="660.62,-21.23 650.22,-19.17 657.06,-27.26 660.62,-21.23"/>
</g>
<!-- Node9 -->
<g id="node9" class="node">
<title>Node9</title>
<g id="a_node9"><a xlink:title=" ">
<polygon fill="#e0e0e0" stroke="#999999" points="752.5,-19 698.5,-19 698.5,0 752.5,0 752.5,-19"/>
<text text-anchor="middle" x="725.5" y="-7" font-family="Helvetica,sans-Serif" font-size="10.00">random</text>
</a>
</g>
</g>
<!-- Node7&#45;&gt;Node9 -->
<g id="edge8" class="edge">
<title>Node7&#45;&gt;Node9</title>
<path fill="none" stroke="#63b8ff" d="M725.5,-54.75C725.5,-47.8 725.5,-37.85 725.5,-29.13"/>
<polygon fill="#63b8ff" stroke="#63b8ff" points="729,-29.09 725.5,-19.09 722,-29.09 729,-29.09"/>
</g>
</g>
</svg>
