<?xml version="1.0" encoding="UTF-8" standalone="no"?>
<!DOCTYPE svg PUBLIC "-//W3C//DTD SVG 1.1//EN"
 "http://www.w3.org/Graphics/SVG/1.1/DTD/svg11.dtd">
<!-- Generated by graphviz version 2.43.0 (0)
 -->
<!-- Title: lib/population/include/genixx/population/Individual.h Pages: 1 -->
<svg width="375pt" height="236pt"
 viewBox="0.00 0.00 375.00 236.00" xmlns="http://www.w3.org/2000/svg" xmlns:xlink="http://www.w3.org/1999/xlink">
<g id="graph0" class="graph" transform="scale(1 1) rotate(0) translate(4 232)">
<title>lib/population/include/genixx/population/Individual.h</title>
<!-- Node1 -->
<g id="node1" class="node">
<title>Node1</title>
<g id="a_node1"><a xlink:title=" ">
<polygon fill="#999999" stroke="#666666" points="267,-228 100,-228 100,-198 267,-198 267,-228"/>
<text text-anchor="start" x="108" y="-216" font-family="Helvetica,sans-Serif" font-size="10.00">lib/population/include</text>
<text text-anchor="middle" x="183.5" y="-205" font-family="Helvetica,sans-Serif" font-size="10.00">/genixx/population/Individual.h</text>
</a>
</g>
</g>
<!-- Node2 -->
<g id="node2" class="node">
<title>Node2</title>
<g id="a_node2"><a xlink:href="Individual_8cpp.html" target="_top" xlink:title=" ">
<polygon fill="white" stroke="#666666" points="155,-151 0,-151 0,-132 155,-132 155,-151"/>
<text text-anchor="middle" x="77.5" y="-139" font-family="Helvetica,sans-Serif" font-size="10.00">lib/population/Individual.cpp</text>
</a>
</g>
</g>
<!-- Node1&#45;&gt;Node2 -->
<g id="edge1" class="edge">
<title>Node1&#45;&gt;Node2</title>
<path fill="none" stroke="#63b8ff" d="M153.56,-192.37C132.8,-178.76 106.18,-161.31 90.57,-151.07"/>
<polygon fill="#63b8ff" stroke="#63b8ff" points="151.77,-195.38 162.05,-197.94 155.61,-189.53 151.77,-195.38"/>
</g>
<!-- Node3 -->
<g id="node3" class="node">
<title>Node3</title>
<g id="a_node3"><a xlink:href="Population_8h.html" target="_top" xlink:title=" ">
<polygon fill="white" stroke="#666666" points="322,-85 151,-85 151,-55 322,-55 322,-85"/>
<text text-anchor="start" x="159" y="-73" font-family="Helvetica,sans-Serif" font-size="10.00">lib/population/include</text>
<text text-anchor="middle" x="236.5" y="-62" font-family="Helvetica,sans-Serif" font-size="10.00">/genixx/population/Population.h</text>
</a>
</g>
</g>
<!-- Node1&#45;&gt;Node3 -->
<g id="edge2" class="edge">
<title>Node1&#45;&gt;Node3</title>
<path fill="none" stroke="#63b8ff" d="M186.34,-187.87C189.13,-169.09 194.34,-142.67 203.5,-121 209.01,-107.97 217.98,-94.67 225.17,-85.07"/>
<polygon fill="#63b8ff" stroke="#63b8ff" points="182.85,-187.57 184.97,-197.95 189.79,-188.52 182.85,-187.57"/>
</g>
<!-- Node5 -->
<g id="node5" class="node">
<title>Node5</title>
<g id="a_node5"><a xlink:href="method_8h.html" target="_top" xlink:title=" ">
<polygon fill="white" stroke="#666666" points="367,-162 212,-162 212,-121 367,-121 367,-162"/>
<text text-anchor="start" x="220" y="-150" font-family="Helvetica,sans-Serif" font-size="10.00">lib/population/include</text>
<text text-anchor="start" x="220" y="-139" font-family="Helvetica,sans-Serif" font-size="10.00">/genixx/population/selection</text>
<text text-anchor="middle" x="289.5" y="-128" font-family="Helvetica,sans-Serif" font-size="10.00">/method.h</text>
</a>
</g>
</g>
<!-- Node1&#45;&gt;Node5 -->
<g id="edge4" class="edge">
<title>Node1&#45;&gt;Node5</title>
<path fill="none" stroke="#63b8ff" d="M213.53,-192.31C227.97,-182.84 245.23,-171.53 259.65,-162.07"/>
<polygon fill="#63b8ff" stroke="#63b8ff" points="211.39,-189.53 204.95,-197.94 215.23,-195.38 211.39,-189.53"/>
</g>
<!-- Node4 -->
<g id="node4" class="node">
<title>Node4</title>
<g id="a_node4"><a xlink:href="Population_8cpp.html" target="_top" xlink:title=" ">
<polygon fill="white" stroke="#666666" points="315.5,-19 157.5,-19 157.5,0 315.5,0 315.5,-19"/>
<text text-anchor="middle" x="236.5" y="-7" font-family="Helvetica,sans-Serif" font-size="10.00">lib/population/Population.cpp</text>
</a>
</g>
</g>
<!-- Node3&#45;&gt;Node4 -->
<g id="edge3" class="edge">
<title>Node3&#45;&gt;Node4</title>
<path fill="none" stroke="#63b8ff" d="M236.5,-44.75C236.5,-35.72 236.5,-26.03 236.5,-19.27"/>
<polygon fill="#63b8ff" stroke="#63b8ff" points="233,-44.84 236.5,-54.84 240,-44.84 233,-44.84"/>
</g>
<!-- Node5&#45;&gt;Node3 -->
<g id="edge5" class="edge">
<title>Node5&#45;&gt;Node3</title>
<path fill="none" stroke="#63b8ff" d="M268.29,-112.69C261.05,-103.19 253.26,-92.98 247.21,-85.04"/>
<polygon fill="#63b8ff" stroke="#63b8ff" points="265.61,-114.94 274.45,-120.77 271.17,-110.7 265.61,-114.94"/>
</g>
</g>
</svg>
