<?xml version="1.0" encoding="UTF-8" standalone="no"?>
<!DOCTYPE svg PUBLIC "-//W3C//DTD SVG 1.1//EN"
 "http://www.w3.org/Graphics/SVG/1.1/DTD/svg11.dtd">
<!-- Generated by graphviz version 2.43.0 (0)
 -->
<!-- Title: lib/population/Individual.cpp Pages: 1 -->
<svg width="726pt" height="302pt"
 viewBox="0.00 0.00 726.00 302.00" xmlns="http://www.w3.org/2000/svg" xmlns:xlink="http://www.w3.org/1999/xlink">
<g id="graph0" class="graph" transform="scale(1 1) rotate(0) translate(4 298)">
<title>lib/population/Individual.cpp</title>
<!-- Node1 -->
<g id="node1" class="node">
<title>Node1</title>
<g id="a_node1"><a xlink:title=" ">
<polygon fill="#999999" stroke="#666666" points="302,-294 147,-294 147,-275 302,-275 302,-294"/>
<text text-anchor="middle" x="224.5" y="-282" font-family="Helvetica,sans-Serif" font-size="10.00">lib/population/Individual.cpp</text>
</a>
</g>
</g>
<!-- Node2 -->
<g id="node2" class="node">
<title>Node2</title>
<g id="a_node2"><a xlink:href="Individual_8h.html" target="_top" xlink:title=" ">
<polygon fill="white" stroke="#666666" points="458.5,-239 294.5,-239 294.5,-220 458.5,-220 458.5,-239"/>
<text text-anchor="middle" x="376.5" y="-227" font-family="Helvetica,sans-Serif" font-size="10.00">genixx/population/Individual.h</text>
</a>
</g>
</g>
<!-- Node1&#45;&gt;Node2 -->
<g id="edge1" class="edge">
<title>Node1&#45;&gt;Node2</title>
<path fill="none" stroke="#63b8ff" d="M248.92,-274.98C274.22,-266.16 313.95,-252.31 342.36,-242.41"/>
<polygon fill="#63b8ff" stroke="#63b8ff" points="343.6,-245.68 351.89,-239.08 341.29,-239.07 343.6,-245.68"/>
</g>
<!-- Node4 -->
<g id="node4" class="node">
<title>Node4</title>
<g id="a_node4"><a xlink:href="exceptions_8h.html" target="_top" xlink:title=" ">
<polygon fill="white" stroke="#666666" points="364,-74 223,-74 223,-55 364,-55 364,-74"/>
<text text-anchor="middle" x="293.5" y="-62" font-family="Helvetica,sans-Serif" font-size="10.00">genixx/error/exceptions.h</text>
</a>
</g>
</g>
<!-- Node1&#45;&gt;Node4 -->
<g id="edge24" class="edge">
<title>Node1&#45;&gt;Node4</title>
<path fill="none" stroke="#63b8ff" d="M218,-274.93C203.8,-255.09 172.56,-204.65 189.5,-165 205.76,-126.93 244.53,-96.47 269.86,-79.71"/>
<polygon fill="#63b8ff" stroke="#63b8ff" points="271.99,-82.5 278.52,-74.16 268.21,-76.61 271.99,-82.5"/>
</g>
<!-- Node7 -->
<g id="node7" class="node">
<title>Node7</title>
<g id="a_node7"><a xlink:href="random_8h.html" target="_top" xlink:title=" ">
<polygon fill="white" stroke="#666666" points="185,-129 62,-129 62,-110 185,-110 185,-129"/>
<text text-anchor="middle" x="123.5" y="-117" font-family="Helvetica,sans-Serif" font-size="10.00">genixx/utils/random.h</text>
</a>
</g>
</g>
<!-- Node1&#45;&gt;Node7 -->
<g id="edge25" class="edge">
<title>Node1&#45;&gt;Node7</title>
<path fill="none" stroke="#63b8ff" d="M181.39,-275C161.19,-268.64 138.88,-257.7 126.5,-239 106.5,-208.79 112.59,-164.1 118.34,-139.12"/>
<polygon fill="#63b8ff" stroke="#63b8ff" points="121.8,-139.71 120.87,-129.16 115.02,-137.99 121.8,-139.71"/>
</g>
<!-- Node8 -->
<g id="node8" class="node">
<title>Node8</title>
<g id="a_node8"><a xlink:title=" ">
<polygon fill="#e0e0e0" stroke="#999999" points="67,-74 0,-74 0,-55 67,-55 67,-74"/>
<text text-anchor="middle" x="33.5" y="-62" font-family="Helvetica,sans-Serif" font-size="10.00">fmt/core.h</text>
</a>
</g>
</g>
<!-- Node1&#45;&gt;Node8 -->
<g id="edge26" class="edge">
<title>Node1&#45;&gt;Node8</title>
<path fill="none" stroke="#63b8ff" d="M186.45,-274.93C163.53,-268.22 134.93,-256.95 114.5,-239 66.28,-196.63 44.72,-119.46 37.03,-84.1"/>
<polygon fill="#63b8ff" stroke="#63b8ff" points="40.44,-83.28 35.01,-74.19 33.58,-84.68 40.44,-83.28"/>
</g>
<!-- Node17 -->
<g id="node17" class="node">
<title>Node17</title>
<g id="a_node17"><a xlink:title=" ">
<polygon fill="#e0e0e0" stroke="#999999" points="718,-184 673,-184 673,-165 718,-165 718,-184"/>
<text text-anchor="middle" x="695.5" y="-172" font-family="Helvetica,sans-Serif" font-size="10.00">utility</text>
</a>
</g>
</g>
<!-- Node1&#45;&gt;Node17 -->
<g id="edge28" class="edge">
<title>Node1&#45;&gt;Node17</title>
<path fill="none" stroke="#63b8ff" d="M301.96,-274.99C350.4,-268.29 413.6,-257 467.5,-239 485.41,-233.02 487.74,-226.42 505.5,-220 509.23,-218.65 609.42,-195.41 662.77,-183.06"/>
<polygon fill="#63b8ff" stroke="#63b8ff" points="663.82,-186.41 672.77,-180.75 662.24,-179.59 663.82,-186.41"/>
</g>
<!-- Node18 -->
<g id="node18" class="node">
<title>Node18</title>
<g id="a_node18"><a xlink:title=" ">
<polygon fill="#e0e0e0" stroke="#999999" points="578.5,-239 514.5,-239 514.5,-220 578.5,-220 578.5,-239"/>
<text text-anchor="middle" x="546.5" y="-227" font-family="Helvetica,sans-Serif" font-size="10.00">algorithm</text>
</a>
</g>
</g>
<!-- Node1&#45;&gt;Node18 -->
<g id="edge27" class="edge">
<title>Node1&#45;&gt;Node18</title>
<path fill="none" stroke="#63b8ff" d="M279.81,-274.96C335.57,-266.27 424.1,-252.22 500.5,-239 501.76,-238.78 503.04,-238.56 504.33,-238.33"/>
<polygon fill="#63b8ff" stroke="#63b8ff" points="505.12,-241.75 514.35,-236.54 503.89,-234.86 505.12,-241.75"/>
</g>
<!-- Node3 -->
<g id="node3" class="node">
<title>Node3</title>
<g id="a_node3"><a xlink:href="Chromosome_8h.html" target="_top" xlink:title=" ">
<polygon fill="white" stroke="#666666" points="540.5,-184 346.5,-184 346.5,-165 540.5,-165 540.5,-184"/>
<text text-anchor="middle" x="443.5" y="-172" font-family="Helvetica,sans-Serif" font-size="10.00">genixx/chromosome/Chromosome.h</text>
</a>
</g>
</g>
<!-- Node2&#45;&gt;Node3 -->
<g id="edge2" class="edge">
<title>Node2&#45;&gt;Node3</title>
<path fill="none" stroke="#63b8ff" d="M387.26,-219.98C397.27,-212.07 412.39,-200.11 424.43,-190.58"/>
<polygon fill="#63b8ff" stroke="#63b8ff" points="426.87,-193.12 432.54,-184.17 422.53,-187.63 426.87,-193.12"/>
</g>
<!-- Node6 -->
<g id="node6" class="node">
<title>Node6</title>
<g id="a_node6"><a xlink:title=" ">
<polygon fill="#e0e0e0" stroke="#999999" points="513.5,-19 469.5,-19 469.5,0 513.5,0 513.5,-19"/>
<text text-anchor="middle" x="491.5" y="-7" font-family="Helvetica,sans-Serif" font-size="10.00">string</text>
</a>
</g>
</g>
<!-- Node2&#45;&gt;Node6 -->
<g id="edge21" class="edge">
<title>Node2&#45;&gt;Node6</title>
<path fill="none" stroke="#63b8ff" d="M458.54,-220.36C509.99,-213.59 569.95,-202.08 588.5,-184 612.41,-160.69 615.05,-140.52 601.5,-110 584.21,-71.05 543.31,-40.88 516.55,-24.41"/>
<polygon fill="#63b8ff" stroke="#63b8ff" points="518.11,-21.27 507.73,-19.17 514.53,-27.29 518.11,-21.27"/>
</g>
<!-- Node10 -->
<g id="node10" class="node">
<title>Node10</title>
<g id="a_node10"><a xlink:title=" ">
<polygon fill="#e0e0e0" stroke="#999999" points="519.5,-74 469.5,-74 469.5,-55 519.5,-55 519.5,-74"/>
<text text-anchor="middle" x="494.5" y="-62" font-family="Helvetica,sans-Serif" font-size="10.00">cstdint</text>
</a>
</g>
</g>
<!-- Node2&#45;&gt;Node10 -->
<g id="edge17" class="edge">
<title>Node2&#45;&gt;Node10</title>
<path fill="none" stroke="#63b8ff" d="M442.97,-219.94C490.25,-212.59 548.46,-200.55 566.5,-184 591.44,-161.12 602.36,-138.75 584.5,-110 572.46,-90.62 549.21,-79.42 529.35,-73.11"/>
<polygon fill="#63b8ff" stroke="#63b8ff" points="530.23,-69.72 519.65,-70.31 528.29,-76.45 530.23,-69.72"/>
</g>
<!-- Node13 -->
<g id="node13" class="node">
<title>Node13</title>
<g id="a_node13"><a xlink:title=" ">
<polygon fill="#e0e0e0" stroke="#999999" points="575.5,-129 517.5,-129 517.5,-110 575.5,-110 575.5,-129"/>
<text text-anchor="middle" x="546.5" y="-117" font-family="Helvetica,sans-Serif" font-size="10.00">memory</text>
</a>
</g>
</g>
<!-- Node2&#45;&gt;Node13 -->
<g id="edge20" class="edge">
<title>Node2&#45;&gt;Node13</title>
<path fill="none" stroke="#63b8ff" d="M442.68,-219.94C485.71,-212.86 536.2,-201.16 549.5,-184 559.21,-171.47 557.08,-153.02 553.34,-139.23"/>
<polygon fill="#63b8ff" stroke="#63b8ff" points="556.57,-137.83 550.19,-129.37 549.9,-139.96 556.57,-137.83"/>
</g>
<!-- Node14 -->
<g id="node14" class="node">
<title>Node14</title>
<g id="a_node14"><a xlink:title=" ">
<polygon fill="#e0e0e0" stroke="#999999" points="314,-129 267,-129 267,-110 314,-110 314,-129"/>
<text text-anchor="middle" x="290.5" y="-117" font-family="Helvetica,sans-Serif" font-size="10.00">vector</text>
</a>
</g>
</g>
<!-- Node2&#45;&gt;Node14 -->
<g id="edge23" class="edge">
<title>Node2&#45;&gt;Node14</title>
<path fill="none" stroke="#63b8ff" d="M306.14,-219.95C262.06,-212.98 211.11,-201.41 197.5,-184 177.44,-158.35 222.85,-139.19 257.03,-128.94"/>
<polygon fill="#63b8ff" stroke="#63b8ff" points="258.09,-132.28 266.75,-126.17 256.17,-125.55 258.09,-132.28"/>
</g>
<!-- Node15 -->
<g id="node15" class="node">
<title>Node15</title>
<g id="a_node15"><a xlink:title=" ">
<polygon fill="#e0e0e0" stroke="#999999" points="272,-184 207,-184 207,-165 272,-165 272,-184"/>
<text text-anchor="middle" x="239.5" y="-172" font-family="Helvetica,sans-Serif" font-size="10.00">functional</text>
</a>
</g>
</g>
<!-- Node2&#45;&gt;Node15 -->
<g id="edge18" class="edge">
<title>Node2&#45;&gt;Node15</title>
<path fill="none" stroke="#63b8ff" d="M354.49,-219.98C332.05,-211.3 297.02,-197.75 271.51,-187.88"/>
<polygon fill="#63b8ff" stroke="#63b8ff" points="272.5,-184.51 261.91,-184.17 269.98,-191.04 272.5,-184.51"/>
</g>
<!-- Node16 -->
<g id="node16" class="node">
<title>Node16</title>
<g id="a_node16"><a xlink:title=" ">
<polygon fill="#e0e0e0" stroke="#999999" points="328.5,-184 290.5,-184 290.5,-165 328.5,-165 328.5,-184"/>
<text text-anchor="middle" x="309.5" y="-172" font-family="Helvetica,sans-Serif" font-size="10.00">map</text>
</a>
</g>
</g>
<!-- Node2&#45;&gt;Node16 -->
<g id="edge19" class="edge">
<title>Node2&#45;&gt;Node16</title>
<path fill="none" stroke="#63b8ff" d="M365.74,-219.98C355.73,-212.07 340.61,-200.11 328.57,-190.58"/>
<polygon fill="#63b8ff" stroke="#63b8ff" points="330.47,-187.63 320.46,-184.17 326.13,-193.12 330.47,-187.63"/>
</g>
<!-- Node2&#45;&gt;Node17 -->
<g id="edge22" class="edge">
<title>Node2&#45;&gt;Node17</title>
<path fill="none" stroke="#63b8ff" d="M438.6,-219.96C495.89,-211.79 583.2,-198.57 658.5,-184 659.96,-183.72 661.44,-183.42 662.94,-183.11"/>
<polygon fill="#63b8ff" stroke="#63b8ff" points="663.82,-186.5 672.85,-180.96 662.34,-179.66 663.82,-186.5"/>
</g>
<!-- Node3&#45;&gt;Node4 -->
<g id="edge3" class="edge">
<title>Node3&#45;&gt;Node4</title>
<path fill="none" stroke="#63b8ff" d="M431.48,-164.84C405.81,-146.36 345.39,-102.86 313.7,-80.05"/>
<polygon fill="#63b8ff" stroke="#63b8ff" points="315.74,-77.2 305.58,-74.2 311.65,-82.88 315.74,-77.2"/>
</g>
<!-- Node3&#45;&gt;Node7 -->
<g id="edge6" class="edge">
<title>Node3&#45;&gt;Node7</title>
<path fill="none" stroke="#63b8ff" d="M392.09,-164.98C335.72,-155.65 245.31,-140.67 185.17,-130.71"/>
<polygon fill="#63b8ff" stroke="#63b8ff" points="185.49,-127.22 175.05,-129.04 184.34,-134.13 185.49,-127.22"/>
</g>
<!-- Node3&#45;&gt;Node10 -->
<g id="edge13" class="edge">
<title>Node3&#45;&gt;Node10</title>
<path fill="none" stroke="#63b8ff" d="M447.67,-164.66C456.05,-146.93 475.03,-106.73 486.09,-83.32"/>
<polygon fill="#63b8ff" stroke="#63b8ff" points="489.31,-84.7 490.41,-74.16 482.98,-81.71 489.31,-84.7"/>
</g>
<!-- Node12 -->
<g id="node12" class="node">
<title>Node12</title>
<g id="a_node12"><a xlink:title=" ">
<polygon fill="#e0e0e0" stroke="#999999" points="451,-74 382,-74 382,-55 451,-55 451,-74"/>
<text text-anchor="middle" x="416.5" y="-62" font-family="Helvetica,sans-Serif" font-size="10.00">type_traits</text>
</a>
</g>
</g>
<!-- Node3&#45;&gt;Node12 -->
<g id="edge15" class="edge">
<title>Node3&#45;&gt;Node12</title>
<path fill="none" stroke="#63b8ff" d="M441.29,-164.66C436.9,-147.09 426.99,-107.45 421.11,-83.95"/>
<polygon fill="#63b8ff" stroke="#63b8ff" points="424.49,-83.01 418.66,-74.16 417.69,-84.71 424.49,-83.01"/>
</g>
<!-- Node3&#45;&gt;Node13 -->
<g id="edge14" class="edge">
<title>Node3&#45;&gt;Node13</title>
<path fill="none" stroke="#63b8ff" d="M460.05,-164.98C476.39,-156.57 501.63,-143.59 520.63,-133.81"/>
<polygon fill="#63b8ff" stroke="#63b8ff" points="522.36,-136.86 529.65,-129.17 519.16,-130.63 522.36,-136.86"/>
</g>
<!-- Node3&#45;&gt;Node14 -->
<g id="edge16" class="edge">
<title>Node3&#45;&gt;Node14</title>
<path fill="none" stroke="#63b8ff" d="M418.92,-164.98C393.08,-156.03 352.27,-141.9 323.6,-131.97"/>
<polygon fill="#63b8ff" stroke="#63b8ff" points="324.61,-128.61 314.02,-128.65 322.32,-135.23 324.61,-128.61"/>
</g>
<!-- Node5 -->
<g id="node5" class="node">
<title>Node5</title>
<g id="a_node5"><a xlink:title=" ">
<polygon fill="#e0e0e0" stroke="#999999" points="326,-19 261,-19 261,0 326,0 326,-19"/>
<text text-anchor="middle" x="293.5" y="-7" font-family="Helvetica,sans-Serif" font-size="10.00">exception</text>
</a>
</g>
</g>
<!-- Node4&#45;&gt;Node5 -->
<g id="edge4" class="edge">
<title>Node4&#45;&gt;Node5</title>
<path fill="none" stroke="#63b8ff" d="M293.5,-54.75C293.5,-47.8 293.5,-37.85 293.5,-29.13"/>
<polygon fill="#63b8ff" stroke="#63b8ff" points="297,-29.09 293.5,-19.09 290,-29.09 297,-29.09"/>
</g>
<!-- Node4&#45;&gt;Node6 -->
<g id="edge5" class="edge">
<title>Node4&#45;&gt;Node6</title>
<path fill="none" stroke="#63b8ff" d="M325.31,-54.98C362.18,-45.12 422.6,-28.94 459.53,-19.06"/>
<polygon fill="#63b8ff" stroke="#63b8ff" points="460.54,-22.41 469.29,-16.45 458.73,-15.65 460.54,-22.41"/>
</g>
<!-- Node7&#45;&gt;Node4 -->
<g id="edge7" class="edge">
<title>Node7&#45;&gt;Node4</title>
<path fill="none" stroke="#63b8ff" d="M150.81,-109.98C179.35,-101.09 224.33,-87.07 256.14,-77.15"/>
<polygon fill="#63b8ff" stroke="#63b8ff" points="257.47,-80.4 265.97,-74.08 255.38,-73.72 257.47,-80.4"/>
</g>
<!-- Node7&#45;&gt;Node8 -->
<g id="edge8" class="edge">
<title>Node7&#45;&gt;Node8</title>
<path fill="none" stroke="#63b8ff" d="M109.04,-109.98C95.08,-101.77 73.71,-89.18 57.25,-79.49"/>
<polygon fill="#63b8ff" stroke="#63b8ff" points="58.62,-76.23 48.22,-74.17 55.06,-82.26 58.62,-76.23"/>
</g>
<!-- Node9 -->
<g id="node9" class="node">
<title>Node9</title>
<g id="a_node9"><a xlink:title=" ">
<polygon fill="#e0e0e0" stroke="#999999" points="132,-74 85,-74 85,-55 132,-55 132,-74"/>
<text text-anchor="middle" x="108.5" y="-62" font-family="Helvetica,sans-Serif" font-size="10.00">cmath</text>
</a>
</g>
</g>
<!-- Node7&#45;&gt;Node9 -->
<g id="edge9" class="edge">
<title>Node7&#45;&gt;Node9</title>
<path fill="none" stroke="#63b8ff" d="M121.02,-109.75C119.04,-102.72 116.18,-92.62 113.69,-83.84"/>
<polygon fill="#63b8ff" stroke="#63b8ff" points="117.02,-82.76 110.93,-74.09 110.29,-84.66 117.02,-82.76"/>
</g>
<!-- Node7&#45;&gt;Node10 -->
<g id="edge10" class="edge">
<title>Node7&#45;&gt;Node10</title>
<path fill="none" stroke="#63b8ff" d="M185.02,-112.5C250.65,-105.62 357.81,-93.03 459.21,-74.05"/>
<polygon fill="#63b8ff" stroke="#63b8ff" points="460.15,-77.44 469.32,-72.13 458.84,-70.56 460.15,-77.44"/>
</g>
<!-- Node11 -->
<g id="node11" class="node">
<title>Node11</title>
<g id="a_node11"><a xlink:title=" ">
<polygon fill="#e0e0e0" stroke="#999999" points="204.5,-74 150.5,-74 150.5,-55 204.5,-55 204.5,-74"/>
<text text-anchor="middle" x="177.5" y="-62" font-family="Helvetica,sans-Serif" font-size="10.00">random</text>
</a>
</g>
</g>
<!-- Node7&#45;&gt;Node11 -->
<g id="edge11" class="edge">
<title>Node7&#45;&gt;Node11</title>
<path fill="none" stroke="#63b8ff" d="M132.42,-109.75C140.28,-102.03 151.93,-90.6 161.42,-81.28"/>
<polygon fill="#63b8ff" stroke="#63b8ff" points="164.06,-83.59 168.75,-74.09 159.16,-78.6 164.06,-83.59"/>
</g>
<!-- Node7&#45;&gt;Node12 -->
<g id="edge12" class="edge">
<title>Node7&#45;&gt;Node12</title>
<path fill="none" stroke="#63b8ff" d="M172.88,-109.99C221.18,-101.61 297.09,-88.27 371.73,-74.31"/>
<polygon fill="#63b8ff" stroke="#63b8ff" points="372.59,-77.71 381.78,-72.42 371.3,-70.83 372.59,-77.71"/>
</g>
</g>
</svg>
