<?xml version="1.0" encoding="UTF-8" standalone="no"?>
<!DOCTYPE svg PUBLIC "-//W3C//DTD SVG 1.1//EN"
 "http://www.w3.org/Graphics/SVG/1.1/DTD/svg11.dtd">
<!-- Generated by graphviz version 2.43.0 (0)
 -->
<!-- Title: Graphical Class Hierarchy Pages: 1 -->
<svg width="488pt" height="86pt"
 viewBox="0.00 0.00 488.00 86.00" xmlns="http://www.w3.org/2000/svg" xmlns:xlink="http://www.w3.org/1999/xlink">
<g id="graph0" class="graph" transform="scale(1 1) rotate(0) translate(4 82)">
<title>Graphical Class Hierarchy</title>
<!-- Node0 -->
<g id="node1" class="node">
<title>Node0</title>
<g id="a_node1"><a xlink:href="classgenixx_1_1IChromosome.html" target="_top" xlink:title=" ">
<polygon fill="white" stroke="#666666" points="124,-48.5 0,-48.5 0,-29.5 124,-29.5 124,-48.5"/>
<text text-anchor="middle" x="62" y="-36.5" font-family="Helvetica,sans-Serif" font-size="10.00">genixx::IChromosome</text>
</a>
</g>
</g>
<!-- Node1 -->
<g id="node2" class="node">
<title>Node1</title>
<g id="a_node2"><a xlink:href="classgenixx_1_1Chromosome.html" target="_top" xlink:title=" ">
<polygon fill="white" stroke="#666666" points="281.5,-78 160.5,-78 160.5,-48 281.5,-48 281.5,-78"/>
<text text-anchor="start" x="168.5" y="-66" font-family="Helvetica,sans-Serif" font-size="10.00">genixx::Chromosome</text>
<text text-anchor="middle" x="221" y="-55" font-family="Helvetica,sans-Serif" font-size="10.00">&lt; bool, Numeric &gt;</text>
</a>
</g>
</g>
<!-- Node0&#45;&gt;Node1 -->
<g id="edge1" class="edge">
<title>Node0&#45;&gt;Node1</title>
<path fill="none" stroke="#63b8ff" d="M134.28,-49.9C142.98,-51.23 151.8,-52.57 160.31,-53.87"/>
<polygon fill="#63b8ff" stroke="#63b8ff" points="134.56,-46.4 124.15,-48.35 133.51,-53.32 134.56,-46.4"/>
</g>
<!-- Node3 -->
<g id="node4" class="node">
<title>Node3</title>
<g id="a_node4"><a xlink:href="classgenixx_1_1Chromosome.html" target="_top" xlink:title=" ">
<polygon fill="white" stroke="#666666" points="282,-30 160,-30 160,0 282,0 282,-30"/>
<text text-anchor="start" x="168" y="-18" font-family="Helvetica,sans-Serif" font-size="10.00">genixx::Chromosome</text>
<text text-anchor="middle" x="221" y="-7" font-family="Helvetica,sans-Serif" font-size="10.00">&lt; Gene, Phenotype &gt;</text>
</a>
</g>
</g>
<!-- Node0&#45;&gt;Node3 -->
<g id="edge3" class="edge">
<title>Node0&#45;&gt;Node3</title>
<path fill="none" stroke="#63b8ff" d="M134.13,-28.13C142.71,-26.82 151.4,-25.49 159.79,-24.2"/>
<polygon fill="#63b8ff" stroke="#63b8ff" points="133.51,-24.68 124.15,-29.65 134.56,-31.6 133.51,-24.68"/>
</g>
<!-- Node2 -->
<g id="node3" class="node">
<title>Node2</title>
<g id="a_node3"><a xlink:href="classgenixx_1_1NumericChromosome.html" target="_top" xlink:title=" ">
<polygon fill="white" stroke="#666666" points="480,-78 318,-78 318,-48 480,-48 480,-78"/>
<text text-anchor="start" x="326" y="-66" font-family="Helvetica,sans-Serif" font-size="10.00">genixx::NumericChromosome</text>
<text text-anchor="middle" x="399" y="-55" font-family="Helvetica,sans-Serif" font-size="10.00">&lt; Numeric, typename &gt;</text>
</a>
</g>
</g>
<!-- Node1&#45;&gt;Node2 -->
<g id="edge2" class="edge">
<title>Node1&#45;&gt;Node2</title>
<path fill="none" stroke="#63b8ff" d="M291.59,-63C300.22,-63 309.1,-63 317.88,-63"/>
<polygon fill="#63b8ff" stroke="#63b8ff" points="291.59,-59.5 281.59,-63 291.59,-66.5 291.59,-59.5"/>
</g>
</g>
</svg>
