<?xml version="1.0" encoding="UTF-8" standalone="no"?>
<!DOCTYPE svg PUBLIC "-//W3C//DTD SVG 1.1//EN"
 "http://www.w3.org/Graphics/SVG/1.1/DTD/svg11.dtd">
<!-- Generated by graphviz version 2.43.0 (0)
 -->
<!-- Title: Graphical Class Hierarchy Pages: 1 -->
<svg width="315pt" height="101pt"
 viewBox="0.00 0.00 315.00 101.00" xmlns="http://www.w3.org/2000/svg" xmlns:xlink="http://www.w3.org/1999/xlink">
<g id="graph0" class="graph" transform="scale(1 1) rotate(0) translate(4 97)">
<title>Graphical Class Hierarchy</title>
<!-- Node0 -->
<g id="node1" class="node">
<title>Node0</title>
<g id="a_node1"><a xlink:title=" ">
<polygon fill="#e0e0e0" stroke="#999999" points="86,-56 0,-56 0,-37 86,-37 86,-56"/>
<text text-anchor="middle" x="43" y="-44" font-family="Helvetica,sans-Serif" font-size="10.00">std::exception</text>
</a>
</g>
</g>
<!-- Node1 -->
<g id="node2" class="node">
<title>Node1</title>
<g id="a_node2"><a xlink:href="classgenixx_1_1InvalidArgumentException.html" target="_top" xlink:title=" ">
<polygon fill="white" stroke="#666666" points="307,-93 122,-93 122,-74 307,-74 307,-93"/>
<text text-anchor="middle" x="214.5" y="-81" font-family="Helvetica,sans-Serif" font-size="10.00">genixx::InvalidArgumentException</text>
</a>
</g>
</g>
<!-- Node0&#45;&gt;Node1 -->
<g id="edge1" class="edge">
<title>Node0&#45;&gt;Node1</title>
<path fill="none" stroke="#63b8ff" d="M91.46,-58.42C101.52,-60.85 112.1,-63.32 122,-65.5 135.28,-68.42 149.7,-71.37 163.08,-74"/>
<polygon fill="#63b8ff" stroke="#63b8ff" points="92.15,-54.99 81.61,-56.02 90.5,-61.79 92.15,-54.99"/>
</g>
<!-- Node2 -->
<g id="node3" class="node">
<title>Node2</title>
<g id="a_node3"><a xlink:href="classgenixx_1_1NullFunctionException.html" target="_top" xlink:title=" ">
<polygon fill="white" stroke="#666666" points="296.5,-56 132.5,-56 132.5,-37 296.5,-37 296.5,-56"/>
<text text-anchor="middle" x="214.5" y="-44" font-family="Helvetica,sans-Serif" font-size="10.00">genixx::NullFunctionException</text>
</a>
</g>
</g>
<!-- Node0&#45;&gt;Node2 -->
<g id="edge2" class="edge">
<title>Node0&#45;&gt;Node2</title>
<path fill="none" stroke="#63b8ff" d="M96.51,-46.5C107.9,-46.5 120.2,-46.5 132.4,-46.5"/>
<polygon fill="#63b8ff" stroke="#63b8ff" points="96.33,-43 86.33,-46.5 96.33,-50 96.33,-43"/>
</g>
<!-- Node3 -->
<g id="node4" class="node">
<title>Node3</title>
<g id="a_node4"><a xlink:href="classgenixx_1_1WrongSizeException.html" target="_top" xlink:title=" ">
<polygon fill="white" stroke="#666666" points="292,-19 137,-19 137,0 292,0 292,-19"/>
<text text-anchor="middle" x="214.5" y="-7" font-family="Helvetica,sans-Serif" font-size="10.00">genixx::WrongSizeException</text>
</a>
</g>
</g>
<!-- Node0&#45;&gt;Node3 -->
<g id="edge3" class="edge">
<title>Node0&#45;&gt;Node3</title>
<path fill="none" stroke="#63b8ff" d="M94.27,-34.73C103.49,-32.62 113.03,-30.47 122,-28.5 136.42,-25.34 152.15,-22.02 166.44,-19.06"/>
<polygon fill="#63b8ff" stroke="#63b8ff" points="93.41,-31.33 84.45,-36.99 94.98,-38.16 93.41,-31.33"/>
</g>
</g>
</svg>
