<?xml version="1.0" encoding="UTF-8" standalone="no"?>
<!DOCTYPE svg PUBLIC "-//W3C//DTD SVG 1.1//EN"
 "http://www.w3.org/Graphics/SVG/1.1/DTD/svg11.dtd">
<!-- Generated by graphviz version 2.43.0 (0)
 -->
<!-- Title: lib/population/include/genixx/population/selection/method.h Pages: 1 -->
<svg width="632pt" height="324pt"
 viewBox="0.00 0.00 632.44 324.00" xmlns="http://www.w3.org/2000/svg" xmlns:xlink="http://www.w3.org/1999/xlink">
<g id="graph0" class="graph" transform="scale(1 1) rotate(0) translate(4 320)">
<title>lib/population/include/genixx/population/selection/method.h</title>
<!-- Node1 -->
<g id="node1" class="node">
<title>Node1</title>
<g id="a_node1"><a xlink:title=" ">
<polygon fill="#999999" stroke="#666666" points="562.94,-316 407.94,-316 407.94,-275 562.94,-275 562.94,-316"/>
<text text-anchor="start" x="415.94" y="-304" font-family="Helvetica,sans-Serif" font-size="10.00">lib/population/include</text>
<text text-anchor="start" x="415.94" y="-293" font-family="Helvetica,sans-Serif" font-size="10.00">/genixx/population/selection</text>
<text text-anchor="middle" x="485.44" y="-282" font-family="Helvetica,sans-Serif" font-size="10.00">/method.h</text>
</a>
</g>
</g>
<!-- Node2 -->
<g id="node2" class="node">
<title>Node2</title>
<g id="a_node2"><a xlink:href="Individual_8h.html" target="_top" xlink:title=" ">
<polygon fill="white" stroke="#666666" points="224.44,-239 60.44,-239 60.44,-220 224.44,-220 224.44,-239"/>
<text text-anchor="middle" x="142.44" y="-227" font-family="Helvetica,sans-Serif" font-size="10.00">genixx/population/Individual.h</text>
</a>
</g>
</g>
<!-- Node1&#45;&gt;Node2 -->
<g id="edge1" class="edge">
<title>Node1&#45;&gt;Node2</title>
<path fill="none" stroke="#63b8ff" d="M407.61,-279.98C343.84,-268.08 255.15,-251.53 198.26,-240.92"/>
<polygon fill="#63b8ff" stroke="#63b8ff" points="198.84,-237.46 188.37,-239.07 197.56,-244.35 198.84,-237.46"/>
</g>
<!-- Node7 -->
<g id="node7" class="node">
<title>Node7</title>
<g id="a_node7"><a xlink:href="random_8h.html" target="_top" xlink:title=" ">
<polygon fill="white" stroke="#666666" points="472.94,-129 349.94,-129 349.94,-110 472.94,-110 472.94,-129"/>
<text text-anchor="middle" x="411.44" y="-117" font-family="Helvetica,sans-Serif" font-size="10.00">genixx/utils/random.h</text>
</a>
</g>
</g>
<!-- Node1&#45;&gt;Node7 -->
<g id="edge24" class="edge">
<title>Node1&#45;&gt;Node7</title>
<path fill="none" stroke="#63b8ff" d="M498.17,-274.85C513.82,-247.93 535.74,-199.06 513.44,-165 503.08,-149.18 485.74,-138.95 468.26,-132.35"/>
<polygon fill="#63b8ff" stroke="#63b8ff" points="469.17,-128.97 458.58,-129.05 466.91,-135.59 469.17,-128.97"/>
</g>
<!-- Node15 -->
<g id="node15" class="node">
<title>Node15</title>
<g id="a_node15"><a xlink:title=" ">
<polygon fill="#e0e0e0" stroke="#999999" points="447.94,-184 382.94,-184 382.94,-165 447.94,-165 447.94,-184"/>
<text text-anchor="middle" x="415.44" y="-172" font-family="Helvetica,sans-Serif" font-size="10.00">functional</text>
</a>
</g>
</g>
<!-- Node1&#45;&gt;Node15 -->
<g id="edge26" class="edge">
<title>Node1&#45;&gt;Node15</title>
<path fill="none" stroke="#63b8ff" d="M473.88,-274.85C460.48,-252.07 438.59,-214.85 425.75,-193.02"/>
<polygon fill="#63b8ff" stroke="#63b8ff" points="428.63,-191.02 420.54,-184.18 422.6,-194.57 428.63,-191.02"/>
</g>
<!-- Node16 -->
<g id="node16" class="node">
<title>Node16</title>
<g id="a_node16"><a xlink:title=" ">
<polygon fill="#e0e0e0" stroke="#999999" points="504.44,-184 466.44,-184 466.44,-165 504.44,-165 504.44,-184"/>
<text text-anchor="middle" x="485.44" y="-172" font-family="Helvetica,sans-Serif" font-size="10.00">map</text>
</a>
</g>
</g>
<!-- Node1&#45;&gt;Node16 -->
<g id="edge27" class="edge">
<title>Node1&#45;&gt;Node16</title>
<path fill="none" stroke="#63b8ff" d="M485.44,-274.85C485.44,-252.48 485.44,-216.19 485.44,-194.21"/>
<polygon fill="#63b8ff" stroke="#63b8ff" points="488.94,-194.18 485.44,-184.18 481.94,-194.18 488.94,-194.18"/>
</g>
<!-- Node18 -->
<g id="node18" class="node">
<title>Node18</title>
<g id="a_node18"><a xlink:title=" ">
<polygon fill="#e0e0e0" stroke="#999999" points="624.44,-239 560.44,-239 560.44,-220 624.44,-220 624.44,-239"/>
<text text-anchor="middle" x="592.44" y="-227" font-family="Helvetica,sans-Serif" font-size="10.00">algorithm</text>
</a>
</g>
</g>
<!-- Node1&#45;&gt;Node18 -->
<g id="edge25" class="edge">
<title>Node1&#45;&gt;Node18</title>
<path fill="none" stroke="#63b8ff" d="M518.13,-274.95C534.72,-265.03 554.47,-253.21 569.45,-244.25"/>
<polygon fill="#63b8ff" stroke="#63b8ff" points="571.29,-247.23 578.08,-239.09 567.7,-241.22 571.29,-247.23"/>
</g>
<!-- Node3 -->
<g id="node3" class="node">
<title>Node3</title>
<g id="a_node3"><a xlink:href="Chromosome_8h.html" target="_top" xlink:title=" ">
<polygon fill="white" stroke="#666666" points="364.44,-184 170.44,-184 170.44,-165 364.44,-165 364.44,-184"/>
<text text-anchor="middle" x="267.44" y="-172" font-family="Helvetica,sans-Serif" font-size="10.00">genixx/chromosome/Chromosome.h</text>
</a>
</g>
</g>
<!-- Node2&#45;&gt;Node3 -->
<g id="edge2" class="edge">
<title>Node2&#45;&gt;Node3</title>
<path fill="none" stroke="#63b8ff" d="M162.52,-219.98C182.81,-211.38 214.4,-197.99 237.61,-188.15"/>
<polygon fill="#63b8ff" stroke="#63b8ff" points="239.15,-191.3 246.99,-184.17 236.42,-184.85 239.15,-191.3"/>
</g>
<!-- Node6 -->
<g id="node6" class="node">
<title>Node6</title>
<g id="a_node6"><a xlink:title=" ">
<polygon fill="#e0e0e0" stroke="#999999" points="120.44,-19 76.44,-19 76.44,0 120.44,0 120.44,-19"/>
<text text-anchor="middle" x="98.44" y="-7" font-family="Helvetica,sans-Serif" font-size="10.00">string</text>
</a>
</g>
</g>
<!-- Node2&#45;&gt;Node6 -->
<g id="edge21" class="edge">
<title>Node2&#45;&gt;Node6</title>
<path fill="none" stroke="#63b8ff" d="M68.28,-219.95C46.42,-213.57 24.8,-202.65 11.44,-184 -26.89,-130.49 43.93,-57.62 79.64,-26.1"/>
<polygon fill="#63b8ff" stroke="#63b8ff" points="82.19,-28.52 87.48,-19.34 77.62,-23.22 82.19,-28.52"/>
</g>
<!-- Node10 -->
<g id="node10" class="node">
<title>Node10</title>
<g id="a_node10"><a xlink:title=" ">
<polygon fill="#e0e0e0" stroke="#999999" points="129.44,-74 79.44,-74 79.44,-55 129.44,-55 129.44,-74"/>
<text text-anchor="middle" x="104.44" y="-62" font-family="Helvetica,sans-Serif" font-size="10.00">cstdint</text>
</a>
</g>
</g>
<!-- Node2&#45;&gt;Node10 -->
<g id="edge17" class="edge">
<title>Node2&#45;&gt;Node10</title>
<path fill="none" stroke="#63b8ff" d="M78.26,-219.98C56.58,-213.7 34.57,-202.82 21.44,-184 -4.83,-146.34 48.74,-102.04 81.53,-79.78"/>
<polygon fill="#63b8ff" stroke="#63b8ff" points="83.71,-82.54 90.14,-74.12 79.86,-76.69 83.71,-82.54"/>
</g>
<!-- Node13 -->
<g id="node13" class="node">
<title>Node13</title>
<g id="a_node13"><a xlink:title=" ">
<polygon fill="#e0e0e0" stroke="#999999" points="201.44,-129 143.44,-129 143.44,-110 201.44,-110 201.44,-129"/>
<text text-anchor="middle" x="172.44" y="-117" font-family="Helvetica,sans-Serif" font-size="10.00">memory</text>
</a>
</g>
</g>
<!-- Node2&#45;&gt;Node13 -->
<g id="edge20" class="edge">
<title>Node2&#45;&gt;Node13</title>
<path fill="none" stroke="#63b8ff" d="M144.9,-219.66C149.78,-202.09 160.79,-162.45 167.32,-138.95"/>
<polygon fill="#63b8ff" stroke="#63b8ff" points="170.73,-139.73 170.04,-129.16 163.99,-137.86 170.73,-139.73"/>
</g>
<!-- Node14 -->
<g id="node14" class="node">
<title>Node14</title>
<g id="a_node14"><a xlink:title=" ">
<polygon fill="#e0e0e0" stroke="#999999" points="124.94,-129 77.94,-129 77.94,-110 124.94,-110 124.94,-129"/>
<text text-anchor="middle" x="101.44" y="-117" font-family="Helvetica,sans-Serif" font-size="10.00">vector</text>
</a>
</g>
</g>
<!-- Node2&#45;&gt;Node14 -->
<g id="edge23" class="edge">
<title>Node2&#45;&gt;Node14</title>
<path fill="none" stroke="#63b8ff" d="M139.09,-219.66C132.39,-202.01 117.23,-162.09 108.33,-138.64"/>
<polygon fill="#63b8ff" stroke="#63b8ff" points="111.55,-137.27 104.73,-129.16 105.01,-139.75 111.55,-137.27"/>
</g>
<!-- Node2&#45;&gt;Node15 -->
<g id="edge18" class="edge">
<title>Node2&#45;&gt;Node15</title>
<path fill="none" stroke="#63b8ff" d="M187.61,-219.93C232.11,-211.46 302.28,-198.02 372.92,-184.09"/>
<polygon fill="#63b8ff" stroke="#63b8ff" points="373.76,-187.49 382.89,-182.12 372.4,-180.62 373.76,-187.49"/>
</g>
<!-- Node2&#45;&gt;Node16 -->
<g id="edge19" class="edge">
<title>Node2&#45;&gt;Node16</title>
<path fill="none" stroke="#63b8ff" d="M224.65,-220.4C286.14,-213.54 372.38,-202.19 456.31,-183.95"/>
<polygon fill="#63b8ff" stroke="#63b8ff" points="457.26,-187.32 466.27,-181.75 455.75,-180.49 457.26,-187.32"/>
</g>
<!-- Node17 -->
<g id="node17" class="node">
<title>Node17</title>
<g id="a_node17"><a xlink:title=" ">
<polygon fill="#e0e0e0" stroke="#999999" points="75.94,-184 30.94,-184 30.94,-165 75.94,-165 75.94,-184"/>
<text text-anchor="middle" x="53.44" y="-172" font-family="Helvetica,sans-Serif" font-size="10.00">utility</text>
</a>
</g>
</g>
<!-- Node2&#45;&gt;Node17 -->
<g id="edge22" class="edge">
<title>Node2&#45;&gt;Node17</title>
<path fill="none" stroke="#63b8ff" d="M128.14,-219.98C114.34,-211.77 93.2,-199.18 76.93,-189.49"/>
<polygon fill="#63b8ff" stroke="#63b8ff" points="78.38,-186.28 68,-184.17 74.8,-192.29 78.38,-186.28"/>
</g>
<!-- Node4 -->
<g id="node4" class="node">
<title>Node4</title>
<g id="a_node4"><a xlink:href="exceptions_8h.html" target="_top" xlink:title=" ">
<polygon fill="white" stroke="#666666" points="375.94,-74 234.94,-74 234.94,-55 375.94,-55 375.94,-74"/>
<text text-anchor="middle" x="305.44" y="-62" font-family="Helvetica,sans-Serif" font-size="10.00">genixx/error/exceptions.h</text>
</a>
</g>
</g>
<!-- Node3&#45;&gt;Node4 -->
<g id="edge3" class="edge">
<title>Node3&#45;&gt;Node4</title>
<path fill="none" stroke="#63b8ff" d="M270.55,-164.66C276.76,-147.01 290.81,-107.09 299.06,-83.64"/>
<polygon fill="#63b8ff" stroke="#63b8ff" points="302.38,-84.75 302.39,-74.16 295.77,-82.43 302.38,-84.75"/>
</g>
<!-- Node3&#45;&gt;Node7 -->
<g id="edge6" class="edge">
<title>Node3&#45;&gt;Node7</title>
<path fill="none" stroke="#63b8ff" d="M290.58,-164.98C314.26,-156.27 351.31,-142.63 378.15,-132.75"/>
<polygon fill="#63b8ff" stroke="#63b8ff" points="379.71,-135.91 387.88,-129.17 377.29,-129.34 379.71,-135.91"/>
</g>
<!-- Node3&#45;&gt;Node10 -->
<g id="edge13" class="edge">
<title>Node3&#45;&gt;Node10</title>
<path fill="none" stroke="#63b8ff" d="M261.41,-164.57C251.95,-151.13 232.41,-125.63 210.44,-110 188.72,-94.55 160.82,-83.11 139.09,-75.7"/>
<polygon fill="#63b8ff" stroke="#63b8ff" points="140.18,-72.37 129.59,-72.58 138,-79.02 140.18,-72.37"/>
</g>
<!-- Node12 -->
<g id="node12" class="node">
<title>Node12</title>
<g id="a_node12"><a xlink:title=" ">
<polygon fill="#e0e0e0" stroke="#999999" points="216.94,-74 147.94,-74 147.94,-55 216.94,-55 216.94,-74"/>
<text text-anchor="middle" x="182.44" y="-62" font-family="Helvetica,sans-Serif" font-size="10.00">type_traits</text>
</a>
</g>
</g>
<!-- Node3&#45;&gt;Node12 -->
<g id="edge15" class="edge">
<title>Node3&#45;&gt;Node12</title>
<path fill="none" stroke="#63b8ff" d="M265.84,-164.93C263.09,-151.96 256.44,-127.06 243.44,-110 233.95,-97.54 220.02,-87.01 207.87,-79.33"/>
<polygon fill="#63b8ff" stroke="#63b8ff" points="209.4,-76.17 199.03,-74.02 205.8,-82.17 209.4,-76.17"/>
</g>
<!-- Node3&#45;&gt;Node13 -->
<g id="edge14" class="edge">
<title>Node3&#45;&gt;Node13</title>
<path fill="none" stroke="#63b8ff" d="M252.18,-164.98C237.31,-156.69 214.46,-143.94 197.03,-134.22"/>
<polygon fill="#63b8ff" stroke="#63b8ff" points="198.42,-130.99 187.98,-129.17 195.01,-137.1 198.42,-130.99"/>
</g>
<!-- Node3&#45;&gt;Node14 -->
<g id="edge16" class="edge">
<title>Node3&#45;&gt;Node14</title>
<path fill="none" stroke="#63b8ff" d="M240.77,-164.98C211.91,-155.77 165.84,-141.06 134.65,-131.1"/>
<polygon fill="#63b8ff" stroke="#63b8ff" points="135.68,-127.76 125.09,-128.05 133.55,-134.43 135.68,-127.76"/>
</g>
<!-- Node5 -->
<g id="node5" class="node">
<title>Node5</title>
<g id="a_node5"><a xlink:title=" ">
<polygon fill="#e0e0e0" stroke="#999999" points="337.94,-19 272.94,-19 272.94,0 337.94,0 337.94,-19"/>
<text text-anchor="middle" x="305.44" y="-7" font-family="Helvetica,sans-Serif" font-size="10.00">exception</text>
</a>
</g>
</g>
<!-- Node4&#45;&gt;Node5 -->
<g id="edge4" class="edge">
<title>Node4&#45;&gt;Node5</title>
<path fill="none" stroke="#63b8ff" d="M305.44,-54.75C305.44,-47.8 305.44,-37.85 305.44,-29.13"/>
<polygon fill="#63b8ff" stroke="#63b8ff" points="308.94,-29.09 305.44,-19.09 301.94,-29.09 308.94,-29.09"/>
</g>
<!-- Node4&#45;&gt;Node6 -->
<g id="edge5" class="edge">
<title>Node4&#45;&gt;Node6</title>
<path fill="none" stroke="#63b8ff" d="M272.18,-54.98C233.22,-45.01 169.1,-28.59 130.61,-18.74"/>
<polygon fill="#63b8ff" stroke="#63b8ff" points="131.03,-15.23 120.48,-16.14 129.3,-22.01 131.03,-15.23"/>
</g>
<!-- Node7&#45;&gt;Node4 -->
<g id="edge7" class="edge">
<title>Node7&#45;&gt;Node4</title>
<path fill="none" stroke="#63b8ff" d="M394.41,-109.98C377.51,-101.54 351.38,-88.47 331.8,-78.68"/>
<polygon fill="#63b8ff" stroke="#63b8ff" points="333.29,-75.51 322.78,-74.17 330.16,-81.77 333.29,-75.51"/>
</g>
<!-- Node8 -->
<g id="node8" class="node">
<title>Node8</title>
<g id="a_node8"><a xlink:title=" ">
<polygon fill="#e0e0e0" stroke="#999999" points="460.94,-74 393.94,-74 393.94,-55 460.94,-55 460.94,-74"/>
<text text-anchor="middle" x="427.44" y="-62" font-family="Helvetica,sans-Serif" font-size="10.00">fmt/core.h</text>
</a>
</g>
</g>
<!-- Node7&#45;&gt;Node8 -->
<g id="edge8" class="edge">
<title>Node7&#45;&gt;Node8</title>
<path fill="none" stroke="#63b8ff" d="M414.08,-109.75C416.2,-102.72 419.25,-92.62 421.9,-83.84"/>
<polygon fill="#63b8ff" stroke="#63b8ff" points="425.31,-84.67 424.85,-74.09 418.61,-82.65 425.31,-84.67"/>
</g>
<!-- Node9 -->
<g id="node9" class="node">
<title>Node9</title>
<g id="a_node9"><a xlink:title=" ">
<polygon fill="#e0e0e0" stroke="#999999" points="525.94,-74 478.94,-74 478.94,-55 525.94,-55 525.94,-74"/>
<text text-anchor="middle" x="502.44" y="-62" font-family="Helvetica,sans-Serif" font-size="10.00">cmath</text>
</a>
</g>
</g>
<!-- Node7&#45;&gt;Node9 -->
<g id="edge9" class="edge">
<title>Node7&#45;&gt;Node9</title>
<path fill="none" stroke="#63b8ff" d="M426.06,-109.98C440.31,-101.69 462.19,-88.94 478.89,-79.22"/>
<polygon fill="#63b8ff" stroke="#63b8ff" points="480.67,-82.23 487.55,-74.17 477.15,-76.18 480.67,-82.23"/>
</g>
<!-- Node7&#45;&gt;Node10 -->
<g id="edge10" class="edge">
<title>Node7&#45;&gt;Node10</title>
<path fill="none" stroke="#63b8ff" d="M349.91,-109.97C296.68,-102.25 217.46,-89.94 139.62,-74.1"/>
<polygon fill="#63b8ff" stroke="#63b8ff" points="140.14,-70.63 129.64,-72.05 138.73,-77.49 140.14,-70.63"/>
</g>
<!-- Node11 -->
<g id="node11" class="node">
<title>Node11</title>
<g id="a_node11"><a xlink:title=" ">
<polygon fill="#e0e0e0" stroke="#999999" points="598.44,-74 544.44,-74 544.44,-55 598.44,-55 598.44,-74"/>
<text text-anchor="middle" x="571.44" y="-62" font-family="Helvetica,sans-Serif" font-size="10.00">random</text>
</a>
</g>
</g>
<!-- Node7&#45;&gt;Node11 -->
<g id="edge11" class="edge">
<title>Node7&#45;&gt;Node11</title>
<path fill="none" stroke="#63b8ff" d="M437.15,-109.98C463.89,-101.13 505.97,-87.19 535.89,-77.28"/>
<polygon fill="#63b8ff" stroke="#63b8ff" points="537.14,-80.55 545.53,-74.08 534.94,-73.9 537.14,-80.55"/>
</g>
<!-- Node7&#45;&gt;Node12 -->
<g id="edge12" class="edge">
<title>Node7&#45;&gt;Node12</title>
<path fill="none" stroke="#63b8ff" d="M374.65,-109.98C334.5,-100.69 270.22,-85.82 227.18,-75.86"/>
<polygon fill="#63b8ff" stroke="#63b8ff" points="227.8,-72.4 217.27,-73.56 226.22,-79.22 227.8,-72.4"/>
</g>
</g>
</svg>
