<?xml version="1.0" encoding="UTF-8" standalone="no"?>
<!DOCTYPE svg PUBLIC "-//W3C//DTD SVG 1.1//EN"
 "http://www.w3.org/Graphics/SVG/1.1/DTD/svg11.dtd">
<!-- Generated by graphviz version 2.43.0 (0)
 -->
<!-- Title: lib/chromosome/include/genixx/chromosome/NumericChromosome.h Pages: 1 -->
<svg width="635pt" height="258pt"
 viewBox="0.00 0.00 635.00 258.00" xmlns="http://www.w3.org/2000/svg" xmlns:xlink="http://www.w3.org/1999/xlink">
<g id="graph0" class="graph" transform="scale(1 1) rotate(0) translate(4 254)">
<title>lib/chromosome/include/genixx/chromosome/NumericChromosome.h</title>
<!-- Node1 -->
<g id="node1" class="node">
<title>Node1</title>
<g id="a_node1"><a xlink:title=" ">
<polygon fill="#999999" stroke="#666666" points="528,-250 290,-250 290,-220 528,-220 528,-250"/>
<text text-anchor="start" x="298" y="-238" font-family="Helvetica,sans-Serif" font-size="10.00">lib/chromosome/include</text>
<text text-anchor="middle" x="409" y="-227" font-family="Helvetica,sans-Serif" font-size="10.00">/genixx/chromosome/NumericChromosome.h</text>
</a>
</g>
</g>
<!-- Node2 -->
<g id="node2" class="node">
<title>Node2</title>
<g id="a_node2"><a xlink:href="Chromosome_8h.html" target="_top" xlink:title=" ">
<polygon fill="white" stroke="#666666" points="430,-184 236,-184 236,-165 430,-165 430,-184"/>
<text text-anchor="middle" x="333" y="-172" font-family="Helvetica,sans-Serif" font-size="10.00">genixx/chromosome/Chromosome.h</text>
</a>
</g>
</g>
<!-- Node1&#45;&gt;Node2 -->
<g id="edge1" class="edge">
<title>Node1&#45;&gt;Node2</title>
<path fill="none" stroke="#63b8ff" d="M390.6,-219.84C379.12,-211 364.35,-199.63 352.64,-190.62"/>
<polygon fill="#63b8ff" stroke="#63b8ff" points="354.45,-187.59 344.39,-184.27 350.18,-193.14 354.45,-187.59"/>
</g>
<!-- Node6 -->
<g id="node6" class="node">
<title>Node6</title>
<g id="a_node6"><a xlink:href="random_8h.html" target="_top" xlink:title=" ">
<polygon fill="white" stroke="#666666" points="239.5,-129 116.5,-129 116.5,-110 239.5,-110 239.5,-129"/>
<text text-anchor="middle" x="178" y="-117" font-family="Helvetica,sans-Serif" font-size="10.00">genixx/utils/random.h</text>
</a>
</g>
</g>
<!-- Node1&#45;&gt;Node6 -->
<g id="edge16" class="edge">
<title>Node1&#45;&gt;Node6</title>
<path fill="none" stroke="#63b8ff" d="M313.33,-219.89C283.91,-212.46 252.58,-201.16 227,-184 209.71,-172.4 195.9,-152.7 187.41,-138.3"/>
<polygon fill="#63b8ff" stroke="#63b8ff" points="190.34,-136.37 182.4,-129.36 184.23,-139.79 190.34,-136.37"/>
</g>
<!-- Node9 -->
<g id="node9" class="node">
<title>Node9</title>
<g id="a_node9"><a xlink:title=" ">
<polygon fill="#e0e0e0" stroke="#999999" points="50,-74 0,-74 0,-55 50,-55 50,-74"/>
<text text-anchor="middle" x="25" y="-62" font-family="Helvetica,sans-Serif" font-size="10.00">cstdint</text>
</a>
</g>
</g>
<!-- Node1&#45;&gt;Node9 -->
<g id="edge18" class="edge">
<title>Node1&#45;&gt;Node9</title>
<path fill="none" stroke="#63b8ff" d="M297.97,-219.98C227.3,-206.41 137.14,-180 72,-129 56.01,-116.48 42.79,-97.2 34.49,-83.17"/>
<polygon fill="#63b8ff" stroke="#63b8ff" points="37.31,-81.04 29.35,-74.05 31.21,-84.48 37.31,-81.04"/>
</g>
<!-- Node11 -->
<g id="node11" class="node">
<title>Node11</title>
<g id="a_node11"><a xlink:title=" ">
<polygon fill="#e0e0e0" stroke="#999999" points="519.5,-74 450.5,-74 450.5,-55 519.5,-55 519.5,-74"/>
<text text-anchor="middle" x="485" y="-62" font-family="Helvetica,sans-Serif" font-size="10.00">type_traits</text>
</a>
</g>
</g>
<!-- Node1&#45;&gt;Node11 -->
<g id="edge20" class="edge">
<title>Node1&#45;&gt;Node11</title>
<path fill="none" stroke="#63b8ff" d="M417.99,-219.74C424.13,-209.84 432.32,-196.27 439,-184 452.02,-160.08 456.06,-154.35 466,-129 471.78,-114.25 476.84,-97 480.28,-84.2"/>
<polygon fill="#63b8ff" stroke="#63b8ff" points="483.73,-84.84 482.86,-74.28 476.96,-83.08 483.73,-84.84"/>
</g>
<!-- Node14 -->
<g id="node14" class="node">
<title>Node14</title>
<g id="a_node14"><a xlink:title=" ">
<polygon fill="#e0e0e0" stroke="#999999" points="565,-184 513,-184 513,-165 565,-165 565,-184"/>
<text text-anchor="middle" x="539" y="-172" font-family="Helvetica,sans-Serif" font-size="10.00">cassert</text>
</a>
</g>
</g>
<!-- Node1&#45;&gt;Node14 -->
<g id="edge17" class="edge">
<title>Node1&#45;&gt;Node14</title>
<path fill="none" stroke="#63b8ff" d="M440.14,-219.99C461.54,-210.36 489.73,-197.67 510.53,-188.31"/>
<polygon fill="#63b8ff" stroke="#63b8ff" points="512.12,-191.43 519.8,-184.14 509.25,-185.05 512.12,-191.43"/>
</g>
<!-- Node15 -->
<g id="node15" class="node">
<title>Node15</title>
<g id="a_node15"><a xlink:title=" ">
<polygon fill="#e0e0e0" stroke="#999999" points="627,-184 583,-184 583,-165 627,-165 627,-184"/>
<text text-anchor="middle" x="605" y="-172" font-family="Helvetica,sans-Serif" font-size="10.00">limits</text>
</a>
</g>
</g>
<!-- Node1&#45;&gt;Node15 -->
<g id="edge19" class="edge">
<title>Node1&#45;&gt;Node15</title>
<path fill="none" stroke="#63b8ff" d="M455.95,-219.99C492.23,-209.16 541.45,-194.47 573.23,-184.98"/>
<polygon fill="#63b8ff" stroke="#63b8ff" points="574.31,-188.31 582.89,-182.1 572.31,-181.61 574.31,-188.31"/>
</g>
<!-- Node3 -->
<g id="node3" class="node">
<title>Node3</title>
<g id="a_node3"><a xlink:href="exceptions_8h.html" target="_top" xlink:title=" ">
<polygon fill="white" stroke="#666666" points="432.5,-74 291.5,-74 291.5,-55 432.5,-55 432.5,-74"/>
<text text-anchor="middle" x="362" y="-62" font-family="Helvetica,sans-Serif" font-size="10.00">genixx/error/exceptions.h</text>
</a>
</g>
</g>
<!-- Node2&#45;&gt;Node3 -->
<g id="edge2" class="edge">
<title>Node2&#45;&gt;Node3</title>
<path fill="none" stroke="#63b8ff" d="M335.37,-164.66C340.09,-147.09 350.74,-107.45 357.04,-83.95"/>
<polygon fill="#63b8ff" stroke="#63b8ff" points="360.46,-84.72 359.68,-74.16 353.7,-82.91 360.46,-84.72"/>
</g>
<!-- Node2&#45;&gt;Node6 -->
<g id="edge5" class="edge">
<title>Node2&#45;&gt;Node6</title>
<path fill="none" stroke="#63b8ff" d="M308.1,-164.98C282.3,-156.16 241.78,-142.31 212.82,-132.41"/>
<polygon fill="#63b8ff" stroke="#63b8ff" points="213.69,-129.01 203.1,-129.08 211.43,-135.63 213.69,-129.01"/>
</g>
<!-- Node2&#45;&gt;Node9 -->
<g id="edge12" class="edge">
<title>Node2&#45;&gt;Node9</title>
<path fill="none" stroke="#63b8ff" d="M239.57,-164.99C197.64,-158.71 148.41,-147.82 107,-129 81.28,-117.31 56.27,-96.09 40.78,-81.41"/>
<polygon fill="#63b8ff" stroke="#63b8ff" points="42.81,-78.51 33.2,-74.04 37.93,-83.52 42.81,-78.51"/>
</g>
<!-- Node2&#45;&gt;Node11 -->
<g id="edge14" class="edge">
<title>Node2&#45;&gt;Node11</title>
<path fill="none" stroke="#63b8ff" d="M339.11,-164.68C348.68,-151.39 368.35,-126.07 390,-110 408.3,-96.41 431.42,-85.47 450.27,-77.84"/>
<polygon fill="#63b8ff" stroke="#63b8ff" points="451.65,-81.06 459.69,-74.15 449.1,-74.54 451.65,-81.06"/>
</g>
<!-- Node12 -->
<g id="node12" class="node">
<title>Node12</title>
<g id="a_node12"><a xlink:title=" ">
<polygon fill="#e0e0e0" stroke="#999999" points="457,-129 399,-129 399,-110 457,-110 457,-129"/>
<text text-anchor="middle" x="428" y="-117" font-family="Helvetica,sans-Serif" font-size="10.00">memory</text>
</a>
</g>
</g>
<!-- Node2&#45;&gt;Node12 -->
<g id="edge13" class="edge">
<title>Node2&#45;&gt;Node12</title>
<path fill="none" stroke="#63b8ff" d="M348.26,-164.98C363.13,-156.69 385.98,-143.94 403.42,-134.22"/>
<polygon fill="#63b8ff" stroke="#63b8ff" points="405.43,-137.1 412.46,-129.17 402.02,-130.99 405.43,-137.1"/>
</g>
<!-- Node13 -->
<g id="node13" class="node">
<title>Node13</title>
<g id="a_node13"><a xlink:title=" ">
<polygon fill="#e0e0e0" stroke="#999999" points="304.5,-129 257.5,-129 257.5,-110 304.5,-110 304.5,-129"/>
<text text-anchor="middle" x="281" y="-117" font-family="Helvetica,sans-Serif" font-size="10.00">vector</text>
</a>
</g>
</g>
<!-- Node2&#45;&gt;Node13 -->
<g id="edge15" class="edge">
<title>Node2&#45;&gt;Node13</title>
<path fill="none" stroke="#63b8ff" d="M324.41,-164.75C316.84,-157.03 305.62,-145.6 296.49,-136.28"/>
<polygon fill="#63b8ff" stroke="#63b8ff" points="298.93,-133.78 289.43,-129.09 293.93,-138.68 298.93,-133.78"/>
</g>
<!-- Node4 -->
<g id="node4" class="node">
<title>Node4</title>
<g id="a_node4"><a xlink:title=" ">
<polygon fill="#e0e0e0" stroke="#999999" points="357.5,-19 292.5,-19 292.5,0 357.5,0 357.5,-19"/>
<text text-anchor="middle" x="325" y="-7" font-family="Helvetica,sans-Serif" font-size="10.00">exception</text>
</a>
</g>
</g>
<!-- Node3&#45;&gt;Node4 -->
<g id="edge3" class="edge">
<title>Node3&#45;&gt;Node4</title>
<path fill="none" stroke="#63b8ff" d="M355.89,-54.75C350.72,-47.34 343.15,-36.5 336.81,-27.41"/>
<polygon fill="#63b8ff" stroke="#63b8ff" points="339.59,-25.29 331,-19.09 333.85,-29.29 339.59,-25.29"/>
</g>
<!-- Node5 -->
<g id="node5" class="node">
<title>Node5</title>
<g id="a_node5"><a xlink:title=" ">
<polygon fill="#e0e0e0" stroke="#999999" points="420,-19 376,-19 376,0 420,0 420,-19"/>
<text text-anchor="middle" x="398" y="-7" font-family="Helvetica,sans-Serif" font-size="10.00">string</text>
</a>
</g>
</g>
<!-- Node3&#45;&gt;Node5 -->
<g id="edge4" class="edge">
<title>Node3&#45;&gt;Node5</title>
<path fill="none" stroke="#63b8ff" d="M367.94,-54.75C372.98,-47.34 380.34,-36.5 386.51,-27.41"/>
<polygon fill="#63b8ff" stroke="#63b8ff" points="389.44,-29.33 392.17,-19.09 383.65,-25.39 389.44,-29.33"/>
</g>
<!-- Node6&#45;&gt;Node3 -->
<g id="edge6" class="edge">
<title>Node6&#45;&gt;Node3</title>
<path fill="none" stroke="#63b8ff" d="M207.56,-109.98C238.72,-101.01 287.97,-86.82 322.46,-76.89"/>
<polygon fill="#63b8ff" stroke="#63b8ff" points="323.57,-80.21 332.21,-74.08 321.63,-73.49 323.57,-80.21"/>
</g>
<!-- Node7 -->
<g id="node7" class="node">
<title>Node7</title>
<g id="a_node7"><a xlink:title=" ">
<polygon fill="#e0e0e0" stroke="#999999" points="273.5,-74 206.5,-74 206.5,-55 273.5,-55 273.5,-74"/>
<text text-anchor="middle" x="240" y="-62" font-family="Helvetica,sans-Serif" font-size="10.00">fmt/core.h</text>
</a>
</g>
</g>
<!-- Node6&#45;&gt;Node7 -->
<g id="edge7" class="edge">
<title>Node6&#45;&gt;Node7</title>
<path fill="none" stroke="#63b8ff" d="M187.96,-109.98C197.13,-102.15 210.94,-90.34 222.03,-80.86"/>
<polygon fill="#63b8ff" stroke="#63b8ff" points="224.53,-83.33 229.86,-74.17 219.98,-78.01 224.53,-83.33"/>
</g>
<!-- Node8 -->
<g id="node8" class="node">
<title>Node8</title>
<g id="a_node8"><a xlink:title=" ">
<polygon fill="#e0e0e0" stroke="#999999" points="115.5,-74 68.5,-74 68.5,-55 115.5,-55 115.5,-74"/>
<text text-anchor="middle" x="92" y="-62" font-family="Helvetica,sans-Serif" font-size="10.00">cmath</text>
</a>
</g>
</g>
<!-- Node6&#45;&gt;Node8 -->
<g id="edge8" class="edge">
<title>Node6&#45;&gt;Node8</title>
<path fill="none" stroke="#63b8ff" d="M164.18,-109.98C150.85,-101.77 130.42,-89.18 114.69,-79.49"/>
<polygon fill="#63b8ff" stroke="#63b8ff" points="116.42,-76.44 106.07,-74.17 112.75,-82.4 116.42,-76.44"/>
</g>
<!-- Node6&#45;&gt;Node9 -->
<g id="edge9" class="edge">
<title>Node6&#45;&gt;Node9</title>
<path fill="none" stroke="#63b8ff" d="M153.42,-109.98C127.95,-101.16 87.96,-87.31 59.37,-77.41"/>
<polygon fill="#63b8ff" stroke="#63b8ff" points="60.37,-74.05 49.77,-74.08 58.08,-80.66 60.37,-74.05"/>
</g>
<!-- Node10 -->
<g id="node10" class="node">
<title>Node10</title>
<g id="a_node10"><a xlink:title=" ">
<polygon fill="#e0e0e0" stroke="#999999" points="188,-74 134,-74 134,-55 188,-55 188,-74"/>
<text text-anchor="middle" x="161" y="-62" font-family="Helvetica,sans-Serif" font-size="10.00">random</text>
</a>
</g>
</g>
<!-- Node6&#45;&gt;Node10 -->
<g id="edge10" class="edge">
<title>Node6&#45;&gt;Node10</title>
<path fill="none" stroke="#63b8ff" d="M175.19,-109.75C172.94,-102.72 169.7,-92.62 166.88,-83.84"/>
<polygon fill="#63b8ff" stroke="#63b8ff" points="170.14,-82.54 163.75,-74.09 163.48,-84.68 170.14,-82.54"/>
</g>
<!-- Node6&#45;&gt;Node11 -->
<g id="edge11" class="edge">
<title>Node6&#45;&gt;Node11</title>
<path fill="none" stroke="#63b8ff" d="M230.46,-109.99C281.41,-101.65 361.21,-88.35 440.29,-74.09"/>
<polygon fill="#63b8ff" stroke="#63b8ff" points="441.21,-77.48 450.43,-72.26 439.96,-70.59 441.21,-77.48"/>
</g>
</g>
</svg>
