<?xml version="1.0" encoding="UTF-8" standalone="no"?>
<!DOCTYPE svg PUBLIC "-//W3C//DTD SVG 1.1//EN"
 "http://www.w3.org/Graphics/SVG/1.1/DTD/svg11.dtd">
<!-- Generated by graphviz version 2.43.0 (0)
 -->
<!-- Title: lib/population/include/genixx/population/Population.h Pages: 1 -->
<svg width="588pt" height="379pt"
 viewBox="0.00 0.00 588.50 379.00" xmlns="http://www.w3.org/2000/svg" xmlns:xlink="http://www.w3.org/1999/xlink">
<g id="graph0" class="graph" transform="scale(1 1) rotate(0) translate(4 375)">
<title>lib/population/include/genixx/population/Population.h</title>
<!-- Node1 -->
<g id="node1" class="node">
<title>Node1</title>
<g id="a_node1"><a xlink:title=" ">
<polygon fill="#999999" stroke="#666666" points="453.5,-371 282.5,-371 282.5,-341 453.5,-341 453.5,-371"/>
<text text-anchor="start" x="290.5" y="-359" font-family="Helvetica,sans-Serif" font-size="10.00">lib/population/include</text>
<text text-anchor="middle" x="368" y="-348" font-family="Helvetica,sans-Serif" font-size="10.00">/genixx/population/Population.h</text>
</a>
</g>
</g>
<!-- Node2 -->
<g id="node2" class="node">
<title>Node2</title>
<g id="a_node2"><a xlink:href="Individual_8h.html" target="_top" xlink:title=" ">
<polygon fill="white" stroke="#666666" points="358,-239 194,-239 194,-220 358,-220 358,-239"/>
<text text-anchor="middle" x="276" y="-227" font-family="Helvetica,sans-Serif" font-size="10.00">genixx/population/Individual.h</text>
</a>
</g>
</g>
<!-- Node1&#45;&gt;Node2 -->
<g id="edge1" class="edge">
<title>Node1&#45;&gt;Node2</title>
<path fill="none" stroke="#63b8ff" d="M357.45,-340.72C340.37,-317.61 306.76,-272.13 288.51,-247.43"/>
<polygon fill="#63b8ff" stroke="#63b8ff" points="291.09,-245.03 282.33,-239.07 285.46,-249.19 291.09,-245.03"/>
</g>
<!-- Node10 -->
<g id="node10" class="node">
<title>Node10</title>
<g id="a_node10"><a xlink:title=" ">
<polygon fill="#e0e0e0" stroke="#999999" points="61,-74 11,-74 11,-55 61,-55 61,-74"/>
<text text-anchor="middle" x="36" y="-62" font-family="Helvetica,sans-Serif" font-size="10.00">cstdint</text>
</a>
</g>
</g>
<!-- Node1&#45;&gt;Node10 -->
<g id="edge30" class="edge">
<title>Node1&#45;&gt;Node10</title>
<path fill="none" stroke="#63b8ff" d="M326.23,-340.96C262.44,-317.63 140.34,-265.23 66,-184 40.65,-156.3 36.01,-110.3 35.56,-84.51"/>
<polygon fill="#63b8ff" stroke="#63b8ff" points="39.06,-84.24 35.59,-74.23 32.06,-84.22 39.06,-84.24"/>
</g>
<!-- Node14 -->
<g id="node14" class="node">
<title>Node14</title>
<g id="a_node14"><a xlink:title=" ">
<polygon fill="#e0e0e0" stroke="#999999" points="482.5,-129 435.5,-129 435.5,-110 482.5,-110 482.5,-129"/>
<text text-anchor="middle" x="459" y="-117" font-family="Helvetica,sans-Serif" font-size="10.00">vector</text>
</a>
</g>
</g>
<!-- Node1&#45;&gt;Node14 -->
<g id="edge31" class="edge">
<title>Node1&#45;&gt;Node14</title>
<path fill="none" stroke="#63b8ff" d="M434.23,-340.93C460.9,-333.19 490.97,-321.67 515,-305 546.14,-283.4 556.26,-274.69 569,-239 580.06,-208.03 587.39,-192.27 569,-165 552.1,-139.93 518.42,-128.98 492.75,-124.2"/>
<polygon fill="#63b8ff" stroke="#63b8ff" points="493.1,-120.71 482.67,-122.55 491.97,-127.62 493.1,-120.71"/>
</g>
<!-- Node18 -->
<g id="node18" class="node">
<title>Node18</title>
<g id="a_node18"><a xlink:href="method_8h.html" target="_top" xlink:title=" ">
<polygon fill="white" stroke="#666666" points="506,-305 354,-305 354,-275 506,-275 506,-305"/>
<text text-anchor="start" x="362" y="-293" font-family="Helvetica,sans-Serif" font-size="10.00">genixx/population/selection</text>
<text text-anchor="middle" x="430" y="-282" font-family="Helvetica,sans-Serif" font-size="10.00">/method.h</text>
</a>
</g>
</g>
<!-- Node1&#45;&gt;Node18 -->
<g id="edge24" class="edge">
<title>Node1&#45;&gt;Node18</title>
<path fill="none" stroke="#63b8ff" d="M381.76,-340.8C389.79,-332.51 400.07,-321.89 409.09,-312.59"/>
<polygon fill="#63b8ff" stroke="#63b8ff" points="411.83,-314.78 416.28,-305.16 406.81,-309.91 411.83,-314.78"/>
</g>
<!-- Node3 -->
<g id="node3" class="node">
<title>Node3</title>
<g id="a_node3"><a xlink:href="Chromosome_8h.html" target="_top" xlink:title=" ">
<polygon fill="white" stroke="#666666" points="363,-184 169,-184 169,-165 363,-165 363,-184"/>
<text text-anchor="middle" x="266" y="-172" font-family="Helvetica,sans-Serif" font-size="10.00">genixx/chromosome/Chromosome.h</text>
</a>
</g>
</g>
<!-- Node2&#45;&gt;Node3 -->
<g id="edge2" class="edge">
<title>Node2&#45;&gt;Node3</title>
<path fill="none" stroke="#63b8ff" d="M274.35,-219.75C273.04,-212.8 271.16,-202.85 269.52,-194.13"/>
<polygon fill="#63b8ff" stroke="#63b8ff" points="272.91,-193.27 267.62,-184.09 266.04,-194.56 272.91,-193.27"/>
</g>
<!-- Node6 -->
<g id="node6" class="node">
<title>Node6</title>
<g id="a_node6"><a xlink:title=" ">
<polygon fill="#e0e0e0" stroke="#999999" points="44,-19 0,-19 0,0 44,0 44,-19"/>
<text text-anchor="middle" x="22" y="-7" font-family="Helvetica,sans-Serif" font-size="10.00">string</text>
</a>
</g>
</g>
<!-- Node2&#45;&gt;Node6 -->
<g id="edge21" class="edge">
<title>Node2&#45;&gt;Node6</title>
<path fill="none" stroke="#63b8ff" d="M193.9,-226.59C152.26,-222.01 102.84,-210.65 66,-184 20.17,-150.84 16.73,-128.61 2,-74 -2.23,-58.33 4.2,-40.74 10.87,-28.05"/>
<polygon fill="#63b8ff" stroke="#63b8ff" points="14.09,-29.47 16.07,-19.06 8.03,-25.97 14.09,-29.47"/>
</g>
<!-- Node2&#45;&gt;Node10 -->
<g id="edge17" class="edge">
<title>Node2&#45;&gt;Node10</title>
<path fill="none" stroke="#63b8ff" d="M193.68,-225.74C157.14,-220.65 115.78,-209.12 86,-184 55.52,-158.29 43.24,-110.79 38.59,-84.41"/>
<polygon fill="#63b8ff" stroke="#63b8ff" points="42,-83.56 37,-74.22 35.09,-84.64 42,-83.56"/>
</g>
<!-- Node13 -->
<g id="node13" class="node">
<title>Node13</title>
<g id="a_node13"><a xlink:title=" ">
<polygon fill="#e0e0e0" stroke="#999999" points="130,-129 72,-129 72,-110 130,-110 130,-129"/>
<text text-anchor="middle" x="101" y="-117" font-family="Helvetica,sans-Serif" font-size="10.00">memory</text>
</a>
</g>
</g>
<!-- Node2&#45;&gt;Node13 -->
<g id="edge20" class="edge">
<title>Node2&#45;&gt;Node13</title>
<path fill="none" stroke="#63b8ff" d="M205.25,-220C160.93,-213.05 109.69,-201.49 96,-184 86.11,-171.37 89.03,-152.67 93.42,-138.83"/>
<polygon fill="#63b8ff" stroke="#63b8ff" points="96.73,-139.97 96.88,-129.38 90.16,-137.57 96.73,-139.97"/>
</g>
<!-- Node2&#45;&gt;Node14 -->
<g id="edge23" class="edge">
<title>Node2&#45;&gt;Node14</title>
<path fill="none" stroke="#63b8ff" d="M297.58,-219.93C317.45,-211.72 347.47,-198.45 372,-184 396.97,-169.29 423.59,-149.12 440.72,-135.49"/>
<polygon fill="#63b8ff" stroke="#63b8ff" points="443.15,-138.02 448.75,-129.02 438.76,-132.57 443.15,-138.02"/>
</g>
<!-- Node15 -->
<g id="node15" class="node">
<title>Node15</title>
<g id="a_node15"><a xlink:title=" ">
<polygon fill="#e0e0e0" stroke="#999999" points="484.5,-184 419.5,-184 419.5,-165 484.5,-165 484.5,-184"/>
<text text-anchor="middle" x="452" y="-172" font-family="Helvetica,sans-Serif" font-size="10.00">functional</text>
</a>
</g>
</g>
<!-- Node2&#45;&gt;Node15 -->
<g id="edge18" class="edge">
<title>Node2&#45;&gt;Node15</title>
<path fill="none" stroke="#63b8ff" d="M304.28,-219.98C333.95,-211.05 380.79,-196.94 413.75,-187.02"/>
<polygon fill="#63b8ff" stroke="#63b8ff" points="414.93,-190.32 423.5,-184.08 412.92,-183.61 414.93,-190.32"/>
</g>
<!-- Node16 -->
<g id="node16" class="node">
<title>Node16</title>
<g id="a_node16"><a xlink:title=" ">
<polygon fill="#e0e0e0" stroke="#999999" points="541,-184 503,-184 503,-165 541,-165 541,-184"/>
<text text-anchor="middle" x="522" y="-172" font-family="Helvetica,sans-Serif" font-size="10.00">map</text>
</a>
</g>
</g>
<!-- Node2&#45;&gt;Node16 -->
<g id="edge19" class="edge">
<title>Node2&#45;&gt;Node16</title>
<path fill="none" stroke="#63b8ff" d="M324.35,-219.97C366.56,-212.22 429.62,-199.93 493.02,-184.06"/>
<polygon fill="#63b8ff" stroke="#63b8ff" points="493.95,-187.44 502.79,-181.59 492.23,-180.65 493.95,-187.44"/>
</g>
<!-- Node17 -->
<g id="node17" class="node">
<title>Node17</title>
<g id="a_node17"><a xlink:title=" ">
<polygon fill="#e0e0e0" stroke="#999999" points="150.5,-184 105.5,-184 105.5,-165 150.5,-165 150.5,-184"/>
<text text-anchor="middle" x="128" y="-172" font-family="Helvetica,sans-Serif" font-size="10.00">utility</text>
</a>
</g>
</g>
<!-- Node2&#45;&gt;Node17 -->
<g id="edge22" class="edge">
<title>Node2&#45;&gt;Node17</title>
<path fill="none" stroke="#63b8ff" d="M252.22,-219.98C227.33,-211.07 188.09,-197.02 160.39,-187.1"/>
<polygon fill="#63b8ff" stroke="#63b8ff" points="161.34,-183.72 150.75,-183.65 158.98,-190.31 161.34,-183.72"/>
</g>
<!-- Node4 -->
<g id="node4" class="node">
<title>Node4</title>
<g id="a_node4"><a xlink:href="exceptions_8h.html" target="_top" xlink:title=" ">
<polygon fill="white" stroke="#666666" points="220.5,-74 79.5,-74 79.5,-55 220.5,-55 220.5,-74"/>
<text text-anchor="middle" x="150" y="-62" font-family="Helvetica,sans-Serif" font-size="10.00">genixx/error/exceptions.h</text>
</a>
</g>
</g>
<!-- Node3&#45;&gt;Node4 -->
<g id="edge3" class="edge">
<title>Node3&#45;&gt;Node4</title>
<path fill="none" stroke="#63b8ff" d="M256.51,-164.66C236.87,-146.38 191.55,-104.18 166.83,-81.17"/>
<polygon fill="#63b8ff" stroke="#63b8ff" points="169,-78.41 159.3,-74.16 164.23,-83.53 169,-78.41"/>
</g>
<!-- Node7 -->
<g id="node7" class="node">
<title>Node7</title>
<g id="a_node7"><a xlink:href="random_8h.html" target="_top" xlink:title=" ">
<polygon fill="white" stroke="#666666" points="417.5,-129 294.5,-129 294.5,-110 417.5,-110 417.5,-129"/>
<text text-anchor="middle" x="356" y="-117" font-family="Helvetica,sans-Serif" font-size="10.00">genixx/utils/random.h</text>
</a>
</g>
</g>
<!-- Node3&#45;&gt;Node7 -->
<g id="edge6" class="edge">
<title>Node3&#45;&gt;Node7</title>
<path fill="none" stroke="#63b8ff" d="M280.46,-164.98C294.42,-156.77 315.79,-144.18 332.25,-134.49"/>
<polygon fill="#63b8ff" stroke="#63b8ff" points="334.44,-137.26 341.28,-129.17 330.88,-131.23 334.44,-137.26"/>
</g>
<!-- Node3&#45;&gt;Node10 -->
<g id="edge13" class="edge">
<title>Node3&#45;&gt;Node10</title>
<path fill="none" stroke="#63b8ff" d="M249.7,-164.99C225.67,-152.51 179.23,-128.73 139,-110 114.72,-98.7 86.81,-86.7 66.17,-78.01"/>
<polygon fill="#63b8ff" stroke="#63b8ff" points="67.25,-74.67 56.67,-74.03 64.54,-81.12 67.25,-74.67"/>
</g>
<!-- Node12 -->
<g id="node12" class="node">
<title>Node12</title>
<g id="a_node12"><a xlink:title=" ">
<polygon fill="#e0e0e0" stroke="#999999" points="307.5,-74 238.5,-74 238.5,-55 307.5,-55 307.5,-74"/>
<text text-anchor="middle" x="273" y="-62" font-family="Helvetica,sans-Serif" font-size="10.00">type_traits</text>
</a>
</g>
</g>
<!-- Node3&#45;&gt;Node12 -->
<g id="edge15" class="edge">
<title>Node3&#45;&gt;Node12</title>
<path fill="none" stroke="#63b8ff" d="M266.57,-164.66C267.71,-147.17 270.26,-107.8 271.78,-84.27"/>
<polygon fill="#63b8ff" stroke="#63b8ff" points="275.28,-84.36 272.44,-74.16 268.3,-83.91 275.28,-84.36"/>
</g>
<!-- Node3&#45;&gt;Node13 -->
<g id="edge14" class="edge">
<title>Node3&#45;&gt;Node13</title>
<path fill="none" stroke="#63b8ff" d="M239.49,-164.98C211.79,-156.09 168.14,-142.07 137.26,-132.15"/>
<polygon fill="#63b8ff" stroke="#63b8ff" points="138.31,-128.81 127.72,-129.08 136.17,-135.47 138.31,-128.81"/>
</g>
<!-- Node3&#45;&gt;Node14 -->
<g id="edge16" class="edge">
<title>Node3&#45;&gt;Node14</title>
<path fill="none" stroke="#63b8ff" d="M297.01,-164.98C332.12,-155.34 389.12,-139.69 425.3,-129.75"/>
<polygon fill="#63b8ff" stroke="#63b8ff" points="426.65,-133.01 435.37,-126.99 424.8,-126.26 426.65,-133.01"/>
</g>
<!-- Node5 -->
<g id="node5" class="node">
<title>Node5</title>
<g id="a_node5"><a xlink:title=" ">
<polygon fill="#e0e0e0" stroke="#999999" points="182.5,-19 117.5,-19 117.5,0 182.5,0 182.5,-19"/>
<text text-anchor="middle" x="150" y="-7" font-family="Helvetica,sans-Serif" font-size="10.00">exception</text>
</a>
</g>
</g>
<!-- Node4&#45;&gt;Node5 -->
<g id="edge4" class="edge">
<title>Node4&#45;&gt;Node5</title>
<path fill="none" stroke="#63b8ff" d="M150,-54.75C150,-47.8 150,-37.85 150,-29.13"/>
<polygon fill="#63b8ff" stroke="#63b8ff" points="153.5,-29.09 150,-19.09 146.5,-29.09 153.5,-29.09"/>
</g>
<!-- Node4&#45;&gt;Node6 -->
<g id="edge5" class="edge">
<title>Node4&#45;&gt;Node6</title>
<path fill="none" stroke="#63b8ff" d="M129.43,-54.98C108.57,-46.34 76.03,-32.87 52.23,-23.02"/>
<polygon fill="#63b8ff" stroke="#63b8ff" points="53.52,-19.76 42.94,-19.17 50.84,-26.23 53.52,-19.76"/>
</g>
<!-- Node7&#45;&gt;Node4 -->
<g id="edge7" class="edge">
<title>Node7&#45;&gt;Node4</title>
<path fill="none" stroke="#63b8ff" d="M322.9,-109.98C287.72,-100.93 231.93,-86.58 193.28,-76.64"/>
<polygon fill="#63b8ff" stroke="#63b8ff" points="193.91,-73.18 183.36,-74.08 192.17,-79.96 193.91,-73.18"/>
</g>
<!-- Node8 -->
<g id="node8" class="node">
<title>Node8</title>
<g id="a_node8"><a xlink:title=" ">
<polygon fill="#e0e0e0" stroke="#999999" points="392.5,-74 325.5,-74 325.5,-55 392.5,-55 392.5,-74"/>
<text text-anchor="middle" x="359" y="-62" font-family="Helvetica,sans-Serif" font-size="10.00">fmt/core.h</text>
</a>
</g>
</g>
<!-- Node7&#45;&gt;Node8 -->
<g id="edge8" class="edge">
<title>Node7&#45;&gt;Node8</title>
<path fill="none" stroke="#63b8ff" d="M356.5,-109.75C356.89,-102.8 357.45,-92.85 357.95,-84.13"/>
<polygon fill="#63b8ff" stroke="#63b8ff" points="361.44,-84.27 358.51,-74.09 354.45,-83.88 361.44,-84.27"/>
</g>
<!-- Node9 -->
<g id="node9" class="node">
<title>Node9</title>
<g id="a_node9"><a xlink:title=" ">
<polygon fill="#e0e0e0" stroke="#999999" points="457.5,-74 410.5,-74 410.5,-55 457.5,-55 457.5,-74"/>
<text text-anchor="middle" x="434" y="-62" font-family="Helvetica,sans-Serif" font-size="10.00">cmath</text>
</a>
</g>
</g>
<!-- Node7&#45;&gt;Node9 -->
<g id="edge9" class="edge">
<title>Node7&#45;&gt;Node9</title>
<path fill="none" stroke="#63b8ff" d="M368.53,-109.98C380.4,-101.92 398.46,-89.65 412.61,-80.03"/>
<polygon fill="#63b8ff" stroke="#63b8ff" points="414.94,-82.69 421.24,-74.17 411,-76.9 414.94,-82.69"/>
</g>
<!-- Node7&#45;&gt;Node10 -->
<g id="edge10" class="edge">
<title>Node7&#45;&gt;Node10</title>
<path fill="none" stroke="#63b8ff" d="M294.34,-110.55C238.5,-102.98 153.77,-90.57 71.24,-74.1"/>
<polygon fill="#63b8ff" stroke="#63b8ff" points="71.69,-70.62 61.19,-72.07 70.3,-77.48 71.69,-70.62"/>
</g>
<!-- Node11 -->
<g id="node11" class="node">
<title>Node11</title>
<g id="a_node11"><a xlink:title=" ">
<polygon fill="#e0e0e0" stroke="#999999" points="530,-74 476,-74 476,-55 530,-55 530,-74"/>
<text text-anchor="middle" x="503" y="-62" font-family="Helvetica,sans-Serif" font-size="10.00">random</text>
</a>
</g>
</g>
<!-- Node7&#45;&gt;Node11 -->
<g id="edge11" class="edge">
<title>Node7&#45;&gt;Node11</title>
<path fill="none" stroke="#63b8ff" d="M379.62,-109.98C403.9,-101.23 441.95,-87.51 469.37,-77.62"/>
<polygon fill="#63b8ff" stroke="#63b8ff" points="470.73,-80.85 478.95,-74.17 468.36,-74.27 470.73,-80.85"/>
</g>
<!-- Node7&#45;&gt;Node12 -->
<g id="edge12" class="edge">
<title>Node7&#45;&gt;Node12</title>
<path fill="none" stroke="#63b8ff" d="M342.66,-109.98C329.91,-101.84 310.45,-89.41 295.33,-79.76"/>
<polygon fill="#63b8ff" stroke="#63b8ff" points="296.89,-76.6 286.58,-74.17 293.12,-82.5 296.89,-76.6"/>
</g>
<!-- Node18&#45;&gt;Node2 -->
<g id="edge25" class="edge">
<title>Node18&#45;&gt;Node2</title>
<path fill="none" stroke="#63b8ff" d="M393.11,-274.99C367.3,-265.18 333.15,-252.21 308.4,-242.81"/>
<polygon fill="#63b8ff" stroke="#63b8ff" points="309.33,-239.42 298.74,-239.14 306.85,-245.96 309.33,-239.42"/>
</g>
<!-- Node18&#45;&gt;Node7 -->
<g id="edge26" class="edge">
<title>Node18&#45;&gt;Node7</title>
<path fill="none" stroke="#63b8ff" d="M500.78,-274.88C519.95,-267.47 538.54,-256.18 550,-239 568.24,-211.63 570.49,-190.72 550,-165 541.63,-154.49 471.87,-140.34 418.37,-130.84"/>
<polygon fill="#63b8ff" stroke="#63b8ff" points="418.71,-127.34 408.25,-129.06 417.5,-134.24 418.71,-127.34"/>
</g>
<!-- Node18&#45;&gt;Node15 -->
<g id="edge28" class="edge">
<title>Node18&#45;&gt;Node15</title>
<path fill="none" stroke="#63b8ff" d="M429.83,-274.82C429.93,-260.74 430.86,-238.64 435,-220 437,-211.02 440.47,-201.44 443.76,-193.48"/>
<polygon fill="#63b8ff" stroke="#63b8ff" points="447.04,-194.7 447.83,-184.13 440.63,-191.9 447.04,-194.7"/>
</g>
<!-- Node18&#45;&gt;Node16 -->
<g id="edge29" class="edge">
<title>Node18&#45;&gt;Node16</title>
<path fill="none" stroke="#63b8ff" d="M435.89,-274.82C442.4,-260.15 453.86,-237.05 468,-220 477.33,-208.75 489.82,-198.25 500.43,-190.27"/>
<polygon fill="#63b8ff" stroke="#63b8ff" points="502.76,-192.91 508.8,-184.21 498.65,-187.24 502.76,-192.91"/>
</g>
<!-- Node19 -->
<g id="node19" class="node">
<title>Node19</title>
<g id="a_node19"><a xlink:title=" ">
<polygon fill="#e0e0e0" stroke="#999999" points="541,-239 477,-239 477,-220 541,-220 541,-239"/>
<text text-anchor="middle" x="509" y="-227" font-family="Helvetica,sans-Serif" font-size="10.00">algorithm</text>
</a>
</g>
</g>
<!-- Node18&#45;&gt;Node19 -->
<g id="edge27" class="edge">
<title>Node18&#45;&gt;Node19</title>
<path fill="none" stroke="#63b8ff" d="M449.12,-274.84C461.18,-265.91 476.71,-254.41 488.94,-245.35"/>
<polygon fill="#63b8ff" stroke="#63b8ff" points="491.21,-248.03 497.16,-239.27 487.04,-242.4 491.21,-248.03"/>
</g>
</g>
</svg>
