<?xml version="1.0" encoding="UTF-8" standalone="no"?>
<!DOCTYPE svg PUBLIC "-//W3C//DTD SVG 1.1//EN"
 "http://www.w3.org/Graphics/SVG/1.1/DTD/svg11.dtd">
<!-- Generated by graphviz version 2.43.0 (0)
 -->
<!-- Title: lib/population/Population.cpp Pages: 1 -->
<svg width="848pt" height="423pt"
 viewBox="0.00 0.00 847.50 423.00" xmlns="http://www.w3.org/2000/svg" xmlns:xlink="http://www.w3.org/1999/xlink">
<g id="graph0" class="graph" transform="scale(1 1) rotate(0) translate(4 419)">
<title>lib/population/Population.cpp</title>
<!-- Node1 -->
<g id="node1" class="node">
<title>Node1</title>
<g id="a_node1"><a xlink:title=" ">
<polygon fill="#999999" stroke="#666666" points="540,-415 382,-415 382,-396 540,-396 540,-415"/>
<text text-anchor="middle" x="461" y="-403" font-family="Helvetica,sans-Serif" font-size="10.00">lib/population/Population.cpp</text>
</a>
</g>
</g>
<!-- Node2 -->
<g id="node2" class="node">
<title>Node2</title>
<g id="a_node2"><a xlink:href="Population_8h.html" target="_top" xlink:title=" ">
<polygon fill="white" stroke="#666666" points="280,-360 112,-360 112,-341 280,-341 280,-360"/>
<text text-anchor="middle" x="196" y="-348" font-family="Helvetica,sans-Serif" font-size="10.00">genixx/population/Population.h</text>
</a>
</g>
</g>
<!-- Node1&#45;&gt;Node2 -->
<g id="edge1" class="edge">
<title>Node1&#45;&gt;Node2</title>
<path fill="none" stroke="#63b8ff" d="M418.42,-395.98C372.3,-386.76 298.64,-372.03 248.84,-362.07"/>
<polygon fill="#63b8ff" stroke="#63b8ff" points="249.4,-358.61 238.91,-360.08 248.03,-365.48 249.4,-358.61"/>
</g>
<!-- Node5 -->
<g id="node5" class="node">
<title>Node5</title>
<g id="a_node5"><a xlink:href="exceptions_8h.html" target="_top" xlink:title=" ">
<polygon fill="white" stroke="#666666" points="195.5,-74 54.5,-74 54.5,-55 195.5,-55 195.5,-74"/>
<text text-anchor="middle" x="125" y="-62" font-family="Helvetica,sans-Serif" font-size="10.00">genixx/error/exceptions.h</text>
</a>
</g>
</g>
<!-- Node1&#45;&gt;Node5 -->
<g id="edge33" class="edge">
<title>Node1&#45;&gt;Node5</title>
<path fill="none" stroke="#63b8ff" d="M381.99,-400.08C288.65,-394 139.53,-381.29 88,-360 42.07,-341.02 0,-340.7 0,-291 0,-291 0,-291 0,-173.5 0,-125.32 53.83,-93.87 90.84,-77.93"/>
<polygon fill="#63b8ff" stroke="#63b8ff" points="92.39,-81.08 100.3,-74.03 89.72,-74.61 92.39,-81.08"/>
</g>
<!-- Node16 -->
<g id="node16" class="node">
<title>Node16</title>
<g id="a_node16"><a xlink:title=" ">
<polygon fill="#e0e0e0" stroke="#999999" points="163.5,-184 98.5,-184 98.5,-165 163.5,-165 163.5,-184"/>
<text text-anchor="middle" x="131" y="-172" font-family="Helvetica,sans-Serif" font-size="10.00">functional</text>
</a>
</g>
</g>
<!-- Node1&#45;&gt;Node16 -->
<g id="edge37" class="edge">
<title>Node1&#45;&gt;Node16</title>
<path fill="none" stroke="#63b8ff" d="M381.93,-403.96C289.85,-401.76 145,-392.97 103,-360 51.48,-319.56 24.76,-277.01 57,-220 65.17,-205.55 80.12,-195.27 94.46,-188.26"/>
<polygon fill="#63b8ff" stroke="#63b8ff" points="96.01,-191.4 103.71,-184.12 93.15,-185.01 96.01,-191.4"/>
</g>
<!-- Node20 -->
<g id="node20" class="node">
<title>Node20</title>
<g id="a_node20"><a xlink:title=" ">
<polygon fill="#e0e0e0" stroke="#999999" points="130,-239 66,-239 66,-220 130,-220 130,-239"/>
<text text-anchor="middle" x="98" y="-227" font-family="Helvetica,sans-Serif" font-size="10.00">algorithm</text>
</a>
</g>
</g>
<!-- Node1&#45;&gt;Node20 -->
<g id="edge35" class="edge">
<title>Node1&#45;&gt;Node20</title>
<path fill="none" stroke="#63b8ff" d="M381.73,-400.02C282.02,-393.57 121.53,-380.18 103,-360 75.19,-329.72 84.54,-276.68 92.16,-248.81"/>
<polygon fill="#63b8ff" stroke="#63b8ff" points="95.54,-249.73 95.02,-239.15 88.83,-247.74 95.54,-249.73"/>
</g>
<!-- Node21 -->
<g id="node21" class="node">
<title>Node21</title>
<g id="a_node21"><a xlink:title=" ">
<polygon fill="#e0e0e0" stroke="#999999" points="417.5,-360 298.5,-360 298.5,-341 417.5,-341 417.5,-360"/>
<text text-anchor="middle" x="358" y="-348" font-family="Helvetica,sans-Serif" font-size="10.00">rethreadme/Thread.h</text>
</a>
</g>
</g>
<!-- Node1&#45;&gt;Node21 -->
<g id="edge34" class="edge">
<title>Node1&#45;&gt;Node21</title>
<path fill="none" stroke="#63b8ff" d="M444.45,-395.98C428.11,-387.57 402.87,-374.59 383.87,-364.81"/>
<polygon fill="#63b8ff" stroke="#63b8ff" points="385.34,-361.63 374.85,-360.17 382.14,-367.86 385.34,-361.63"/>
</g>
<!-- Node22 -->
<g id="node22" class="node">
<title>Node22</title>
<g id="a_node22"><a xlink:title=" ">
<polygon fill="#e0e0e0" stroke="#999999" points="486,-360 436,-360 436,-341 486,-341 486,-360"/>
<text text-anchor="middle" x="461" y="-348" font-family="Helvetica,sans-Serif" font-size="10.00">chrono</text>
</a>
</g>
</g>
<!-- Node1&#45;&gt;Node22 -->
<g id="edge36" class="edge">
<title>Node1&#45;&gt;Node22</title>
<path fill="none" stroke="#63b8ff" d="M461,-395.75C461,-388.8 461,-378.85 461,-370.13"/>
<polygon fill="#63b8ff" stroke="#63b8ff" points="464.5,-370.09 461,-360.09 457.5,-370.09 464.5,-370.09"/>
</g>
<!-- Node23 -->
<g id="node23" class="node">
<title>Node23</title>
<g id="a_node23"><a xlink:title=" ">
<polygon fill="#e0e0e0" stroke="#999999" points="536,-360 504,-360 504,-341 536,-341 536,-360"/>
<text text-anchor="middle" x="520" y="-348" font-family="Helvetica,sans-Serif" font-size="10.00">list</text>
</a>
</g>
</g>
<!-- Node1&#45;&gt;Node23 -->
<g id="edge38" class="edge">
<title>Node1&#45;&gt;Node23</title>
<path fill="none" stroke="#63b8ff" d="M470.48,-395.98C479.2,-388.15 492.34,-376.34 502.9,-366.86"/>
<polygon fill="#63b8ff" stroke="#63b8ff" points="505.25,-369.46 510.35,-360.17 500.57,-364.25 505.25,-369.46"/>
</g>
<!-- Node24 -->
<g id="node24" class="node">
<title>Node24</title>
<g id="a_node24"><a xlink:title=" ">
<polygon fill="#e0e0e0" stroke="#999999" points="602,-360 554,-360 554,-341 602,-341 602,-360"/>
<text text-anchor="middle" x="578" y="-348" font-family="Helvetica,sans-Serif" font-size="10.00">mutex</text>
</a>
</g>
</g>
<!-- Node1&#45;&gt;Node24 -->
<g id="edge39" class="edge">
<title>Node1&#45;&gt;Node24</title>
<path fill="none" stroke="#63b8ff" d="M479.8,-395.98C498.62,-387.46 527.82,-374.23 549.5,-364.41"/>
<polygon fill="#63b8ff" stroke="#63b8ff" points="551.2,-367.48 558.86,-360.17 548.31,-361.11 551.2,-367.48"/>
</g>
<!-- Node25 -->
<g id="node25" class="node">
<title>Node25</title>
<g id="a_node25"><a xlink:title=" ">
<polygon fill="#e0e0e0" stroke="#999999" points="676,-360 620,-360 620,-341 676,-341 676,-360"/>
<text text-anchor="middle" x="648" y="-348" font-family="Helvetica,sans-Serif" font-size="10.00">numeric</text>
</a>
</g>
</g>
<!-- Node1&#45;&gt;Node25 -->
<g id="edge40" class="edge">
<title>Node1&#45;&gt;Node25</title>
<path fill="none" stroke="#63b8ff" d="M491.04,-395.98C523.37,-386.82 574.85,-372.23 609.98,-362.28"/>
<polygon fill="#63b8ff" stroke="#63b8ff" points="611.2,-365.57 619.87,-359.47 609.29,-358.83 611.2,-365.57"/>
</g>
<!-- Node26 -->
<g id="node26" class="node">
<title>Node26</title>
<g id="a_node26"><a xlink:title=" ">
<polygon fill="#e0e0e0" stroke="#999999" points="750,-360 694,-360 694,-341 750,-341 750,-360"/>
<text text-anchor="middle" x="722" y="-348" font-family="Helvetica,sans-Serif" font-size="10.00">optional</text>
</a>
</g>
</g>
<!-- Node1&#45;&gt;Node26 -->
<g id="edge41" class="edge">
<title>Node1&#45;&gt;Node26</title>
<path fill="none" stroke="#63b8ff" d="M506.13,-395.94C549.3,-387.66 616.49,-374.54 683.81,-360.21"/>
<polygon fill="#63b8ff" stroke="#63b8ff" points="684.69,-363.6 693.74,-358.08 683.23,-356.75 684.69,-363.6"/>
</g>
<!-- Node27 -->
<g id="node27" class="node">
<title>Node27</title>
<g id="a_node27"><a xlink:title=" ">
<polygon fill="#e0e0e0" stroke="#999999" points="839.5,-360 768.5,-360 768.5,-341 839.5,-341 839.5,-360"/>
<text text-anchor="middle" x="804" y="-348" font-family="Helvetica,sans-Serif" font-size="10.00">semaphore</text>
</a>
</g>
</g>
<!-- Node1&#45;&gt;Node27 -->
<g id="edge42" class="edge">
<title>Node1&#45;&gt;Node27</title>
<path fill="none" stroke="#63b8ff" d="M522.75,-395.99C580.85,-387.81 670.55,-374.79 758.05,-360.1"/>
<polygon fill="#63b8ff" stroke="#63b8ff" points="758.88,-363.51 768.16,-358.4 757.72,-356.61 758.88,-363.51"/>
</g>
<!-- Node3 -->
<g id="node3" class="node">
<title>Node3</title>
<g id="a_node3"><a xlink:href="Individual_8h.html" target="_top" xlink:title=" ">
<polygon fill="white" stroke="#666666" points="520,-239 356,-239 356,-220 520,-220 520,-239"/>
<text text-anchor="middle" x="438" y="-227" font-family="Helvetica,sans-Serif" font-size="10.00">genixx/population/Individual.h</text>
</a>
</g>
</g>
<!-- Node2&#45;&gt;Node3 -->
<g id="edge2" class="edge">
<title>Node2&#45;&gt;Node3</title>
<path fill="none" stroke="#63b8ff" d="M213.4,-340.94C255.16,-320.41 361.27,-268.23 411.22,-243.67"/>
<polygon fill="#63b8ff" stroke="#63b8ff" points="413,-246.69 420.43,-239.14 409.91,-240.41 413,-246.69"/>
</g>
<!-- Node11 -->
<g id="node11" class="node">
<title>Node11</title>
<g id="a_node11"><a xlink:title=" ">
<polygon fill="#e0e0e0" stroke="#999999" points="581,-74 531,-74 531,-55 581,-55 581,-74"/>
<text text-anchor="middle" x="556" y="-62" font-family="Helvetica,sans-Serif" font-size="10.00">cstdint</text>
</a>
</g>
</g>
<!-- Node2&#45;&gt;Node11 -->
<g id="edge31" class="edge">
<title>Node2&#45;&gt;Node11</title>
<path fill="none" stroke="#63b8ff" d="M265.42,-340.99C311.71,-334.13 373.48,-322.66 426,-305 488.93,-283.84 505.85,-277.41 560,-239 616.4,-198.99 683.62,-168.66 647,-110 634.81,-90.47 611.3,-79.28 591.23,-73.01"/>
<polygon fill="#63b8ff" stroke="#63b8ff" points="592,-69.59 581.42,-70.23 590.09,-76.32 592,-69.59"/>
</g>
<!-- Node15 -->
<g id="node15" class="node">
<title>Node15</title>
<g id="a_node15"><a xlink:title=" ">
<polygon fill="#e0e0e0" stroke="#999999" points="637.5,-129 590.5,-129 590.5,-110 637.5,-110 637.5,-129"/>
<text text-anchor="middle" x="614" y="-117" font-family="Helvetica,sans-Serif" font-size="10.00">vector</text>
</a>
</g>
</g>
<!-- Node2&#45;&gt;Node15 -->
<g id="edge32" class="edge">
<title>Node2&#45;&gt;Node15</title>
<path fill="none" stroke="#63b8ff" d="M236.57,-340.94C301.22,-326.25 430.37,-292.55 529,-239 563.47,-220.29 576.76,-216.97 598,-184 606.66,-170.56 610.63,-152.72 612.46,-139.38"/>
<polygon fill="#63b8ff" stroke="#63b8ff" points="615.94,-139.74 613.54,-129.42 608.98,-138.98 615.94,-139.74"/>
</g>
<!-- Node19 -->
<g id="node19" class="node">
<title>Node19</title>
<g id="a_node19"><a xlink:href="method_8h.html" target="_top" xlink:title=" ">
<polygon fill="white" stroke="#666666" points="272,-305 120,-305 120,-275 272,-275 272,-305"/>
<text text-anchor="start" x="128" y="-293" font-family="Helvetica,sans-Serif" font-size="10.00">genixx/population/selection</text>
<text text-anchor="middle" x="196" y="-282" font-family="Helvetica,sans-Serif" font-size="10.00">/method.h</text>
</a>
</g>
</g>
<!-- Node2&#45;&gt;Node19 -->
<g id="edge25" class="edge">
<title>Node2&#45;&gt;Node19</title>
<path fill="none" stroke="#63b8ff" d="M196,-340.87C196,-334.11 196,-324.35 196,-315.26"/>
<polygon fill="#63b8ff" stroke="#63b8ff" points="199.5,-315.11 196,-305.11 192.5,-315.11 199.5,-315.11"/>
</g>
<!-- Node4 -->
<g id="node4" class="node">
<title>Node4</title>
<g id="a_node4"><a xlink:href="Chromosome_8h.html" target="_top" xlink:title=" ">
<polygon fill="white" stroke="#666666" points="432,-184 238,-184 238,-165 432,-165 432,-184"/>
<text text-anchor="middle" x="335" y="-172" font-family="Helvetica,sans-Serif" font-size="10.00">genixx/chromosome/Chromosome.h</text>
</a>
</g>
</g>
<!-- Node3&#45;&gt;Node4 -->
<g id="edge3" class="edge">
<title>Node3&#45;&gt;Node4</title>
<path fill="none" stroke="#63b8ff" d="M421.45,-219.98C405.11,-211.57 379.87,-198.59 360.87,-188.81"/>
<polygon fill="#63b8ff" stroke="#63b8ff" points="362.34,-185.63 351.85,-184.17 359.14,-191.86 362.34,-185.63"/>
</g>
<!-- Node7 -->
<g id="node7" class="node">
<title>Node7</title>
<g id="a_node7"><a xlink:title=" ">
<polygon fill="#e0e0e0" stroke="#999999" points="473,-19 429,-19 429,0 473,0 473,-19"/>
<text text-anchor="middle" x="451" y="-7" font-family="Helvetica,sans-Serif" font-size="10.00">string</text>
</a>
</g>
</g>
<!-- Node3&#45;&gt;Node7 -->
<g id="edge22" class="edge">
<title>Node3&#45;&gt;Node7</title>
<path fill="none" stroke="#63b8ff" d="M506.9,-219.99C559.29,-209.15 625.83,-184.58 647,-129 674.69,-56.29 545.53,-25.5 483.13,-15.03"/>
<polygon fill="#63b8ff" stroke="#63b8ff" points="483.44,-11.53 473.01,-13.41 482.34,-18.44 483.44,-11.53"/>
</g>
<!-- Node3&#45;&gt;Node11 -->
<g id="edge18" class="edge">
<title>Node3&#45;&gt;Node11</title>
<path fill="none" stroke="#63b8ff" d="M464.28,-219.88C482.35,-212.77 505.74,-201.06 521,-184 546.3,-155.71 553.34,-109.93 555.29,-84.34"/>
<polygon fill="#63b8ff" stroke="#63b8ff" points="558.79,-84.33 555.86,-74.14 551.8,-83.93 558.79,-84.33"/>
</g>
<!-- Node14 -->
<g id="node14" class="node">
<title>Node14</title>
<g id="a_node14"><a xlink:title=" ">
<polygon fill="#e0e0e0" stroke="#999999" points="534,-129 476,-129 476,-110 534,-110 534,-129"/>
<text text-anchor="middle" x="505" y="-117" font-family="Helvetica,sans-Serif" font-size="10.00">memory</text>
</a>
</g>
</g>
<!-- Node3&#45;&gt;Node14 -->
<g id="edge21" class="edge">
<title>Node3&#45;&gt;Node14</title>
<path fill="none" stroke="#63b8ff" d="M461.11,-219.98C476.59,-212.92 495.76,-201.23 505,-184 512.33,-170.34 511.6,-152.52 509.46,-139.24"/>
<polygon fill="#63b8ff" stroke="#63b8ff" points="512.88,-138.46 507.48,-129.34 506.01,-139.84 512.88,-138.46"/>
</g>
<!-- Node3&#45;&gt;Node15 -->
<g id="edge24" class="edge">
<title>Node3&#45;&gt;Node15</title>
<path fill="none" stroke="#63b8ff" d="M494.12,-219.92C521.08,-213.57 552.55,-202.64 576,-184 590.75,-172.28 601.07,-153.15 607.19,-138.95"/>
<polygon fill="#63b8ff" stroke="#63b8ff" points="610.61,-139.84 611.06,-129.25 604.11,-137.24 610.61,-139.84"/>
</g>
<!-- Node3&#45;&gt;Node16 -->
<g id="edge19" class="edge">
<title>Node3&#45;&gt;Node16</title>
<path fill="none" stroke="#63b8ff" d="M384.11,-219.99C332.7,-211.75 252.82,-198.63 173.69,-184.07"/>
<polygon fill="#63b8ff" stroke="#63b8ff" points="174.01,-180.57 163.54,-182.2 172.74,-187.46 174.01,-180.57"/>
</g>
<!-- Node17 -->
<g id="node17" class="node">
<title>Node17</title>
<g id="a_node17"><a xlink:title=" ">
<polygon fill="#e0e0e0" stroke="#999999" points="220,-184 182,-184 182,-165 220,-165 220,-184"/>
<text text-anchor="middle" x="201" y="-172" font-family="Helvetica,sans-Serif" font-size="10.00">map</text>
</a>
</g>
</g>
<!-- Node3&#45;&gt;Node17 -->
<g id="edge20" class="edge">
<title>Node3&#45;&gt;Node17</title>
<path fill="none" stroke="#63b8ff" d="M392.49,-219.97C352.13,-212.14 291.42,-199.74 230.07,-184.11"/>
<polygon fill="#63b8ff" stroke="#63b8ff" points="230.78,-180.67 220.22,-181.57 229.03,-187.45 230.78,-180.67"/>
</g>
<!-- Node18 -->
<g id="node18" class="node">
<title>Node18</title>
<g id="a_node18"><a xlink:title=" ">
<polygon fill="#e0e0e0" stroke="#999999" points="495.5,-184 450.5,-184 450.5,-165 495.5,-165 495.5,-184"/>
<text text-anchor="middle" x="473" y="-172" font-family="Helvetica,sans-Serif" font-size="10.00">utility</text>
</a>
</g>
</g>
<!-- Node3&#45;&gt;Node18 -->
<g id="edge23" class="edge">
<title>Node3&#45;&gt;Node18</title>
<path fill="none" stroke="#63b8ff" d="M443.78,-219.75C448.62,-212.42 455.68,-201.73 461.64,-192.7"/>
<polygon fill="#63b8ff" stroke="#63b8ff" points="464.74,-194.36 467.33,-184.09 458.9,-190.5 464.74,-194.36"/>
</g>
<!-- Node4&#45;&gt;Node5 -->
<g id="edge4" class="edge">
<title>Node4&#45;&gt;Node5</title>
<path fill="none" stroke="#63b8ff" d="M318.17,-164.84C281.52,-146 194.31,-101.14 150.72,-78.73"/>
<polygon fill="#63b8ff" stroke="#63b8ff" points="152.11,-75.51 141.62,-74.05 148.91,-81.73 152.11,-75.51"/>
</g>
<!-- Node8 -->
<g id="node8" class="node">
<title>Node8</title>
<g id="a_node8"><a xlink:href="random_8h.html" target="_top" xlink:title=" ">
<polygon fill="white" stroke="#666666" points="381.5,-129 258.5,-129 258.5,-110 381.5,-110 381.5,-129"/>
<text text-anchor="middle" x="320" y="-117" font-family="Helvetica,sans-Serif" font-size="10.00">genixx/utils/random.h</text>
</a>
</g>
</g>
<!-- Node4&#45;&gt;Node8 -->
<g id="edge7" class="edge">
<title>Node4&#45;&gt;Node8</title>
<path fill="none" stroke="#63b8ff" d="M332.52,-164.75C330.54,-157.72 327.68,-147.62 325.19,-138.84"/>
<polygon fill="#63b8ff" stroke="#63b8ff" points="328.52,-137.76 322.43,-129.09 321.79,-139.66 328.52,-137.76"/>
</g>
<!-- Node4&#45;&gt;Node11 -->
<g id="edge14" class="edge">
<title>Node4&#45;&gt;Node11</title>
<path fill="none" stroke="#63b8ff" d="M352.71,-164.84C391.44,-145.92 483.83,-100.77 529.51,-78.45"/>
<polygon fill="#63b8ff" stroke="#63b8ff" points="531.06,-81.58 538.51,-74.05 527.99,-75.29 531.06,-81.58"/>
</g>
<!-- Node13 -->
<g id="node13" class="node">
<title>Node13</title>
<g id="a_node13"><a xlink:title=" ">
<polygon fill="#e0e0e0" stroke="#999999" points="505.5,-74 436.5,-74 436.5,-55 505.5,-55 505.5,-74"/>
<text text-anchor="middle" x="471" y="-62" font-family="Helvetica,sans-Serif" font-size="10.00">type_traits</text>
</a>
</g>
</g>
<!-- Node4&#45;&gt;Node13 -->
<g id="edge16" class="edge">
<title>Node4&#45;&gt;Node13</title>
<path fill="none" stroke="#63b8ff" d="M346.13,-164.66C369.36,-146.22 423.22,-103.45 452.02,-80.57"/>
<polygon fill="#63b8ff" stroke="#63b8ff" points="454.44,-83.12 460.1,-74.16 450.09,-77.64 454.44,-83.12"/>
</g>
<!-- Node4&#45;&gt;Node14 -->
<g id="edge15" class="edge">
<title>Node4&#45;&gt;Node14</title>
<path fill="none" stroke="#63b8ff" d="M362.31,-164.98C390.85,-156.09 435.83,-142.07 467.64,-132.15"/>
<polygon fill="#63b8ff" stroke="#63b8ff" points="468.97,-135.4 477.47,-129.08 466.88,-128.72 468.97,-135.4"/>
</g>
<!-- Node4&#45;&gt;Node15 -->
<g id="edge17" class="edge">
<title>Node4&#45;&gt;Node15</title>
<path fill="none" stroke="#63b8ff" d="M379.83,-164.98C435.77,-154.36 530.17,-136.43 580.32,-126.9"/>
<polygon fill="#63b8ff" stroke="#63b8ff" points="581.15,-130.3 590.32,-125 579.85,-123.43 581.15,-130.3"/>
</g>
<!-- Node6 -->
<g id="node6" class="node">
<title>Node6</title>
<g id="a_node6"><a xlink:title=" ">
<polygon fill="#e0e0e0" stroke="#999999" points="157.5,-19 92.5,-19 92.5,0 157.5,0 157.5,-19"/>
<text text-anchor="middle" x="125" y="-7" font-family="Helvetica,sans-Serif" font-size="10.00">exception</text>
</a>
</g>
</g>
<!-- Node5&#45;&gt;Node6 -->
<g id="edge5" class="edge">
<title>Node5&#45;&gt;Node6</title>
<path fill="none" stroke="#63b8ff" d="M125,-54.75C125,-47.8 125,-37.85 125,-29.13"/>
<polygon fill="#63b8ff" stroke="#63b8ff" points="128.5,-29.09 125,-19.09 121.5,-29.09 128.5,-29.09"/>
</g>
<!-- Node5&#45;&gt;Node7 -->
<g id="edge6" class="edge">
<title>Node5&#45;&gt;Node7</title>
<path fill="none" stroke="#63b8ff" d="M177.38,-54.98C245.52,-43.91 362.5,-24.89 418.83,-15.73"/>
<polygon fill="#63b8ff" stroke="#63b8ff" points="419.63,-19.15 428.94,-14.09 418.51,-12.24 419.63,-19.15"/>
</g>
<!-- Node8&#45;&gt;Node5 -->
<g id="edge8" class="edge">
<title>Node8&#45;&gt;Node5</title>
<path fill="none" stroke="#63b8ff" d="M288.67,-109.98C255.51,-100.97 203,-86.7 166.44,-76.76"/>
<polygon fill="#63b8ff" stroke="#63b8ff" points="167.14,-73.33 156.58,-74.08 165.31,-80.08 167.14,-73.33"/>
</g>
<!-- Node9 -->
<g id="node9" class="node">
<title>Node9</title>
<g id="a_node9"><a xlink:title=" ">
<polygon fill="#e0e0e0" stroke="#999999" points="353.5,-74 286.5,-74 286.5,-55 353.5,-55 353.5,-74"/>
<text text-anchor="middle" x="320" y="-62" font-family="Helvetica,sans-Serif" font-size="10.00">fmt/core.h</text>
</a>
</g>
</g>
<!-- Node8&#45;&gt;Node9 -->
<g id="edge9" class="edge">
<title>Node8&#45;&gt;Node9</title>
<path fill="none" stroke="#63b8ff" d="M320,-109.75C320,-102.8 320,-92.85 320,-84.13"/>
<polygon fill="#63b8ff" stroke="#63b8ff" points="323.5,-84.09 320,-74.09 316.5,-84.09 323.5,-84.09"/>
</g>
<!-- Node10 -->
<g id="node10" class="node">
<title>Node10</title>
<g id="a_node10"><a xlink:title=" ">
<polygon fill="#e0e0e0" stroke="#999999" points="418.5,-74 371.5,-74 371.5,-55 418.5,-55 418.5,-74"/>
<text text-anchor="middle" x="395" y="-62" font-family="Helvetica,sans-Serif" font-size="10.00">cmath</text>
</a>
</g>
</g>
<!-- Node8&#45;&gt;Node10 -->
<g id="edge10" class="edge">
<title>Node8&#45;&gt;Node10</title>
<path fill="none" stroke="#63b8ff" d="M332.05,-109.98C343.46,-101.92 360.83,-89.65 374.43,-80.03"/>
<polygon fill="#63b8ff" stroke="#63b8ff" points="376.58,-82.8 382.73,-74.17 372.54,-77.08 376.58,-82.8"/>
</g>
<!-- Node8&#45;&gt;Node11 -->
<g id="edge11" class="edge">
<title>Node8&#45;&gt;Node11</title>
<path fill="none" stroke="#63b8ff" d="M357.92,-109.98C402.91,-99.88 477.32,-83.17 520.99,-73.36"/>
<polygon fill="#63b8ff" stroke="#63b8ff" points="521.88,-76.75 530.87,-71.14 520.35,-69.92 521.88,-76.75"/>
</g>
<!-- Node12 -->
<g id="node12" class="node">
<title>Node12</title>
<g id="a_node12"><a xlink:title=" ">
<polygon fill="#e0e0e0" stroke="#999999" points="268,-74 214,-74 214,-55 268,-55 268,-74"/>
<text text-anchor="middle" x="241" y="-62" font-family="Helvetica,sans-Serif" font-size="10.00">random</text>
</a>
</g>
</g>
<!-- Node8&#45;&gt;Node12 -->
<g id="edge12" class="edge">
<title>Node8&#45;&gt;Node12</title>
<path fill="none" stroke="#63b8ff" d="M307.31,-109.98C295.17,-101.84 276.64,-89.41 262.25,-79.76"/>
<polygon fill="#63b8ff" stroke="#63b8ff" points="264.18,-76.84 253.92,-74.17 260.28,-82.65 264.18,-76.84"/>
</g>
<!-- Node8&#45;&gt;Node13 -->
<g id="edge13" class="edge">
<title>Node8&#45;&gt;Node13</title>
<path fill="none" stroke="#63b8ff" d="M344.26,-109.98C369.32,-101.19 408.63,-87.39 436.83,-77.49"/>
<polygon fill="#63b8ff" stroke="#63b8ff" points="438.02,-80.78 446.3,-74.17 435.7,-74.18 438.02,-80.78"/>
</g>
<!-- Node19&#45;&gt;Node3 -->
<g id="edge26" class="edge">
<title>Node19&#45;&gt;Node3</title>
<path fill="none" stroke="#63b8ff" d="M253.97,-274.99C296.54,-264.7 353.57,-250.91 392.8,-241.43"/>
<polygon fill="#63b8ff" stroke="#63b8ff" points="393.72,-244.81 402.62,-239.05 392.07,-238 393.72,-244.81"/>
</g>
<!-- Node19&#45;&gt;Node8 -->
<g id="edge27" class="edge">
<title>Node19&#45;&gt;Node8</title>
<path fill="none" stroke="#63b8ff" d="M186.02,-274.88C175.32,-260.26 157.38,-237.2 139,-220 119.01,-201.29 101.48,-208.37 89,-184 85.15,-176.48 83.62,-171.51 89,-165 108.94,-140.85 187.91,-129.66 248.01,-124.58"/>
<polygon fill="#63b8ff" stroke="#63b8ff" points="248.55,-128.04 258.24,-123.75 247.99,-121.07 248.55,-128.04"/>
</g>
<!-- Node19&#45;&gt;Node16 -->
<g id="edge29" class="edge">
<title>Node19&#45;&gt;Node16</title>
<path fill="none" stroke="#63b8ff" d="M192.87,-274.78C189.28,-260.29 182.49,-237.52 172,-220 165.68,-209.46 156.58,-199.25 148.55,-191.29"/>
<polygon fill="#63b8ff" stroke="#63b8ff" points="150.68,-188.48 141.03,-184.13 145.86,-193.56 150.68,-188.48"/>
</g>
<!-- Node19&#45;&gt;Node17 -->
<g id="edge30" class="edge">
<title>Node19&#45;&gt;Node17</title>
<path fill="none" stroke="#63b8ff" d="M201.1,-274.78C204.37,-264.89 208.31,-251.32 210,-239 211.15,-230.63 210.84,-228.4 210,-220 209.15,-211.47 207.39,-202.16 205.66,-194.27"/>
<polygon fill="#63b8ff" stroke="#63b8ff" points="209.01,-193.22 203.32,-184.29 202.2,-194.82 209.01,-193.22"/>
</g>
<!-- Node19&#45;&gt;Node20 -->
<g id="edge28" class="edge">
<title>Node19&#45;&gt;Node20</title>
<path fill="none" stroke="#63b8ff" d="M172.28,-274.84C156.8,-265.6 136.68,-253.59 121.29,-244.4"/>
<polygon fill="#63b8ff" stroke="#63b8ff" points="122.78,-241.21 112.4,-239.09 119.19,-247.23 122.78,-241.21"/>
</g>
</g>
</svg>
