<?xml version="1.0" encoding="UTF-8" standalone="no"?>
<!DOCTYPE svg PUBLIC "-//W3C//DTD SVG 1.1//EN"
 "http://www.w3.org/Graphics/SVG/1.1/DTD/svg11.dtd">
<!-- Generated by graphviz version 2.43.0 (0)
 -->
<!-- Title: lib/population/Population.cpp Pages: 1 -->
<svg width="716pt" height="313pt"
 viewBox="0.00 0.00 716.48 313.00" xmlns="http://www.w3.org/2000/svg" xmlns:xlink="http://www.w3.org/1999/xlink">
<g id="graph0" class="graph" transform="scale(1 1) rotate(0) translate(4 309)">
<title>lib/population/Population.cpp</title>
<!-- Node1 -->
<g id="node1" class="node">
<title>Node1</title>
<g id="a_node1"><a xlink:title=" ">
<polygon fill="#999999" stroke="#666666" points="450.28,-305 292.28,-305 292.28,-286 450.28,-286 450.28,-305"/>
<text text-anchor="middle" x="371.28" y="-293" font-family="Helvetica,sans-Serif" font-size="10.00">lib/population/Population.cpp</text>
</a>
</g>
</g>
<!-- Node2 -->
<g id="node2" class="node">
<title>Node2</title>
<g id="a_node2"><a xlink:href="Population_8h.html" target="_top" xlink:title=" ">
<polygon fill="white" stroke="#666666" points="328.28,-250 160.28,-250 160.28,-231 328.28,-231 328.28,-250"/>
<text text-anchor="middle" x="244.28" y="-238" font-family="Helvetica,sans-Serif" font-size="10.00">genixx/population/Population.h</text>
</a>
</g>
</g>
<!-- Node1&#45;&gt;Node2 -->
<g id="edge1" class="edge">
<title>Node1&#45;&gt;Node2</title>
<path fill="none" stroke="#63b8ff" d="M350.88,-285.98C330.27,-277.38 298.18,-263.99 274.59,-254.15"/>
<polygon fill="#63b8ff" stroke="#63b8ff" points="275.64,-250.79 265.06,-250.17 272.94,-257.25 275.64,-250.79"/>
</g>
<!-- Node5 -->
<g id="node5" class="node">
<title>Node5</title>
<g id="a_node5"><a xlink:href="exceptions_8h.html" target="_top" xlink:title=" ">
<polygon fill="white" stroke="#666666" points="253.78,-74 112.78,-74 112.78,-55 253.78,-55 253.78,-74"/>
<text text-anchor="middle" x="183.28" y="-62" font-family="Helvetica,sans-Serif" font-size="10.00">genixx/error/exceptions.h</text>
</a>
</g>
</g>
<!-- Node1&#45;&gt;Node5 -->
<g id="edge27" class="edge">
<title>Node1&#45;&gt;Node5</title>
<path fill="none" stroke="#63b8ff" d="M292.25,-293.52C238.09,-289.95 166.06,-279.33 109.28,-250 45.76,-217.19 26.38,-196.66 3.28,-129 0.56,-121.01 -1.92,-116.65 3.28,-110 15.96,-93.81 60.81,-82.7 102.57,-75.62"/>
<polygon fill="#63b8ff" stroke="#63b8ff" points="103.23,-79.06 112.54,-74 102.1,-72.15 103.23,-79.06"/>
</g>
<!-- Node17 -->
<g id="node17" class="node">
<title>Node17</title>
<g id="a_node17"><a xlink:title=" ">
<polygon fill="#e0e0e0" stroke="#999999" points="76.28,-129 12.28,-129 12.28,-110 76.28,-110 76.28,-129"/>
<text text-anchor="middle" x="44.28" y="-117" font-family="Helvetica,sans-Serif" font-size="10.00">algorithm</text>
</a>
</g>
</g>
<!-- Node1&#45;&gt;Node17 -->
<g id="edge28" class="edge">
<title>Node1&#45;&gt;Node17</title>
<path fill="none" stroke="#63b8ff" d="M292.21,-286.79C249.18,-280.57 195.81,-269.51 151.28,-250 113.1,-233.26 101.15,-227.7 75.28,-195 62.01,-178.22 53.54,-154.94 48.87,-138.89"/>
<polygon fill="#63b8ff" stroke="#63b8ff" points="52.21,-137.85 46.23,-129.1 45.45,-139.67 52.21,-137.85"/>
</g>
<!-- Node18 -->
<g id="node18" class="node">
<title>Node18</title>
<g id="a_node18"><a xlink:title=" ">
<polygon fill="#e0e0e0" stroke="#999999" points="396.28,-250 346.28,-250 346.28,-231 396.28,-231 396.28,-250"/>
<text text-anchor="middle" x="371.28" y="-238" font-family="Helvetica,sans-Serif" font-size="10.00">chrono</text>
</a>
</g>
</g>
<!-- Node1&#45;&gt;Node18 -->
<g id="edge29" class="edge">
<title>Node1&#45;&gt;Node18</title>
<path fill="none" stroke="#63b8ff" d="M371.28,-285.75C371.28,-278.8 371.28,-268.85 371.28,-260.13"/>
<polygon fill="#63b8ff" stroke="#63b8ff" points="374.78,-260.09 371.28,-250.09 367.78,-260.09 374.78,-260.09"/>
</g>
<!-- Node19 -->
<g id="node19" class="node">
<title>Node19</title>
<g id="a_node19"><a xlink:title=" ">
<polygon fill="#e0e0e0" stroke="#999999" points="462.28,-250 414.28,-250 414.28,-231 462.28,-231 462.28,-250"/>
<text text-anchor="middle" x="438.28" y="-238" font-family="Helvetica,sans-Serif" font-size="10.00">mutex</text>
</a>
</g>
</g>
<!-- Node1&#45;&gt;Node19 -->
<g id="edge30" class="edge">
<title>Node1&#45;&gt;Node19</title>
<path fill="none" stroke="#63b8ff" d="M382.05,-285.98C392.05,-278.07 407.17,-266.11 419.22,-256.58"/>
<polygon fill="#63b8ff" stroke="#63b8ff" points="421.65,-259.12 427.32,-250.17 417.31,-253.63 421.65,-259.12"/>
</g>
<!-- Node20 -->
<g id="node20" class="node">
<title>Node20</title>
<g id="a_node20"><a xlink:title=" ">
<polygon fill="#e0e0e0" stroke="#999999" points="536.28,-250 480.28,-250 480.28,-231 536.28,-231 536.28,-250"/>
<text text-anchor="middle" x="508.28" y="-238" font-family="Helvetica,sans-Serif" font-size="10.00">numeric</text>
</a>
</g>
</g>
<!-- Node1&#45;&gt;Node20 -->
<g id="edge31" class="edge">
<title>Node1&#45;&gt;Node20</title>
<path fill="none" stroke="#63b8ff" d="M393.3,-285.98C415.73,-277.3 450.77,-263.75 476.27,-253.88"/>
<polygon fill="#63b8ff" stroke="#63b8ff" points="477.81,-257.04 485.87,-250.17 475.28,-250.51 477.81,-257.04"/>
</g>
<!-- Node21 -->
<g id="node21" class="node">
<title>Node21</title>
<g id="a_node21"><a xlink:title=" ">
<polygon fill="#e0e0e0" stroke="#999999" points="602.28,-250 554.28,-250 554.28,-231 602.28,-231 602.28,-250"/>
<text text-anchor="middle" x="578.28" y="-238" font-family="Helvetica,sans-Serif" font-size="10.00">thread</text>
</a>
</g>
</g>
<!-- Node1&#45;&gt;Node21 -->
<g id="edge32" class="edge">
<title>Node1&#45;&gt;Node21</title>
<path fill="none" stroke="#63b8ff" d="M404.65,-285.99C437.69,-277.55 490.01,-264.18 544.33,-250.24"/>
<polygon fill="#63b8ff" stroke="#63b8ff" points="545.32,-253.6 554.14,-247.73 543.58,-246.82 545.32,-253.6"/>
</g>
<!-- Node3 -->
<g id="node3" class="node">
<title>Node3</title>
<g id="a_node3"><a xlink:href="Individual_8h.html" target="_top" xlink:title=" ">
<polygon fill="white" stroke="#666666" points="418.28,-189.5 254.28,-189.5 254.28,-170.5 418.28,-170.5 418.28,-189.5"/>
<text text-anchor="middle" x="336.28" y="-177.5" font-family="Helvetica,sans-Serif" font-size="10.00">genixx/population/Individual.h</text>
</a>
</g>
</g>
<!-- Node2&#45;&gt;Node3 -->
<g id="edge2" class="edge">
<title>Node2&#45;&gt;Node3</title>
<path fill="none" stroke="#63b8ff" d="M257.86,-230.87C272.67,-221.45 296.61,-206.23 314.15,-195.08"/>
<polygon fill="#63b8ff" stroke="#63b8ff" points="316.09,-197.99 322.65,-189.67 312.34,-192.08 316.09,-197.99"/>
</g>
<!-- Node9 -->
<g id="node9" class="node">
<title>Node9</title>
<g id="a_node9"><a xlink:title=" ">
<polygon fill="#e0e0e0" stroke="#999999" points="508.28,-19 458.28,-19 458.28,0 508.28,0 508.28,-19"/>
<text text-anchor="middle" x="483.28" y="-7" font-family="Helvetica,sans-Serif" font-size="10.00">cstdint</text>
</a>
</g>
</g>
<!-- Node2&#45;&gt;Node9 -->
<g id="edge25" class="edge">
<title>Node2&#45;&gt;Node9</title>
<path fill="none" stroke="#63b8ff" d="M328.62,-231.11C406.79,-222.7 517.03,-209 558.28,-195 638.42,-167.8 684.38,-156 705.28,-74 707.37,-65.82 710.64,-61.53 705.28,-55 682.11,-26.72 575.41,-16.04 518.8,-12.32"/>
<polygon fill="#63b8ff" stroke="#63b8ff" points="518.71,-8.81 508.51,-11.68 518.27,-15.79 518.71,-8.81"/>
</g>
<!-- Node12 -->
<g id="node12" class="node">
<title>Node12</title>
<g id="a_node12"><a xlink:title=" ">
<polygon fill="#e0e0e0" stroke="#999999" points="695.78,-74 648.78,-74 648.78,-55 695.78,-55 695.78,-74"/>
<text text-anchor="middle" x="672.28" y="-62" font-family="Helvetica,sans-Serif" font-size="10.00">vector</text>
</a>
</g>
</g>
<!-- Node2&#45;&gt;Node12 -->
<g id="edge26" class="edge">
<title>Node2&#45;&gt;Node12</title>
<path fill="none" stroke="#63b8ff" d="M304.99,-230.97C407.32,-215.37 607.77,-179.18 656.28,-129 667.76,-117.13 671.36,-98.3 672.34,-84.22"/>
<polygon fill="#63b8ff" stroke="#63b8ff" points="675.84,-84.28 672.65,-74.17 668.84,-84.06 675.84,-84.28"/>
</g>
<!-- Node16 -->
<g id="node16" class="node">
<title>Node16</title>
<g id="a_node16"><a xlink:href="method_8h.html" target="_top" xlink:title=" ">
<polygon fill="white" stroke="#666666" points="236.28,-195 84.28,-195 84.28,-165 236.28,-165 236.28,-195"/>
<text text-anchor="start" x="92.28" y="-183" font-family="Helvetica,sans-Serif" font-size="10.00">genixx/population/selection</text>
<text text-anchor="middle" x="160.28" y="-172" font-family="Helvetica,sans-Serif" font-size="10.00">/method.h</text>
</a>
</g>
</g>
<!-- Node2&#45;&gt;Node16 -->
<g id="edge20" class="edge">
<title>Node2&#45;&gt;Node16</title>
<path fill="none" stroke="#63b8ff" d="M231.89,-230.87C220.6,-223 203.5,-211.09 188.84,-200.89"/>
<polygon fill="#63b8ff" stroke="#63b8ff" points="190.76,-197.96 180.55,-195.11 186.76,-203.7 190.76,-197.96"/>
</g>
<!-- Node4 -->
<g id="node4" class="node">
<title>Node4</title>
<g id="a_node4"><a xlink:href="Chromosome_8h.html" target="_top" xlink:title=" ">
<polygon fill="white" stroke="#666666" points="606.28,-129 412.28,-129 412.28,-110 606.28,-110 606.28,-129"/>
<text text-anchor="middle" x="509.28" y="-117" font-family="Helvetica,sans-Serif" font-size="10.00">genixx/chromosome/Chromosome.h</text>
</a>
</g>
</g>
<!-- Node3&#45;&gt;Node4 -->
<g id="edge3" class="edge">
<title>Node3&#45;&gt;Node4</title>
<path fill="none" stroke="#63b8ff" d="M361.44,-170.49C391.17,-160.44 440.8,-143.66 474.27,-132.34"/>
<polygon fill="#63b8ff" stroke="#63b8ff" points="475.75,-135.54 484.1,-129.02 473.5,-128.9 475.75,-135.54"/>
</g>
<!-- Node7 -->
<g id="node7" class="node">
<title>Node7</title>
<g id="a_node7"><a xlink:title=" ">
<polygon fill="#e0e0e0" stroke="#999999" points="291.28,-19 247.28,-19 247.28,0 291.28,0 291.28,-19"/>
<text text-anchor="middle" x="269.28" y="-7" font-family="Helvetica,sans-Serif" font-size="10.00">string</text>
</a>
</g>
</g>
<!-- Node3&#45;&gt;Node7 -->
<g id="edge17" class="edge">
<title>Node3&#45;&gt;Node7</title>
<path fill="none" stroke="#63b8ff" d="M330.32,-170.49C323.73,-160.8 313.16,-144.33 306.28,-129 290.98,-94.88 279.43,-52.57 273.57,-28.85"/>
<polygon fill="#63b8ff" stroke="#63b8ff" points="276.96,-27.99 271.22,-19.09 270.15,-29.63 276.96,-27.99"/>
</g>
<!-- Node3&#45;&gt;Node9 -->
<g id="edge13" class="edge">
<title>Node3&#45;&gt;Node9</title>
<path fill="none" stroke="#63b8ff" d="M333.85,-170.36C330.43,-156.21 325.98,-127.9 339.28,-110 368.21,-71.07 404.18,-103.99 442.28,-74 457.55,-61.98 468.87,-42.62 475.71,-28.44"/>
<polygon fill="#63b8ff" stroke="#63b8ff" points="478.95,-29.75 479.88,-19.2 472.57,-26.87 478.95,-29.75"/>
</g>
<!-- Node11 -->
<g id="node11" class="node">
<title>Node11</title>
<g id="a_node11"><a xlink:title=" ">
<polygon fill="#e0e0e0" stroke="#999999" points="611.28,-74 553.28,-74 553.28,-55 611.28,-55 611.28,-74"/>
<text text-anchor="middle" x="582.28" y="-62" font-family="Helvetica,sans-Serif" font-size="10.00">memory</text>
</a>
</g>
</g>
<!-- Node3&#45;&gt;Node11 -->
<g id="edge16" class="edge">
<title>Node3&#45;&gt;Node11</title>
<path fill="none" stroke="#63b8ff" d="M418.42,-175.62C491.49,-170.68 590.54,-158.58 615.28,-129 627.41,-114.5 613.47,-94.81 600.16,-81.22"/>
<polygon fill="#63b8ff" stroke="#63b8ff" points="602.25,-78.37 592.6,-74 597.42,-83.44 602.25,-78.37"/>
</g>
<!-- Node3&#45;&gt;Node12 -->
<g id="edge19" class="edge">
<title>Node3&#45;&gt;Node12</title>
<path fill="none" stroke="#63b8ff" d="M418.5,-172.63C493.64,-165.49 598.08,-151.8 632.28,-129 648.51,-118.18 659.44,-98.31 665.71,-83.67"/>
<polygon fill="#63b8ff" stroke="#63b8ff" points="669.06,-84.72 669.47,-74.13 662.55,-82.15 669.06,-84.72"/>
</g>
<!-- Node13 -->
<g id="node13" class="node">
<title>Node13</title>
<g id="a_node13"><a xlink:title=" ">
<polygon fill="#e0e0e0" stroke="#999999" points="197.78,-129 132.78,-129 132.78,-110 197.78,-110 197.78,-129"/>
<text text-anchor="middle" x="165.28" y="-117" font-family="Helvetica,sans-Serif" font-size="10.00">functional</text>
</a>
</g>
</g>
<!-- Node3&#45;&gt;Node13 -->
<g id="edge14" class="edge">
<title>Node3&#45;&gt;Node13</title>
<path fill="none" stroke="#63b8ff" d="M311.42,-170.49C282.04,-160.44 232.98,-143.66 199.89,-132.34"/>
<polygon fill="#63b8ff" stroke="#63b8ff" points="200.77,-128.94 190.18,-129.02 198.51,-135.57 200.77,-128.94"/>
</g>
<!-- Node14 -->
<g id="node14" class="node">
<title>Node14</title>
<g id="a_node14"><a xlink:title=" ">
<polygon fill="#e0e0e0" stroke="#999999" points="254.28,-129 216.28,-129 216.28,-110 254.28,-110 254.28,-129"/>
<text text-anchor="middle" x="235.28" y="-117" font-family="Helvetica,sans-Serif" font-size="10.00">map</text>
</a>
</g>
</g>
<!-- Node3&#45;&gt;Node14 -->
<g id="edge15" class="edge">
<title>Node3&#45;&gt;Node14</title>
<path fill="none" stroke="#63b8ff" d="M321.38,-170.37C304.97,-160.86 278.36,-145.45 259.06,-134.27"/>
<polygon fill="#63b8ff" stroke="#63b8ff" points="260.66,-131.15 250.25,-129.17 257.15,-137.21 260.66,-131.15"/>
</g>
<!-- Node15 -->
<g id="node15" class="node">
<title>Node15</title>
<g id="a_node15"><a xlink:title=" ">
<polygon fill="#e0e0e0" stroke="#999999" points="393.78,-129 348.78,-129 348.78,-110 393.78,-110 393.78,-129"/>
<text text-anchor="middle" x="371.28" y="-117" font-family="Helvetica,sans-Serif" font-size="10.00">utility</text>
</a>
</g>
</g>
<!-- Node3&#45;&gt;Node15 -->
<g id="edge18" class="edge">
<title>Node3&#45;&gt;Node15</title>
<path fill="none" stroke="#63b8ff" d="M341.45,-170.37C346.52,-161.9 354.39,-148.74 360.78,-138.07"/>
<polygon fill="#63b8ff" stroke="#63b8ff" points="363.97,-139.55 366.1,-129.17 357.96,-135.95 363.97,-139.55"/>
</g>
<!-- Node4&#45;&gt;Node5 -->
<g id="edge4" class="edge">
<title>Node4&#45;&gt;Node5</title>
<path fill="none" stroke="#63b8ff" d="M456.91,-109.98C399.37,-100.63 307,-85.61 245.73,-75.65"/>
<polygon fill="#63b8ff" stroke="#63b8ff" points="246.23,-72.19 235.8,-74.04 245.11,-79.1 246.23,-72.19"/>
</g>
<!-- Node8 -->
<g id="node8" class="node">
<title>Node8</title>
<g id="a_node8"><a xlink:href="random_8h.html" target="_top" xlink:title=" ">
<polygon fill="white" stroke="#666666" points="433.78,-74 310.78,-74 310.78,-55 433.78,-55 433.78,-74"/>
<text text-anchor="middle" x="372.28" y="-62" font-family="Helvetica,sans-Serif" font-size="10.00">genixx/utils/random.h</text>
</a>
</g>
</g>
<!-- Node4&#45;&gt;Node8 -->
<g id="edge7" class="edge">
<title>Node4&#45;&gt;Node8</title>
<path fill="none" stroke="#63b8ff" d="M487.27,-109.98C464.84,-101.3 429.8,-87.75 404.3,-77.88"/>
<polygon fill="#63b8ff" stroke="#63b8ff" points="405.29,-74.51 394.7,-74.17 402.76,-81.04 405.29,-74.51"/>
</g>
<!-- Node4&#45;&gt;Node9 -->
<g id="edge10" class="edge">
<title>Node4&#45;&gt;Node9</title>
<path fill="none" stroke="#63b8ff" d="M507.16,-109.66C502.93,-92.09 493.38,-52.45 487.73,-28.95"/>
<polygon fill="#63b8ff" stroke="#63b8ff" points="491.11,-28.06 485.37,-19.16 484.31,-29.7 491.11,-28.06"/>
</g>
<!-- Node4&#45;&gt;Node11 -->
<g id="edge11" class="edge">
<title>Node4&#45;&gt;Node11</title>
<path fill="none" stroke="#63b8ff" d="M521.01,-109.98C532.02,-102 548.71,-89.88 561.89,-80.31"/>
<polygon fill="#63b8ff" stroke="#63b8ff" points="564.31,-82.88 570.34,-74.17 560.19,-77.21 564.31,-82.88"/>
</g>
<!-- Node4&#45;&gt;Node12 -->
<g id="edge12" class="edge">
<title>Node4&#45;&gt;Node12</title>
<path fill="none" stroke="#63b8ff" d="M535.47,-109.98C563.53,-100.86 608.14,-86.36 638.75,-76.4"/>
<polygon fill="#63b8ff" stroke="#63b8ff" points="640.12,-79.64 648.55,-73.22 637.95,-72.98 640.12,-79.64"/>
</g>
<!-- Node6 -->
<g id="node6" class="node">
<title>Node6</title>
<g id="a_node6"><a xlink:title=" ">
<polygon fill="#e0e0e0" stroke="#999999" points="215.78,-19 150.78,-19 150.78,0 215.78,0 215.78,-19"/>
<text text-anchor="middle" x="183.28" y="-7" font-family="Helvetica,sans-Serif" font-size="10.00">exception</text>
</a>
</g>
</g>
<!-- Node5&#45;&gt;Node6 -->
<g id="edge5" class="edge">
<title>Node5&#45;&gt;Node6</title>
<path fill="none" stroke="#63b8ff" d="M183.28,-54.75C183.28,-47.8 183.28,-37.85 183.28,-29.13"/>
<polygon fill="#63b8ff" stroke="#63b8ff" points="186.78,-29.09 183.28,-19.09 179.78,-29.09 186.78,-29.09"/>
</g>
<!-- Node5&#45;&gt;Node7 -->
<g id="edge6" class="edge">
<title>Node5&#45;&gt;Node7</title>
<path fill="none" stroke="#63b8ff" d="M197.1,-54.98C210.44,-46.77 230.87,-34.18 246.59,-24.49"/>
<polygon fill="#63b8ff" stroke="#63b8ff" points="248.54,-27.4 255.22,-19.17 244.87,-21.44 248.54,-27.4"/>
</g>
<!-- Node8&#45;&gt;Node9 -->
<g id="edge8" class="edge">
<title>Node8&#45;&gt;Node9</title>
<path fill="none" stroke="#63b8ff" d="M390.12,-54.98C407.89,-46.5 435.43,-33.35 455.96,-23.54"/>
<polygon fill="#63b8ff" stroke="#63b8ff" points="457.61,-26.64 465.13,-19.17 454.59,-20.32 457.61,-26.64"/>
</g>
<!-- Node10 -->
<g id="node10" class="node">
<title>Node10</title>
<g id="a_node10"><a xlink:title=" ">
<polygon fill="#e0e0e0" stroke="#999999" points="399.28,-19 345.28,-19 345.28,0 399.28,0 399.28,-19"/>
<text text-anchor="middle" x="372.28" y="-7" font-family="Helvetica,sans-Serif" font-size="10.00">random</text>
</a>
</g>
</g>
<!-- Node8&#45;&gt;Node10 -->
<g id="edge9" class="edge">
<title>Node8&#45;&gt;Node10</title>
<path fill="none" stroke="#63b8ff" d="M372.28,-54.75C372.28,-47.8 372.28,-37.85 372.28,-29.13"/>
<polygon fill="#63b8ff" stroke="#63b8ff" points="375.78,-29.09 372.28,-19.09 368.78,-29.09 375.78,-29.09"/>
</g>
<!-- Node16&#45;&gt;Node8 -->
<g id="edge21" class="edge">
<title>Node16&#45;&gt;Node8</title>
<path fill="none" stroke="#63b8ff" d="M143.27,-164.75C127.72,-150.03 109.15,-126.88 123.28,-110 134.69,-96.38 231.13,-82.2 300.57,-73.61"/>
<polygon fill="#63b8ff" stroke="#63b8ff" points="301.11,-77.07 310.61,-72.38 300.26,-70.12 301.11,-77.07"/>
</g>
<!-- Node16&#45;&gt;Node13 -->
<g id="edge23" class="edge">
<title>Node16&#45;&gt;Node13</title>
<path fill="none" stroke="#63b8ff" d="M161.5,-164.84C162.15,-157.21 162.96,-147.7 163.67,-139.45"/>
<polygon fill="#63b8ff" stroke="#63b8ff" points="167.17,-139.53 164.54,-129.27 160.2,-138.93 167.17,-139.53"/>
</g>
<!-- Node16&#45;&gt;Node14 -->
<g id="edge24" class="edge">
<title>Node16&#45;&gt;Node14</title>
<path fill="none" stroke="#63b8ff" d="M178.44,-164.84C189.77,-156 204.35,-144.63 215.9,-135.62"/>
<polygon fill="#63b8ff" stroke="#63b8ff" points="218.31,-138.18 224.05,-129.27 214.01,-132.66 218.31,-138.18"/>
</g>
<!-- Node16&#45;&gt;Node17 -->
<g id="edge22" class="edge">
<title>Node16&#45;&gt;Node17</title>
<path fill="none" stroke="#63b8ff" d="M132.5,-164.99C113.66,-155.49 88.93,-143.02 70.45,-133.69"/>
<polygon fill="#63b8ff" stroke="#63b8ff" points="71.92,-130.52 61.42,-129.14 68.77,-136.77 71.92,-130.52"/>
</g>
</g>
</svg>
