<?xml version="1.0" encoding="UTF-8" standalone="no"?>
<!DOCTYPE svg PUBLIC "-//W3C//DTD SVG 1.1//EN"
 "http://www.w3.org/Graphics/SVG/1.1/DTD/svg11.dtd">
<!-- Generated by graphviz version 2.43.0 (0)
 -->
<!-- Title: lib/population/Population.cpp Pages: 1 -->
<svg width="1044pt" height="423pt"
 viewBox="0.00 0.00 1044.00 423.00" xmlns="http://www.w3.org/2000/svg" xmlns:xlink="http://www.w3.org/1999/xlink">
<g id="graph0" class="graph" transform="scale(1 1) rotate(0) translate(4 419)">
<title>lib/population/Population.cpp</title>
<!-- Node1 -->
<g id="node1" class="node">
<title>Node1</title>
<g id="a_node1"><a xlink:title=" ">
<polygon fill="#999999" stroke="#666666" points="884,-415 726,-415 726,-396 884,-396 884,-415"/>
<text text-anchor="middle" x="805" y="-403" font-family="Helvetica,sans-Serif" font-size="10.00">lib/population/Population.cpp</text>
</a>
</g>
</g>
<!-- Node2 -->
<g id="node2" class="node">
<title>Node2</title>
<g id="a_node2"><a xlink:href="Population_8h.html" target="_top" xlink:title=" ">
<polygon fill="white" stroke="#666666" points="338,-360 170,-360 170,-341 338,-341 338,-360"/>
<text text-anchor="middle" x="254" y="-348" font-family="Helvetica,sans-Serif" font-size="10.00">genixx/population/Population.h</text>
</a>
</g>
</g>
<!-- Node1&#45;&gt;Node2 -->
<g id="edge1" class="edge">
<title>Node1&#45;&gt;Node2</title>
<path fill="none" stroke="#63b8ff" d="M725.76,-396.88C625.94,-387.28 454.63,-370.8 348.21,-360.56"/>
<polygon fill="#63b8ff" stroke="#63b8ff" points="348.41,-357.07 338.12,-359.59 347.74,-364.03 348.41,-357.07"/>
</g>
<!-- Node5 -->
<g id="node5" class="node">
<title>Node5</title>
<g id="a_node5"><a xlink:href="exceptions_8h.html" target="_top" xlink:title=" ">
<polygon fill="white" stroke="#666666" points="710.5,-74 569.5,-74 569.5,-55 710.5,-55 710.5,-74"/>
<text text-anchor="middle" x="640" y="-62" font-family="Helvetica,sans-Serif" font-size="10.00">genixx/error/exceptions.h</text>
</a>
</g>
</g>
<!-- Node1&#45;&gt;Node5 -->
<g id="edge33" class="edge">
<title>Node1&#45;&gt;Node5</title>
<path fill="none" stroke="#63b8ff" d="M796.87,-395.98C789.18,-387.49 777.83,-373.76 771,-360 756.86,-331.51 752,-322.81 752,-291 752,-291 752,-291 752,-173.5 752,-127.77 703.02,-95.29 669.84,-78.54"/>
<polygon fill="#63b8ff" stroke="#63b8ff" points="671.07,-75.24 660.54,-74.04 668.02,-81.54 671.07,-75.24"/>
</g>
<!-- Node20 -->
<g id="node20" class="node">
<title>Node20</title>
<g id="a_node20"><a xlink:title=" ">
<polygon fill="#e0e0e0" stroke="#999999" points="724,-239 660,-239 660,-220 724,-220 724,-239"/>
<text text-anchor="middle" x="692" y="-227" font-family="Helvetica,sans-Serif" font-size="10.00">algorithm</text>
</a>
</g>
</g>
<!-- Node1&#45;&gt;Node20 -->
<g id="edge34" class="edge">
<title>Node1&#45;&gt;Node20</title>
<path fill="none" stroke="#63b8ff" d="M785.77,-395.97C770.85,-388.45 750.63,-376.18 738,-360 711.66,-326.27 699.65,-276.23 694.82,-249.29"/>
<polygon fill="#63b8ff" stroke="#63b8ff" points="698.25,-248.58 693.17,-239.28 691.34,-249.72 698.25,-248.58"/>
</g>
<!-- Node21 -->
<g id="node21" class="node">
<title>Node21</title>
<g id="a_node21"><a xlink:title=" ">
<polygon fill="#e0e0e0" stroke="#999999" points="830,-360 780,-360 780,-341 830,-341 830,-360"/>
<text text-anchor="middle" x="805" y="-348" font-family="Helvetica,sans-Serif" font-size="10.00">chrono</text>
</a>
</g>
</g>
<!-- Node1&#45;&gt;Node21 -->
<g id="edge35" class="edge">
<title>Node1&#45;&gt;Node21</title>
<path fill="none" stroke="#63b8ff" d="M805,-395.75C805,-388.8 805,-378.85 805,-370.13"/>
<polygon fill="#63b8ff" stroke="#63b8ff" points="808.5,-370.09 805,-360.09 801.5,-370.09 808.5,-370.09"/>
</g>
<!-- Node22 -->
<g id="node22" class="node">
<title>Node22</title>
<g id="a_node22"><a xlink:title=" ">
<polygon fill="#e0e0e0" stroke="#999999" points="896,-360 848,-360 848,-341 896,-341 896,-360"/>
<text text-anchor="middle" x="872" y="-348" font-family="Helvetica,sans-Serif" font-size="10.00">mutex</text>
</a>
</g>
</g>
<!-- Node1&#45;&gt;Node22 -->
<g id="edge36" class="edge">
<title>Node1&#45;&gt;Node22</title>
<path fill="none" stroke="#63b8ff" d="M815.76,-395.98C825.77,-388.07 840.89,-376.11 852.93,-366.58"/>
<polygon fill="#63b8ff" stroke="#63b8ff" points="855.37,-369.12 861.04,-360.17 851.03,-363.63 855.37,-369.12"/>
</g>
<!-- Node23 -->
<g id="node23" class="node">
<title>Node23</title>
<g id="a_node23"><a xlink:title=" ">
<polygon fill="#e0e0e0" stroke="#999999" points="970,-360 914,-360 914,-341 970,-341 970,-360"/>
<text text-anchor="middle" x="942" y="-348" font-family="Helvetica,sans-Serif" font-size="10.00">numeric</text>
</a>
</g>
</g>
<!-- Node1&#45;&gt;Node23 -->
<g id="edge37" class="edge">
<title>Node1&#45;&gt;Node23</title>
<path fill="none" stroke="#63b8ff" d="M827.01,-395.98C849.45,-387.3 884.48,-373.75 909.99,-363.88"/>
<polygon fill="#63b8ff" stroke="#63b8ff" points="911.52,-367.04 919.59,-360.17 909,-360.51 911.52,-367.04"/>
</g>
<!-- Node24 -->
<g id="node24" class="node">
<title>Node24</title>
<g id="a_node24"><a xlink:title=" ">
<polygon fill="#e0e0e0" stroke="#999999" points="1036,-360 988,-360 988,-341 1036,-341 1036,-360"/>
<text text-anchor="middle" x="1012" y="-348" font-family="Helvetica,sans-Serif" font-size="10.00">thread</text>
</a>
</g>
</g>
<!-- Node1&#45;&gt;Node24 -->
<g id="edge38" class="edge">
<title>Node1&#45;&gt;Node24</title>
<path fill="none" stroke="#63b8ff" d="M838.36,-395.99C871.41,-387.55 923.72,-374.18 978.05,-360.24"/>
<polygon fill="#63b8ff" stroke="#63b8ff" points="979.03,-363.6 987.85,-357.73 977.29,-356.82 979.03,-363.6"/>
</g>
<!-- Node3 -->
<g id="node3" class="node">
<title>Node3</title>
<g id="a_node3"><a xlink:href="Individual_8h.html" target="_top" xlink:title=" ">
<polygon fill="white" stroke="#666666" points="336,-239 172,-239 172,-220 336,-220 336,-239"/>
<text text-anchor="middle" x="254" y="-227" font-family="Helvetica,sans-Serif" font-size="10.00">genixx/population/Individual.h</text>
</a>
</g>
</g>
<!-- Node2&#45;&gt;Node3 -->
<g id="edge2" class="edge">
<title>Node2&#45;&gt;Node3</title>
<path fill="none" stroke="#63b8ff" d="M254,-340.94C254,-321.91 254,-275.69 254,-249.47"/>
<polygon fill="#63b8ff" stroke="#63b8ff" points="257.5,-249.3 254,-239.3 250.5,-249.3 257.5,-249.3"/>
</g>
<!-- Node11 -->
<g id="node11" class="node">
<title>Node11</title>
<g id="a_node11"><a xlink:title=" ">
<polygon fill="#e0e0e0" stroke="#999999" points="190,-74 140,-74 140,-55 190,-55 190,-74"/>
<text text-anchor="middle" x="165" y="-62" font-family="Helvetica,sans-Serif" font-size="10.00">cstdint</text>
</a>
</g>
</g>
<!-- Node2&#45;&gt;Node11 -->
<g id="edge31" class="edge">
<title>Node2&#45;&gt;Node11</title>
<path fill="none" stroke="#63b8ff" d="M169.77,-344.22C95.84,-334.48 0,-307.08 0,-230.5 0,-230.5 0,-230.5 0,-173.5 0,-111.81 81.74,-83.46 130.16,-72.08"/>
<polygon fill="#63b8ff" stroke="#63b8ff" points="130.94,-75.49 139.94,-69.9 129.42,-68.65 130.94,-75.49"/>
</g>
<!-- Node15 -->
<g id="node15" class="node">
<title>Node15</title>
<g id="a_node15"><a xlink:title=" ">
<polygon fill="#e0e0e0" stroke="#999999" points="189.5,-129 142.5,-129 142.5,-110 189.5,-110 189.5,-129"/>
<text text-anchor="middle" x="166" y="-117" font-family="Helvetica,sans-Serif" font-size="10.00">vector</text>
</a>
</g>
</g>
<!-- Node2&#45;&gt;Node15 -->
<g id="edge32" class="edge">
<title>Node2&#45;&gt;Node15</title>
<path fill="none" stroke="#63b8ff" d="M243.34,-340.84C223.3,-323.8 180.42,-283.69 163,-239 150.03,-205.73 156.02,-163.12 161.23,-139.12"/>
<polygon fill="#63b8ff" stroke="#63b8ff" points="164.67,-139.76 163.56,-129.22 157.86,-138.15 164.67,-139.76"/>
</g>
<!-- Node19 -->
<g id="node19" class="node">
<title>Node19</title>
<g id="a_node19"><a xlink:href="method_8h.html" target="_top" xlink:title=" ">
<polygon fill="white" stroke="#666666" points="624,-305 472,-305 472,-275 624,-275 624,-305"/>
<text text-anchor="start" x="480" y="-293" font-family="Helvetica,sans-Serif" font-size="10.00">genixx/population/selection</text>
<text text-anchor="middle" x="548" y="-282" font-family="Helvetica,sans-Serif" font-size="10.00">/method.h</text>
</a>
</g>
</g>
<!-- Node2&#45;&gt;Node19 -->
<g id="edge25" class="edge">
<title>Node2&#45;&gt;Node19</title>
<path fill="none" stroke="#63b8ff" d="M296.75,-340.99C341.35,-332.12 412.34,-317.99 467.5,-307.02"/>
<polygon fill="#63b8ff" stroke="#63b8ff" points="468.48,-310.39 477.6,-305.01 467.11,-303.53 468.48,-310.39"/>
</g>
<!-- Node4 -->
<g id="node4" class="node">
<title>Node4</title>
<g id="a_node4"><a xlink:href="Chromosome_8h.html" target="_top" xlink:title=" ">
<polygon fill="white" stroke="#666666" points="476,-184 282,-184 282,-165 476,-165 476,-184"/>
<text text-anchor="middle" x="379" y="-172" font-family="Helvetica,sans-Serif" font-size="10.00">genixx/chromosome/Chromosome.h</text>
</a>
</g>
</g>
<!-- Node3&#45;&gt;Node4 -->
<g id="edge3" class="edge">
<title>Node3&#45;&gt;Node4</title>
<path fill="none" stroke="#63b8ff" d="M274.08,-219.98C294.37,-211.38 325.96,-197.99 349.17,-188.15"/>
<polygon fill="#63b8ff" stroke="#63b8ff" points="350.71,-191.3 358.55,-184.17 347.98,-184.85 350.71,-191.3"/>
</g>
<!-- Node7 -->
<g id="node7" class="node">
<title>Node7</title>
<g id="a_node7"><a xlink:title=" ">
<polygon fill="#e0e0e0" stroke="#999999" points="325,-19 281,-19 281,0 325,0 325,-19"/>
<text text-anchor="middle" x="303" y="-7" font-family="Helvetica,sans-Serif" font-size="10.00">string</text>
</a>
</g>
</g>
<!-- Node3&#45;&gt;Node7 -->
<g id="edge22" class="edge">
<title>Node3&#45;&gt;Node7</title>
<path fill="none" stroke="#63b8ff" d="M201.9,-220C179.21,-213.71 154.16,-202.82 138,-184 100.59,-140.44 93.83,-98.76 131,-55 148.89,-33.94 225.96,-20.57 270.63,-14.43"/>
<polygon fill="#63b8ff" stroke="#63b8ff" points="271.25,-17.88 280.7,-13.1 270.33,-10.94 271.25,-17.88"/>
</g>
<!-- Node3&#45;&gt;Node11 -->
<g id="edge18" class="edge">
<title>Node3&#45;&gt;Node11</title>
<path fill="none" stroke="#63b8ff" d="M223.28,-219.93C203.18,-213.01 177.49,-201.5 160,-184 135.36,-159.34 123.56,-143.26 134,-110 137.23,-99.71 143.78,-89.72 150.03,-81.82"/>
<polygon fill="#63b8ff" stroke="#63b8ff" points="152.73,-84.04 156.52,-74.15 147.39,-79.52 152.73,-84.04"/>
</g>
<!-- Node14 -->
<g id="node14" class="node">
<title>Node14</title>
<g id="a_node14"><a xlink:title=" ">
<polygon fill="#e0e0e0" stroke="#999999" points="283,-129 225,-129 225,-110 283,-110 283,-129"/>
<text text-anchor="middle" x="254" y="-117" font-family="Helvetica,sans-Serif" font-size="10.00">memory</text>
</a>
</g>
</g>
<!-- Node3&#45;&gt;Node14 -->
<g id="edge21" class="edge">
<title>Node3&#45;&gt;Node14</title>
<path fill="none" stroke="#63b8ff" d="M254,-219.66C254,-202.17 254,-162.8 254,-139.27"/>
<polygon fill="#63b8ff" stroke="#63b8ff" points="257.5,-139.16 254,-129.16 250.5,-139.16 257.5,-139.16"/>
</g>
<!-- Node3&#45;&gt;Node15 -->
<g id="edge24" class="edge">
<title>Node3&#45;&gt;Node15</title>
<path fill="none" stroke="#63b8ff" d="M223.22,-219.85C205.22,-213.11 183.79,-201.84 172,-184 163.32,-170.86 162.43,-152.73 163.36,-139.2"/>
<polygon fill="#63b8ff" stroke="#63b8ff" points="166.85,-139.45 164.43,-129.14 159.89,-138.71 166.85,-139.45"/>
</g>
<!-- Node16 -->
<g id="node16" class="node">
<title>Node16</title>
<g id="a_node16"><a xlink:title=" ">
<polygon fill="#e0e0e0" stroke="#999999" points="615.5,-184 550.5,-184 550.5,-165 615.5,-165 615.5,-184"/>
<text text-anchor="middle" x="583" y="-172" font-family="Helvetica,sans-Serif" font-size="10.00">functional</text>
</a>
</g>
</g>
<!-- Node3&#45;&gt;Node16 -->
<g id="edge19" class="edge">
<title>Node3&#45;&gt;Node16</title>
<path fill="none" stroke="#63b8ff" d="M314.33,-219.97C370.28,-211.87 456.1,-198.97 540.46,-184.02"/>
<polygon fill="#63b8ff" stroke="#63b8ff" points="541.24,-187.44 550.47,-182.24 540.01,-180.55 541.24,-187.44"/>
</g>
<!-- Node17 -->
<g id="node17" class="node">
<title>Node17</title>
<g id="a_node17"><a xlink:title=" ">
<polygon fill="#e0e0e0" stroke="#999999" points="532,-184 494,-184 494,-165 532,-165 532,-184"/>
<text text-anchor="middle" x="513" y="-172" font-family="Helvetica,sans-Serif" font-size="10.00">map</text>
</a>
</g>
</g>
<!-- Node3&#45;&gt;Node17 -->
<g id="edge20" class="edge">
<title>Node3&#45;&gt;Node17</title>
<path fill="none" stroke="#63b8ff" d="M306.63,-219.97C351.47,-212.35 417.77,-200.21 484.02,-184.03"/>
<polygon fill="#63b8ff" stroke="#63b8ff" points="484.93,-187.42 493.79,-181.62 483.25,-180.62 484.93,-187.42"/>
</g>
<!-- Node18 -->
<g id="node18" class="node">
<title>Node18</title>
<g id="a_node18"><a xlink:title=" ">
<polygon fill="#e0e0e0" stroke="#999999" points="225.5,-184 180.5,-184 180.5,-165 225.5,-165 225.5,-184"/>
<text text-anchor="middle" x="203" y="-172" font-family="Helvetica,sans-Serif" font-size="10.00">utility</text>
</a>
</g>
</g>
<!-- Node3&#45;&gt;Node18 -->
<g id="edge23" class="edge">
<title>Node3&#45;&gt;Node18</title>
<path fill="none" stroke="#63b8ff" d="M245.58,-219.75C238.23,-212.11 227.37,-200.82 218.46,-191.56"/>
<polygon fill="#63b8ff" stroke="#63b8ff" points="220.72,-188.87 211.26,-184.09 215.68,-193.72 220.72,-188.87"/>
</g>
<!-- Node4&#45;&gt;Node5 -->
<g id="edge4" class="edge">
<title>Node4&#45;&gt;Node5</title>
<path fill="none" stroke="#63b8ff" d="M407.49,-164.97C434.29,-156.68 475.36,-143.28 510,-129 547.27,-113.64 588.91,-92.58 614.78,-79.01"/>
<polygon fill="#63b8ff" stroke="#63b8ff" points="616.68,-81.96 623.89,-74.2 613.41,-75.77 616.68,-81.96"/>
</g>
<!-- Node8 -->
<g id="node8" class="node">
<title>Node8</title>
<g id="a_node8"><a xlink:href="random_8h.html" target="_top" xlink:title=" ">
<polygon fill="white" stroke="#666666" points="500.5,-129 377.5,-129 377.5,-110 500.5,-110 500.5,-129"/>
<text text-anchor="middle" x="439" y="-117" font-family="Helvetica,sans-Serif" font-size="10.00">genixx/utils/random.h</text>
</a>
</g>
</g>
<!-- Node4&#45;&gt;Node8 -->
<g id="edge7" class="edge">
<title>Node4&#45;&gt;Node8</title>
<path fill="none" stroke="#63b8ff" d="M388.64,-164.98C397.51,-157.15 410.87,-145.34 421.61,-135.86"/>
<polygon fill="#63b8ff" stroke="#63b8ff" points="424.01,-138.41 429.18,-129.17 419.37,-133.17 424.01,-138.41"/>
</g>
<!-- Node4&#45;&gt;Node11 -->
<g id="edge14" class="edge">
<title>Node4&#45;&gt;Node11</title>
<path fill="none" stroke="#63b8ff" d="M369.2,-164.84C353.73,-151.53 322.29,-125.92 292,-110 262.42,-94.46 226.26,-82.39 200.09,-74.77"/>
<polygon fill="#63b8ff" stroke="#63b8ff" points="200.82,-71.34 190.24,-71.97 198.91,-78.07 200.82,-71.34"/>
</g>
<!-- Node13 -->
<g id="node13" class="node">
<title>Node13</title>
<g id="a_node13"><a xlink:title=" ">
<polygon fill="#e0e0e0" stroke="#999999" points="328.5,-74 259.5,-74 259.5,-55 328.5,-55 328.5,-74"/>
<text text-anchor="middle" x="294" y="-62" font-family="Helvetica,sans-Serif" font-size="10.00">type_traits</text>
</a>
</g>
</g>
<!-- Node4&#45;&gt;Node13 -->
<g id="edge16" class="edge">
<title>Node4&#45;&gt;Node13</title>
<path fill="none" stroke="#63b8ff" d="M372.04,-164.66C357.84,-146.61 325.31,-105.28 307.05,-82.08"/>
<polygon fill="#63b8ff" stroke="#63b8ff" points="309.75,-79.85 300.81,-74.16 304.25,-84.18 309.75,-79.85"/>
</g>
<!-- Node4&#45;&gt;Node14 -->
<g id="edge15" class="edge">
<title>Node4&#45;&gt;Node14</title>
<path fill="none" stroke="#63b8ff" d="M358.92,-164.98C338.63,-156.38 307.04,-142.99 283.83,-133.15"/>
<polygon fill="#63b8ff" stroke="#63b8ff" points="285.02,-129.85 274.45,-129.17 282.29,-136.3 285.02,-129.85"/>
</g>
<!-- Node4&#45;&gt;Node15 -->
<g id="edge17" class="edge">
<title>Node4&#45;&gt;Node15</title>
<path fill="none" stroke="#63b8ff" d="M344.78,-164.98C304.75,-155.02 238.93,-138.65 199.31,-128.79"/>
<polygon fill="#63b8ff" stroke="#63b8ff" points="200.14,-125.39 189.59,-126.37 198.45,-132.18 200.14,-125.39"/>
</g>
<!-- Node6 -->
<g id="node6" class="node">
<title>Node6</title>
<g id="a_node6"><a xlink:title=" ">
<polygon fill="#e0e0e0" stroke="#999999" points="672.5,-19 607.5,-19 607.5,0 672.5,0 672.5,-19"/>
<text text-anchor="middle" x="640" y="-7" font-family="Helvetica,sans-Serif" font-size="10.00">exception</text>
</a>
</g>
</g>
<!-- Node5&#45;&gt;Node6 -->
<g id="edge5" class="edge">
<title>Node5&#45;&gt;Node6</title>
<path fill="none" stroke="#63b8ff" d="M640,-54.75C640,-47.8 640,-37.85 640,-29.13"/>
<polygon fill="#63b8ff" stroke="#63b8ff" points="643.5,-29.09 640,-19.09 636.5,-29.09 643.5,-29.09"/>
</g>
<!-- Node5&#45;&gt;Node7 -->
<g id="edge6" class="edge">
<title>Node5&#45;&gt;Node7</title>
<path fill="none" stroke="#63b8ff" d="M585.86,-54.98C514.92,-43.83 392.78,-24.62 335.03,-15.54"/>
<polygon fill="#63b8ff" stroke="#63b8ff" points="335.45,-12.06 325.02,-13.96 334.36,-18.97 335.45,-12.06"/>
</g>
<!-- Node8&#45;&gt;Node5 -->
<g id="edge8" class="edge">
<title>Node8&#45;&gt;Node5</title>
<path fill="none" stroke="#63b8ff" d="M471.29,-109.98C505.62,-100.93 560.06,-86.58 597.77,-76.64"/>
<polygon fill="#63b8ff" stroke="#63b8ff" points="598.68,-80.02 607.45,-74.08 596.89,-73.25 598.68,-80.02"/>
</g>
<!-- Node9 -->
<g id="node9" class="node">
<title>Node9</title>
<g id="a_node9"><a xlink:title=" ">
<polygon fill="#e0e0e0" stroke="#999999" points="551.5,-74 484.5,-74 484.5,-55 551.5,-55 551.5,-74"/>
<text text-anchor="middle" x="518" y="-62" font-family="Helvetica,sans-Serif" font-size="10.00">fmt/core.h</text>
</a>
</g>
</g>
<!-- Node8&#45;&gt;Node9 -->
<g id="edge9" class="edge">
<title>Node8&#45;&gt;Node9</title>
<path fill="none" stroke="#63b8ff" d="M451.69,-109.98C463.83,-101.84 482.36,-89.41 496.75,-79.76"/>
<polygon fill="#63b8ff" stroke="#63b8ff" points="498.72,-82.65 505.08,-74.17 494.82,-76.84 498.72,-82.65"/>
</g>
<!-- Node10 -->
<g id="node10" class="node">
<title>Node10</title>
<g id="a_node10"><a xlink:title=" ">
<polygon fill="#e0e0e0" stroke="#999999" points="393.5,-74 346.5,-74 346.5,-55 393.5,-55 393.5,-74"/>
<text text-anchor="middle" x="370" y="-62" font-family="Helvetica,sans-Serif" font-size="10.00">cmath</text>
</a>
</g>
</g>
<!-- Node8&#45;&gt;Node10 -->
<g id="edge10" class="edge">
<title>Node8&#45;&gt;Node10</title>
<path fill="none" stroke="#63b8ff" d="M427.91,-109.98C417.51,-102 401.74,-89.88 389.28,-80.31"/>
<polygon fill="#63b8ff" stroke="#63b8ff" points="391.35,-77.49 381.29,-74.17 387.09,-83.04 391.35,-77.49"/>
</g>
<!-- Node8&#45;&gt;Node11 -->
<g id="edge11" class="edge">
<title>Node8&#45;&gt;Node11</title>
<path fill="none" stroke="#63b8ff" d="M394.98,-109.98C340.74,-99.49 249.71,-81.88 199.99,-72.27"/>
<polygon fill="#63b8ff" stroke="#63b8ff" points="200.52,-68.81 190.04,-70.34 199.2,-75.68 200.52,-68.81"/>
</g>
<!-- Node12 -->
<g id="node12" class="node">
<title>Node12</title>
<g id="a_node12"><a xlink:title=" ">
<polygon fill="#e0e0e0" stroke="#999999" points="466,-74 412,-74 412,-55 466,-55 466,-74"/>
<text text-anchor="middle" x="439" y="-62" font-family="Helvetica,sans-Serif" font-size="10.00">random</text>
</a>
</g>
</g>
<!-- Node8&#45;&gt;Node12 -->
<g id="edge12" class="edge">
<title>Node8&#45;&gt;Node12</title>
<path fill="none" stroke="#63b8ff" d="M439,-109.75C439,-102.8 439,-92.85 439,-84.13"/>
<polygon fill="#63b8ff" stroke="#63b8ff" points="442.5,-84.09 439,-74.09 435.5,-84.09 442.5,-84.09"/>
</g>
<!-- Node8&#45;&gt;Node13 -->
<g id="edge13" class="edge">
<title>Node8&#45;&gt;Node13</title>
<path fill="none" stroke="#63b8ff" d="M415.7,-109.98C391.75,-101.23 354.22,-87.51 327.17,-77.62"/>
<polygon fill="#63b8ff" stroke="#63b8ff" points="328.31,-74.32 317.72,-74.17 325.91,-80.89 328.31,-74.32"/>
</g>
<!-- Node19&#45;&gt;Node3 -->
<g id="edge26" class="edge">
<title>Node19&#45;&gt;Node3</title>
<path fill="none" stroke="#63b8ff" d="M477.58,-274.99C425.08,-264.54 354.51,-250.5 306.81,-241.01"/>
<polygon fill="#63b8ff" stroke="#63b8ff" points="307.48,-237.57 296.99,-239.05 306.11,-244.44 307.48,-237.57"/>
</g>
<!-- Node19&#45;&gt;Node8 -->
<g id="edge27" class="edge">
<title>Node19&#45;&gt;Node8</title>
<path fill="none" stroke="#63b8ff" d="M568.16,-274.94C599.74,-251.22 654.35,-202.2 625,-165 610.68,-146.85 556.88,-135.27 510.81,-128.5"/>
<polygon fill="#63b8ff" stroke="#63b8ff" points="511.2,-125.02 500.81,-127.08 510.22,-131.95 511.2,-125.02"/>
</g>
<!-- Node19&#45;&gt;Node16 -->
<g id="edge29" class="edge">
<title>Node19&#45;&gt;Node16</title>
<path fill="none" stroke="#63b8ff" d="M552.43,-274.63C558.76,-254.12 570.37,-216.47 577.32,-193.93"/>
<polygon fill="#63b8ff" stroke="#63b8ff" points="580.71,-194.82 580.31,-184.23 574.02,-192.75 580.71,-194.82"/>
</g>
<!-- Node19&#45;&gt;Node17 -->
<g id="edge30" class="edge">
<title>Node19&#45;&gt;Node17</title>
<path fill="none" stroke="#63b8ff" d="M543.57,-274.63C537.24,-254.12 525.63,-216.47 518.68,-193.93"/>
<polygon fill="#63b8ff" stroke="#63b8ff" points="521.98,-192.75 515.69,-184.23 515.29,-194.82 521.98,-192.75"/>
</g>
<!-- Node19&#45;&gt;Node20 -->
<g id="edge28" class="edge">
<title>Node19&#45;&gt;Node20</title>
<path fill="none" stroke="#63b8ff" d="M582.49,-274.99C606.52,-265.23 638.27,-252.33 661.4,-242.93"/>
<polygon fill="#63b8ff" stroke="#63b8ff" points="662.79,-246.15 670.73,-239.14 660.15,-239.66 662.79,-246.15"/>
</g>
</g>
</svg>
