<?xml version="1.0" encoding="UTF-8" standalone="no"?>
<!DOCTYPE svg PUBLIC "-//W3C//DTD SVG 1.1//EN"
 "http://www.w3.org/Graphics/SVG/1.1/DTD/svg11.dtd">
<!-- Generated by graphviz version 2.43.0 (0)
 -->
<!-- Title: lib/utils/include/genixx/utils/random.h Pages: 1 -->
<svg width="527pt" height="148pt"
 viewBox="0.00 0.00 527.00 148.00" xmlns="http://www.w3.org/2000/svg" xmlns:xlink="http://www.w3.org/1999/xlink">
<g id="graph0" class="graph" transform="scale(1 1) rotate(0) translate(4 144)">
<title>lib/utils/include/genixx/utils/random.h</title>
<!-- Node1 -->
<g id="node1" class="node">
<title>Node1</title>
<g id="a_node1"><a xlink:title=" ">
<polygon fill="#999999" stroke="#666666" points="364,-140 237,-140 237,-110 364,-110 364,-140"/>
<text text-anchor="start" x="245" y="-128" font-family="Helvetica,sans-Serif" font-size="10.00">lib/utils/include/genixx</text>
<text text-anchor="middle" x="300.5" y="-117" font-family="Helvetica,sans-Serif" font-size="10.00">/utils/random.h</text>
</a>
</g>
</g>
<!-- Node2 -->
<g id="node2" class="node">
<title>Node2</title>
<g id="a_node2"><a xlink:href="exceptions_8h.html" target="_top" xlink:title=" ">
<polygon fill="white" stroke="#666666" points="141,-74 0,-74 0,-55 141,-55 141,-74"/>
<text text-anchor="middle" x="70.5" y="-62" font-family="Helvetica,sans-Serif" font-size="10.00">genixx/error/exceptions.h</text>
</a>
</g>
</g>
<!-- Node1&#45;&gt;Node2 -->
<g id="edge1" class="edge">
<title>Node1&#45;&gt;Node2</title>
<path fill="none" stroke="#63b8ff" d="M245.41,-109.99C205.2,-99.76 151.44,-86.09 114.18,-76.61"/>
<polygon fill="#63b8ff" stroke="#63b8ff" points="114.68,-73.13 104.13,-74.05 112.96,-79.91 114.68,-73.13"/>
</g>
<!-- Node5 -->
<g id="node5" class="node">
<title>Node5</title>
<g id="a_node5"><a xlink:title=" ">
<polygon fill="#e0e0e0" stroke="#999999" points="226,-74 159,-74 159,-55 226,-55 226,-74"/>
<text text-anchor="middle" x="192.5" y="-62" font-family="Helvetica,sans-Serif" font-size="10.00">fmt/core.h</text>
</a>
</g>
</g>
<!-- Node1&#45;&gt;Node5 -->
<g id="edge4" class="edge">
<title>Node1&#45;&gt;Node5</title>
<path fill="none" stroke="#63b8ff" d="M274.63,-109.99C257.26,-100.58 234.49,-88.24 217.33,-78.95"/>
<polygon fill="#63b8ff" stroke="#63b8ff" points="218.91,-75.82 208.45,-74.14 215.58,-81.98 218.91,-75.82"/>
</g>
<!-- Node6 -->
<g id="node6" class="node">
<title>Node6</title>
<g id="a_node6"><a xlink:title=" ">
<polygon fill="#e0e0e0" stroke="#999999" points="291,-74 244,-74 244,-55 291,-55 291,-74"/>
<text text-anchor="middle" x="267.5" y="-62" font-family="Helvetica,sans-Serif" font-size="10.00">cmath</text>
</a>
</g>
</g>
<!-- Node1&#45;&gt;Node6 -->
<g id="edge5" class="edge">
<title>Node1&#45;&gt;Node6</title>
<path fill="none" stroke="#63b8ff" d="M292.51,-109.84C287.97,-101.78 282.23,-91.62 277.4,-83.06"/>
<polygon fill="#63b8ff" stroke="#63b8ff" points="280.41,-81.26 272.44,-74.27 274.31,-84.7 280.41,-81.26"/>
</g>
<!-- Node7 -->
<g id="node7" class="node">
<title>Node7</title>
<g id="a_node7"><a xlink:title=" ">
<polygon fill="#e0e0e0" stroke="#999999" points="359.5,-74 309.5,-74 309.5,-55 359.5,-55 359.5,-74"/>
<text text-anchor="middle" x="334.5" y="-62" font-family="Helvetica,sans-Serif" font-size="10.00">cstdint</text>
</a>
</g>
</g>
<!-- Node1&#45;&gt;Node7 -->
<g id="edge6" class="edge">
<title>Node1&#45;&gt;Node7</title>
<path fill="none" stroke="#63b8ff" d="M308.73,-109.84C313.41,-101.78 319.32,-91.62 324.3,-83.06"/>
<polygon fill="#63b8ff" stroke="#63b8ff" points="327.41,-84.67 329.41,-74.27 321.35,-81.15 327.41,-84.67"/>
</g>
<!-- Node8 -->
<g id="node8" class="node">
<title>Node8</title>
<g id="a_node8"><a xlink:title=" ">
<polygon fill="#e0e0e0" stroke="#999999" points="431.5,-74 377.5,-74 377.5,-55 431.5,-55 431.5,-74"/>
<text text-anchor="middle" x="404.5" y="-62" font-family="Helvetica,sans-Serif" font-size="10.00">random</text>
</a>
</g>
</g>
<!-- Node1&#45;&gt;Node8 -->
<g id="edge7" class="edge">
<title>Node1&#45;&gt;Node8</title>
<path fill="none" stroke="#63b8ff" d="M325.41,-109.99C341.99,-100.66 363.66,-88.47 380.13,-79.21"/>
<polygon fill="#63b8ff" stroke="#63b8ff" points="382.14,-82.09 389.14,-74.14 378.71,-75.99 382.14,-82.09"/>
</g>
<!-- Node9 -->
<g id="node9" class="node">
<title>Node9</title>
<g id="a_node9"><a xlink:title=" ">
<polygon fill="#e0e0e0" stroke="#999999" points="519,-74 450,-74 450,-55 519,-55 519,-74"/>
<text text-anchor="middle" x="484.5" y="-62" font-family="Helvetica,sans-Serif" font-size="10.00">type_traits</text>
</a>
</g>
</g>
<!-- Node1&#45;&gt;Node9 -->
<g id="edge8" class="edge">
<title>Node1&#45;&gt;Node9</title>
<path fill="none" stroke="#63b8ff" d="M344.57,-109.99C376.19,-99.94 418.28,-86.55 448.02,-77.1"/>
<polygon fill="#63b8ff" stroke="#63b8ff" points="449.13,-80.42 457.6,-74.05 447.01,-73.75 449.13,-80.42"/>
</g>
<!-- Node3 -->
<g id="node3" class="node">
<title>Node3</title>
<g id="a_node3"><a xlink:title=" ">
<polygon fill="#e0e0e0" stroke="#999999" points="67,-19 2,-19 2,0 67,0 67,-19"/>
<text text-anchor="middle" x="34.5" y="-7" font-family="Helvetica,sans-Serif" font-size="10.00">exception</text>
</a>
</g>
</g>
<!-- Node2&#45;&gt;Node3 -->
<g id="edge2" class="edge">
<title>Node2&#45;&gt;Node3</title>
<path fill="none" stroke="#63b8ff" d="M64.56,-54.75C59.52,-47.34 52.16,-36.5 45.99,-27.41"/>
<polygon fill="#63b8ff" stroke="#63b8ff" points="48.85,-25.39 40.33,-19.09 43.06,-29.33 48.85,-25.39"/>
</g>
<!-- Node4 -->
<g id="node4" class="node">
<title>Node4</title>
<g id="a_node4"><a xlink:title=" ">
<polygon fill="#e0e0e0" stroke="#999999" points="129.5,-19 85.5,-19 85.5,0 129.5,0 129.5,-19"/>
<text text-anchor="middle" x="107.5" y="-7" font-family="Helvetica,sans-Serif" font-size="10.00">string</text>
</a>
</g>
</g>
<!-- Node2&#45;&gt;Node4 -->
<g id="edge3" class="edge">
<title>Node2&#45;&gt;Node4</title>
<path fill="none" stroke="#63b8ff" d="M76.61,-54.75C81.78,-47.34 89.35,-36.5 95.69,-27.41"/>
<polygon fill="#63b8ff" stroke="#63b8ff" points="98.65,-29.29 101.5,-19.09 92.91,-25.29 98.65,-29.29"/>
</g>
</g>
</svg>
