<?xml version="1.0" encoding="UTF-8" standalone="no"?>
<!DOCTYPE svg PUBLIC "-//W3C//DTD SVG 1.1//EN"
 "http://www.w3.org/Graphics/SVG/1.1/DTD/svg11.dtd">
<!-- Generated by graphviz version 2.43.0 (0)
 -->
<!-- Title: lib/utils/include/genixx/utils/random.h Pages: 1 -->
<svg width="554pt" height="368pt"
 viewBox="0.00 0.00 554.16 368.00" xmlns="http://www.w3.org/2000/svg" xmlns:xlink="http://www.w3.org/1999/xlink">
<g id="graph0" class="graph" transform="scale(1 1) rotate(0) translate(4 364)">
<title>lib/utils/include/genixx/utils/random.h</title>
<!-- Node1 -->
<g id="node1" class="node">
<title>Node1</title>
<g id="a_node1"><a xlink:title=" ">
<polygon fill="#999999" stroke="#666666" points="266.16,-360 139.16,-360 139.16,-330 266.16,-330 266.16,-360"/>
<text text-anchor="start" x="147.16" y="-348" font-family="Helvetica,sans-Serif" font-size="10.00">lib/utils/include/genixx</text>
<text text-anchor="middle" x="202.66" y="-337" font-family="Helvetica,sans-Serif" font-size="10.00">/utils/random.h</text>
</a>
</g>
</g>
<!-- Node2 -->
<g id="node2" class="node">
<title>Node2</title>
<g id="a_node2"><a xlink:href="Chromosome_8h.html" target="_top" xlink:title=" ">
<polygon fill="white" stroke="#666666" points="365.16,-294 168.16,-294 168.16,-264 365.16,-264 365.16,-294"/>
<text text-anchor="start" x="176.16" y="-282" font-family="Helvetica,sans-Serif" font-size="10.00">lib/chromosome/include</text>
<text text-anchor="middle" x="266.66" y="-271" font-family="Helvetica,sans-Serif" font-size="10.00">/genixx/chromosome/Chromosome.h</text>
</a>
</g>
</g>
<!-- Node1&#45;&gt;Node2 -->
<g id="edge1" class="edge">
<title>Node1&#45;&gt;Node2</title>
<path fill="none" stroke="#63b8ff" d="M224.01,-322.65C233.39,-313.27 244.13,-302.53 252.5,-294.16"/>
<polygon fill="#63b8ff" stroke="#63b8ff" points="221.46,-320.25 216.86,-329.8 226.41,-325.2 221.46,-320.25"/>
</g>
<!-- Node3 -->
<g id="node3" class="node">
<title>Node3</title>
<g id="a_node3"><a xlink:href="NumericChromosome_8h.html" target="_top" xlink:title=" ">
<polygon fill="white" stroke="#666666" points="258.66,-228 20.66,-228 20.66,-198 258.66,-198 258.66,-228"/>
<text text-anchor="start" x="28.66" y="-216" font-family="Helvetica,sans-Serif" font-size="10.00">lib/chromosome/include</text>
<text text-anchor="middle" x="139.66" y="-205" font-family="Helvetica,sans-Serif" font-size="10.00">/genixx/chromosome/NumericChromosome.h</text>
</a>
</g>
</g>
<!-- Node1&#45;&gt;Node3 -->
<g id="edge9" class="edge">
<title>Node1&#45;&gt;Node3</title>
<path fill="none" stroke="#63b8ff" d="M179.48,-322.38C171.85,-314.15 163.97,-304.27 158.66,-294 147.57,-272.57 142.84,-244.57 140.91,-228.01"/>
<polygon fill="#63b8ff" stroke="#63b8ff" points="177.14,-324.99 186.63,-329.71 182.16,-320.11 177.14,-324.99"/>
</g>
<!-- Node5 -->
<g id="node5" class="node">
<title>Node5</title>
<g id="a_node5"><a xlink:href="Individual_8cpp.html" target="_top" xlink:title=" ">
<polygon fill="white" stroke="#666666" points="546.16,-151 391.16,-151 391.16,-132 546.16,-132 546.16,-151"/>
<text text-anchor="middle" x="468.66" y="-139" font-family="Helvetica,sans-Serif" font-size="10.00">lib/population/Individual.cpp</text>
</a>
</g>
</g>
<!-- Node1&#45;&gt;Node5 -->
<g id="edge10" class="edge">
<title>Node1&#45;&gt;Node5</title>
<path fill="none" stroke="#63b8ff" d="M276.38,-329.66C307.82,-321.78 344.2,-310.23 374.66,-294 415.04,-272.49 430.76,-267.61 453.66,-228 468.14,-202.95 469.34,-167.38 469.03,-151.16"/>
<polygon fill="#63b8ff" stroke="#63b8ff" points="275.25,-326.34 266.36,-332.1 276.9,-333.14 275.25,-326.34"/>
</g>
<!-- Node8 -->
<g id="node8" class="node">
<title>Node8</title>
<g id="a_node8"><a xlink:href="method_8h.html" target="_top" xlink:title=" ">
<polygon fill="white" stroke="#666666" points="332.16,-162 177.16,-162 177.16,-121 332.16,-121 332.16,-162"/>
<text text-anchor="start" x="185.16" y="-150" font-family="Helvetica,sans-Serif" font-size="10.00">lib/population/include</text>
<text text-anchor="start" x="185.16" y="-139" font-family="Helvetica,sans-Serif" font-size="10.00">/genixx/population/selection</text>
<text text-anchor="middle" x="254.66" y="-128" font-family="Helvetica,sans-Serif" font-size="10.00">/method.h</text>
</a>
</g>
</g>
<!-- Node1&#45;&gt;Node8 -->
<g id="edge11" class="edge">
<title>Node1&#45;&gt;Node8</title>
<path fill="none" stroke="#63b8ff" d="M144.03,-326.66C72.41,-302.5 -33.94,-255.19 11.66,-198 32.16,-172.29 113.99,-157.54 177.08,-149.81"/>
<polygon fill="#63b8ff" stroke="#63b8ff" points="143.3,-330.1 153.89,-329.91 145.49,-323.45 143.3,-330.1"/>
</g>
<!-- Node2&#45;&gt;Node3 -->
<g id="edge2" class="edge">
<title>Node2&#45;&gt;Node3</title>
<path fill="none" stroke="#63b8ff" d="M229.71,-259.38C209.83,-249.36 185.73,-237.22 167.46,-228.01"/>
<polygon fill="#63b8ff" stroke="#63b8ff" points="228.28,-262.58 238.79,-263.95 231.43,-256.33 228.28,-262.58"/>
</g>
<!-- Node4 -->
<g id="node4" class="node">
<title>Node4</title>
<g id="a_node4"><a xlink:href="Individual_8h.html" target="_top" xlink:title=" ">
<polygon fill="white" stroke="#666666" points="444.16,-228 277.16,-228 277.16,-198 444.16,-198 444.16,-228"/>
<text text-anchor="start" x="285.16" y="-216" font-family="Helvetica,sans-Serif" font-size="10.00">lib/population/include</text>
<text text-anchor="middle" x="360.66" y="-205" font-family="Helvetica,sans-Serif" font-size="10.00">/genixx/population/Individual.h</text>
</a>
</g>
</g>
<!-- Node2&#45;&gt;Node4 -->
<g id="edge3" class="edge">
<title>Node2&#45;&gt;Node4</title>
<path fill="none" stroke="#63b8ff" d="M295.99,-258.03C310.22,-248.34 326.97,-236.94 339.86,-228.16"/>
<polygon fill="#63b8ff" stroke="#63b8ff" points="293.82,-255.28 287.52,-263.8 297.76,-261.06 293.82,-255.28"/>
</g>
<!-- Node4&#45;&gt;Node5 -->
<g id="edge4" class="edge">
<title>Node4&#45;&gt;Node5</title>
<path fill="none" stroke="#63b8ff" d="M391.16,-192.37C412.31,-178.76 439.43,-161.31 455.35,-151.07"/>
<polygon fill="#63b8ff" stroke="#63b8ff" points="389.03,-189.58 382.51,-197.94 392.82,-195.47 389.03,-189.58"/>
</g>
<!-- Node6 -->
<g id="node6" class="node">
<title>Node6</title>
<g id="a_node6"><a xlink:href="Population_8h.html" target="_top" xlink:title=" ">
<polygon fill="white" stroke="#666666" points="393.16,-85 222.16,-85 222.16,-55 393.16,-55 393.16,-85"/>
<text text-anchor="start" x="230.16" y="-73" font-family="Helvetica,sans-Serif" font-size="10.00">lib/population/include</text>
<text text-anchor="middle" x="307.66" y="-62" font-family="Helvetica,sans-Serif" font-size="10.00">/genixx/population/Population.h</text>
</a>
</g>
</g>
<!-- Node4&#45;&gt;Node6 -->
<g id="edge5" class="edge">
<title>Node4&#45;&gt;Node6</title>
<path fill="none" stroke="#63b8ff" d="M358.22,-187.84C355.72,-169.04 350.83,-142.61 341.66,-121 336.16,-108.05 327.1,-94.96 319.72,-85.42"/>
<polygon fill="#63b8ff" stroke="#63b8ff" points="354.77,-188.42 359.44,-197.93 361.72,-187.58 354.77,-188.42"/>
</g>
<!-- Node4&#45;&gt;Node8 -->
<g id="edge7" class="edge">
<title>Node4&#45;&gt;Node8</title>
<path fill="none" stroke="#63b8ff" d="M330.63,-192.31C316.19,-182.84 298.93,-171.53 284.51,-162.07"/>
<polygon fill="#63b8ff" stroke="#63b8ff" points="328.93,-195.38 339.21,-197.94 332.76,-189.53 328.93,-195.38"/>
</g>
<!-- Node7 -->
<g id="node7" class="node">
<title>Node7</title>
<g id="a_node7"><a xlink:href="Population_8cpp.html" target="_top" xlink:title=" ">
<polygon fill="white" stroke="#666666" points="386.66,-19 228.66,-19 228.66,0 386.66,0 386.66,-19"/>
<text text-anchor="middle" x="307.66" y="-7" font-family="Helvetica,sans-Serif" font-size="10.00">lib/population/Population.cpp</text>
</a>
</g>
</g>
<!-- Node6&#45;&gt;Node7 -->
<g id="edge6" class="edge">
<title>Node6&#45;&gt;Node7</title>
<path fill="none" stroke="#63b8ff" d="M307.66,-44.75C307.66,-35.72 307.66,-26.03 307.66,-19.27"/>
<polygon fill="#63b8ff" stroke="#63b8ff" points="304.16,-44.84 307.66,-54.84 311.16,-44.84 304.16,-44.84"/>
</g>
<!-- Node8&#45;&gt;Node6 -->
<g id="edge8" class="edge">
<title>Node8&#45;&gt;Node6</title>
<path fill="none" stroke="#63b8ff" d="M275.87,-112.69C283.11,-103.19 290.9,-92.98 296.95,-85.04"/>
<polygon fill="#63b8ff" stroke="#63b8ff" points="272.99,-110.7 269.71,-120.77 278.55,-114.94 272.99,-110.7"/>
</g>
</g>
</svg>
