<?xml version="1.0" encoding="UTF-8" standalone="no"?>
<!DOCTYPE svg PUBLIC "-//W3C//DTD SVG 1.1//EN"
 "http://www.w3.org/Graphics/SVG/1.1/DTD/svg11.dtd">
<!-- Generated by graphviz version 2.43.0 (0)
 -->
<!-- Title: genixx::Population::IndividualInfo Pages: 1 -->
<svg width="338pt" height="346pt"
 viewBox="0.00 0.00 338.00 346.00" xmlns="http://www.w3.org/2000/svg" xmlns:xlink="http://www.w3.org/1999/xlink">
<g id="graph0" class="graph" transform="scale(1 1) rotate(0) translate(4 342)">
<title>genixx::Population::IndividualInfo</title>
<!-- Node1 -->
<g id="node1" class="node">
<title>Node1</title>
<g id="a_node1"><a xlink:title=" ">
<polygon fill="#999999" stroke="#666666" points="285.5,-41 172.5,-41 172.5,0 285.5,0 285.5,-41"/>
<text text-anchor="start" x="180.5" y="-29" font-family="Helvetica,sans-Serif" font-size="10.00">{genixx::Population</text>
<text text-anchor="middle" x="229" y="-18" font-family="Helvetica,sans-Serif" font-size="10.00">::IndividualInfo</text>
<text text-anchor="middle" x="229" y="-7" font-family="Helvetica,sans-Serif" font-size="10.00">||}</text>
</a>
</g>
</g>
<!-- Node2 -->
<g id="node2" class="node">
<title>Node2</title>
<g id="a_node2"><a xlink:href="classgenixx_1_1Individual.html" target="_top" xlink:title=" ">
<polygon fill="white" stroke="#666666" points="225,-250 93,-250 93,-88 225,-88 225,-250"/>
<text text-anchor="middle" x="159" y="-238" font-family="Helvetica,sans-Serif" font-size="10.00">{genixx::Individual</text>
<text text-anchor="start" x="101" y="-227" font-family="Helvetica,sans-Serif" font-size="10.00">||+ Individual()</text>
<text text-anchor="start" x="101" y="-216" font-family="Helvetica,sans-Serif" font-size="10.00">+ Individual()</text>
<text text-anchor="start" x="101" y="-205" font-family="Helvetica,sans-Serif" font-size="10.00">+ Individual()</text>
<text text-anchor="start" x="101" y="-194" font-family="Helvetica,sans-Serif" font-size="10.00">+ operator=()</text>
<text text-anchor="start" x="101" y="-183" font-family="Helvetica,sans-Serif" font-size="10.00">+ operator=()</text>
<text text-anchor="start" x="101" y="-172" font-family="Helvetica,sans-Serif" font-size="10.00">+ ~Individual()</text>
<text text-anchor="start" x="101" y="-161" font-family="Helvetica,sans-Serif" font-size="10.00">+ chromosome()</text>
<text text-anchor="start" x="101" y="-150" font-family="Helvetica,sans-Serif" font-size="10.00">+ copy()</text>
<text text-anchor="start" x="101" y="-139" font-family="Helvetica,sans-Serif" font-size="10.00">+ breed()</text>
<text text-anchor="start" x="101" y="-128" font-family="Helvetica,sans-Serif" font-size="10.00">+ cross()</text>
<text text-anchor="start" x="101" y="-117" font-family="Helvetica,sans-Serif" font-size="10.00">+ mutationProbability()</text>
<text text-anchor="start" x="101" y="-106" font-family="Helvetica,sans-Serif" font-size="10.00">+ mutationProbability()</text>
<text text-anchor="middle" x="159" y="-95" font-family="Helvetica,sans-Serif" font-size="10.00">}</text>
</a>
</g>
</g>
<!-- Node2&#45;&gt;Node1 -->
<g id="edge1" class="edge">
<title>Node2&#45;&gt;Node1</title>
<path fill="none" stroke="#404040" d="M163.87,-87.92C166.64,-77.72 170.55,-67.79 176,-59 178.2,-55.44 180.88,-52.13 183.86,-49.06"/>
<polygon fill="none" stroke="#404040" points="183.87,-49.05 185.7,-42.07 192.85,-41.08 191.02,-48.05 183.87,-49.05"/>
<text text-anchor="middle" x="206" y="-62" font-family="Helvetica,sans-Serif" font-size="10.00"> +individual</text>
</g>
<!-- Node3 -->
<g id="node3" class="node">
<title>Node3</title>
<g id="a_node3"><a xlink:title=" ">
<polygon fill="white" stroke="#666666" points="176,-338 0,-338 0,-297 176,-297 176,-338"/>
<text text-anchor="start" x="8" y="-326" font-family="Helvetica,sans-Serif" font-size="10.00">{map&lt; std::string, std</text>
<text text-anchor="middle" x="88" y="-315" font-family="Helvetica,sans-Serif" font-size="10.00">::shared_ptr&lt; IChromosome &gt; &gt;</text>
<text text-anchor="middle" x="88" y="-304" font-family="Helvetica,sans-Serif" font-size="10.00">||}</text>
</a>
</g>
</g>
<!-- Node3&#45;&gt;Node2 -->
<g id="edge2" class="edge">
<title>Node3&#45;&gt;Node2</title>
<path fill="none" stroke="#404040" d="M97.58,-296.74C102.29,-287.01 108.36,-274.5 114.83,-261.14"/>
<polygon fill="none" stroke="#404040" points="114.86,-261.08 113.87,-253.94 120.09,-250.29 121.07,-257.43 114.86,-261.08"/>
<text text-anchor="middle" x="156.5" y="-271" font-family="Helvetica,sans-Serif" font-size="10.00"> &#45;m_chromosomes</text>
</g>
<!-- Node4 -->
<g id="node4" class="node">
<title>Node4</title>
<g id="a_node4"><a xlink:title=" ">
<polygon fill="white" stroke="#666666" points="268,-332.5 194,-332.5 194,-302.5 268,-302.5 268,-332.5"/>
<text text-anchor="middle" x="231" y="-320.5" font-family="Helvetica,sans-Serif" font-size="10.00">{static float</text>
<text text-anchor="middle" x="231" y="-309.5" font-family="Helvetica,sans-Serif" font-size="10.00">||}</text>
</a>
</g>
</g>
<!-- Node4&#45;&gt;Node2 -->
<g id="edge3" class="edge">
<title>Node4&#45;&gt;Node2</title>
<path fill="none" stroke="#404040" d="M224.1,-302.45C219.09,-292.27 211.85,-277.53 203.99,-261.54"/>
<polygon fill="none" stroke="#404040" points="203.77,-261.09 197.53,-257.47 198.47,-250.32 204.71,-253.94 203.77,-261.09"/>
<text text-anchor="middle" x="270.5" y="-271" font-family="Helvetica,sans-Serif" font-size="10.00"> &#45;m_mutationProbability</text>
</g>
<!-- Node5 -->
<g id="node5" class="node">
<title>Node5</title>
<g id="a_node5"><a xlink:title=" ">
<polygon fill="white" stroke="#666666" points="299,-184 243,-184 243,-154 299,-154 299,-184"/>
<text text-anchor="middle" x="271" y="-172" font-family="Helvetica,sans-Serif" font-size="10.00">{double</text>
<text text-anchor="middle" x="271" y="-161" font-family="Helvetica,sans-Serif" font-size="10.00">||}</text>
</a>
</g>
</g>
<!-- Node5&#45;&gt;Node1 -->
<g id="edge4" class="edge">
<title>Node5&#45;&gt;Node1</title>
<path fill="none" stroke="#404040" d="M266.97,-153.95C260.34,-130.81 246.96,-84.13 237.98,-52.83"/>
<polygon fill="none" stroke="#404040" points="237.98,-52.81 232.48,-48.14 234.67,-41.27 240.17,-45.94 237.98,-52.81"/>
<text text-anchor="middle" x="261" y="-62" font-family="Helvetica,sans-Serif" font-size="10.00"> +score</text>
</g>
</g>
</svg>
