<?xml version="1.0" encoding="UTF-8" standalone="no"?>
<!DOCTYPE svg PUBLIC "-//W3C//DTD SVG 1.1//EN"
 "http://www.w3.org/Graphics/SVG/1.1/DTD/svg11.dtd">
<!-- Generated by graphviz version 2.43.0 (0)
 -->
<!-- Title: genixx::Population::IndividualInfo Pages: 1 -->
<svg width="340pt" height="368pt"
 viewBox="0.00 0.00 340.00 368.00" xmlns="http://www.w3.org/2000/svg" xmlns:xlink="http://www.w3.org/1999/xlink">
<g id="graph0" class="graph" transform="scale(1 1) rotate(0) translate(4 364)">
<title>genixx::Population::IndividualInfo</title>
<!-- Node1 -->
<g id="node1" class="node">
<title>Node1</title>
<g id="a_node1"><a xlink:title=" ">
<polygon fill="#999999" stroke="#666666" points="285.5,-41 172.5,-41 172.5,0 285.5,0 285.5,-41"/>
<text text-anchor="start" x="180.5" y="-29" font-family="Helvetica,sans-Serif" font-size="10.00">{genixx::Population</text>
<text text-anchor="middle" x="229" y="-18" font-family="Helvetica,sans-Serif" font-size="10.00">::IndividualInfo</text>
<text text-anchor="middle" x="229" y="-7" font-family="Helvetica,sans-Serif" font-size="10.00">||}</text>
</a>
</g>
</g>
<!-- Node2 -->
<g id="node2" class="node">
<title>Node2</title>
<g id="a_node2"><a xlink:href="classgenixx_1_1Individual.html" target="_top" xlink:title=" ">
<polygon fill="white" stroke="#666666" points="225,-272 93,-272 93,-88 225,-88 225,-272"/>
<text text-anchor="middle" x="159" y="-260" font-family="Helvetica,sans-Serif" font-size="10.00">{genixx::Individual</text>
<text text-anchor="start" x="101" y="-249" font-family="Helvetica,sans-Serif" font-size="10.00">||+ Individual()</text>
<text text-anchor="start" x="101" y="-238" font-family="Helvetica,sans-Serif" font-size="10.00">+ Individual()</text>
<text text-anchor="start" x="101" y="-227" font-family="Helvetica,sans-Serif" font-size="10.00">+ Individual()</text>
<text text-anchor="start" x="101" y="-216" font-family="Helvetica,sans-Serif" font-size="10.00">+ operator=()</text>
<text text-anchor="start" x="101" y="-205" font-family="Helvetica,sans-Serif" font-size="10.00">+ operator=()</text>
<text text-anchor="start" x="101" y="-194" font-family="Helvetica,sans-Serif" font-size="10.00">+ ~Individual()</text>
<text text-anchor="start" x="101" y="-183" font-family="Helvetica,sans-Serif" font-size="10.00">+ chromosome()</text>
<text text-anchor="start" x="101" y="-172" font-family="Helvetica,sans-Serif" font-size="10.00">+ copy()</text>
<text text-anchor="start" x="101" y="-161" font-family="Helvetica,sans-Serif" font-size="10.00">+ breed()</text>
<text text-anchor="start" x="101" y="-150" font-family="Helvetica,sans-Serif" font-size="10.00">+ cross()</text>
<text text-anchor="start" x="101" y="-139" font-family="Helvetica,sans-Serif" font-size="10.00">+ operator==()</text>
<text text-anchor="start" x="101" y="-128" font-family="Helvetica,sans-Serif" font-size="10.00">+ operator!=()</text>
<text text-anchor="start" x="101" y="-117" font-family="Helvetica,sans-Serif" font-size="10.00">+ mutationProbability()</text>
<text text-anchor="start" x="101" y="-106" font-family="Helvetica,sans-Serif" font-size="10.00">+ mutationProbability()</text>
<text text-anchor="middle" x="159" y="-95" font-family="Helvetica,sans-Serif" font-size="10.00">}</text>
</a>
</g>
</g>
<!-- Node2&#45;&gt;Node1 -->
<g id="edge1" class="edge">
<title>Node2&#45;&gt;Node1</title>
<path fill="none" stroke="#404040" d="M162.94,-87.75C165.73,-77.61 169.63,-67.79 175,-59 177.11,-55.54 179.68,-52.32 182.53,-49.34"/>
<polygon fill="none" stroke="#404040" points="182.81,-49.09 184.63,-42.11 191.77,-41.11 189.95,-48.09 182.81,-49.09"/>
<text text-anchor="middle" x="205" y="-62" font-family="Helvetica,sans-Serif" font-size="10.00"> +individual</text>
</g>
<!-- Node3 -->
<g id="node3" class="node">
<title>Node3</title>
<g id="a_node3"><a xlink:title=" ">
<polygon fill="white" stroke="#666666" points="176,-360 0,-360 0,-319 176,-319 176,-360"/>
<text text-anchor="start" x="8" y="-348" font-family="Helvetica,sans-Serif" font-size="10.00">{map&lt; std::string, std</text>
<text text-anchor="middle" x="88" y="-337" font-family="Helvetica,sans-Serif" font-size="10.00">::shared_ptr&lt; IChromosome &gt; &gt;</text>
<text text-anchor="middle" x="88" y="-326" font-family="Helvetica,sans-Serif" font-size="10.00">||}</text>
</a>
</g>
</g>
<!-- Node3&#45;&gt;Node2 -->
<g id="edge2" class="edge">
<title>Node3&#45;&gt;Node2</title>
<path fill="none" stroke="#404040" d="M96.85,-318.87C101.22,-309.18 106.86,-296.66 112.96,-283.14"/>
<polygon fill="none" stroke="#404040" points="113,-283.05 111.82,-275.94 117.93,-272.11 119.11,-279.22 113,-283.05"/>
<text text-anchor="middle" x="154.5" y="-293" font-family="Helvetica,sans-Serif" font-size="10.00"> &#45;m_chromosomes</text>
</g>
<!-- Node4 -->
<g id="node4" class="node">
<title>Node4</title>
<g id="a_node4"><a xlink:title=" ">
<polygon fill="white" stroke="#666666" points="268,-354.5 194,-354.5 194,-324.5 268,-324.5 268,-354.5"/>
<text text-anchor="middle" x="231" y="-342.5" font-family="Helvetica,sans-Serif" font-size="10.00">{static float</text>
<text text-anchor="middle" x="231" y="-331.5" font-family="Helvetica,sans-Serif" font-size="10.00">||}</text>
</a>
</g>
</g>
<!-- Node4&#45;&gt;Node2 -->
<g id="edge3" class="edge">
<title>Node4&#45;&gt;Node2</title>
<path fill="none" stroke="#404040" d="M224.48,-324.25C219.87,-314.16 213.22,-299.61 205.91,-283.62"/>
<polygon fill="none" stroke="#404040" points="205.75,-283.27 199.62,-279.48 200.76,-272.36 206.9,-276.15 205.75,-283.27"/>
<text text-anchor="middle" x="272.5" y="-293" font-family="Helvetica,sans-Serif" font-size="10.00"> &#45;m_mutationProbability</text>
</g>
<!-- Node5 -->
<g id="node5" class="node">
<title>Node5</title>
<g id="a_node5"><a xlink:title=" ">
<polygon fill="white" stroke="#666666" points="299,-195 243,-195 243,-165 299,-165 299,-195"/>
<text text-anchor="middle" x="271" y="-183" font-family="Helvetica,sans-Serif" font-size="10.00">{double</text>
<text text-anchor="middle" x="271" y="-172" font-family="Helvetica,sans-Serif" font-size="10.00">||}</text>
</a>
</g>
</g>
<!-- Node5&#45;&gt;Node1 -->
<g id="edge4" class="edge">
<title>Node5&#45;&gt;Node1</title>
<path fill="none" stroke="#404040" d="M267.2,-164.75C260.52,-139.7 246.53,-87.24 237.46,-53.23"/>
<polygon fill="none" stroke="#404040" points="237.34,-52.79 231.93,-48.02 234.25,-41.2 239.66,-45.96 237.34,-52.79"/>
<text text-anchor="middle" x="260" y="-62" font-family="Helvetica,sans-Serif" font-size="10.00"> +score</text>
</g>
</g>
</svg>
