<?xml version="1.0" encoding="UTF-8" standalone="no"?>
<!DOCTYPE svg PUBLIC "-//W3C//DTD SVG 1.1//EN"
 "http://www.w3.org/Graphics/SVG/1.1/DTD/svg11.dtd">
<!-- Generated by graphviz version 2.43.0 (0)
 -->
<!-- Title: genixx::IndividualInfo Pages: 1 -->
<svg width="340pt" height="357pt"
 viewBox="0.00 0.00 340.00 357.00" xmlns="http://www.w3.org/2000/svg" xmlns:xlink="http://www.w3.org/1999/xlink">
<g id="graph0" class="graph" transform="scale(1 1) rotate(0) translate(4 353)">
<title>genixx::IndividualInfo</title>
<!-- Node1 -->
<g id="node1" class="node">
<title>Node1</title>
<g id="a_node1"><a xlink:title=" ">
<polygon fill="#999999" stroke="#666666" points="293,-30 165,-30 165,0 293,0 293,-30"/>
<text text-anchor="middle" x="229" y="-18" font-family="Helvetica,sans-Serif" font-size="10.00">{genixx::IndividualInfo</text>
<text text-anchor="middle" x="229" y="-7" font-family="Helvetica,sans-Serif" font-size="10.00">||}</text>
</a>
</g>
</g>
<!-- Node2 -->
<g id="node2" class="node">
<title>Node2</title>
<g id="a_node2"><a xlink:href="classgenixx_1_1Individual.html" target="_top" xlink:title=" ">
<polygon fill="white" stroke="#666666" points="225,-261 93,-261 93,-77 225,-77 225,-261"/>
<text text-anchor="middle" x="159" y="-249" font-family="Helvetica,sans-Serif" font-size="10.00">{genixx::Individual</text>
<text text-anchor="start" x="101" y="-238" font-family="Helvetica,sans-Serif" font-size="10.00">||+ Individual()</text>
<text text-anchor="start" x="101" y="-227" font-family="Helvetica,sans-Serif" font-size="10.00">+ Individual()</text>
<text text-anchor="start" x="101" y="-216" font-family="Helvetica,sans-Serif" font-size="10.00">+ Individual()</text>
<text text-anchor="start" x="101" y="-205" font-family="Helvetica,sans-Serif" font-size="10.00">+ operator=()</text>
<text text-anchor="start" x="101" y="-194" font-family="Helvetica,sans-Serif" font-size="10.00">+ operator=()</text>
<text text-anchor="start" x="101" y="-183" font-family="Helvetica,sans-Serif" font-size="10.00">+ ~Individual()</text>
<text text-anchor="start" x="101" y="-172" font-family="Helvetica,sans-Serif" font-size="10.00">+ chromosome()</text>
<text text-anchor="start" x="101" y="-161" font-family="Helvetica,sans-Serif" font-size="10.00">+ copy()</text>
<text text-anchor="start" x="101" y="-150" font-family="Helvetica,sans-Serif" font-size="10.00">+ breed()</text>
<text text-anchor="start" x="101" y="-139" font-family="Helvetica,sans-Serif" font-size="10.00">+ cross()</text>
<text text-anchor="start" x="101" y="-128" font-family="Helvetica,sans-Serif" font-size="10.00">+ operator==()</text>
<text text-anchor="start" x="101" y="-117" font-family="Helvetica,sans-Serif" font-size="10.00">+ operator!=()</text>
<text text-anchor="start" x="101" y="-106" font-family="Helvetica,sans-Serif" font-size="10.00">+ mutationProbability()</text>
<text text-anchor="start" x="101" y="-95" font-family="Helvetica,sans-Serif" font-size="10.00">+ mutationProbability()</text>
<text text-anchor="middle" x="159" y="-84" font-family="Helvetica,sans-Serif" font-size="10.00">}</text>
</a>
</g>
</g>
<!-- Node2&#45;&gt;Node1 -->
<g id="edge1" class="edge">
<title>Node2&#45;&gt;Node1</title>
<path fill="none" stroke="#404040" d="M161.26,-76.96C164.11,-66.67 168.21,-56.76 174,-48 176.67,-43.97 180.03,-40.38 183.77,-37.2"/>
<polygon fill="none" stroke="#404040" points="183.9,-37.1 186.46,-30.36 193.67,-30.12 191.11,-36.87 183.9,-37.1"/>
<text text-anchor="middle" x="204" y="-51" font-family="Helvetica,sans-Serif" font-size="10.00"> +individual</text>
</g>
<!-- Node3 -->
<g id="node3" class="node">
<title>Node3</title>
<g id="a_node3"><a xlink:title=" ">
<polygon fill="white" stroke="#666666" points="176,-349 0,-349 0,-308 176,-308 176,-349"/>
<text text-anchor="start" x="8" y="-337" font-family="Helvetica,sans-Serif" font-size="10.00">{map&lt; std::string, std</text>
<text text-anchor="middle" x="88" y="-326" font-family="Helvetica,sans-Serif" font-size="10.00">::shared_ptr&lt; IChromosome &gt; &gt;</text>
<text text-anchor="middle" x="88" y="-315" font-family="Helvetica,sans-Serif" font-size="10.00">||}</text>
</a>
</g>
</g>
<!-- Node3&#45;&gt;Node2 -->
<g id="edge2" class="edge">
<title>Node3&#45;&gt;Node2</title>
<path fill="none" stroke="#404040" d="M96.85,-307.87C101.22,-298.18 106.86,-285.66 112.96,-272.14"/>
<polygon fill="none" stroke="#404040" points="113,-272.05 111.82,-264.94 117.93,-261.11 119.11,-268.22 113,-272.05"/>
<text text-anchor="middle" x="154.5" y="-282" font-family="Helvetica,sans-Serif" font-size="10.00"> &#45;m_chromosomes</text>
</g>
<!-- Node4 -->
<g id="node4" class="node">
<title>Node4</title>
<g id="a_node4"><a xlink:title=" ">
<polygon fill="white" stroke="#666666" points="268,-343.5 194,-343.5 194,-313.5 268,-313.5 268,-343.5"/>
<text text-anchor="middle" x="231" y="-331.5" font-family="Helvetica,sans-Serif" font-size="10.00">{static float</text>
<text text-anchor="middle" x="231" y="-320.5" font-family="Helvetica,sans-Serif" font-size="10.00">||}</text>
</a>
</g>
</g>
<!-- Node4&#45;&gt;Node2 -->
<g id="edge3" class="edge">
<title>Node4&#45;&gt;Node2</title>
<path fill="none" stroke="#404040" d="M224.48,-313.25C219.87,-303.16 213.22,-288.61 205.91,-272.62"/>
<polygon fill="none" stroke="#404040" points="205.75,-272.27 199.62,-268.48 200.76,-261.36 206.9,-265.15 205.75,-272.27"/>
<text text-anchor="middle" x="272.5" y="-282" font-family="Helvetica,sans-Serif" font-size="10.00"> &#45;m_mutationProbability</text>
</g>
<!-- Node5 -->
<g id="node5" class="node">
<title>Node5</title>
<g id="a_node5"><a xlink:title=" ">
<polygon fill="white" stroke="#666666" points="299,-184 243,-184 243,-154 299,-154 299,-184"/>
<text text-anchor="middle" x="271" y="-172" font-family="Helvetica,sans-Serif" font-size="10.00">{double</text>
<text text-anchor="middle" x="271" y="-161" font-family="Helvetica,sans-Serif" font-size="10.00">||}</text>
</a>
</g>
</g>
<!-- Node5&#45;&gt;Node1 -->
<g id="edge4" class="edge">
<title>Node5&#45;&gt;Node1</title>
<path fill="none" stroke="#404040" d="M267.12,-153.97C260.1,-128.54 245.15,-74.45 236.2,-42.07"/>
<polygon fill="none" stroke="#404040" points="236.19,-42 230.73,-37.29 232.99,-30.44 238.44,-35.15 236.19,-42"/>
<text text-anchor="middle" x="259" y="-51" font-family="Helvetica,sans-Serif" font-size="10.00"> +score</text>
</g>
</g>
</svg>
