<?xml version="1.0" encoding="UTF-8" standalone="no"?>
<!DOCTYPE svg PUBLIC "-//W3C//DTD SVG 1.1//EN"
 "http://www.w3.org/Graphics/SVG/1.1/DTD/svg11.dtd">
<!-- Generated by graphviz version 2.43.0 (0)
 -->
<!-- Title: lib/chromosome/include/genixx/chromosome/Chromosome.h Pages: 1 -->
<svg width="352pt" height="225pt"
 viewBox="0.00 0.00 352.00 225.00" xmlns="http://www.w3.org/2000/svg" xmlns:xlink="http://www.w3.org/1999/xlink">
<g id="graph0" class="graph" transform="scale(1 1) rotate(0) translate(4 221)">
<title>lib/chromosome/include/genixx/chromosome/Chromosome.h</title>
<!-- Node1 -->
<g id="node1" class="node">
<title>Node1</title>
<g id="a_node1"><a xlink:title=" ">
<polygon fill="#999999" stroke="#666666" points="266,-217 69,-217 69,-187 266,-187 266,-217"/>
<text text-anchor="start" x="77" y="-205" font-family="Helvetica,sans-Serif" font-size="10.00">lib/chromosome/include</text>
<text text-anchor="middle" x="167.5" y="-194" font-family="Helvetica,sans-Serif" font-size="10.00">/genixx/chromosome/Chromosome.h</text>
</a>
</g>
</g>
<!-- Node2 -->
<g id="node2" class="node">
<title>Node2</title>
<g id="a_node2"><a xlink:href="Individual_8h.html" target="_top" xlink:title=" ">
<polygon fill="white" stroke="#666666" points="251,-151 84,-151 84,-121 251,-121 251,-151"/>
<text text-anchor="start" x="92" y="-139" font-family="Helvetica,sans-Serif" font-size="10.00">lib/population/include</text>
<text text-anchor="middle" x="167.5" y="-128" font-family="Helvetica,sans-Serif" font-size="10.00">/genixx/population/Individual.h</text>
</a>
</g>
</g>
<!-- Node1&#45;&gt;Node2 -->
<g id="edge1" class="edge">
<title>Node1&#45;&gt;Node2</title>
<path fill="none" stroke="#63b8ff" d="M167.5,-176.54C167.5,-167.96 167.5,-158.61 167.5,-151.16"/>
<polygon fill="#63b8ff" stroke="#63b8ff" points="164,-176.8 167.5,-186.8 171,-176.8 164,-176.8"/>
</g>
<!-- Node3 -->
<g id="node3" class="node">
<title>Node3</title>
<g id="a_node3"><a xlink:href="Individual_8cpp.html" target="_top" xlink:title=" ">
<polygon fill="white" stroke="#666666" points="155,-79.5 0,-79.5 0,-60.5 155,-60.5 155,-79.5"/>
<text text-anchor="middle" x="77.5" y="-67.5" font-family="Helvetica,sans-Serif" font-size="10.00">lib/population/Individual.cpp</text>
</a>
</g>
</g>
<!-- Node2&#45;&gt;Node3 -->
<g id="edge2" class="edge">
<title>Node2&#45;&gt;Node3</title>
<path fill="none" stroke="#63b8ff" d="M139.2,-114.87C122.54,-103.03 102.32,-88.65 89.68,-79.66"/>
<polygon fill="#63b8ff" stroke="#63b8ff" points="137.35,-117.85 147.53,-120.8 141.4,-112.15 137.35,-117.85"/>
</g>
<!-- Node4 -->
<g id="node4" class="node">
<title>Node4</title>
<g id="a_node4"><a xlink:href="Population_8h.html" target="_top" xlink:title=" ">
<polygon fill="white" stroke="#666666" points="344,-85 173,-85 173,-55 344,-55 344,-85"/>
<text text-anchor="start" x="181" y="-73" font-family="Helvetica,sans-Serif" font-size="10.00">lib/population/include</text>
<text text-anchor="middle" x="258.5" y="-62" font-family="Helvetica,sans-Serif" font-size="10.00">/genixx/population/Population.h</text>
</a>
</g>
</g>
<!-- Node2&#45;&gt;Node4 -->
<g id="edge3" class="edge">
<title>Node2&#45;&gt;Node4</title>
<path fill="none" stroke="#63b8ff" d="M195.9,-115.03C209.67,-105.34 225.88,-93.94 238.36,-85.16"/>
<polygon fill="#63b8ff" stroke="#63b8ff" points="193.86,-112.18 187.7,-120.8 197.89,-117.91 193.86,-112.18"/>
</g>
<!-- Node5 -->
<g id="node5" class="node">
<title>Node5</title>
<g id="a_node5"><a xlink:href="Population_8cpp.html" target="_top" xlink:title=" ">
<polygon fill="white" stroke="#666666" points="337.5,-19 179.5,-19 179.5,0 337.5,0 337.5,-19"/>
<text text-anchor="middle" x="258.5" y="-7" font-family="Helvetica,sans-Serif" font-size="10.00">lib/population/Population.cpp</text>
</a>
</g>
</g>
<!-- Node4&#45;&gt;Node5 -->
<g id="edge4" class="edge">
<title>Node4&#45;&gt;Node5</title>
<path fill="none" stroke="#63b8ff" d="M258.5,-44.75C258.5,-35.72 258.5,-26.03 258.5,-19.27"/>
<polygon fill="#63b8ff" stroke="#63b8ff" points="255,-44.84 258.5,-54.84 262,-44.84 255,-44.84"/>
</g>
</g>
</svg>
