<?xml version="1.0" encoding="UTF-8" standalone="no"?>
<!DOCTYPE svg PUBLIC "-//W3C//DTD SVG 1.1//EN"
 "http://www.w3.org/Graphics/SVG/1.1/DTD/svg11.dtd">
<!-- Generated by graphviz version 2.43.0 (0)
 -->
<!-- Title: genixx::Population Pages: 1 -->
<svg width="446pt" height="269pt"
 viewBox="0.00 0.00 445.50 269.00" xmlns="http://www.w3.org/2000/svg" xmlns:xlink="http://www.w3.org/1999/xlink">
<g id="graph0" class="graph" transform="scale(1 1) rotate(0) translate(4 265)">
<title>genixx::Population</title>
<!-- Node1 -->
<g id="node1" class="node">
<title>Node1</title>
<g id="a_node1"><a xlink:title=" ">
<polygon fill="#999999" stroke="#666666" points="278.5,-173 130.5,-173 130.5,0 278.5,0 278.5,-173"/>
<text text-anchor="middle" x="204.5" y="-161" font-family="Helvetica,sans-Serif" font-size="10.00">{genixx::Population</text>
<text text-anchor="start" x="138.5" y="-150" font-family="Helvetica,sans-Serif" font-size="10.00">||+ Population()</text>
<text text-anchor="start" x="138.5" y="-139" font-family="Helvetica,sans-Serif" font-size="10.00">+ Population()</text>
<text text-anchor="start" x="138.5" y="-128" font-family="Helvetica,sans-Serif" font-size="10.00">+ populate()</text>
<text text-anchor="start" x="138.5" y="-117" font-family="Helvetica,sans-Serif" font-size="10.00">+ populate()</text>
<text text-anchor="start" x="138.5" y="-106" font-family="Helvetica,sans-Serif" font-size="10.00">+ generation()</text>
<text text-anchor="start" x="138.5" y="-95" font-family="Helvetica,sans-Serif" font-size="10.00">+ population()</text>
<text text-anchor="start" x="138.5" y="-84" font-family="Helvetica,sans-Serif" font-size="10.00">+ nextGeneration()</text>
<text text-anchor="start" x="138.5" y="-73" font-family="Helvetica,sans-Serif" font-size="10.00">+ assessPopulation()</text>
<text text-anchor="start" x="138.5" y="-62" font-family="Helvetica,sans-Serif" font-size="10.00">+ averageScore()</text>
<text text-anchor="start" x="138.5" y="-51" font-family="Helvetica,sans-Serif" font-size="10.00">+ bestScore()</text>
<text text-anchor="start" x="138.5" y="-40" font-family="Helvetica,sans-Serif" font-size="10.00">+ bestIndividual()</text>
<text text-anchor="start" x="138.5" y="-29" font-family="Helvetica,sans-Serif" font-size="10.00">+ size()</text>
<text text-anchor="start" x="138.5" y="-18" font-family="Helvetica,sans-Serif" font-size="10.00">&#45; generationReplacement()</text>
<text text-anchor="middle" x="204.5" y="-7" font-family="Helvetica,sans-Serif" font-size="10.00">}</text>
</a>
</g>
</g>
<!-- Node2 -->
<g id="node2" class="node">
<title>Node2</title>
<g id="a_node2"><a xlink:title=" ">
<polygon fill="white" stroke="#666666" points="155,-261 0,-261 0,-220 155,-220 155,-261"/>
<text text-anchor="start" x="8" y="-249" font-family="Helvetica,sans-Serif" font-size="10.00">{vector&lt; genixx::Population</text>
<text text-anchor="middle" x="77.5" y="-238" font-family="Helvetica,sans-Serif" font-size="10.00">::IndividualInfo &gt;</text>
<text text-anchor="middle" x="77.5" y="-227" font-family="Helvetica,sans-Serif" font-size="10.00">||}</text>
</a>
</g>
</g>
<!-- Node2&#45;&gt;Node1 -->
<g id="edge1" class="edge">
<title>Node2&#45;&gt;Node1</title>
<path fill="none" stroke="#404040" d="M93.84,-219.94C102.31,-209.81 113.33,-196.62 125.13,-182.49"/>
<polygon fill="none" stroke="#404040" points="125.29,-182.3 126.07,-175.13 132.99,-173.09 132.21,-180.26 125.29,-182.3"/>
<text text-anchor="middle" x="153.5" y="-194" font-family="Helvetica,sans-Serif" font-size="10.00"> &#45;m_individuals</text>
</g>
<!-- Node3 -->
<g id="node3" class="node">
<title>Node3</title>
<g id="a_node3"><a xlink:title=" ">
<polygon fill="white" stroke="#666666" points="235.5,-255.5 173.5,-255.5 173.5,-225.5 235.5,-225.5 235.5,-255.5"/>
<text text-anchor="middle" x="204.5" y="-243.5" font-family="Helvetica,sans-Serif" font-size="10.00">{uint32_t</text>
<text text-anchor="middle" x="204.5" y="-232.5" font-family="Helvetica,sans-Serif" font-size="10.00">||}</text>
</a>
</g>
</g>
<!-- Node3&#45;&gt;Node1 -->
<g id="edge2" class="edge">
<title>Node3&#45;&gt;Node1</title>
<path fill="none" stroke="#404040" d="M204.5,-225.47C204.5,-215.52 204.5,-201.17 204.5,-185.45"/>
<polygon fill="none" stroke="#404040" points="204.5,-185.22 200.5,-179.22 204.5,-173.22 208.5,-179.22 204.5,-185.22"/>
<text text-anchor="middle" x="260" y="-194" font-family="Helvetica,sans-Serif" font-size="10.00"> &#45;m_currentGeneration</text>
</g>
<!-- Node4 -->
<g id="node4" class="node">
<title>Node4</title>
<g id="a_node4"><a xlink:title=" ">
<polygon fill="white" stroke="#666666" points="360.5,-255.5 316.5,-255.5 316.5,-225.5 360.5,-225.5 360.5,-255.5"/>
<text text-anchor="middle" x="338.5" y="-243.5" font-family="Helvetica,sans-Serif" font-size="10.00">{float</text>
<text text-anchor="middle" x="338.5" y="-232.5" font-family="Helvetica,sans-Serif" font-size="10.00">||}</text>
</a>
</g>
</g>
<!-- Node4&#45;&gt;Node1 -->
<g id="edge3" class="edge">
<title>Node4&#45;&gt;Node1</title>
<path fill="none" stroke="#404040" d="M333.71,-225.11C329.95,-215.02 324.08,-201.49 316.5,-191 307.94,-179.14 297.86,-167.59 287.31,-156.75"/>
<polygon fill="none" stroke="#404040" points="287.27,-156.7 280.19,-155.29 278.78,-148.22 285.85,-149.63 287.27,-156.7"/>
<text text-anchor="middle" x="380" y="-194" font-family="Helvetica,sans-Serif" font-size="10.00"> &#45;m_crossingProbability</text>
</g>
</g>
</svg>
