<?xml version="1.0" encoding="UTF-8" standalone="no"?>
<!DOCTYPE svg PUBLIC "-//W3C//DTD SVG 1.1//EN"
 "http://www.w3.org/Graphics/SVG/1.1/DTD/svg11.dtd">
<!-- Generated by graphviz version 2.43.0 (0)
 -->
<!-- Title: genixx::Individual Pages: 1 -->
<svg width="338pt" height="258pt"
 viewBox="0.00 0.00 338.00 258.00" xmlns="http://www.w3.org/2000/svg" xmlns:xlink="http://www.w3.org/1999/xlink">
<g id="graph0" class="graph" transform="scale(1 1) rotate(0) translate(4 254)">
<title>genixx::Individual</title>
<!-- Node1 -->
<g id="node1" class="node">
<title>Node1</title>
<g id="a_node1"><a xlink:title=" ">
<polygon fill="#999999" stroke="#666666" points="225,-162 93,-162 93,0 225,0 225,-162"/>
<text text-anchor="middle" x="159" y="-150" font-family="Helvetica,sans-Serif" font-size="10.00">{genixx::Individual</text>
<text text-anchor="start" x="101" y="-139" font-family="Helvetica,sans-Serif" font-size="10.00">||+ Individual()</text>
<text text-anchor="start" x="101" y="-128" font-family="Helvetica,sans-Serif" font-size="10.00">+ Individual()</text>
<text text-anchor="start" x="101" y="-117" font-family="Helvetica,sans-Serif" font-size="10.00">+ Individual()</text>
<text text-anchor="start" x="101" y="-106" font-family="Helvetica,sans-Serif" font-size="10.00">+ operator=()</text>
<text text-anchor="start" x="101" y="-95" font-family="Helvetica,sans-Serif" font-size="10.00">+ operator=()</text>
<text text-anchor="start" x="101" y="-84" font-family="Helvetica,sans-Serif" font-size="10.00">+ ~Individual()</text>
<text text-anchor="start" x="101" y="-73" font-family="Helvetica,sans-Serif" font-size="10.00">+ chromosome()</text>
<text text-anchor="start" x="101" y="-62" font-family="Helvetica,sans-Serif" font-size="10.00">+ copy()</text>
<text text-anchor="start" x="101" y="-51" font-family="Helvetica,sans-Serif" font-size="10.00">+ breed()</text>
<text text-anchor="start" x="101" y="-40" font-family="Helvetica,sans-Serif" font-size="10.00">+ cross()</text>
<text text-anchor="start" x="101" y="-29" font-family="Helvetica,sans-Serif" font-size="10.00">+ mutationProbability()</text>
<text text-anchor="start" x="101" y="-18" font-family="Helvetica,sans-Serif" font-size="10.00">+ mutationProbability()</text>
<text text-anchor="middle" x="159" y="-7" font-family="Helvetica,sans-Serif" font-size="10.00">}</text>
</a>
</g>
</g>
<!-- Node2 -->
<g id="node2" class="node">
<title>Node2</title>
<g id="a_node2"><a xlink:title=" ">
<polygon fill="white" stroke="#666666" points="176,-250 0,-250 0,-209 176,-209 176,-250"/>
<text text-anchor="start" x="8" y="-238" font-family="Helvetica,sans-Serif" font-size="10.00">{map&lt; std::string, std</text>
<text text-anchor="middle" x="88" y="-227" font-family="Helvetica,sans-Serif" font-size="10.00">::shared_ptr&lt; IChromosome &gt; &gt;</text>
<text text-anchor="middle" x="88" y="-216" font-family="Helvetica,sans-Serif" font-size="10.00">||}</text>
</a>
</g>
</g>
<!-- Node2&#45;&gt;Node1 -->
<g id="edge1" class="edge">
<title>Node2&#45;&gt;Node1</title>
<path fill="none" stroke="#404040" d="M97.58,-208.74C102.29,-199.01 108.36,-186.5 114.83,-173.14"/>
<polygon fill="none" stroke="#404040" points="114.86,-173.08 113.87,-165.94 120.09,-162.29 121.07,-169.43 114.86,-173.08"/>
<text text-anchor="middle" x="156.5" y="-183" font-family="Helvetica,sans-Serif" font-size="10.00"> &#45;m_chromosomes</text>
</g>
<!-- Node3 -->
<g id="node3" class="node">
<title>Node3</title>
<g id="a_node3"><a xlink:title=" ">
<polygon fill="white" stroke="#666666" points="268,-244.5 194,-244.5 194,-214.5 268,-214.5 268,-244.5"/>
<text text-anchor="middle" x="231" y="-232.5" font-family="Helvetica,sans-Serif" font-size="10.00">{static float</text>
<text text-anchor="middle" x="231" y="-221.5" font-family="Helvetica,sans-Serif" font-size="10.00">||}</text>
</a>
</g>
</g>
<!-- Node3&#45;&gt;Node1 -->
<g id="edge2" class="edge">
<title>Node3&#45;&gt;Node1</title>
<path fill="none" stroke="#404040" d="M224.1,-214.45C219.09,-204.27 211.85,-189.53 203.99,-173.54"/>
<polygon fill="none" stroke="#404040" points="203.77,-173.09 197.53,-169.47 198.47,-162.32 204.71,-165.94 203.77,-173.09"/>
<text text-anchor="middle" x="270.5" y="-183" font-family="Helvetica,sans-Serif" font-size="10.00"> &#45;m_mutationProbability</text>
</g>
</g>
</svg>
