<?xml version="1.0" encoding="UTF-8" standalone="no"?>
<!DOCTYPE svg PUBLIC "-//W3C//DTD SVG 1.1//EN"
 "http://www.w3.org/Graphics/SVG/1.1/DTD/svg11.dtd">
<!-- Generated by graphviz version 2.43.0 (0)
 -->
<!-- Title: lib Pages: 1 -->
<svg width="160pt" height="169pt"
 viewBox="0.00 0.00 160.00 169.00" xmlns="http://www.w3.org/2000/svg" xmlns:xlink="http://www.w3.org/1999/xlink">
<g id="graph0" class="graph" transform="scale(1 1) rotate(0) translate(4 165)">
<title>lib</title>
<g id="clust1" class="cluster">
<title>clusterdir_97aefd0d527b934f1d99a682da8fe6a9</title>
<g id="a_clust1"><a xlink:href="dir_97aefd0d527b934f1d99a682da8fe6a9.html" target="_top">
<polygon fill="#edf0f7" stroke="#404040" stroke-width="2" points="8,-8 8,-153 144,-153 144,-8 8,-8"/>
</a>
</g>
</g>
<!-- dir_97aefd0d527b934f1d99a682da8fe6a9 -->
<g id="node1" class="node">
<title>dir_97aefd0d527b934f1d99a682da8fe6a9</title>
<text text-anchor="middle" x="121" y="-133" font-family="Helvetica,sans-Serif" font-size="10.00">lib</text>
</g>
<!-- dir_28bd77c38ae26718d4d5cff1fc81c55c -->
<g id="node2" class="node">
<title>dir_28bd77c38ae26718d4d5cff1fc81c55c</title>
<g id="a_node2"><a xlink:href="dir_28bd77c38ae26718d4d5cff1fc81c55c.html" target="_top" xlink:title="chromosome">
<polygon fill="#a2b4d6" stroke="#404040" points="116,-90 36,-90 36,-71 116,-71 116,-90"/>
<text text-anchor="middle" x="76" y="-78" font-family="Helvetica,sans-Serif" font-size="10.00">chromosome</text>
</a>
</g>
</g>
<!-- dir_10d26e58304c18eadb892a0e1b7b93de -->
<g id="node3" class="node">
<title>dir_10d26e58304c18eadb892a0e1b7b93de</title>
<g id="a_node3"><a xlink:href="dir_10d26e58304c18eadb892a0e1b7b93de.html" target="_top" xlink:title="error">
<polygon fill="#a2b4d6" stroke="#404040" points="68,-35 28,-35 28,-16 68,-16 68,-35"/>
<text text-anchor="middle" x="48" y="-23" font-family="Helvetica,sans-Serif" font-size="10.00">error</text>
</a>
</g>
</g>
<!-- dir_28bd77c38ae26718d4d5cff1fc81c55c&#45;&gt;dir_10d26e58304c18eadb892a0e1b7b93de -->
<g id="edge1" class="edge">
<title>dir_28bd77c38ae26718d4d5cff1fc81c55c&#45;&gt;dir_10d26e58304c18eadb892a0e1b7b93de</title>
<path fill="none" stroke="#63b8ff" d="M71.38,-70.75C67.54,-63.49 61.98,-52.95 57.24,-43.98"/>
<polygon fill="#63b8ff" stroke="#63b8ff" points="60.3,-42.3 52.54,-35.09 54.11,-45.57 60.3,-42.3"/>
<g id="a_edge1&#45;headlabel"><a xlink:href="dir_000000_000002.html" target="_top" xlink:title="1">
<text text-anchor="middle" x="64.49" y="-41.65" font-family="Helvetica,sans-Serif" font-size="10.00" fill="#63b8ff">1</text>
</a>
</g>
</g>
<!-- dir_4ce02b87227cef1244bdd1fa3b12a08b -->
<g id="node5" class="node">
<title>dir_4ce02b87227cef1244bdd1fa3b12a08b</title>
<g id="a_node5"><a xlink:href="dir_4ce02b87227cef1244bdd1fa3b12a08b.html" target="_top" xlink:title="utils">
<polygon fill="#a2b4d6" stroke="#404040" points="130,-35 92,-35 92,-16 130,-16 130,-35"/>
<text text-anchor="middle" x="111" y="-23" font-family="Helvetica,sans-Serif" font-size="10.00">utils</text>
</a>
</g>
</g>
<!-- dir_28bd77c38ae26718d4d5cff1fc81c55c&#45;&gt;dir_4ce02b87227cef1244bdd1fa3b12a08b -->
<g id="edge2" class="edge">
<title>dir_28bd77c38ae26718d4d5cff1fc81c55c&#45;&gt;dir_4ce02b87227cef1244bdd1fa3b12a08b</title>
<path fill="none" stroke="#63b8ff" d="M81.78,-70.75C86.62,-63.42 93.68,-52.73 99.64,-43.7"/>
<polygon fill="#63b8ff" stroke="#63b8ff" points="102.74,-45.36 105.33,-35.09 96.9,-41.5 102.74,-45.36"/>
<g id="a_edge2&#45;headlabel"><a xlink:href="dir_000000_000016.html" target="_top" xlink:title="1">
<text text-anchor="middle" x="103.13" y="-47.43" font-family="Helvetica,sans-Serif" font-size="10.00" fill="#63b8ff">1</text>
</a>
</g>
</g>
<!-- dir_6e380214a40d15c3f3c80c4f7c122ba3 -->
<g id="node4" class="node">
<title>dir_6e380214a40d15c3f3c80c4f7c122ba3</title>
<g id="a_node4"><a xlink:href="dir_6e380214a40d15c3f3c80c4f7c122ba3.html" target="_top" xlink:title="population">
<polygon fill="#a2b4d6" stroke="#404040" points="88,-145 20,-145 20,-126 88,-126 88,-145"/>
<text text-anchor="middle" x="54" y="-133" font-family="Helvetica,sans-Serif" font-size="10.00">population</text>
</a>
</g>
</g>
<!-- dir_6e380214a40d15c3f3c80c4f7c122ba3&#45;&gt;dir_28bd77c38ae26718d4d5cff1fc81c55c -->
<g id="edge5" class="edge">
<title>dir_6e380214a40d15c3f3c80c4f7c122ba3&#45;&gt;dir_28bd77c38ae26718d4d5cff1fc81c55c</title>
<path fill="none" stroke="#63b8ff" d="M57.63,-125.75C60.58,-118.65 64.83,-108.4 68.51,-99.56"/>
<polygon fill="#63b8ff" stroke="#63b8ff" points="71.83,-100.67 72.43,-90.09 65.37,-97.98 71.83,-100.67"/>
<g id="a_edge5&#45;headlabel"><a xlink:href="dir_000013_000000.html" target="_top" xlink:title="1">
<text text-anchor="middle" x="73.08" y="-102.58" font-family="Helvetica,sans-Serif" font-size="10.00" fill="#63b8ff">1</text>
</a>
</g>
</g>
<!-- dir_6e380214a40d15c3f3c80c4f7c122ba3&#45;&gt;dir_10d26e58304c18eadb892a0e1b7b93de -->
<g id="edge3" class="edge">
<title>dir_6e380214a40d15c3f3c80c4f7c122ba3&#45;&gt;dir_10d26e58304c18eadb892a0e1b7b93de</title>
<path fill="none" stroke="#63b8ff" d="M46.85,-125.97C40.23,-117.48 30.85,-103.75 27,-90 22.56,-74.14 29.49,-56.36 36.55,-43.66"/>
<polygon fill="#63b8ff" stroke="#63b8ff" points="39.58,-45.41 41.79,-35.05 33.6,-41.77 39.58,-45.41"/>
<g id="a_edge3&#45;headlabel"><a xlink:href="dir_000013_000002.html" target="_top" xlink:title="2">
<text text-anchor="middle" x="40.14" y="-47.46" font-family="Helvetica,sans-Serif" font-size="10.00" fill="#63b8ff">2</text>
</a>
</g>
</g>
<!-- dir_6e380214a40d15c3f3c80c4f7c122ba3&#45;&gt;dir_4ce02b87227cef1244bdd1fa3b12a08b -->
<g id="edge4" class="edge">
<title>dir_6e380214a40d15c3f3c80c4f7c122ba3&#45;&gt;dir_4ce02b87227cef1244bdd1fa3b12a08b</title>
<path fill="none" stroke="#63b8ff" d="M79.51,-125.9C95.69,-118.96 115.35,-107.44 125,-90 132.84,-75.83 127.5,-57.61 121.29,-44.32"/>
<polygon fill="#63b8ff" stroke="#63b8ff" points="124.3,-42.52 116.57,-35.27 118.09,-45.75 124.3,-42.52"/>
<g id="a_edge4&#45;headlabel"><a xlink:href="dir_000013_000016.html" target="_top" xlink:title="2">
<text text-anchor="middle" x="128.48" y="-41.89" font-family="Helvetica,sans-Serif" font-size="10.00" fill="#63b8ff">2</text>
</a>
</g>
</g>
</g>
</svg>
