<?xml version="1.0" encoding="UTF-8" standalone="no"?>
<!DOCTYPE svg PUBLIC "-//W3C//DTD SVG 1.1//EN"
 "http://www.w3.org/Graphics/SVG/1.1/DTD/svg11.dtd">
<!-- Generated by graphviz version 2.43.0 (0)
 -->
<!-- Title: Graphical Class Hierarchy Pages: 1 -->
<svg width="294pt" height="64pt"
 viewBox="0.00 0.00 294.00 64.00" xmlns="http://www.w3.org/2000/svg" xmlns:xlink="http://www.w3.org/1999/xlink">
<g id="graph0" class="graph" transform="scale(1 1) rotate(0) translate(4 60)">
<title>Graphical Class Hierarchy</title>
<!-- Node0 -->
<g id="node1" class="node">
<title>Node0</title>
<g id="a_node1"><a xlink:title=" ">
<polygon fill="#e0e0e0" stroke="#999999" points="86,-37 0,-37 0,-18 86,-18 86,-37"/>
<text text-anchor="middle" x="43" y="-25" font-family="Helvetica,sans-Serif" font-size="10.00">std::exception</text>
</a>
</g>
</g>
<!-- Node1 -->
<g id="node2" class="node">
<title>Node1</title>
<g id="a_node2"><a xlink:href="classgenixx_1_1NullFunctionException.html" target="_top" xlink:title=" ">
<polygon fill="white" stroke="#666666" points="286,-56 122,-56 122,-37 286,-37 286,-56"/>
<text text-anchor="middle" x="204" y="-44" font-family="Helvetica,sans-Serif" font-size="10.00">genixx::NullFunctionException</text>
</a>
</g>
</g>
<!-- Node0&#45;&gt;Node1 -->
<g id="edge1" class="edge">
<title>Node0&#45;&gt;Node1</title>
<path fill="none" stroke="#63b8ff" d="M96.18,-33.74C104.92,-34.78 114.15,-35.88 123.39,-36.99"/>
<polygon fill="#63b8ff" stroke="#63b8ff" points="96.54,-30.25 86.19,-32.54 95.71,-37.2 96.54,-30.25"/>
</g>
<!-- Node2 -->
<g id="node3" class="node">
<title>Node2</title>
<g id="a_node3"><a xlink:href="classgenixx_1_1WrongSizeException.html" target="_top" xlink:title=" ">
<polygon fill="white" stroke="#666666" points="281.5,-19 126.5,-19 126.5,0 281.5,0 281.5,-19"/>
<text text-anchor="middle" x="204" y="-7" font-family="Helvetica,sans-Serif" font-size="10.00">genixx::WrongSizeException</text>
</a>
</g>
</g>
<!-- Node0&#45;&gt;Node2 -->
<g id="edge2" class="edge">
<title>Node0&#45;&gt;Node2</title>
<path fill="none" stroke="#63b8ff" d="M96.39,-21.57C106.04,-20.48 116.29,-19.32 126.47,-18.16"/>
<polygon fill="#63b8ff" stroke="#63b8ff" points="95.73,-18.12 86.19,-22.72 96.52,-25.08 95.73,-18.12"/>
</g>
</g>
</svg>
