<?xml version="1.0" encoding="UTF-8" standalone="no"?>
<!DOCTYPE svg PUBLIC "-//W3C//DTD SVG 1.1//EN"
 "http://www.w3.org/Graphics/SVG/1.1/DTD/svg11.dtd">
<!-- Generated by graphviz version 2.43.0 (0)
 -->
<!-- Title: lib/population/include/genixx/population/Population.h Pages: 1 -->
<svg width="687pt" height="269pt"
 viewBox="0.00 0.00 686.64 269.00" xmlns="http://www.w3.org/2000/svg" xmlns:xlink="http://www.w3.org/1999/xlink">
<g id="graph0" class="graph" transform="scale(1 1) rotate(0) translate(4 265)">
<title>lib/population/include/genixx/population/Population.h</title>
<!-- Node1 -->
<g id="node1" class="node">
<title>Node1</title>
<g id="a_node1"><a xlink:title=" ">
<polygon fill="#999999" stroke="#666666" points="531.77,-261 360.77,-261 360.77,-231 531.77,-231 531.77,-261"/>
<text text-anchor="start" x="368.77" y="-249" font-family="Helvetica,sans-Serif" font-size="10.00">lib/population/include</text>
<text text-anchor="middle" x="446.27" y="-238" font-family="Helvetica,sans-Serif" font-size="10.00">/genixx/population/Population.h</text>
</a>
</g>
</g>
<!-- Node2 -->
<g id="node2" class="node">
<title>Node2</title>
<g id="a_node2"><a xlink:href="Individual_8h.html" target="_top" xlink:title=" ">
<polygon fill="white" stroke="#666666" points="440.27,-189.5 276.27,-189.5 276.27,-170.5 440.27,-170.5 440.27,-189.5"/>
<text text-anchor="middle" x="358.27" y="-177.5" font-family="Helvetica,sans-Serif" font-size="10.00">genixx/population/Individual.h</text>
</a>
</g>
</g>
<!-- Node1&#45;&gt;Node2 -->
<g id="edge1" class="edge">
<title>Node1&#45;&gt;Node2</title>
<path fill="none" stroke="#63b8ff" d="M426.74,-230.8C412.4,-220.37 392.98,-206.24 378.48,-195.69"/>
<polygon fill="#63b8ff" stroke="#63b8ff" points="380.32,-192.71 370.18,-189.66 376.21,-198.37 380.32,-192.71"/>
</g>
<!-- Node8 -->
<g id="node8" class="node">
<title>Node8</title>
<g id="a_node8"><a xlink:title=" ">
<polygon fill="#e0e0e0" stroke="#999999" points="448.27,-19 398.27,-19 398.27,0 448.27,0 448.27,-19"/>
<text text-anchor="middle" x="423.27" y="-7" font-family="Helvetica,sans-Serif" font-size="10.00">cstdint</text>
</a>
</g>
</g>
<!-- Node1&#45;&gt;Node8 -->
<g id="edge24" class="edge">
<title>Node1&#45;&gt;Node8</title>
<path fill="none" stroke="#63b8ff" d="M523.52,-230.94C602.34,-212.73 708.13,-175.31 670.27,-110 648.09,-71.73 521.08,-35.08 458.33,-19.01"/>
<polygon fill="#63b8ff" stroke="#63b8ff" points="459.03,-15.58 448.48,-16.52 457.32,-22.36 459.03,-15.58"/>
</g>
<!-- Node11 -->
<g id="node11" class="node">
<title>Node11</title>
<g id="a_node11"><a xlink:title=" ">
<polygon fill="#e0e0e0" stroke="#999999" points="60.77,-74 13.77,-74 13.77,-55 60.77,-55 60.77,-74"/>
<text text-anchor="middle" x="37.27" y="-62" font-family="Helvetica,sans-Serif" font-size="10.00">vector</text>
</a>
</g>
</g>
<!-- Node1&#45;&gt;Node11 -->
<g id="edge25" class="edge">
<title>Node1&#45;&gt;Node11</title>
<path fill="none" stroke="#63b8ff" d="M360.43,-237.06C278.55,-225.5 155.81,-197.33 73.27,-129 58.96,-117.15 49.23,-98.04 43.53,-83.88"/>
<polygon fill="#63b8ff" stroke="#63b8ff" points="46.71,-82.38 39.95,-74.21 40.15,-84.81 46.71,-82.38"/>
</g>
<!-- Node15 -->
<g id="node15" class="node">
<title>Node15</title>
<g id="a_node15"><a xlink:href="method_8h.html" target="_top" xlink:title=" ">
<polygon fill="white" stroke="#666666" points="610.27,-195 458.27,-195 458.27,-165 610.27,-165 610.27,-195"/>
<text text-anchor="start" x="466.27" y="-183" font-family="Helvetica,sans-Serif" font-size="10.00">genixx/population/selection</text>
<text text-anchor="middle" x="534.27" y="-172" font-family="Helvetica,sans-Serif" font-size="10.00">/method.h</text>
</a>
</g>
</g>
<!-- Node1&#45;&gt;Node15 -->
<g id="edge19" class="edge">
<title>Node1&#45;&gt;Node15</title>
<path fill="none" stroke="#63b8ff" d="M465.8,-230.8C477.77,-222.1 493.27,-210.82 506.49,-201.2"/>
<polygon fill="#63b8ff" stroke="#63b8ff" points="508.77,-203.88 514.8,-195.16 504.65,-198.22 508.77,-203.88"/>
</g>
<!-- Node3 -->
<g id="node3" class="node">
<title>Node3</title>
<g id="a_node3"><a xlink:href="Chromosome_8h.html" target="_top" xlink:title=" ">
<polygon fill="white" stroke="#666666" points="321.27,-129 127.27,-129 127.27,-110 321.27,-110 321.27,-129"/>
<text text-anchor="middle" x="224.27" y="-117" font-family="Helvetica,sans-Serif" font-size="10.00">genixx/chromosome/Chromosome.h</text>
</a>
</g>
</g>
<!-- Node2&#45;&gt;Node3 -->
<g id="edge2" class="edge">
<title>Node2&#45;&gt;Node3</title>
<path fill="none" stroke="#63b8ff" d="M338.79,-170.49C316.26,-160.66 278.97,-144.38 253.09,-133.08"/>
<polygon fill="#63b8ff" stroke="#63b8ff" points="254.35,-129.81 243.78,-129.02 251.55,-136.23 254.35,-129.81"/>
</g>
<!-- Node6 -->
<g id="node6" class="node">
<title>Node6</title>
<g id="a_node6"><a xlink:title=" ">
<polygon fill="#e0e0e0" stroke="#999999" points="91.27,-19 47.27,-19 47.27,0 91.27,0 91.27,-19"/>
<text text-anchor="middle" x="69.27" y="-7" font-family="Helvetica,sans-Serif" font-size="10.00">string</text>
</a>
</g>
</g>
<!-- Node2&#45;&gt;Node6 -->
<g id="edge16" class="edge">
<title>Node2&#45;&gt;Node6</title>
<path fill="none" stroke="#63b8ff" d="M276.13,-175.52C217.37,-170.47 137.63,-158.27 73.27,-129 32.62,-110.51 -15.42,-94.59 5.27,-55 12.39,-41.39 25.77,-31.1 38.46,-23.87"/>
<polygon fill="#63b8ff" stroke="#63b8ff" points="40.25,-26.88 47.48,-19.13 37,-20.68 40.25,-26.88"/>
</g>
<!-- Node2&#45;&gt;Node8 -->
<g id="edge12" class="edge">
<title>Node2&#45;&gt;Node8</title>
<path fill="none" stroke="#63b8ff" d="M366.03,-170.44C374.22,-160.97 386.93,-144.93 394.27,-129 409.59,-95.78 417.44,-53.44 420.93,-29.41"/>
<polygon fill="#63b8ff" stroke="#63b8ff" points="424.43,-29.58 422.3,-19.21 417.5,-28.65 424.43,-29.58"/>
</g>
<!-- Node10 -->
<g id="node10" class="node">
<title>Node10</title>
<g id="a_node10"><a xlink:title=" ">
<polygon fill="#e0e0e0" stroke="#999999" points="137.27,-74 79.27,-74 79.27,-55 137.27,-55 137.27,-74"/>
<text text-anchor="middle" x="108.27" y="-62" font-family="Helvetica,sans-Serif" font-size="10.00">memory</text>
</a>
</g>
</g>
<!-- Node2&#45;&gt;Node10 -->
<g id="edge15" class="edge">
<title>Node2&#45;&gt;Node10</title>
<path fill="none" stroke="#63b8ff" d="M276.22,-171.81C215.52,-164.74 139.81,-151.62 118.27,-129 107.1,-117.26 105.38,-98.42 105.99,-84.3"/>
<polygon fill="#63b8ff" stroke="#63b8ff" points="109.49,-84.47 106.84,-74.21 102.51,-83.88 109.49,-84.47"/>
</g>
<!-- Node2&#45;&gt;Node11 -->
<g id="edge18" class="edge">
<title>Node2&#45;&gt;Node11</title>
<path fill="none" stroke="#63b8ff" d="M276.08,-174.51C224.37,-168.93 157.59,-156.52 104.27,-129 82.13,-117.57 62.17,-96.6 49.91,-81.9"/>
<polygon fill="#63b8ff" stroke="#63b8ff" points="52.62,-79.68 43.62,-74.08 47.16,-84.07 52.62,-79.68"/>
</g>
<!-- Node12 -->
<g id="node12" class="node">
<title>Node12</title>
<g id="a_node12"><a xlink:title=" ">
<polygon fill="#e0e0e0" stroke="#999999" points="562.77,-129 497.77,-129 497.77,-110 562.77,-110 562.77,-129"/>
<text text-anchor="middle" x="530.27" y="-117" font-family="Helvetica,sans-Serif" font-size="10.00">functional</text>
</a>
</g>
</g>
<!-- Node2&#45;&gt;Node12 -->
<g id="edge13" class="edge">
<title>Node2&#45;&gt;Node12</title>
<path fill="none" stroke="#63b8ff" d="M383.28,-170.49C412.84,-160.44 462.19,-143.66 495.46,-132.34"/>
<polygon fill="#63b8ff" stroke="#63b8ff" points="496.89,-135.55 505.23,-129.02 494.64,-128.92 496.89,-135.55"/>
</g>
<!-- Node13 -->
<g id="node13" class="node">
<title>Node13</title>
<g id="a_node13"><a xlink:title=" ">
<polygon fill="#e0e0e0" stroke="#999999" points="479.27,-129 441.27,-129 441.27,-110 479.27,-110 479.27,-129"/>
<text text-anchor="middle" x="460.27" y="-117" font-family="Helvetica,sans-Serif" font-size="10.00">map</text>
</a>
</g>
</g>
<!-- Node2&#45;&gt;Node13 -->
<g id="edge14" class="edge">
<title>Node2&#45;&gt;Node13</title>
<path fill="none" stroke="#63b8ff" d="M373.32,-170.37C389.9,-160.86 416.77,-145.45 436.26,-134.27"/>
<polygon fill="#63b8ff" stroke="#63b8ff" points="438.23,-137.18 445.16,-129.17 434.75,-131.11 438.23,-137.18"/>
</g>
<!-- Node14 -->
<g id="node14" class="node">
<title>Node14</title>
<g id="a_node14"><a xlink:title=" ">
<polygon fill="#e0e0e0" stroke="#999999" points="384.77,-129 339.77,-129 339.77,-110 384.77,-110 384.77,-129"/>
<text text-anchor="middle" x="362.27" y="-117" font-family="Helvetica,sans-Serif" font-size="10.00">utility</text>
</a>
</g>
</g>
<!-- Node2&#45;&gt;Node14 -->
<g id="edge17" class="edge">
<title>Node2&#45;&gt;Node14</title>
<path fill="none" stroke="#63b8ff" d="M358.86,-170.37C359.42,-162.25 360.27,-149.81 360.98,-139.39"/>
<polygon fill="#63b8ff" stroke="#63b8ff" points="364.49,-139.38 361.68,-129.17 357.51,-138.91 364.49,-139.38"/>
</g>
<!-- Node4 -->
<g id="node4" class="node">
<title>Node4</title>
<g id="a_node4"><a xlink:href="exceptions_8h.html" target="_top" xlink:title=" ">
<polygon fill="white" stroke="#666666" points="296.77,-74 155.77,-74 155.77,-55 296.77,-55 296.77,-74"/>
<text text-anchor="middle" x="226.27" y="-62" font-family="Helvetica,sans-Serif" font-size="10.00">genixx/error/exceptions.h</text>
</a>
</g>
</g>
<!-- Node3&#45;&gt;Node4 -->
<g id="edge3" class="edge">
<title>Node3&#45;&gt;Node4</title>
<path fill="none" stroke="#63b8ff" d="M224.6,-109.75C224.87,-102.8 225.24,-92.85 225.57,-84.13"/>
<polygon fill="#63b8ff" stroke="#63b8ff" points="229.07,-84.21 225.95,-74.09 222.07,-83.95 229.07,-84.21"/>
</g>
<!-- Node7 -->
<g id="node7" class="node">
<title>Node7</title>
<g id="a_node7"><a xlink:href="random_8h.html" target="_top" xlink:title=" ">
<polygon fill="white" stroke="#666666" points="564.77,-74 441.77,-74 441.77,-55 564.77,-55 564.77,-74"/>
<text text-anchor="middle" x="503.27" y="-62" font-family="Helvetica,sans-Serif" font-size="10.00">genixx/utils/random.h</text>
</a>
</g>
</g>
<!-- Node3&#45;&gt;Node7 -->
<g id="edge6" class="edge">
<title>Node3&#45;&gt;Node7</title>
<path fill="none" stroke="#63b8ff" d="M269.1,-109.98C317.77,-100.74 395.54,-85.97 447.96,-76.01"/>
<polygon fill="#63b8ff" stroke="#63b8ff" points="448.92,-79.39 458.1,-74.08 447.62,-72.51 448.92,-79.39"/>
</g>
<!-- Node3&#45;&gt;Node8 -->
<g id="edge9" class="edge">
<title>Node3&#45;&gt;Node8</title>
<path fill="none" stroke="#63b8ff" d="M240.22,-109.84C274.88,-91.04 357.25,-46.33 398.64,-23.87"/>
<polygon fill="#63b8ff" stroke="#63b8ff" points="400.41,-26.89 407.52,-19.05 397.07,-20.74 400.41,-26.89"/>
</g>
<!-- Node3&#45;&gt;Node10 -->
<g id="edge10" class="edge">
<title>Node3&#45;&gt;Node10</title>
<path fill="none" stroke="#63b8ff" d="M205.64,-109.98C186.98,-101.46 158.02,-88.23 136.53,-78.41"/>
<polygon fill="#63b8ff" stroke="#63b8ff" points="137.8,-75.14 127.25,-74.17 134.89,-81.51 137.8,-75.14"/>
</g>
<!-- Node3&#45;&gt;Node11 -->
<g id="edge11" class="edge">
<title>Node3&#45;&gt;Node11</title>
<path fill="none" stroke="#63b8ff" d="M194.23,-109.98C160.49,-100.42 105.89,-84.95 70.8,-75"/>
<polygon fill="#63b8ff" stroke="#63b8ff" points="71.59,-71.59 61.01,-72.23 69.68,-78.32 71.59,-71.59"/>
</g>
<!-- Node5 -->
<g id="node5" class="node">
<title>Node5</title>
<g id="a_node5"><a xlink:title=" ">
<polygon fill="#e0e0e0" stroke="#999999" points="258.77,-19 193.77,-19 193.77,0 258.77,0 258.77,-19"/>
<text text-anchor="middle" x="226.27" y="-7" font-family="Helvetica,sans-Serif" font-size="10.00">exception</text>
</a>
</g>
</g>
<!-- Node4&#45;&gt;Node5 -->
<g id="edge4" class="edge">
<title>Node4&#45;&gt;Node5</title>
<path fill="none" stroke="#63b8ff" d="M226.27,-54.75C226.27,-47.8 226.27,-37.85 226.27,-29.13"/>
<polygon fill="#63b8ff" stroke="#63b8ff" points="229.77,-29.09 226.27,-19.09 222.77,-29.09 229.77,-29.09"/>
</g>
<!-- Node4&#45;&gt;Node6 -->
<g id="edge5" class="edge">
<title>Node4&#45;&gt;Node6</title>
<path fill="none" stroke="#63b8ff" d="M201.05,-54.98C173.91,-45.82 130.69,-31.23 101.2,-21.28"/>
<polygon fill="#63b8ff" stroke="#63b8ff" points="101.98,-17.85 91.39,-17.97 99.75,-24.48 101.98,-17.85"/>
</g>
<!-- Node7&#45;&gt;Node8 -->
<g id="edge7" class="edge">
<title>Node7&#45;&gt;Node8</title>
<path fill="none" stroke="#63b8ff" d="M490.42,-54.98C478.13,-46.84 459.37,-34.41 444.8,-24.76"/>
<polygon fill="#63b8ff" stroke="#63b8ff" points="446.63,-21.78 436.36,-19.17 442.76,-27.61 446.63,-21.78"/>
</g>
<!-- Node9 -->
<g id="node9" class="node">
<title>Node9</title>
<g id="a_node9"><a xlink:title=" ">
<polygon fill="#e0e0e0" stroke="#999999" points="530.27,-19 476.27,-19 476.27,0 530.27,0 530.27,-19"/>
<text text-anchor="middle" x="503.27" y="-7" font-family="Helvetica,sans-Serif" font-size="10.00">random</text>
</a>
</g>
</g>
<!-- Node7&#45;&gt;Node9 -->
<g id="edge8" class="edge">
<title>Node7&#45;&gt;Node9</title>
<path fill="none" stroke="#63b8ff" d="M503.27,-54.75C503.27,-47.8 503.27,-37.85 503.27,-29.13"/>
<polygon fill="#63b8ff" stroke="#63b8ff" points="506.77,-29.09 503.27,-19.09 499.77,-29.09 506.77,-29.09"/>
</g>
<!-- Node15&#45;&gt;Node7 -->
<g id="edge20" class="edge">
<title>Node15&#45;&gt;Node7</title>
<path fill="none" stroke="#63b8ff" d="M601.56,-164.98C638.76,-154.01 673.85,-136.17 654.27,-110 635.82,-85.32 604.33,-73.75 574.86,-68.53"/>
<polygon fill="#63b8ff" stroke="#63b8ff" points="575.39,-65.07 564.97,-66.99 574.32,-71.98 575.39,-65.07"/>
</g>
<!-- Node15&#45;&gt;Node12 -->
<g id="edge22" class="edge">
<title>Node15&#45;&gt;Node12</title>
<path fill="none" stroke="#63b8ff" d="M533.3,-164.84C532.78,-157.21 532.13,-147.7 531.57,-139.45"/>
<polygon fill="#63b8ff" stroke="#63b8ff" points="535.05,-139 530.87,-129.27 528.06,-139.48 535.05,-139"/>
</g>
<!-- Node15&#45;&gt;Node13 -->
<g id="edge23" class="edge">
<title>Node15&#45;&gt;Node13</title>
<path fill="none" stroke="#63b8ff" d="M516.36,-164.84C505.18,-156 490.8,-144.63 479.4,-135.62"/>
<polygon fill="#63b8ff" stroke="#63b8ff" points="481.38,-132.72 471.36,-129.27 477.04,-138.21 481.38,-132.72"/>
</g>
<!-- Node16 -->
<g id="node16" class="node">
<title>Node16</title>
<g id="a_node16"><a xlink:title=" ">
<polygon fill="#e0e0e0" stroke="#999999" points="645.27,-129 581.27,-129 581.27,-110 645.27,-110 645.27,-129"/>
<text text-anchor="middle" x="613.27" y="-117" font-family="Helvetica,sans-Serif" font-size="10.00">algorithm</text>
</a>
</g>
</g>
<!-- Node15&#45;&gt;Node16 -->
<g id="edge21" class="edge">
<title>Node15&#45;&gt;Node16</title>
<path fill="none" stroke="#63b8ff" d="M553.4,-164.84C565.45,-155.91 580.99,-144.41 593.21,-135.35"/>
<polygon fill="#63b8ff" stroke="#63b8ff" points="595.48,-138.03 601.44,-129.27 591.32,-132.4 595.48,-138.03"/>
</g>
</g>
</svg>
