<?xml version="1.0" encoding="UTF-8" standalone="no"?>
<!DOCTYPE svg PUBLIC "-//W3C//DTD SVG 1.1//EN"
 "http://www.w3.org/Graphics/SVG/1.1/DTD/svg11.dtd">
<!-- Generated by graphviz version 2.43.0 (0)
 -->
<!-- Title: lib/utils/include/genixx/utils/random.h Pages: 1 -->
<svg width="399pt" height="302pt"
 viewBox="0.00 0.00 399.00 302.00" xmlns="http://www.w3.org/2000/svg" xmlns:xlink="http://www.w3.org/1999/xlink">
<g id="graph0" class="graph" transform="scale(1 1) rotate(0) translate(4 298)">
<title>lib/utils/include/genixx/utils/random.h</title>
<!-- Node1 -->
<g id="node1" class="node">
<title>Node1</title>
<g id="a_node1"><a xlink:title=" ">
<polygon fill="#999999" stroke="#666666" points="214,-294 87,-294 87,-264 214,-264 214,-294"/>
<text text-anchor="start" x="95" y="-282" font-family="Helvetica,sans-Serif" font-size="10.00">lib/utils/include/genixx</text>
<text text-anchor="middle" x="150.5" y="-271" font-family="Helvetica,sans-Serif" font-size="10.00">/utils/random.h</text>
</a>
</g>
</g>
<!-- Node2 -->
<g id="node2" class="node">
<title>Node2</title>
<g id="a_node2"><a xlink:href="Chromosome_8h.html" target="_top" xlink:title=" ">
<polygon fill="white" stroke="#666666" points="249,-228 52,-228 52,-198 249,-198 249,-228"/>
<text text-anchor="start" x="60" y="-216" font-family="Helvetica,sans-Serif" font-size="10.00">lib/chromosome/include</text>
<text text-anchor="middle" x="150.5" y="-205" font-family="Helvetica,sans-Serif" font-size="10.00">/genixx/chromosome/Chromosome.h</text>
</a>
</g>
</g>
<!-- Node1&#45;&gt;Node2 -->
<g id="edge1" class="edge">
<title>Node1&#45;&gt;Node2</title>
<path fill="none" stroke="#63b8ff" d="M150.5,-253.54C150.5,-244.96 150.5,-235.61 150.5,-228.16"/>
<polygon fill="#63b8ff" stroke="#63b8ff" points="147,-253.8 150.5,-263.8 154,-253.8 147,-253.8"/>
</g>
<!-- Node4 -->
<g id="node4" class="node">
<title>Node4</title>
<g id="a_node4"><a xlink:href="Individual_8cpp.html" target="_top" xlink:title=" ">
<polygon fill="white" stroke="#666666" points="155,-79.5 0,-79.5 0,-60.5 155,-60.5 155,-79.5"/>
<text text-anchor="middle" x="77.5" y="-67.5" font-family="Helvetica,sans-Serif" font-size="10.00">lib/population/Individual.cpp</text>
</a>
</g>
</g>
<!-- Node1&#45;&gt;Node4 -->
<g id="edge6" class="edge">
<title>Node1&#45;&gt;Node4</title>
<path fill="none" stroke="#63b8ff" d="M81.2,-259.68C65.98,-252.34 51.68,-242.13 42.5,-228 16.59,-188.12 26.9,-166.26 41.5,-121 46.82,-104.51 59.82,-88.87 68.65,-79.6"/>
<polygon fill="#63b8ff" stroke="#63b8ff" points="80.19,-263.06 90.75,-263.89 83.01,-256.65 80.19,-263.06"/>
</g>
<!-- Node7 -->
<g id="node7" class="node">
<title>Node7</title>
<g id="a_node7"><a xlink:href="method_8h.html" target="_top" xlink:title=" ">
<polygon fill="white" stroke="#666666" points="391,-162 236,-162 236,-121 391,-121 391,-162"/>
<text text-anchor="start" x="244" y="-150" font-family="Helvetica,sans-Serif" font-size="10.00">lib/population/include</text>
<text text-anchor="start" x="244" y="-139" font-family="Helvetica,sans-Serif" font-size="10.00">/genixx/population/selection</text>
<text text-anchor="middle" x="313.5" y="-128" font-family="Helvetica,sans-Serif" font-size="10.00">/method.h</text>
</a>
</g>
</g>
<!-- Node1&#45;&gt;Node7 -->
<g id="edge7" class="edge">
<title>Node1&#45;&gt;Node7</title>
<path fill="none" stroke="#63b8ff" d="M204.54,-260.06C223.01,-252.18 242.91,-241.58 258.5,-228 279.66,-209.57 295.76,-181.05 304.91,-162.09"/>
<polygon fill="#63b8ff" stroke="#63b8ff" points="202.99,-256.91 195.05,-263.93 205.63,-263.39 202.99,-256.91"/>
</g>
<!-- Node3 -->
<g id="node3" class="node">
<title>Node3</title>
<g id="a_node3"><a xlink:href="Individual_8h.html" target="_top" xlink:title=" ">
<polygon fill="white" stroke="#666666" points="218,-156.5 51,-156.5 51,-126.5 218,-126.5 218,-156.5"/>
<text text-anchor="start" x="59" y="-144.5" font-family="Helvetica,sans-Serif" font-size="10.00">lib/population/include</text>
<text text-anchor="middle" x="134.5" y="-133.5" font-family="Helvetica,sans-Serif" font-size="10.00">/genixx/population/Individual.h</text>
</a>
</g>
</g>
<!-- Node2&#45;&gt;Node3 -->
<g id="edge2" class="edge">
<title>Node2&#45;&gt;Node3</title>
<path fill="none" stroke="#63b8ff" d="M144.99,-188.08C142.57,-177.56 139.81,-165.58 137.73,-156.54"/>
<polygon fill="#63b8ff" stroke="#63b8ff" points="141.61,-188.98 147.26,-197.94 148.43,-187.41 141.61,-188.98"/>
</g>
<!-- Node3&#45;&gt;Node4 -->
<g id="edge3" class="edge">
<title>Node3&#45;&gt;Node4</title>
<path fill="none" stroke="#63b8ff" d="M116.62,-118.7C105.83,-105.54 92.66,-89.49 84.69,-79.77"/>
<polygon fill="#63b8ff" stroke="#63b8ff" points="113.92,-120.92 122.97,-126.44 119.33,-116.48 113.92,-120.92"/>
</g>
<!-- Node5 -->
<g id="node5" class="node">
<title>Node5</title>
<g id="a_node5"><a xlink:href="Population_8h.html" target="_top" xlink:title=" ">
<polygon fill="white" stroke="#666666" points="371,-85 200,-85 200,-55 371,-55 371,-85"/>
<text text-anchor="start" x="208" y="-73" font-family="Helvetica,sans-Serif" font-size="10.00">lib/population/include</text>
<text text-anchor="middle" x="285.5" y="-62" font-family="Helvetica,sans-Serif" font-size="10.00">/genixx/population/Population.h</text>
</a>
</g>
</g>
<!-- Node3&#45;&gt;Node5 -->
<g id="edge4" class="edge">
<title>Node3&#45;&gt;Node5</title>
<path fill="none" stroke="#63b8ff" d="M174.36,-122.15C199.62,-110.53 231.77,-95.73 254.99,-85.04"/>
<polygon fill="#63b8ff" stroke="#63b8ff" points="172.68,-119.08 165.06,-126.44 175.6,-125.43 172.68,-119.08"/>
</g>
<!-- Node6 -->
<g id="node6" class="node">
<title>Node6</title>
<g id="a_node6"><a xlink:href="Population_8cpp.html" target="_top" xlink:title=" ">
<polygon fill="white" stroke="#666666" points="364.5,-19 206.5,-19 206.5,0 364.5,0 364.5,-19"/>
<text text-anchor="middle" x="285.5" y="-7" font-family="Helvetica,sans-Serif" font-size="10.00">lib/population/Population.cpp</text>
</a>
</g>
</g>
<!-- Node5&#45;&gt;Node6 -->
<g id="edge5" class="edge">
<title>Node5&#45;&gt;Node6</title>
<path fill="none" stroke="#63b8ff" d="M285.5,-44.75C285.5,-35.72 285.5,-26.03 285.5,-19.27"/>
<polygon fill="#63b8ff" stroke="#63b8ff" points="282,-44.84 285.5,-54.84 289,-44.84 282,-44.84"/>
</g>
<!-- Node7&#45;&gt;Node5 -->
<g id="edge8" class="edge">
<title>Node7&#45;&gt;Node5</title>
<path fill="none" stroke="#63b8ff" d="M301.71,-111.24C298.06,-102.17 294.19,-92.58 291.16,-85.04"/>
<polygon fill="#63b8ff" stroke="#63b8ff" points="298.57,-112.8 305.55,-120.77 305.06,-110.19 298.57,-112.8"/>
</g>
</g>
</svg>
